<svg width="425" height="112" viewBox="0 0 425 112" fill="none" xmlns="http://www.w3.org/2000/svg">
<path fill-rule="evenodd" clip-rule="evenodd" d="M7.57109 26.0948C6.89088 26.2942 6.52143 27.062 6.38426 28.5611C6.33548 29.0938 6.23193 29.7341 6.15403 29.9839C6.07623 30.2338 5.97136 30.8939 5.92108 31.4508C5.87081 32.0078 5.7871 32.6078 5.73495 32.7843C5.6828 32.9608 5.59629 33.4503 5.54273 33.8719C5.48918 34.2936 5.36325 34.9744 5.26279 35.3846C5.16232 35.795 5.07909 36.3163 5.07787 36.5432C5.07656 36.7701 5.01149 37.2445 4.93321 37.5975C4.85494 37.9505 4.7513 38.59 4.70289 39.0186C4.60842 39.8542 4.36246 41.2379 3.99384 43.0067C3.86782 43.6117 3.76586 44.2925 3.76736 44.5194C3.77035 44.9752 3.49836 46.5154 3.15082 48.0107C3.01758 48.5841 2.92536 49.2704 2.92536 49.6891C2.92536 50.0787 2.84409 50.7974 2.74466 51.2861C2.64532 51.7748 2.53765 52.4064 2.50544 52.6896C2.47323 52.9728 2.3855 53.4266 2.31041 53.6981C2.23542 53.9695 2.13392 54.5836 2.08486 55.0626C2.0358 55.5417 1.90996 56.2599 1.80519 56.6588C1.70033 57.0576 1.61391 57.6145 1.61307 57.8965C1.61232 58.1783 1.52806 58.7969 1.42581 59.2709C1.32367 59.745 1.24034 60.2607 1.24071 60.4169C1.24099 60.5732 1.17208 61.0549 1.08744 61.4874C0.904867 62.4205 0.989319 62.7093 1.52103 62.9704C1.8316 63.1229 3.37983 63.1301 31.2479 63.1079C59.5965 63.0855 60.6655 63.0786 61.162 62.9146C61.4452 62.8211 62.3511 62.4224 63.175 62.0286C64.9525 61.179 66.16 60.337 67.3954 59.086C68.4369 58.0314 68.6655 57.7058 69.5416 56.0286C70.2458 54.6803 70.6053 53.6945 71.0447 51.9069C71.2737 50.9754 71.2887 50.7868 71.2589 49.2023L71.2269 47.499L70.7305 46.4917C70.2673 45.5515 70.1645 45.4168 69.1858 44.4685C68.2025 43.5158 68.0646 43.4172 66.967 42.884C66.0756 42.451 65.4841 42.2376 64.4858 41.9888C63.2191 41.6732 63.0931 41.6596 60.7407 41.584C59.083 41.5307 58.1272 41.4605 57.7446 41.3637C57.2503 41.2388 55.6197 41.222 44.1685 41.2236C37.0107 41.2246 30.7511 41.2607 30.2583 41.3039C28.9363 41.4197 28.56 41.6392 26.7069 43.3765C26.3207 43.7385 25.6887 44.2775 25.3025 44.5741C24.9163 44.8707 24.2211 45.4587 23.7576 45.8807C23.2941 46.3027 22.5923 46.89 22.198 47.1857C21.4251 47.7655 21.058 48.1547 21.1488 48.2984C21.18 48.348 21.3586 48.4567 21.5454 48.5398C21.8544 48.6772 23.1309 48.695 35.6952 48.7367L49.5053 48.7825L49.9502 48.9971C50.8663 49.4389 51.2033 50.1781 51.1224 51.5687C51.0653 52.5481 50.8215 53.0633 50.0164 53.9061C49.5606 54.3833 49.3095 54.5583 48.7287 54.8036L48.0073 55.1085H34.0401H20.0731L19.8087 54.9163C19.3716 54.5987 19.274 54.1472 19.4544 53.2777C19.5384 52.8727 19.6639 52.2114 19.7334 51.808C19.8029 51.4046 19.9467 50.6855 20.0531 50.2101C20.1595 49.7345 20.2466 49.3163 20.2466 49.2806C20.2466 49.2449 20.395 49.0042 20.5766 48.7458L20.9066 48.276L20.704 47.6229C20.534 47.0746 20.5105 46.8356 20.5581 46.1342C20.5891 45.6747 20.6773 45.0718 20.754 44.7944C20.8307 44.5171 20.9579 43.8983 21.0369 43.4192C21.1157 42.9402 21.2431 42.2801 21.32 41.9523C21.397 41.6246 21.4607 41.1588 21.4618 40.9171C21.4629 40.6754 21.5262 40.1803 21.6025 39.8169C21.8452 38.6612 22.1232 37.0781 22.2565 36.0931C22.4011 35.0242 22.5564 34.7286 23.0642 34.5543C23.3073 34.4709 28.1912 34.4435 43.6068 34.4392C57.3725 34.4354 63.943 34.4029 64.1829 34.3376C64.4673 34.2604 65.1396 33.6516 67.6583 31.1912C69.3758 29.5134 70.9757 27.9846 71.2134 27.7938C72.0833 27.0958 72.2535 26.4565 71.6484 26.1606C71.3383 26.0088 69.6203 26.0007 39.5808 26.008C22.0913 26.0122 7.71977 26.0512 7.57109 26.0948ZM83.6322 26.0844C83.5031 26.1234 83.2714 26.2224 83.1172 26.3041C82.756 26.4954 79.2993 29.8292 78.3466 30.9049C77.9447 31.3587 77.2435 32.1098 76.7884 32.5741C75.7461 33.6373 75.6304 34.009 76.2453 34.3186C76.4215 34.4073 80.4357 34.4322 94.7852 34.4332C106.288 34.4341 113.279 34.4678 113.582 34.5239C115.023 34.7916 116.663 36.1335 117.339 37.5975C117.478 37.9001 117.729 38.6749 117.895 39.3192C118.197 40.487 118.198 40.4968 118.158 42.3446C118.121 44.0309 118.09 44.3104 117.818 45.4362C117.36 47.3347 117.176 47.8664 116.568 49.0572C115.579 50.9938 115.315 51.3722 114.116 52.572C112.764 53.9243 112.18 54.3243 110.985 54.7183L110.083 55.0156L94.5872 55.062L79.0918 55.1085L78.6809 55.3462C78.4548 55.4769 77.0223 56.7988 75.4975 58.2836C73.9727 59.7685 72.5284 61.1489 72.288 61.3513C71.773 61.785 71.4349 62.3056 71.4775 62.5996C71.4967 62.7318 71.6294 62.869 71.8356 62.9699C72.1452 63.1213 73.5765 63.1302 97.721 63.1303L123.279 63.1305L124.499 62.8427C126.218 62.4371 127.994 61.7042 129.698 60.6979C130.934 59.9675 131.028 59.8983 132.36 58.7298C133.097 58.0838 133.699 57.4506 134.192 56.8046C134.595 56.2751 135.092 55.6287 135.295 55.3681C135.751 54.7825 136.924 52.7847 137.171 52.1706C137.272 51.9207 137.554 51.2831 137.798 50.7537C138.406 49.4333 138.528 49.0704 139.113 46.8238C139.449 45.5354 139.654 44.5314 139.712 43.89C139.76 43.3538 139.864 42.6468 139.944 42.3191C140.043 41.9098 140.088 41.2492 140.089 40.2104C140.09 38.6519 140.026 38.233 139.302 35.0682C139.017 33.825 138.045 31.8016 137.17 30.6326C136.194 29.3291 135.345 28.5261 134.051 27.6847C132.891 26.9301 132.204 26.6141 130.945 26.2561L130.213 26.048L107.04 26.0306C94.2947 26.021 83.7612 26.0452 83.6322 26.0844ZM148.013 26.0939C147.726 26.1792 147.34 26.4915 147.193 26.7581C147.144 26.8474 147.065 27.26 147.017 27.675C146.969 28.09 146.847 28.7802 146.746 29.2088C146.464 30.4067 146.191 32.0181 146.134 32.8301C146.105 33.2335 145.999 33.9968 145.896 34.5262C145.492 36.6217 145.412 37.0749 145.323 37.7809C145.272 38.1843 145.15 38.9681 145.052 39.5228C144.769 41.1257 144.58 42.2923 144.437 43.3175C144.365 43.8416 144.261 44.4192 144.206 44.6011C144.152 44.7831 144.071 45.427 144.028 46.0321C143.984 46.6372 143.883 47.3798 143.803 47.6824C143.723 47.9849 143.593 48.6244 143.514 49.1034C143.435 49.5824 143.307 50.2425 143.23 50.5703C143.153 50.898 143.09 51.3622 143.089 51.6019C143.087 51.8414 143.005 52.4603 142.905 52.9771C142.685 54.1127 142.47 55.4185 142.288 56.7129C142.214 57.2423 142.106 57.8612 142.049 58.0881C141.992 58.315 141.911 58.8763 141.87 59.3354C141.829 59.7945 141.702 60.5659 141.588 61.0496C141.402 61.8384 141.394 61.9689 141.508 62.3154C141.579 62.532 141.751 62.7857 141.9 62.8931C142.163 63.0842 142.189 63.0847 152.012 63.1081C161.246 63.1301 161.879 63.1215 162.18 62.9706C162.71 62.7046 162.861 62.4148 162.94 61.509C163.01 60.7056 163.121 60.0535 163.546 57.9506C163.668 57.3455 163.786 56.4585 163.809 55.9794C163.832 55.5004 163.916 54.8403 163.996 54.5125C164.421 52.7765 164.621 51.7047 164.625 51.1466C164.627 50.8044 164.666 50.3594 164.712 50.1577C165.25 47.7578 165.394 46.9706 165.467 46.0321C165.514 45.427 165.617 44.7276 165.696 44.4779C165.776 44.2281 165.884 43.6519 165.936 43.1974C166.039 42.3059 166.221 41.8948 166.603 41.6848C167.09 41.4169 167.547 41.8381 169.443 44.3002C170.544 45.7299 170.995 46.2873 171.626 46.9948C172.008 47.4234 172.713 48.3104 173.194 48.9659C173.674 49.6214 174.433 50.5497 174.881 51.0287C175.329 51.5077 175.934 52.2091 176.225 52.5873C176.517 52.9654 176.946 53.5224 177.179 53.8249C177.412 54.1275 177.787 54.6226 178.011 54.9251C178.813 56.0031 179.332 56.4378 179.818 56.4378C180.14 56.4378 180.649 56.0761 181.615 55.1614C182.078 54.7222 182.752 54.1345 183.113 53.8556C183.473 53.5766 184.421 52.7377 185.219 51.9913C186.017 51.245 186.965 50.4047 187.326 50.124C187.686 49.8434 188.676 48.9564 189.526 48.153C191.005 46.7542 192.925 45.041 194.02 44.1416C194.303 43.909 195.006 43.2814 195.582 42.7471C196.158 42.2127 196.735 41.7496 196.863 41.7181C197.226 41.629 197.489 41.7582 197.633 42.0957C197.821 42.5354 197.798 42.9695 197.532 44.0153C197.404 44.5195 197.298 45.0351 197.297 45.1611C197.295 45.2872 197.23 45.6791 197.152 46.0321C197.074 46.3851 196.968 46.9994 196.915 47.3973C196.863 47.7953 196.738 48.4554 196.638 48.8642C196.538 49.2731 196.455 49.7933 196.454 50.0202C196.453 50.2471 196.372 50.8041 196.275 51.2579C196.178 51.7117 196.07 52.4543 196.034 52.9081C195.999 53.362 195.889 54.1214 195.791 54.5959C195.692 55.0703 195.612 55.5655 195.612 55.6963C195.612 55.8271 195.507 56.3465 195.379 56.8506C195.251 57.3547 195.145 58.0147 195.143 58.3173C195.142 58.6198 195.056 59.2593 194.953 59.7383C194.85 60.2174 194.74 61.0219 194.709 61.5261C194.658 62.3741 194.669 62.4616 194.857 62.6928C194.969 62.8302 195.216 62.9869 195.406 63.0409C195.645 63.1088 198.674 63.1308 205.179 63.1119C214.578 63.0847 214.606 63.0841 214.869 62.8927C215.235 62.6272 215.513 62.1109 215.649 61.4464C215.712 61.1373 215.864 60.4438 215.987 59.9054C216.11 59.3669 216.211 58.6862 216.212 58.3926C216.213 58.0991 216.276 57.5907 216.353 57.263C216.429 56.9352 216.576 56.1767 216.681 55.5774C216.785 54.9781 216.894 54.4492 216.924 54.4022C216.954 54.355 217.01 53.8346 217.05 53.2456C217.089 52.6566 217.21 51.7621 217.318 51.2579C217.652 49.702 217.81 48.8222 217.941 47.7888C218.01 47.2422 218.133 46.4377 218.215 46.001C218.386 45.0888 218.573 43.9651 218.831 42.2927C218.931 41.6479 219.036 41.0822 219.066 41.0356C219.095 40.989 219.158 40.5264 219.205 40.0076C219.252 39.4889 219.376 38.7137 219.481 38.2851C219.587 37.8565 219.674 37.2996 219.676 37.0474C219.677 36.7953 219.74 36.3209 219.816 35.9931C219.892 35.6654 220.017 34.9041 220.094 34.3016C220.172 33.699 220.298 32.8945 220.374 32.5138C220.781 30.4952 220.899 29.8137 220.986 28.973C221.039 28.4651 221.124 27.9084 221.174 27.7358C221.423 26.8862 221.186 26.2743 220.535 26.0892C220.296 26.0212 217.355 25.9993 211.014 26.0183C202.329 26.0443 201.82 26.0548 201.492 26.2142C201.007 26.4505 199.472 27.768 198.53 28.7568C198.094 29.2146 197.332 29.9108 196.838 30.3038C196.344 30.6968 195.329 31.5856 194.582 32.2788C193.835 32.972 192.93 33.7696 192.569 34.0512C192.209 34.3328 191.113 35.3221 190.135 36.2496C189.156 37.1772 187.968 38.2424 187.494 38.6168C187.02 38.9912 185.861 40.0201 184.919 40.9031C183.977 41.7861 183.02 42.631 182.792 42.7806C182.238 43.1449 181.723 43.1518 181.315 42.8004C180.931 42.4683 179.306 40.5474 178.194 39.1102C177.707 38.4799 176.992 37.5896 176.605 37.1317C176.219 36.6738 175.645 35.9506 175.328 35.5244C175.012 35.0983 174.464 34.421 174.111 34.0191C173.758 33.6173 173.248 32.991 172.979 32.6274C172.709 32.2637 172.235 31.6919 171.925 31.3566C171.614 31.0212 170.849 30.081 170.225 29.2673C168.735 27.3274 168.028 26.5263 167.57 26.2621L167.196 26.0458L157.739 26.0298C152.538 26.0211 148.162 26.0499 148.013 26.0939ZM227.68 26.174C227.193 26.3945 227.085 26.5905 226.974 27.4469C226.924 27.836 226.822 28.4639 226.748 28.842C226.675 29.2202 226.571 29.8391 226.519 30.2172C226.466 30.5954 226.358 31.1305 226.279 31.4062C226.2 31.6818 226.133 32.2594 226.131 32.6897C226.127 33.4667 226.099 33.6574 225.823 34.8013C225.592 35.7596 225.306 37.4502 225.249 38.1934C225.221 38.5716 225.113 39.1877 225.011 39.5624C224.908 39.9372 224.823 40.4529 224.822 40.7084C224.821 40.964 224.757 41.4618 224.679 41.8148C224.601 42.1678 224.494 42.7821 224.442 43.18C224.39 43.578 224.265 44.2381 224.165 44.6469C224.064 45.0558 223.982 45.6379 223.98 45.9404C223.979 46.243 223.874 46.9237 223.747 47.4532C223.62 47.9826 223.515 48.5808 223.513 48.7825C223.511 48.9842 223.446 49.438 223.367 49.791C223.288 50.144 223.185 50.7833 223.138 51.2117C223.09 51.6401 222.969 52.3415 222.867 52.7702C222.572 54.0163 222.31 55.5934 222.253 56.4659C222.224 56.91 222.117 57.6418 222.014 58.0923C221.912 58.5427 221.827 59.087 221.826 59.3018C221.826 59.5167 221.741 60.0804 221.639 60.5545C221.415 61.5929 221.403 62.2197 221.6 62.5922C221.896 63.1525 221.472 63.1305 231.964 63.1305H241.544L241.961 62.9242C242.571 62.6234 242.797 62.1643 242.898 61.0268C242.942 60.5284 243.04 59.88 243.115 59.5857C243.19 59.2915 243.276 58.8444 243.307 58.5923C243.338 58.3402 243.446 57.6801 243.547 57.1254C243.648 56.5708 243.773 55.8075 243.825 55.4293C243.878 55.0512 243.983 54.4736 244.061 54.1458C244.138 53.8181 244.202 53.2561 244.203 52.897C244.205 52.2799 244.581 50.166 244.901 48.9695C244.982 48.669 245.048 48.1327 245.049 47.7777C245.05 47.4227 245.129 46.761 245.225 46.3072C245.322 45.8533 245.429 45.2504 245.463 44.9671C245.498 44.6839 245.588 44.2301 245.663 43.9587C245.739 43.6872 245.842 43.0319 245.892 42.5024C245.943 41.973 246.049 41.3335 246.127 41.0814C246.206 40.8293 246.292 40.3135 246.318 39.9354C246.344 39.5572 246.447 38.7733 246.546 38.1934C246.645 37.6136 246.774 36.8397 246.832 36.4738C246.954 35.7016 247.322 34.9372 247.699 34.6684C247.963 34.481 248.006 34.4804 260.73 34.4804H273.497L273.761 34.6725C274.234 35.0164 274.304 35.4291 274.085 36.589C273.98 37.1437 273.871 37.9276 273.843 38.331C273.815 38.7344 273.707 39.3711 273.604 39.7458C273.501 40.1206 273.416 40.595 273.415 40.8001C273.414 41.0053 273.35 41.4618 273.272 41.8148C273.194 42.1678 273.087 42.7821 273.035 43.18C272.983 43.578 272.858 44.2381 272.758 44.6469C272.651 45.084 272.574 45.7303 272.571 46.2155C272.568 46.6693 272.53 47.2056 272.485 47.4073C271.936 49.9027 271.732 50.959 271.731 51.3037C271.73 51.5306 271.625 52.1288 271.496 52.6329C271.368 53.137 271.263 53.7892 271.263 54.0821C271.263 54.3751 271.182 55.0147 271.083 55.5034C270.983 55.9921 270.876 56.6237 270.844 56.9069C270.811 57.1901 270.723 57.6439 270.646 57.9154C270.57 58.1868 270.468 58.904 270.419 59.5091C270.37 60.1142 270.267 60.8118 270.188 61.0593C270.017 61.6031 270.007 62.2685 270.166 62.5804C270.23 62.7065 270.43 62.8821 270.609 62.9708C270.915 63.1221 271.543 63.1306 280.736 63.1083C290.47 63.0848 290.539 63.0834 290.796 62.8956C291.328 62.5062 291.411 62.3038 291.489 61.1916C291.53 60.6193 291.626 59.9034 291.703 59.6008C291.78 59.2983 291.869 58.8444 291.9 58.5923C291.931 58.3402 292.039 57.6801 292.14 57.1254C292.241 56.5708 292.366 55.8075 292.418 55.4293C292.471 55.0512 292.576 54.4736 292.654 54.1458C292.731 53.8181 292.795 53.2561 292.796 52.897C292.798 52.2799 293.174 50.166 293.494 48.9695C293.575 48.669 293.641 48.2231 293.641 47.9787C293.641 47.7342 293.721 47.1344 293.82 46.6456C293.919 46.157 294.025 45.4683 294.055 45.1153C294.085 44.7623 294.173 44.2466 294.251 43.9693C294.329 43.692 294.433 43.0443 294.481 42.5302C294.529 42.0161 294.632 41.3766 294.71 41.1091C294.788 40.8417 294.897 40.2517 294.952 39.7978C295.008 39.344 295.094 38.8283 295.145 38.6518C295.196 38.4754 295.276 37.914 295.323 37.4043C295.371 36.8948 295.496 36.1547 295.602 35.7598C295.708 35.3649 295.794 34.8225 295.794 34.5546C295.794 34.0427 296.023 32.7605 296.407 31.1174C296.553 30.4947 296.637 29.8573 296.637 29.3672C296.637 28.8964 296.71 28.3173 296.824 27.8794C297.049 27.0157 297.053 26.8955 296.865 26.5383C296.558 25.9571 299.324 25.9998 262.067 26.002C229.147 26.0039 228.042 26.0094 227.68 26.174ZM86.1119 41.384C85.5113 41.5874 85.1661 41.8279 84.2413 42.6873C83.8294 43.0702 83.0921 43.6948 82.6029 44.0754C82.1136 44.4559 81.3334 45.1137 80.869 45.5372C80.4046 45.9607 79.6959 46.5933 79.2941 46.943C78.2179 47.8798 78.0243 48.3598 78.6237 48.605C78.9069 48.721 80.7858 48.7359 92.504 48.715C105.656 48.6916 106.068 48.6856 106.431 48.5145C106.814 48.3343 111.507 43.8642 112.387 42.8415C112.932 42.208 112.989 41.8656 112.591 41.6106C112.379 41.475 112.112 41.4467 110.976 41.44C110.227 41.4355 109.425 41.385 109.193 41.3276C108.89 41.2526 105.659 41.2236 97.677 41.2241C87.3883 41.2249 86.5479 41.2364 86.1119 41.384Z" fill="#2E56F6"/>
<path d="M367.333 72.8674L347.804 90.2132L348.766 82.3411L368.205 65.0748L367.333 72.8674Z" fill="#2E56F6"/>
<path d="M369.261 59.9908L349.732 77.3366L350.694 69.4646L370.133 52.1983L369.261 59.9908Z" fill="#2E56F6"/>
<path d="M371.545 46.7975L352.017 64.1433L352.979 56.2712L372.418 39.0049L371.545 46.7975Z" fill="#2E56F6"/>
<path d="M366.101 34.3544L360.795 8.81916L367.152 13.5869L372.435 39.0051L366.101 34.3544Z" fill="#2E56F6"/>
<path d="M376.324 42.4589L371.017 16.9236L377.374 21.6914L382.657 47.1096L376.324 42.4589Z" fill="#2E56F6"/>
<path d="M386.643 51.0297L381.336 25.4945L387.693 30.2622L392.976 55.6804L386.643 51.0297Z" fill="#2E56F6"/>
<path d="M400.165 52.5384L425 60.7279L417.68 63.8322L392.959 55.6803L400.165 52.5384Z" fill="#2E56F6"/>
<path d="M388.015 57.3105L412.85 65.4999L405.53 68.6042L380.809 60.4523L388.015 57.3105Z" fill="#2E56F6"/>
<path d="M375.411 61.933L400.246 70.1224L392.927 73.2267L368.205 65.0748L375.411 61.933Z" fill="#2E56F6"/>
<path d="M5.933 69C7.497 69 8.789 69.4647 9.809 70.394C10.8403 71.312 11.356 72.5247 11.356 74.032C11.356 75.9927 10.7157 77.602 9.435 78.86C8.15433 80.1067 6.63 80.73 4.862 80.73C3.64933 80.73 2.62933 80.458 1.802 79.914C0.986 79.37 0.385333 78.6503 0 77.755L1.904 77.075C2.16467 77.687 2.567 78.1573 3.111 78.486C3.655 78.8033 4.27267 78.962 4.964 78.962C5.89333 78.962 6.73767 78.656 7.497 78.044C8.26767 77.432 8.79467 76.6273 9.078 75.63H2.873L3.264 73.879H9.265C9.20833 72.9497 8.86833 72.2017 8.245 71.635C7.62167 71.057 6.81133 70.768 5.814 70.768C4.726 70.768 3.78533 71.1987 2.992 72.06L1.479 71.006C2.06833 70.3033 2.754 69.7933 3.536 69.476C4.32933 69.1587 5.12833 69 5.933 69Z" fill="#2E56F6"/>
<path d="M21.7369 80.526H19.7479L20.8359 75.579H14.9369L13.8489 80.526H11.8599L14.3589 69.187H16.3479L15.3279 73.828H21.2269L22.2469 69.187H24.2359L21.7369 80.526Z" fill="#2E56F6"/>
<path d="M31.914 80.526H24.145L26.644 69.187H34.413L34.022 70.938H28.242L27.596 73.879H33.257L32.866 75.63H27.205L26.508 78.775H32.288L31.914 80.526Z" fill="#2E56F6"/>
<path d="M35.9456 80.526H33.9566L36.4556 69.187H41.0116C42.0656 69.187 42.8872 69.4817 43.4766 70.071C44.0772 70.649 44.3776 71.3743 44.3776 72.247C44.3776 72.6097 44.3266 72.9723 44.2246 73.335C44.1339 73.6863 43.9752 74.0433 43.7486 74.406C43.5219 74.7687 43.2386 75.086 42.8986 75.358C42.5699 75.63 42.1392 75.8567 41.6066 76.038C41.0852 76.208 40.4959 76.293 39.8386 76.293H36.8806L35.9456 80.526ZM37.2546 74.542H39.9746C40.6886 74.542 41.2552 74.3437 41.6746 73.947C42.0939 73.539 42.3036 73.0347 42.3036 72.434C42.3036 72.0147 42.1506 71.6633 41.8446 71.38C41.5386 71.0853 41.1532 70.938 40.6886 70.938H38.0536L37.2546 74.542Z" fill="#2E56F6"/>
<path d="M46.2883 80.526H44.2993L46.7983 69.187H54.5673L54.1763 70.938H48.3963L46.2883 80.526Z" fill="#2E56F6"/>
<path d="M61.6142 80.526H53.8452L56.3442 69.187H64.1132L63.7222 70.938H57.9422L57.2962 73.879H62.9572L62.5662 75.63H56.9052L56.2082 78.775H61.9882L61.6142 80.526Z" fill="#2E56F6"/>
<path d="M68.3488 80.526H66.3598L68.4678 70.938H65.0338L65.4248 69.187H74.2818L73.8908 70.938H70.4568L68.3488 80.526Z" fill="#2E56F6"/>
<path d="M75.3893 80.526H73.4683L75.9673 69.187H77.9563L76.1543 77.364L83.7533 69.187H85.7933L83.2943 80.526H81.2883L83.1583 72.128L75.3893 80.526Z" fill="#2E56F6"/>
<path d="M94.9346 80.526H92.6056L89.8006 75.664L88.4916 76.905L87.6926 80.526H85.7036L88.2026 69.187H90.1916L89.0356 74.423L94.5096 69.187H97.0936L91.3136 74.542L94.9346 80.526Z" fill="#2E56F6"/>
<path d="M106.462 80.526H104.303L103.946 78.35H98.7442L97.4352 80.526H95.0722L102.025 69.187H104.507L106.462 80.526ZM103.776 76.599L102.926 71.193L99.6962 76.599H103.776Z" fill="#2E56F6"/>
<path d="M121.944 80.526H119.955L121.043 75.579H115.144L114.056 80.526H112.067L114.566 69.187H116.555L115.535 73.828H121.434L122.454 69.187H124.443L121.944 80.526Z" fill="#2E56F6"/>
<path d="M130.353 80.73C128.789 80.73 127.491 80.2767 126.46 79.37C125.44 78.452 124.93 77.228 124.93 75.698C124.93 73.828 125.553 72.247 126.8 70.955C128.058 69.6517 129.599 69 131.424 69C132.988 69 134.28 69.459 135.3 70.377C136.331 71.2837 136.847 72.4963 136.847 74.015C136.847 75.8963 136.218 77.4887 134.96 78.792C133.713 80.084 132.178 80.73 130.353 80.73ZM130.472 78.962C131.662 78.962 132.676 78.503 133.515 77.585C134.354 76.6557 134.773 75.511 134.773 74.151C134.773 73.1197 134.444 72.298 133.787 71.686C133.13 71.074 132.302 70.768 131.305 70.768C130.115 70.768 129.101 71.2327 128.262 72.162C127.423 73.08 127.004 74.219 127.004 75.579C127.004 76.6217 127.327 77.449 127.973 78.061C128.63 78.6617 129.463 78.962 130.472 78.962Z" fill="#2E56F6"/>
<path d="M143.131 80.526H137.351L139.85 69.187H145.018C145.913 69.187 146.633 69.442 147.177 69.952C147.732 70.462 148.01 71.0967 148.01 71.856C148.01 72.6267 147.749 73.301 147.228 73.879C146.718 74.457 146.112 74.78 145.409 74.848C145.908 74.984 146.304 75.273 146.599 75.715C146.905 76.157 147.058 76.6387 147.058 77.16C147.058 78.0667 146.724 78.8543 146.055 79.523C145.398 80.1917 144.423 80.526 143.131 80.526ZM144.049 73.879C144.684 73.879 145.148 73.7147 145.443 73.386C145.738 73.0573 145.885 72.6607 145.885 72.196C145.885 71.8447 145.749 71.55 145.477 71.312C145.205 71.0627 144.876 70.938 144.491 70.938H141.448L140.802 73.879H144.049ZM143.029 78.775C143.652 78.775 144.145 78.605 144.508 78.265C144.871 77.9137 145.052 77.4887 145.052 76.99C145.052 76.582 144.916 76.2533 144.644 76.004C144.383 75.7547 144.021 75.63 143.556 75.63H140.411L139.714 78.775H143.029Z" fill="#2E56F6"/>
<path d="M154.376 80.73C152.812 80.73 151.514 80.2767 150.483 79.37C149.463 78.452 148.953 77.228 148.953 75.698C148.953 73.828 149.576 72.247 150.823 70.955C152.081 69.6517 153.622 69 155.447 69C157.011 69 158.303 69.459 159.323 70.377C160.354 71.2837 160.87 72.4963 160.87 74.015C160.87 75.8963 160.241 77.4887 158.983 78.792C157.736 80.084 156.2 80.73 154.376 80.73ZM154.495 78.962C155.685 78.962 156.699 78.503 157.538 77.585C158.376 76.6557 158.796 75.511 158.796 74.151C158.796 73.1197 158.467 72.298 157.81 71.686C157.152 71.074 156.325 70.768 155.328 70.768C154.138 70.768 153.123 71.2327 152.285 72.162C151.446 73.08 151.027 74.219 151.027 75.579C151.027 76.6217 151.35 77.449 151.996 78.061C152.653 78.6617 153.486 78.962 154.495 78.962Z" fill="#2E56F6"/>
<path d="M163.363 80.526H161.374L163.873 69.187H171.642L171.251 70.938H165.471L163.363 80.526Z" fill="#2E56F6"/>
<path d="M176.705 80.73C175.141 80.73 173.843 80.2767 172.812 79.37C171.792 78.452 171.282 77.228 171.282 75.698C171.282 73.828 171.905 72.247 173.152 70.955C174.41 69.6517 175.951 69 177.776 69C179.34 69 180.632 69.459 181.652 70.377C182.683 71.2837 183.199 72.4963 183.199 74.015C183.199 75.8963 182.57 77.4887 181.312 78.792C180.065 80.084 178.529 80.73 176.705 80.73ZM176.824 78.962C178.014 78.962 179.028 78.503 179.867 77.585C180.705 76.6557 181.125 75.511 181.125 74.151C181.125 73.1197 180.796 72.298 180.139 71.686C179.481 71.074 178.654 70.768 177.657 70.768C176.467 70.768 175.452 71.2327 174.614 72.162C173.775 73.08 173.356 74.219 173.356 75.579C173.356 76.6217 173.679 77.449 174.325 78.061C174.982 78.6617 175.815 78.962 176.824 78.962Z" fill="#2E56F6"/>
<path d="M197.946 80.526H195.957L198.065 70.938H192.166L190.058 80.526H188.069L190.568 69.187H200.445L197.946 80.526Z" fill="#2E56F6"/>
<path d="M206.355 80.73C204.791 80.73 203.493 80.2767 202.462 79.37C201.442 78.452 200.932 77.228 200.932 75.698C200.932 73.828 201.555 72.247 202.802 70.955C204.06 69.6517 205.601 69 207.426 69C208.99 69 210.282 69.459 211.302 70.377C212.333 71.2837 212.849 72.4963 212.849 74.015C212.849 75.8963 212.22 77.4887 210.962 78.792C209.715 80.084 208.18 80.73 206.355 80.73ZM206.474 78.962C207.664 78.962 208.678 78.503 209.517 77.585C210.356 76.6557 210.775 75.511 210.775 74.151C210.775 73.1197 210.446 72.298 209.789 71.686C209.132 71.074 208.304 70.768 207.307 70.768C206.117 70.768 205.103 71.2327 204.264 72.162C203.425 73.08 203.006 74.219 203.006 75.579C203.006 76.6217 203.329 77.449 203.975 78.061C204.632 78.6617 205.465 78.962 206.474 78.962Z" fill="#2E56F6"/>
<path d="M222.584 80.526H220.255L217.45 75.664L216.141 76.905L215.342 80.526H213.353L215.852 69.187H217.841L216.685 74.423L222.159 69.187H224.743L218.963 74.542L222.584 80.526Z" fill="#2E56F6"/>
<path d="M229.066 80.73C227.502 80.73 226.204 80.2767 225.173 79.37C224.153 78.452 223.643 77.228 223.643 75.698C223.643 73.828 224.266 72.247 225.513 70.955C226.771 69.6517 228.312 69 230.137 69C231.701 69 232.993 69.459 234.013 70.377C235.044 71.2837 235.56 72.4963 235.56 74.015C235.56 75.8963 234.931 77.4887 233.673 78.792C232.426 80.084 230.891 80.73 229.066 80.73ZM229.185 78.962C230.375 78.962 231.389 78.503 232.228 77.585C233.067 76.6557 233.486 75.511 233.486 74.151C233.486 73.1197 233.157 72.298 232.5 71.686C231.843 71.074 231.015 70.768 230.018 70.768C228.828 70.768 227.814 71.2327 226.975 72.162C226.136 73.08 225.717 74.219 225.717 75.579C225.717 76.6217 226.04 77.449 226.686 78.061C227.343 78.6617 228.176 78.962 229.185 78.962Z" fill="#2E56F6"/>
<path d="M234.95 80.73L235.341 78.962C235.998 78.962 236.542 78.707 236.973 78.197C237.415 77.6757 237.908 76.616 238.452 75.018L240.39 69.187H248.091L245.609 80.526H243.62L245.728 70.938H241.801L240.39 75.154C240.005 76.3213 239.602 77.2847 239.183 78.044C238.775 78.8033 238.339 79.3757 237.874 79.761C237.409 80.135 236.956 80.39 236.514 80.526C236.072 80.662 235.551 80.73 234.95 80.73Z" fill="#2E56F6"/>
<path d="M255.786 80.526H248.017L250.516 69.187H258.285L257.894 70.938H252.114L251.468 73.879H257.129L256.738 75.63H251.077L250.38 78.775H256.16L255.786 80.526Z" fill="#2E56F6"/>
<path d="M267.706 80.526H265.717L266.805 75.579H260.906L259.818 80.526H257.829L260.328 69.187H262.317L261.297 73.828H267.196L268.216 69.187H270.205L267.706 80.526Z" fill="#2E56F6"/>
<path d="M272.035 80.526H270.114L272.613 69.187H274.602L272.8 77.364L280.399 69.187H282.439L279.94 80.526H277.934L279.804 72.128L272.035 80.526Z" fill="#2E56F6"/>
<path d="M284.389 80.526H281.839L285.613 76.106C285.069 75.9247 284.599 75.579 284.202 75.069C283.817 74.5477 283.624 73.9357 283.624 73.233C283.624 72.8703 283.669 72.5133 283.76 72.162C283.862 71.7993 284.026 71.4367 284.253 71.074C284.48 70.7113 284.757 70.394 285.086 70.122C285.426 69.85 285.857 69.629 286.378 69.459C286.911 69.2777 287.506 69.187 288.163 69.187H293.11L290.611 80.526H288.622L289.557 76.293H287.84L284.389 80.526ZM287.313 74.542H289.948L290.73 70.938H288.027C287.313 70.938 286.746 71.142 286.327 71.55C285.908 71.9467 285.698 72.4453 285.698 73.046C285.698 73.4653 285.851 73.8223 286.157 74.117C286.463 74.4003 286.848 74.542 287.313 74.542Z" fill="#2E56F6"/>
</svg>
