<svg width="209" height="93" viewBox="0 0 209 93" fill="none" xmlns="http://www.w3.org/2000/svg">
<path d="M21.8003 66.7627C26.8222 64.1445 37.4224 57.1525 39.6475 50.1297C35.0119 51.6698 24.2108 48.836 18.0918 25.1802C20.1778 28.7224 27.5021 36.1765 40.1111 37.655C36.6343 30.0315 37.7933 24.9492 57.2629 9.00928C54.7133 11.9354 50.124 21.1606 52.1637 34.6518C53.8635 32.4957 58.839 28.6916 65.1435 30.7246C71.448 32.7575 80.2866 38.502 83.9178 41.1202C78.7414 39.9651 66.5806 38.9948 59.349 44.3544C62.5166 45.4324 68.1103 50.4069 65.1435 61.6804C62.7164 70.9031 62.0887 74.7763 62.0676 76.0067C62.0901 76.1638 62.111 76.3167 62.1303 76.4652C62.0882 76.4232 62.0629 76.2803 62.0676 76.0067C61.1922 69.8917 57.9255 57.4572 51.2366 53.1329C51.6229 55.982 50.3558 62.281 42.1971 64.6835C36.6343 66.3006 34.0847 65.1456 21.8003 66.7627Z" fill="#2E56F6"/>
<path opacity="0.8" d="M27.1313 0C25.4625 0 20.4096 16.787 18.0918 25.1805C22.1866 31.5719 30.0517 44.5856 28.7538 45.5097C27.1313 46.6647 -0.682525 48.2818 0.0128207 51.747C0.708166 55.2122 20.1778 67.225 21.8003 66.7629C23.0983 66.3933 38.4113 63.3747 45.9056 61.9116C41.9653 75.3104 37.7933 91.2504 40.3429 92.8675C42.8925 94.4846 62.3621 80.8548 62.1303 76.4655C61.9449 72.9541 62.8257 58.5234 63.2893 51.747C71.8652 57.5994 89.527 68.7958 91.5666 66.7629C94.1162 64.2218 84.6132 41.5824 83.9178 41.1204C83.3616 40.7508 69.7791 34.344 63.0575 31.1868C70.1655 24.7185 84.1496 11.2273 83.2225 9.00953C82.0636 6.23737 58.1901 8.08547 57.2629 9.00953C56.5212 9.74877 46.4464 19.6362 41.5018 24.4874C37.407 16.325 28.8001 0 27.1313 0Z" fill="#2E56F6"/>
<path d="M151.086 60.9997H137.883L127.272 41.8027H118.848V60.9997H107.346V6.97266H132.618C138.18 6.97266 142.581 8.59266 145.821 11.8327C149.115 15.0727 150.762 19.2577 150.762 24.3877C150.762 28.8157 149.601 32.4067 147.279 35.1607C145.011 37.9147 142.23 39.6697 138.936 40.4257L151.086 60.9997ZM130.917 31.6777C133.293 31.6777 135.237 31.0297 136.749 29.7337C138.261 28.3837 139.017 26.6017 139.017 24.3877C139.017 22.1737 138.261 20.4187 136.749 19.1227C135.237 17.7727 133.293 17.0977 130.917 17.0977H118.848V31.6777H130.917Z" fill="#2E56F6"/>
<path d="M201.92 55.8967C197.816 59.9467 191.768 61.9717 183.776 61.9717C175.784 61.9717 169.709 59.9467 165.551 55.8967C161.447 51.7927 159.395 46.3117 159.395 39.4537V6.97266H171.059V39.0487C171.059 42.9367 172.166 46.0417 174.38 48.3637C176.594 50.6317 179.726 51.7657 183.776 51.7657C187.826 51.7657 190.931 50.6317 193.091 48.3637C195.305 46.0417 196.412 42.9367 196.412 39.0487V6.97266H208.157V39.3727C208.157 46.3387 206.078 51.8467 201.92 55.8967Z" fill="#2E56F6"/>
<path d="M116.52 93H107V69H116.52C120.308 69 123.385 70.1034 125.75 72.3103C128.138 74.5172 129.333 77.4198 129.333 81.018C129.333 84.6162 128.151 87.5187 125.786 89.7256C123.421 91.9085 120.332 93 116.52 93ZM116.52 88.5022C118.836 88.5022 120.67 87.7826 122.021 86.3433C123.397 84.904 124.085 83.1289 124.085 81.018C124.085 78.8111 123.421 77.012 122.094 75.6207C120.767 74.2054 118.909 73.4978 116.52 73.4978H112.14V88.5022H116.52Z" fill="#2E56F6"/>
<path d="M152.526 93H146.626L141.885 84.4723H138.12V93H132.981V69H144.274C146.759 69 148.726 69.7196 150.174 71.1589C151.646 72.5982 152.382 74.4573 152.382 76.7361C152.382 78.7031 151.863 80.2984 150.825 81.5217C149.812 82.7451 148.569 83.5247 147.097 83.8606L152.526 93ZM143.514 79.9745C144.575 79.9745 145.444 79.6867 146.12 79.1109C146.795 78.5112 147.133 77.7196 147.133 76.7361C147.133 75.7526 146.795 74.973 146.12 74.3973C145.444 73.7976 144.575 73.4978 143.514 73.4978H138.12V79.9745H143.514Z" fill="#2E56F6"/>
<path d="M161.379 93H156.239V69H161.379V93Z" fill="#2E56F6"/>
<path d="M179.384 93H172.941L163.602 69H169.466L176.162 87.4588L182.822 69H188.686L179.384 93Z" fill="#2E56F6"/>
<path d="M208 93H190.915V69H208V73.4978H196.055V78.5712H207.747V83.069H196.055V88.5022H208V93Z" fill="#2E56F6"/>
</svg>
