<svg width="253" height="66" viewBox="0 0 253 66" fill="none" xmlns="http://www.w3.org/2000/svg">
<path fill-rule="evenodd" clip-rule="evenodd" d="M39.0301 4.09335C38.8868 4.17658 38.3196 5.01396 36.8692 7.28317C35.5985 9.27122 34.8169 10.4891 34.004 11.7473C33.5508 12.4489 32.867 13.5118 32.4843 14.1093C32.1016 14.7069 31.4177 15.7698 30.9646 16.4713C30.5114 17.1729 29.8275 18.2357 29.4448 18.8333C29.0621 19.4309 28.3783 20.4938 27.9251 21.1953C27.4719 21.8968 26.788 22.9597 26.4054 23.5573C26.0227 24.1549 25.3388 25.2178 24.8856 25.9193C24.4325 26.6208 23.7486 27.6837 23.3659 28.2813C22.9832 28.8789 22.2993 29.9418 21.8462 30.6433C21.393 31.3448 20.7091 32.4077 20.3264 33.0053C19.9437 33.6029 19.2599 34.6658 18.8067 35.3673C18.3535 36.0688 17.6696 37.1317 17.287 37.7293C16.9043 38.3269 16.2204 39.3898 15.7672 40.0913C15.3141 40.7928 14.6441 41.8344 14.2786 42.4061C12.9059 44.5525 12.1982 45.655 11.398 46.8938C10.9448 47.5954 10.2609 48.6583 9.87826 49.2558C9.49557 49.8534 8.81169 50.9163 8.35853 51.6178C7.90536 52.3194 7.22148 53.3822 6.8388 53.9798C6.45611 54.5774 5.77223 55.6403 5.31906 56.3418C4.8659 57.0433 4.18202 58.1062 3.79933 58.7038C3.10082 59.7946 2.07975 61.3759 0.726811 63.4621C0.327122 64.0786 0 64.6367 0 64.7024C0 64.7681 0.0580342 64.8699 0.129082 64.9284C0.263198 65.0392 21.6539 65.023 79.3382 64.8686C102.721 64.8061 105.829 64.7812 105.908 64.6561C105.965 64.5675 105.999 53.216 106 34.4056C106.001 7.15884 105.987 4.28278 105.852 4.14843C105.718 4.01465 104.068 4 89.1087 4C74.8547 4 72.4871 4.01909 72.3202 4.13539C72.1351 4.26436 71.7614 4.813 70.2567 7.16507C69.8911 7.73668 69.2211 8.77832 68.7679 9.47983C67.9974 10.6726 67.6075 11.2801 65.9184 13.9204C62.8881 18.6571 63.0795 18.3768 62.8979 18.342C62.7482 18.3134 62.733 17.7977 62.689 11.2466C62.6477 5.10466 62.6229 4.17035 62.499 4.0925C62.3118 3.97477 60.9206 3.97402 60.6999 4.09155C60.6053 4.14181 60.3881 4.40759 60.2172 4.68205C60.0462 4.95642 59.6205 5.62742 59.2713 6.17304C58.9219 6.71866 58.3298 7.64343 57.9555 8.22797C57.5811 8.81261 56.9757 9.75855 56.61 10.3301C54.921 12.9704 54.531 13.5779 53.7605 14.7707C52.9733 15.9894 52.3624 16.9415 50.9267 19.1876C50.5697 19.7463 49.9713 20.6816 49.5969 21.2662C49.2226 21.8508 48.6103 22.8074 48.236 23.392C47.8619 23.9766 47.1849 25.0288 46.7318 25.7304C45.9613 26.9232 45.5714 27.5307 43.8823 30.1709C42.9472 31.6326 41.9136 33.2472 41.5347 33.838C41.319 34.1745 41.1597 34.3298 41.0516 34.3091C40.9009 34.2802 40.8872 33.288 40.8428 19.2302C40.801 5.99145 40.7782 4.17129 40.6528 4.0925C40.4701 3.97761 39.2279 3.97827 39.0301 4.09335ZM102.372 6.23596C103.242 6.29472 103.562 6.35085 103.629 6.45648C103.685 6.54463 103.719 17.1524 103.72 34.5339C103.722 59.8052 103.707 62.4837 103.573 62.618C103.437 62.7526 98.7865 62.7665 53.8129 62.7665C10.8121 62.7665 4.18743 62.7484 4.08931 62.6308C3.93772 62.4491 3.87114 62.569 5.66775 59.7903C6.13811 59.0628 6.83604 57.9787 7.21873 57.3811C7.60142 56.7835 8.2853 55.7206 8.73846 55.0191C9.19163 54.3176 9.87551 53.2547 10.2582 52.6571C10.6409 52.0595 11.3248 50.9966 11.7779 50.2951C12.2311 49.5936 12.915 48.5307 13.2977 47.9331C13.6803 47.3355 14.3642 46.2726 14.8174 45.5711C15.2706 44.8696 15.9544 43.8067 16.3371 43.2091C16.7198 42.6115 17.4037 41.5486 17.8569 40.8471C18.31 40.1456 18.9939 39.0827 19.3766 38.4851C19.7593 37.8876 20.4432 36.8247 20.8963 36.1231C21.3495 35.4216 22.0264 34.3694 22.4006 33.7848C22.7748 33.2002 23.3871 32.2436 23.7613 31.659C24.1354 31.0744 24.8124 30.0221 25.2656 29.3206C25.7187 28.6191 26.4026 27.5562 26.7853 26.9586C27.168 26.361 27.8519 25.2981 28.305 24.5966C28.7582 23.8951 29.4421 22.8322 29.8248 22.2346C30.2074 21.637 30.8913 20.5741 31.3445 19.8726C31.7976 19.1711 32.4815 18.1082 32.8642 17.5106C33.2469 16.913 33.9308 15.8501 34.3839 15.1486C34.8371 14.4471 35.521 13.3842 35.9037 12.7866C37.2137 10.7409 38.3043 9.10352 38.4211 9.00705C38.5026 8.93988 38.5705 8.94961 38.6453 9.03927C38.7239 9.13347 38.7591 13.4953 38.7766 25.3605C38.7991 40.4932 38.8112 41.5552 38.9616 41.584C39.0641 41.6036 39.205 41.4838 39.3494 41.2546C39.4742 41.0565 39.8897 40.4054 40.2727 39.8079C40.6558 39.2103 41.2543 38.2749 41.6027 37.7293C42.7409 35.9469 43.6139 34.5864 44.4522 33.2887C45.2905 31.9911 46.1635 30.6306 47.3017 28.8482C49.1541 25.9473 50.5244 23.8099 51.4809 22.3291C52.3193 21.0314 53.1923 19.6709 54.3304 17.8885C54.6788 17.3429 55.2702 16.4182 55.6445 15.8336C56.0189 15.2491 56.6312 14.2924 57.0055 13.7078C57.3796 13.1233 58.0706 12.0497 58.541 11.3222C59.0113 10.5947 59.5409 9.77357 59.7178 9.4975C59.9334 9.16087 60.0925 9.00564 60.2006 9.02633C60.3505 9.05505 60.3652 9.65339 60.4094 17.4634C60.4534 25.2668 60.4684 25.8717 60.6178 25.9003C60.7224 25.9204 60.869 25.7886 61.0367 25.5237C61.1786 25.2996 61.6656 24.5423 62.1189 23.8408C62.5721 23.1393 63.2422 22.0976 63.6076 21.526C64.9803 19.3795 65.6881 18.277 66.4883 17.0382C67.3266 15.7405 68.1996 14.38 69.3378 12.5977C70.0703 11.4506 70.9273 10.1117 72.2105 8.10987C72.7101 7.33041 73.248 6.55407 73.4057 6.38467L73.6927 6.07667L87.4486 6.11701C95.0144 6.13912 101.73 6.19269 102.372 6.23596ZM75.8845 10.3254C75.7066 10.4326 74.8398 11.7399 71.9817 16.2115C70.546 18.4577 69.9351 19.4098 69.1478 20.6285C68.3202 21.9097 67.4749 23.2267 66.2981 25.069C65.9496 25.6146 65.401 26.467 65.079 26.9633C64.757 27.4595 64.4937 27.9466 64.4937 28.0457C64.4937 28.1448 64.7928 28.6847 65.1585 29.2457C65.5242 29.8065 66.1296 30.7437 66.5038 31.3283C66.8779 31.9129 67.5549 32.9652 68.008 33.6667C68.4612 34.3682 69.1451 35.4311 69.5278 36.0287C69.9105 36.6263 70.5943 37.6891 71.0475 38.3907C71.5007 39.0922 72.1706 40.1338 72.5361 40.7054C74.4373 43.6783 75.6901 45.6236 76.8259 47.3662C77.6771 48.6723 77.8979 49.0804 77.8675 49.292C77.8394 49.4883 77.7973 49.4925 75.6641 49.5175C73.9217 49.5379 73.4487 49.5164 73.2853 49.4099C73.173 49.3368 72.8091 48.8577 72.4763 48.3452C71.9085 47.4706 71.5149 46.8576 69.8765 44.2957C69.511 43.724 68.8411 42.6824 68.388 41.9809C67.5877 40.7421 66.88 39.6396 65.5073 37.4931C65.1418 36.9215 64.4715 35.8799 64.0178 35.1783C63.564 34.4768 62.8691 33.3927 62.4734 32.7691C61.5581 31.3269 61.4506 31.2102 61.0369 31.2102C60.363 31.2102 60.4094 30.534 60.4094 40.3747C60.4094 48.3102 60.3937 49.2579 60.2602 49.3909C60.135 49.5153 59.8243 49.5391 58.3367 49.5379C57.3609 49.537 56.4984 49.4961 56.4201 49.4468C56.2949 49.3681 56.2718 47.7735 56.2301 36.3404C56.1857 24.1875 56.1719 23.3217 56.0211 23.2928C55.8549 23.2609 55.8178 23.3124 54.3302 25.6359C53.9477 26.2335 53.2639 27.2964 52.8107 27.9979C51.9724 29.2956 51.0994 30.6561 49.9612 32.4384C48.1087 35.3393 46.7385 37.4768 45.7819 38.9575C44.9691 40.2158 44.1875 41.4337 42.9168 43.4217C42.5597 43.9804 41.9754 44.8944 41.6184 45.453C41.2613 46.0117 40.6687 46.9364 40.3014 47.508C39.9341 48.0796 39.5388 48.7067 39.423 48.9016C39.0478 49.5333 39.0229 49.5395 36.8561 49.5379C35.7837 49.537 34.8422 49.4961 34.7639 49.4468C34.6387 49.3681 34.6156 47.7683 34.5739 36.2932C34.5296 24.0921 34.5158 23.2272 34.3649 23.1983C34.1997 23.1667 34.0652 23.3545 32.484 25.8248C32.1015 26.4224 31.4177 27.4853 30.9646 28.1868C30.5114 28.8884 29.8275 29.9512 29.4448 30.5488C29.0621 31.1464 28.3783 32.2093 27.9251 32.9108C27.4719 33.6123 26.788 34.6752 26.4054 35.2728C26.0227 35.8704 25.3388 36.9333 24.8856 37.6348C24.4325 38.3363 23.7555 39.3887 23.3814 39.9732C23.0071 40.5578 22.3949 41.5144 22.0206 42.099C21.6465 42.6836 20.9696 43.7359 20.5164 44.4374C20.0632 45.1389 19.3793 46.2018 18.9967 46.7994C18.614 47.3969 17.9301 48.4599 17.4769 49.1614C17.0238 49.8629 16.3399 50.9258 15.9572 51.5234C15.2102 52.6897 13.8583 54.784 13.06 56.0112C12.0963 57.4927 11.6709 58.2411 11.7018 58.4005C11.7312 58.5527 14.279 58.5635 55.4884 58.5858C95.1723 58.6074 99.2576 58.5957 99.3931 58.461C99.5281 58.3267 99.5425 56.0301 99.5425 34.517C99.5425 13.0107 99.5281 10.7073 99.3933 10.5731C99.2616 10.4422 98.6954 10.4246 94.6034 10.4246C90.5113 10.4246 89.9451 10.4422 89.8134 10.5731C89.6788 10.7071 89.6642 12.5985 89.6642 29.982C89.6642 47.3654 89.6497 49.2568 89.515 49.3909C89.2929 49.6117 85.8563 49.6117 85.6342 49.3909C85.4995 49.2568 85.4849 47.3657 85.4835 29.9989C85.4826 18.0511 85.4479 10.7015 85.3921 10.6136C85.316 10.4937 84.7483 10.4613 81.713 10.4034C79.7389 10.3658 77.6536 10.3125 77.0789 10.2851C76.4853 10.2567 75.9695 10.2741 75.8845 10.3254ZM83.0561 12.6516C83.1908 12.7857 83.2054 14.6857 83.2054 32.155C83.2054 49.6243 83.2199 51.5243 83.3546 51.6584C83.4856 51.7886 83.9919 51.8068 87.4796 51.8068C90.9673 51.8068 91.4736 51.7886 91.6046 51.6584C91.7393 51.5243 91.7539 49.6243 91.7539 32.155C91.7539 14.6857 91.7684 12.7857 91.9031 12.6516C92.1273 12.4286 97.0794 12.4286 97.3036 12.6516C97.4384 12.7858 97.4529 14.9003 97.4529 34.517C97.4529 54.1336 97.4384 56.2482 97.3036 56.3824C97.1684 56.5168 93.33 56.5308 56.4798 56.5308C24.9706 56.5308 15.7796 56.5053 15.6912 56.4174C15.6286 56.3551 15.5773 56.2536 15.5773 56.1919C15.5773 56.1302 15.9044 55.5754 16.3041 54.9589C17.657 52.8727 18.6781 51.2914 19.3766 50.2006C19.7593 49.6031 20.4432 48.5402 20.8963 47.8386C21.3495 47.1371 22.0334 46.0742 22.4161 45.4766C22.7987 44.8791 23.4826 43.8162 23.9358 43.1147C24.389 42.4131 25.0728 41.3502 25.4555 40.7527C25.8382 40.1551 26.5221 39.0922 26.9753 38.3907C27.4284 37.6891 28.1123 36.6263 28.495 36.0287C29.2797 34.8032 30.6461 32.6873 31.4121 31.5112C32.3165 30.1226 32.24 29.2814 32.2943 41.2062C32.3359 50.3297 32.3595 51.6359 32.4843 51.7143C32.5675 51.7666 34.1319 51.8045 36.247 51.8054C39.6907 51.8067 39.8788 51.7978 40.1022 51.623C40.3271 51.4471 40.5063 51.1852 42.0132 48.8307C42.3791 48.2591 43.0492 47.2174 43.5023 46.5159C43.9555 45.8144 44.6254 44.7728 44.9909 44.2012C45.3565 43.6296 45.9547 42.6942 46.3204 42.1226C46.6861 41.551 47.2845 40.6157 47.6502 40.0441C49.1022 37.7745 49.7417 36.7783 50.5311 35.5563C50.9843 34.8548 51.6681 33.7919 52.0506 33.1943C53.6317 30.7239 53.7662 30.5361 53.9314 30.5677C54.0821 30.5965 54.0962 31.312 54.1405 41.1117C54.1821 50.3192 54.2056 51.6359 54.3304 51.7143C54.4141 51.7669 56.0815 51.8045 58.3728 51.8054C61.5924 51.8065 62.3049 51.7834 62.4571 51.6727C62.6359 51.5427 62.6429 51.3313 62.689 44.6588C62.733 38.2796 62.7482 37.7768 62.898 37.7482C63.0632 37.7165 63.1977 37.9045 64.7789 40.3747C65.1614 40.9723 65.8452 42.0352 66.2983 42.7367C66.7515 43.4382 67.4354 44.5011 67.8181 45.0987C68.2008 45.6963 68.8851 46.7592 69.3389 47.4607C69.7928 48.1622 70.4804 49.2419 70.867 49.8598C71.2536 50.4778 71.7464 51.1691 71.962 51.396L72.3541 51.8086L77.0807 51.784C81.3623 51.7618 81.8168 51.7448 81.9067 51.6029C81.9853 51.479 81.9 51.2817 81.4982 50.6581C81.2189 50.2246 80.698 49.413 80.3407 48.8543C78.6983 46.2869 78.2767 45.6298 77.5064 44.4374C77.0532 43.7359 76.3693 42.673 75.9866 42.0754C75.6039 41.4778 74.9201 40.4149 74.4669 39.7134C74.0137 39.0119 73.3298 37.949 72.9472 37.3514C72.5645 36.7538 71.8806 35.6909 71.4274 34.9894C70.9743 34.2879 70.2904 33.225 69.9077 32.6274C69.525 32.0298 68.8389 30.9669 68.3828 30.2654C67.9268 29.5639 67.4402 28.7914 67.3015 28.5488C67.0566 28.1207 67.0536 28.0971 67.1999 27.7457C67.2828 27.5466 67.7267 26.8098 68.1863 26.1083C68.9721 24.9089 69.5015 24.0875 71.0632 21.6441C72.4988 19.3979 73.1098 18.4459 73.897 17.2272C75.0635 15.4215 76.0026 13.955 76.3636 13.3753C76.935 12.4578 76.7444 12.5032 80.0294 12.5032C82.5186 12.5032 82.927 12.5232 83.0561 12.6516Z" fill="#2E56F6"/>
<path d="M118.655 10.9013L119.51 7.63333V17.0003H121.391V3.70033H119.092L117.382 9.19133L116.622 12.1173V3.70033H114.76V17.0003H116.907L118.655 10.9013Z" fill="#2E56F6"/>
<path d="M125.908 11.3003H128.283V17.0003H130.411V3.70033H128.283V9.40033H125.908V3.70033H123.818V17.0003H125.908V11.3003Z" fill="#2E56F6"/>
<path d="M138.9 3.70033H136.829V9.07733L134.359 3.70033H132.269L134.853 9.15333L132.269 17.0003H134.416L136.316 11.0913L136.829 12.1173V17.0003H138.9V12.1173L139.413 11.1103L141.313 17.0003H143.46L140.895 9.09633L143.46 3.70033H141.37L138.9 9.07733V3.70033Z" fill="#2E56F6"/>
<path d="M147.383 5.60033H150.993V3.70033H145.293V17.0003H150.993V15.1003H147.383V11.2053H150.252V9.30533H147.383V5.60033Z" fill="#2E56F6"/>
<path d="M155.328 11.3003H157.703V17.0003H159.831V3.70033H157.703V9.40033H155.328V3.70033H153.238V17.0003H155.328V11.3003Z" fill="#2E56F6"/>
<path d="M164.387 5.60033H167.997V3.70033H162.297V17.0003H167.997V15.1003H164.387V11.2053H167.256V9.30533H164.387V5.60033Z" fill="#2E56F6"/>
<path d="M173.32 3.70033H170.242V17.0003H172.332V12.0033H173.32C175.41 12.0033 176.436 10.8443 176.436 8.71633V6.98733C176.436 4.85933 175.41 3.70033 173.32 3.70033ZM173.32 5.60033C173.985 5.60033 174.346 5.90433 174.346 6.85433V8.84933C174.346 9.79933 173.985 10.1033 173.32 10.1033H172.332V5.60033H173.32Z" fill="#2E56F6"/>
<path d="M180.444 11.3003H182.819V17.0003H184.947V3.70033H182.819V9.40033H180.444V3.70033H178.354V17.0003H180.444V11.3003Z" fill="#2E56F6"/>
<path d="M190.491 17.0003C192.58 17.0003 193.606 15.8413 193.606 13.7133V11.9843C193.606 9.85633 192.58 8.69733 190.491 8.69733H189.502V3.70033H187.412V17.0003H190.491ZM189.502 15.1003V10.5973H190.491C191.156 10.5973 191.517 10.9013 191.517 11.8513V13.8463C191.517 14.7963 191.156 15.1003 190.491 15.1003H189.502ZM196.894 17.0003V3.70033H194.803V17.0003H196.894Z" fill="#2E56F6"/>
<path d="M201.512 17.0003H199.365V3.70033H201.227V12.1173L201.987 9.19133L203.697 3.70033H205.996V17.0003H204.115V7.63333L203.26 10.9013L201.512 17.0003ZM203.659 0.736328C203.602 1.43933 203.279 1.61033 202.709 1.61033C202.158 1.61033 201.873 1.43933 201.816 0.736328H200.524C200.562 2.02833 201.246 2.84533 202.709 2.84533C204.191 2.84533 204.932 2.02833 204.932 0.736328H203.659Z" fill="#2E56F6"/>
<path d="M212.361 17.0003H217.833V18.7863H219.866V15.1383H218.954V3.70033H216.826V15.1003H214.451V3.70033H212.361V17.0003Z" fill="#2E56F6"/>
<path d="M224.048 5.60033H227.658V3.70033H221.958V17.0003H227.658V15.1003H224.048V11.2053H226.917V9.30533H224.048V5.60033Z" fill="#2E56F6"/>
<path d="M231.993 11.3003H234.368V17.0003H236.496V3.70033H234.368V9.40033H231.993V3.70033H229.903V17.0003H231.993V11.3003Z" fill="#2E56F6"/>
<path d="M238.353 5.60033H240.538V17.0003H242.628V5.60033H244.813V3.70033H238.353V5.60033Z" fill="#2E56F6"/>
<path d="M249.762 3.70033H246.684V17.0003H248.774V12.0033H249.762C251.852 12.0033 252.878 10.8443 252.878 8.71633V6.98733C252.878 4.85933 251.852 3.70033 249.762 3.70033ZM249.762 5.60033C250.427 5.60033 250.788 5.90433 250.788 6.85433V8.84933C250.788 9.79933 250.427 10.1033 249.762 10.1033H248.774V5.60033H249.762Z" fill="#2E56F6"/>
<path d="M152.603 24.6683C155.254 24.7451 157.645 24.7835 159.777 24.7835C161.678 24.7835 163.915 24.7451 166.489 24.6683L166.662 26.1375L162.715 27.2611C162.273 27.3955 162.043 27.7124 162.024 28.2118C161.985 29.4793 161.966 31.0734 161.966 32.994V55.9544C161.966 58.2207 161.985 60.1317 162.024 61.6873C162.043 62.1291 162.302 62.4268 162.802 62.5804L166.547 63.6463L166.662 65.0868C163.915 65.0291 160.871 65.0003 157.53 65.0003C154.284 65.0003 151.566 65.0291 149.377 65.0868L149.233 63.6463L152.546 62.638C153.007 62.5036 153.247 62.1579 153.266 61.6009C153.323 60.1029 153.352 58.2207 153.352 55.9544V37.5169C153.352 36.5182 153.381 34.6073 153.439 31.784C152.786 33.4357 152.094 35.145 151.365 36.9119L139.899 65.0003L137.306 65.2308L126.359 37.9491C125.706 36.3934 125.033 34.6553 124.342 32.7347C124.38 35.4619 124.4 37.2577 124.4 38.1219V55.9544C124.4 58.2207 124.419 60.1029 124.457 61.6009C124.476 62.1579 124.726 62.5036 125.206 62.638L128.375 63.6463L128.462 65.0868C126.195 65.0291 124.227 65.0003 122.556 65.0003C120.904 65.0003 118.744 65.0291 116.074 65.0868L115.93 63.6463L119.79 62.5804C120.29 62.4268 120.549 62.1291 120.568 61.6873C120.607 60.1317 120.626 58.2207 120.626 55.9544V32.994C120.626 31.0734 120.607 29.4793 120.568 28.2118C120.549 27.7124 120.318 27.3955 119.877 27.2611L116.016 26.1375L115.93 24.6683C119.118 24.7451 121.509 24.7835 123.103 24.7835C125.293 24.7835 127.53 24.7451 129.816 24.6683L139.87 50.0487C140.312 51.1434 140.705 52.1805 141.051 53.16C141.435 52.1805 141.838 51.1434 142.261 50.0487L152.603 24.6683Z" fill="#2E56F6"/>
<path d="M187.992 43.7108H189.519C190.383 43.7108 191.17 43.6916 191.881 43.6532C192.592 43.6147 193.225 43.4995 193.782 43.3075C194.358 43.1154 194.877 42.8081 195.338 42.3856C195.799 41.9631 196.231 41.3773 196.634 40.6283C197.057 39.86 197.46 38.8997 197.844 37.7474C198.228 36.5758 198.622 35.1546 199.025 33.4837C199.352 32.1201 199.65 30.9582 199.919 29.9979C200.187 29.0184 200.447 28.2022 200.696 27.5492C200.965 26.877 201.253 26.3584 201.561 25.9935C201.887 25.6094 202.262 25.3213 202.684 25.1292C203.126 24.9372 203.644 24.8123 204.24 24.7547C204.835 24.6971 205.546 24.6683 206.372 24.6683C209.233 24.6683 211.749 24.7739 213.919 24.9852L214.064 26.9154C211.797 26.9922 210.021 27.4915 208.734 28.4134C207.466 29.3353 206.266 30.9198 205.133 33.1668C204.057 35.2987 203.03 37.1136 202.05 38.6117C201.071 40.1097 199.909 41.4925 198.565 42.7601C200.235 45.18 201.657 47.4175 202.828 49.4725C204.019 51.5083 205.085 53.3617 206.026 55.0326C207.735 58.0863 209.195 60.2469 210.405 61.5145C210.962 62.1099 211.576 62.5708 212.249 62.8973C212.94 63.2046 213.823 63.4831 214.899 63.7327L215.014 65.202C212.94 65.4325 210.712 65.5477 208.331 65.5477C206.813 65.5477 205.536 65.3652 204.499 65.0003C203.462 64.6162 202.559 64.0592 201.791 63.3294C201.042 62.5804 200.351 61.6585 199.717 60.5638C199.083 59.4691 198.382 58.1919 197.614 56.7323C196.903 55.4071 196.173 54.0627 195.424 52.6991C194.675 51.3355 193.859 49.943 192.976 48.5218C192.707 48.1377 192.476 47.8208 192.284 47.5711C192.092 47.3022 191.9 47.091 191.708 46.9373C191.535 46.7837 191.334 46.6781 191.103 46.6204C190.873 46.5436 190.604 46.5052 190.296 46.5052H187.992V55.9544C187.992 58.2207 188.011 60.1125 188.049 61.6297C188.069 62.1675 188.318 62.5036 188.798 62.638L192.14 63.6463L192.227 65.0868C189.845 65.0291 187.031 65.0003 183.786 65.0003C180.463 65.0003 177.467 65.0291 174.797 65.0868L174.653 63.6463L178.514 62.5804C179.013 62.4268 179.272 62.1291 179.292 61.6873C179.33 60.1317 179.349 58.2207 179.349 55.9544V32.994C179.349 31.0734 179.33 29.4793 179.292 28.2118C179.272 27.7124 179.042 27.3955 178.6 27.2611L174.74 26.1375L174.653 24.6683C177.323 24.7451 180.281 24.7835 183.526 24.7835C186.868 24.7835 189.711 24.7451 192.054 24.6683L192.227 26.1375L188.798 27.117C188.318 27.2515 188.069 27.5492 188.049 28.0101C188.011 29.3929 187.992 31.0158 187.992 32.8787V43.7108Z" fill="#2E56F6"/>
<path d="M233.089 65.0003C229.709 65.0003 226.482 65.0291 223.409 65.0868L223.265 63.6463L227.874 62.3787C228.355 62.2251 228.604 61.9178 228.623 61.4569C228.662 60.0164 228.681 58.1631 228.681 55.8968V27.7508H220.384L217.734 35.4139L216.12 35.6732L215.371 24.8988L215.573 24.6683C220.298 24.7451 224.821 24.7835 229.142 24.7835H237.18C241.501 24.7835 246.053 24.7451 250.835 24.6683L251.008 24.8988L249.106 35.4427L247.493 35.702L245.62 27.7508H237.295V55.8968C237.295 58.1631 237.314 60.0164 237.352 61.4569C237.372 61.9178 237.631 62.2251 238.13 62.3787L242.653 63.6463L242.74 65.0868C239.551 65.0291 236.334 65.0003 233.089 65.0003Z" fill="#2E56F6"/>
</svg>
