<svg width="284" height="53" viewBox="0 0 284 53" fill="none" xmlns="http://www.w3.org/2000/svg">
<path fill-rule="evenodd" clip-rule="evenodd" d="M177.939 0.120781C177.57 0.282449 177.663 0.0692631 175.854 4.93486C175.526 5.81629 175.081 6.99479 174.864 7.55375C174.01 9.75824 173.511 11.2124 173.511 11.4975C173.511 11.679 173.563 11.8371 173.643 11.9025C173.753 11.9916 175.326 12.0164 182.895 12.0489L192.015 12.088L192.197 12.266L192.379 12.444L192.418 32.3054L192.458 52.1667L192.682 52.3554L192.906 52.544H200.077H207.248L207.472 52.3554L207.696 52.1667L207.735 32.3054L207.775 12.444L207.957 12.266L208.139 12.088L217.338 12.0489C224.975 12.0164 226.561 11.9916 226.67 11.9025C226.905 11.7115 226.824 11.252 226.335 10.0004C226.078 9.34273 225.719 8.40001 225.538 7.90554C225.357 7.41108 224.9 6.17981 224.522 5.16938C224.144 4.15896 223.625 2.75867 223.368 2.05759C222.828 0.586319 222.651 0.267751 222.285 0.118044C221.896 -0.0411219 178.302 -0.0384636 177.939 0.120781ZM144.672 0.401042C144.497 0.438879 144.073 0.471869 143.73 0.474293C143.388 0.476794 142.867 0.512442 142.574 0.553406C142.28 0.594449 141.663 0.667544 141.202 0.715779C138.968 0.949759 135.323 1.91562 133.145 2.85076C131.115 3.72227 129.433 4.66077 128.009 5.71662C126.279 6.99941 126.119 7.13997 125.253 8.14007C123.794 9.82601 122.952 11.1903 122.302 12.9225C121.707 14.5074 121.577 15.3366 121.577 17.5602C121.577 20.4286 121.871 21.8534 122.863 23.7964C123.634 25.308 124.736 26.4917 126.406 27.6046C127.073 28.0491 128.668 28.8422 129.395 29.0908C129.68 29.1884 130.176 29.3695 130.496 29.4933C131.225 29.7748 135.094 30.7429 136.376 30.9642C136.902 31.0552 137.853 31.2505 138.49 31.398C139.126 31.5456 139.969 31.7022 140.364 31.746C140.759 31.7898 141.585 31.9142 142.199 32.0226C143.487 32.2496 145.103 32.4816 146.308 32.6123C147.127 32.7012 148.491 32.9161 151.214 33.3856C152.732 33.6474 154.162 34.0827 154.99 34.5354C155.722 34.9359 156.383 35.6018 156.701 36.2598C156.954 36.7827 156.958 36.8104 156.958 37.9251C156.958 38.9458 156.939 39.0989 156.771 39.4624C156.387 40.2953 155.136 41.2457 153.926 41.6241C153.333 41.8098 151.467 42.2008 150.715 42.297C150.353 42.3432 149.779 42.4166 149.439 42.4599C148.609 42.5655 144.772 42.5592 143.919 42.4508C143.543 42.4031 142.644 42.2639 141.92 42.1414C141.196 42.0188 140.263 41.8632 139.846 41.7954C139.429 41.7276 138.621 41.5526 138.051 41.4064C137.48 41.2602 136.511 41.0163 135.897 40.8645C133.392 40.2455 127.477 38.4455 126.257 37.9313C125.757 37.7206 125.375 37.7212 125.159 37.9333C125.066 38.0238 124.865 38.3668 124.711 38.6955C123.809 40.6198 123.532 41.2284 123.322 41.7484C123.193 42.0668 123.035 42.4186 122.971 42.5302C122.907 42.6417 122.6 43.2958 122.288 43.9838C121.976 44.6717 121.508 45.7001 121.248 46.2692C120.742 47.3775 120.716 47.587 121.056 47.8054C121.504 48.0933 125.048 49.339 126.403 49.6851C126.798 49.7859 127.552 49.9978 128.079 50.1561C128.605 50.3143 129.341 50.5082 129.714 50.587C130.087 50.6658 130.967 50.8711 131.669 51.0433C133.487 51.4892 137.441 52.2121 138.849 52.3559C140.036 52.4773 140.623 52.5402 142.08 52.7023C144.037 52.9203 144.733 52.9548 147.863 52.9895C149.985 53.0131 151.448 52.9964 151.852 52.9442C153.572 52.7217 154.409 52.6036 154.453 52.5774C154.48 52.5615 155.099 52.4451 155.828 52.3186C158.324 51.8859 161.329 50.8438 163.34 49.7139C165.868 48.2934 167.423 46.9558 168.944 44.894C169.881 43.6235 170.875 41.4147 171.043 40.2308C171.088 39.9183 171.16 39.5443 171.204 39.3997C171.448 38.5954 171.535 36.3109 171.379 34.7981C171.135 32.4439 170.525 30.6841 169.366 28.9927C168.271 27.3957 167.474 26.6299 165.636 25.4102C164.24 24.4832 161.878 23.3707 160.533 23.0059C160.234 22.9249 159.563 22.7299 159.041 22.5725C158.52 22.4151 157.496 22.1651 156.767 22.0169C156.038 21.8687 155.011 21.6589 154.485 21.5505C153.958 21.4421 153.384 21.3535 153.208 21.3534C152.868 21.3534 152.008 21.2376 149.698 20.8813C148.356 20.6743 147.969 20.6242 146.048 20.4093C145.643 20.3638 144.485 20.1692 143.476 19.9767C142.466 19.7842 141.354 19.5724 141.004 19.5061C140.161 19.3461 138.424 18.7815 137.675 18.4236C136.202 17.7198 135.559 16.6511 135.856 15.4C136.217 13.8833 137.632 12.6012 139.726 11.893C142.038 11.1114 142.887 10.9973 146.387 10.998C148.476 10.9983 149.684 11.0608 151.493 11.2621C152.534 11.3779 156.354 12.1553 157.6 12.5049C158.212 12.6766 158.928 12.8596 159.192 12.9115C159.455 12.9635 160.023 13.1262 160.454 13.2732C160.884 13.4201 161.638 13.6595 162.129 13.8053C162.619 13.951 163.396 14.2136 163.854 14.3886C164.814 14.7555 165.188 14.7891 165.435 14.531C165.527 14.4342 165.781 13.9505 165.998 13.456C166.215 12.9616 166.597 12.1173 166.846 11.5798C167.096 11.0424 167.528 10.0709 167.807 9.42091C168.086 8.77103 168.429 7.99709 168.569 7.70104C169.598 5.51977 169.683 5.23841 169.408 4.94056C169.328 4.85379 168.935 4.66179 168.535 4.51396C167.623 4.17718 164.834 3.32944 164.284 3.22179C164.057 3.17746 163.465 3.0204 162.967 2.87281C162.47 2.72521 161.615 2.51046 161.066 2.39547C160.518 2.28055 159.656 2.08613 159.152 1.96339C158.647 1.84065 157.839 1.68344 157.357 1.61402C156.874 1.5446 156.282 1.43844 156.04 1.37809C155.551 1.25582 153.453 0.900118 152.53 0.78301C151.972 0.712183 151.489 0.675752 148.462 0.476325C146.667 0.358045 145.023 0.325446 144.672 0.401042ZM27.3409 0.524717C27.3144 0.550671 26.7247 0.603673 26.0305 0.642527C23.3324 0.793485 22.2687 0.922475 20.8787 1.26707C20.5384 1.3515 19.8979 1.49167 19.4553 1.57861C17.8614 1.8917 14.9421 2.92675 13.081 3.83859C11.4729 4.62645 9.25085 6.12047 7.54706 7.55938C6.28197 8.62781 4.26993 11.202 3.09075 13.2606C2.20986 14.7986 1.21489 17.3235 0.918923 18.772C0.853027 19.0945 0.694751 19.8514 0.567268 20.454C0.439706 21.0566 0.294194 21.8833 0.243855 22.2911C0.193596 22.6989 0.117568 23.3158 0.0751272 23.6621C-0.0237955 24.4675 -0.0254707 27.9993 0.072734 28.6853C0.113899 28.973 0.187373 29.5427 0.235957 29.9512C0.386415 31.2151 0.950195 33.9776 1.22941 34.8185C2.3758 38.2708 3.08238 39.6196 5.19119 42.3811C6.57283 44.1905 8.57394 46.0317 10.6879 47.4388C11.9928 48.3074 14.3769 49.4792 16.2057 50.151C16.9796 50.4352 17.657 50.6678 17.7111 50.6678C17.7652 50.6678 18.2624 50.8083 18.8159 50.98C19.8178 51.2907 21.988 51.7128 23.8111 51.9515C24.3376 52.0204 25.0087 52.1116 25.3023 52.1541C25.6359 52.2023 30.4113 52.2312 38.0267 52.2312C49.475 52.2311 50.2336 52.2227 50.4901 52.0944C50.8127 51.9329 50.9525 51.6856 51.6065 50.1206C52.0615 49.0319 52.734 47.4693 54.0457 44.4528C55.0697 42.0983 55.5222 40.9902 55.5222 40.8371C55.5222 40.7568 55.4712 40.6229 55.409 40.5394C55.2978 40.3906 55.04 40.3868 41.8669 40.3422C28.4138 40.2965 27.0357 40.2681 25.675 40.0072C23.9188 39.6706 21.3276 38.5908 19.9032 37.6019C19.1125 37.0529 17.3208 35.3928 16.7928 34.7199C16.3464 34.1509 15.4108 32.6603 15.3493 32.4199C15.2794 32.1471 15.3673 31.9429 15.5994 31.8393C15.7488 31.7725 19.0659 31.7492 28.4081 31.7492H41.0152L41.2483 31.5207L41.4815 31.2922V26.1987V21.1052L41.2483 20.8767L41.0152 20.6482H28.4095C20.7095 20.6482 15.7269 20.6195 15.6061 20.5745C15.3264 20.4703 15.2728 20.2275 15.4534 19.8824C16.0211 18.7976 17.265 17.1799 18.239 16.2598C18.4955 16.0175 19.0804 15.5145 19.5388 15.1421C21.5398 13.5163 24.1746 12.5321 27.6046 12.129C28.0397 12.0779 32.2521 12.0489 39.2346 12.0489C48.4715 12.0489 50.2243 12.0317 50.4513 11.9387C50.7828 11.803 50.9975 11.4565 51.5222 10.2106C51.7392 9.69523 52.1205 8.83388 52.3696 8.29642C52.6187 7.75896 52.9418 7.0166 53.0877 6.64683C53.2335 6.27698 53.4336 5.81965 53.5323 5.63054C53.631 5.44136 53.8639 4.91727 54.0499 4.4658C54.2359 4.01434 54.6424 3.09968 54.9532 2.43323C55.5366 1.18218 55.6022 0.928651 55.409 0.669654C55.2977 0.520572 55.0502 0.517524 41.3424 0.497746C33.668 0.486645 27.3673 0.498762 27.3409 0.524717ZM61.4256 0.578188C61.3159 0.632208 61.1614 0.799114 61.0822 0.948978C60.9518 1.19578 60.9434 1.36558 60.9926 2.74593C61.0225 3.58437 61.0383 4.83323 61.0278 5.52118C61.0126 6.50494 61.0021 13.9593 61.0077 19.7101C61.0082 20.1401 61.0085 21.5473 61.0085 22.8372C61.0085 24.1271 61.0085 25.5342 61.0085 25.9642C61.0085 26.3942 61.0085 27.8013 61.0085 29.0912C61.0085 30.3811 61.0083 31.7883 61.0082 32.2183C61.0081 32.6482 61.0079 34.3368 61.0079 35.9707C61.0079 37.6046 61.0078 39.2932 61.0076 39.7232C61.003 48.988 61.0195 51.3434 61.0943 52.1707C61.101 52.2448 61.2125 52.3591 61.3419 52.4247C61.5468 52.5286 62.3627 52.544 67.6503 52.544H73.7235L73.9567 52.3155L74.1898 52.087V35.2392C74.1898 24.4815 74.218 18.3188 74.2676 18.1908C74.3724 17.9206 74.6777 17.9268 74.9764 18.2052C75.1032 18.3234 75.8017 19.1062 76.5285 19.9446C77.2553 20.7831 78.1304 21.7876 78.473 22.177C78.8158 22.5663 79.7595 23.6568 80.5703 24.6004C81.3811 25.544 82.2607 26.5466 82.5248 26.8285C82.789 27.1103 83.7231 28.182 84.6007 29.2098C85.4782 30.2378 86.4313 31.3264 86.7186 31.629C87.006 31.9316 87.8304 32.8652 88.5507 33.7036C89.271 34.5421 90.8129 36.3198 91.9772 37.6541C93.1414 38.9884 94.6495 40.7298 95.3284 41.5238C96.0074 42.3178 96.7816 43.1961 97.049 43.4756C97.3164 43.7551 98.0567 44.5994 98.6942 45.3518C99.3317 46.1043 100.134 47.0189 100.477 47.3844C100.82 47.7499 101.628 48.6645 102.272 49.417C104.361 51.8552 104.589 52.1112 104.846 52.3095L105.099 52.5049L109.912 52.5263L114.725 52.5476L114.96 52.3173L115.195 52.087V26.5114V0.935843L114.962 0.707336L114.729 0.478827H108.573H102.418L102.185 0.707336L101.952 0.935843V13.5108C101.952 24.7656 101.939 26.104 101.828 26.2595C101.673 26.4757 101.553 26.4781 101.284 26.2705C101.054 26.0934 99.2027 23.9599 96.3413 20.5749C95.3396 19.3898 94.2187 18.0815 93.8505 17.6674C93.1117 16.8367 92.9 16.5868 91.3424 14.7069C90.7546 13.9974 90.0532 13.1707 89.7837 12.8697C89.5142 12.5687 88.884 11.8476 88.3832 11.2671C87.5557 10.308 87.1569 9.83579 85.5835 7.95104C85.002 7.25449 84.9256 7.16514 83.0051 4.93681C82.2153 4.02035 81.3782 3.03823 81.1447 2.75422C80.1486 1.54218 79.7367 1.08453 79.3944 0.809746L79.031 0.517915L70.328 0.498996C63.4699 0.483986 61.5828 0.500794 61.4256 0.578188ZM252.53 0.558175C252.354 0.595544 251.934 0.628221 251.595 0.630645C250.278 0.640339 248.222 0.910437 246.507 1.29921C245.871 1.44336 245.188 1.58588 244.991 1.61582C244.367 1.71041 241.801 2.57574 240.563 3.10867C237.923 4.24566 235.734 5.57926 233.598 7.35261C232.491 8.27133 231.997 8.76829 231.043 9.9228C229.269 12.0688 227.981 14.2749 227.074 16.7208C226.703 17.7225 226.05 20.1613 225.804 21.4691C225.411 23.5529 225.408 29.0731 225.797 31.4603C225.988 32.6299 226.653 35.096 227.119 36.3616C227.549 37.5283 228.873 40.159 229.46 41.0131C230.622 42.7039 232.159 44.4506 233.366 45.452C234.882 46.7092 236.33 47.7412 237.532 48.421C238.171 48.7823 240.082 49.6993 241.281 50.2197C243.356 51.1202 247.938 52.1547 250.537 52.3093C251.326 52.3563 252.312 52.432 252.729 52.4776C253.501 52.5619 255.275 52.5359 257.995 52.4003C259.815 52.3097 260.272 52.2484 262.721 51.7662C267.607 50.8044 271.619 49.0005 275.277 46.1216C276.623 45.0627 277.121 44.5961 278.061 43.5131C279.993 41.2879 281.535 38.7163 282.395 36.2834C282.57 35.789 282.802 35.1381 282.91 34.8372C283.109 34.2833 283.753 31.0975 283.914 29.8689C284.027 29.0096 284.029 24.0105 283.918 23.1889C283.759 22.0266 283.511 20.691 283.322 19.9837C283.219 19.5968 283.095 19.065 283.048 18.8021C282.836 17.628 281.501 14.4169 280.674 13.0885C280.508 12.8217 280.25 12.3927 280.102 12.1349C279.754 11.532 278.223 9.61689 277.421 8.78104C276.249 7.56063 274.05 5.85624 272.235 4.7606C271.452 4.28819 269.796 3.45772 269.138 3.20787C268.911 3.12141 268.436 2.93035 268.083 2.78338C267.226 2.42603 264.863 1.68766 264.217 1.57509C263.932 1.52537 263.419 1.41577 263.078 1.33134C261.795 1.0141 260.875 0.855714 259.869 0.778945C259.299 0.735323 258.419 0.666997 257.915 0.627127C256.616 0.524482 252.911 0.477029 252.53 0.558175ZM256.479 12.4803C257.119 12.5362 258.916 12.8237 259.466 12.9583C260.203 13.1385 262.192 13.8686 262.906 14.2203C265.597 15.5472 267.785 17.9277 268.889 20.728C269.515 22.3176 269.733 23.1918 269.823 24.4789C269.936 26.0869 269.934 27.2714 269.819 28.5049C269.698 29.7863 269.594 30.2508 269.096 31.7284C268.475 33.5729 267.619 34.9606 266.279 36.2951C264.56 38.0081 263.091 38.8732 260.308 39.8125C259.084 40.2258 256.382 40.6133 254.724 40.6133C252.142 40.6133 248.792 39.9144 246.91 38.9831C243.568 37.3304 241.357 34.8093 240.221 31.3583C239.833 30.1784 239.449 27.4224 239.508 26.2378C239.662 23.1445 240.24 20.9753 241.457 18.9284C242.964 16.3918 245.331 14.5303 248.501 13.3894C249.094 13.1762 249.794 12.9649 250.057 12.9198C250.881 12.7786 252.506 12.5267 253.088 12.4498C253.617 12.38 255.526 12.3972 256.479 12.4803Z" fill="#2E56F6"/>
</svg>
