<svg width="272" height="250" viewBox="0 0 272 250" fill="none" xmlns="http://www.w3.org/2000/svg">
<path fill-rule="evenodd" clip-rule="evenodd" d="M140.896 1.16512C140.284 2.99342 138.601 7.83441 137.426 11.1474C135.394 16.8765 134.572 19.2612 134.572 19.43C134.572 19.8468 134.86 19.9015 137.047 19.9015H139.221V39.1635V58.4255L137.054 59.5466C126.49 65.0105 117.858 73.1383 111.269 83.8258C109.61 86.5169 109.199 87.2522 107.943 89.7724C103.871 97.9457 101.71 106.053 101.152 115.258C100.111 132.407 105.095 148.495 115.497 161.566C119.049 166.03 123.37 170.216 128.038 173.715C130.062 175.233 133.093 177.295 134.666 178.226C135.167 178.522 135.577 178.789 135.577 178.818C135.577 178.867 127.87 182.716 108.751 192.214C104.881 194.137 98.3221 197.396 94.1756 199.457C90.0292 201.517 83.442 204.791 79.5374 206.73C75.6328 208.67 69.2435 211.844 65.339 213.784C61.4344 215.724 55.1865 218.827 51.4547 220.68C47.7229 222.534 41.1639 225.793 36.8793 227.922C22.4863 235.077 16.4404 238.063 16.3487 238.063C16.2986 238.063 15.7504 236.943 15.1304 235.575C14.1937 233.508 13.9614 233.091 13.7558 233.11C13.6197 233.122 13.4236 233.251 13.3199 233.395C13.1332 233.656 9.83364 237.642 3.35689 245.431C1.51373 247.648 0.00454957 249.561 0.00329307 249.683C0.000403127 249.967 -0.35104 249.975 7.12136 249.531C10.5652 249.327 15.071 249.061 17.1344 248.941C20.7098 248.732 20.8916 248.709 21.0055 248.459C21.1023 248.246 20.8961 247.719 19.924 245.696C19.2634 244.321 18.7229 243.172 18.7229 243.142C18.7229 243.113 20.5464 242.192 22.7751 241.095C25.0038 239.999 30.8418 237.104 35.7484 234.662C40.655 232.22 47.1009 229.018 50.0725 227.545C53.0441 226.073 58.9811 223.126 63.2657 220.996C67.5504 218.866 73.7135 215.806 76.9616 214.194C80.2096 212.583 86.0335 209.692 89.9035 207.77C93.7735 205.848 99.5974 202.957 102.845 201.346C106.093 199.735 111.974 196.816 115.913 194.859C119.852 192.903 125.224 190.239 127.85 188.939C130.476 187.64 134.684 185.547 137.201 184.289C139.91 182.934 141.859 182.031 141.976 182.075C142.085 182.115 143.898 183.089 146.006 184.239C148.114 185.388 151.45 187.206 153.42 188.279C155.389 189.351 157.962 190.753 159.137 191.393C160.311 192.034 161.64 192.757 162.089 193C162.539 193.244 164.913 194.535 167.367 195.871C169.82 197.207 173.099 198.989 174.654 199.832C176.209 200.676 178.16 201.738 178.989 202.193C179.819 202.648 182.193 203.94 184.267 205.064C186.34 206.188 189.308 207.802 190.863 208.65C195.804 211.345 198.06 212.572 199.093 213.126C199.646 213.423 201.314 214.328 202.8 215.139C204.286 215.949 207.198 217.535 209.271 218.662C211.344 219.789 214.341 221.421 215.93 222.288C217.52 223.154 219.16 224.046 219.574 224.269C220.436 224.732 225.151 227.295 229.312 229.561C230.867 230.408 233.213 231.684 234.527 232.399C235.84 233.113 237.14 233.821 237.416 233.972C237.693 234.123 238.287 234.445 238.736 234.688C246.788 239.046 256.343 244.24 256.432 244.308C256.455 244.325 256.017 245.156 255.458 246.153C254.899 247.15 254.442 248.058 254.442 248.171C254.442 248.437 254.09 248.395 263.175 249.21C267.39 249.588 271.105 249.928 271.429 249.966C271.995 250.033 272.018 250.024 271.994 249.724C271.973 249.452 270.44 247.43 265.059 240.579C264.645 240.051 263.684 238.818 262.923 237.838C262.148 236.839 261.449 236.055 261.332 236.052C261.117 236.047 260.933 236.307 260.22 237.622C259.995 238.038 259.675 238.613 259.509 238.9L259.208 239.423L257.987 238.759C255.811 237.576 249.552 234.167 246.652 232.585C240.583 229.276 237.889 227.81 237.165 227.421C236.751 227.198 235.111 226.307 233.521 225.44C231.932 224.574 227.946 222.403 224.663 220.617C221.38 218.83 217.394 216.66 215.805 215.794C214.215 214.928 212.575 214.037 212.161 213.814C211.401 213.406 207.977 211.541 202.706 208.667C199.78 207.071 198.216 206.22 191.743 202.701C189.704 201.592 187.782 200.545 187.471 200.373C187.16 200.202 186.538 199.862 186.088 199.62C185.639 199.377 183.943 198.455 182.319 197.571C175.474 193.845 173.218 192.619 168.749 190.195C166.157 188.789 163.981 187.589 163.913 187.528C163.842 187.465 165.024 187.454 166.677 187.501C179.127 187.858 190.976 184.918 201.983 178.742C209.936 174.279 217.473 167.585 223.12 159.968C229.605 151.22 233.861 141.18 235.642 130.431C236.327 126.295 236.406 125.145 236.407 119.409C236.407 113.697 236.342 112.757 235.655 108.49C232.789 90.6951 222.812 74.563 208.235 64.1563C198.87 57.4697 188.466 53.4295 177.167 52.091C166.946 50.8803 155.405 52.156 146.33 55.4999C145.506 55.8034 144.785 56.0518 144.728 56.0518C144.671 56.0518 144.624 47.918 144.624 37.9767V19.9015H146.678C149.43 19.9015 149.341 20.0131 148.436 17.6973C148.057 16.7274 147.19 14.4601 146.509 12.6589C145.829 10.8577 144.476 7.29215 143.503 4.73556C142.53 2.17884 141.734 0.0675141 141.734 0.0435819C141.734 0.0196496 141.633 0 141.51 0C141.34 0 141.193 0.27774 140.896 1.16512ZM174.506 57.5099C185.982 58.6109 196.946 62.9327 206.423 70.0916C213.852 75.703 220.139 83.1426 224.026 90.9222C224.384 91.6384 224.659 92.2733 224.638 92.3329C224.617 92.3926 223.302 93.762 221.716 95.3763C220.13 96.9904 217.274 99.8986 215.371 101.839C213.467 103.779 210.269 107.038 208.264 109.081C203.921 113.507 199.22 118.301 189.984 127.724C186.217 131.566 181.496 136.381 179.492 138.424C175.967 142.016 172.529 145.524 165.419 152.783C163.553 154.688 160.415 157.891 158.446 159.902C153.263 165.192 148.587 169.969 146.576 172.029C145.612 173.016 144.778 173.824 144.723 173.824C144.669 173.824 144.638 148.7 144.655 117.993L144.687 62.1621L146.257 61.4899C149.106 60.2703 153.234 58.9925 156.496 58.3195C158.826 57.8389 162.452 57.4365 166.047 57.2595C167.705 57.1778 172.535 57.3209 174.506 57.5099ZM139.221 119.666V174.462L138.938 174.312C138.783 174.229 137.892 173.708 136.959 173.153C127.886 167.759 120.175 159.908 114.885 150.677C110.081 142.295 107.409 133.589 106.669 123.911C106.481 121.446 106.582 115.635 106.855 113.194C107.715 105.5 109.764 98.4577 113.056 91.8761C117.644 82.7043 124.321 74.8594 132.624 68.8849C134.598 67.4654 138.717 64.9031 139.064 64.8795C139.189 64.8711 139.221 75.9066 139.221 119.666ZM227.084 97.5869C227.118 97.708 227.462 98.8276 227.849 100.075C229.445 105.221 230.415 109.935 230.88 114.808C231.1 117.11 231.132 122.049 230.941 124.196C230.718 126.706 230.101 130.684 229.593 132.887L229.375 133.832L228.495 134.273C227.132 134.958 220.573 138.146 203.679 146.335C202.608 146.854 200.629 147.817 199.282 148.474C197.934 149.132 196.21 149.968 195.449 150.332C194.689 150.697 192.936 151.547 191.554 152.221C190.172 152.895 187.486 154.199 185.586 155.118C183.685 156.037 181 157.342 179.618 158.016C178.235 158.691 176.483 159.541 175.722 159.904C174.962 160.268 172.333 161.544 169.88 162.738C167.426 163.933 164.91 165.152 164.288 165.448C163.666 165.743 161.752 166.672 160.034 167.511C158.317 168.35 156.856 169.037 156.788 169.037C156.721 169.037 156.684 168.986 156.707 168.924C156.73 168.862 159.999 165.504 163.972 161.461C167.944 157.419 174.361 150.88 178.231 146.931C182.102 142.983 186.909 138.081 188.914 136.039C193.648 131.217 201.029 123.69 210.469 114.056C224.651 99.5823 226.838 97.3664 226.938 97.3664C226.984 97.3664 227.049 97.4657 227.084 97.5869ZM227.035 141.61C226.89 141.973 226.632 142.637 226.462 143.084C225.175 146.474 222.589 151.122 219.767 155.119C216.549 159.677 211.195 165.177 206.444 168.806C200.259 173.53 193.245 177.16 186.047 179.36C179.858 181.252 174.921 182.012 168.812 182.012C162.512 182.013 157.166 181.194 150.268 179.172C148.392 178.623 148.075 178.499 148.216 178.37C148.279 178.312 149.857 177.542 151.723 176.659C153.589 175.776 155.709 174.77 156.435 174.424C157.161 174.077 158.772 173.313 160.016 172.726C161.26 172.139 163.875 170.898 165.827 169.97C172.207 166.935 176.461 164.917 177.293 164.529C177.742 164.32 178.816 163.811 179.68 163.399C180.544 162.986 181.703 162.435 182.256 162.173C182.809 161.911 184.905 160.916 186.914 159.961C188.923 159.006 191.411 157.829 192.443 157.347C193.474 156.864 195.054 156.116 195.952 155.683C196.85 155.251 198.462 154.487 199.533 153.985C201.584 153.024 206.642 150.632 210.967 148.576C212.384 147.903 214.9 146.708 216.559 145.922C218.217 145.135 221.242 143.697 223.281 142.726C225.32 141.755 227.057 140.957 227.143 140.954C227.252 140.95 227.219 141.146 227.035 141.61Z" fill="#2E56F6"/>
</svg>
