<svg width="19" height="33" viewBox="0 0 19 33" fill="none" xmlns="http://www.w3.org/2000/svg">
<path d="M8.59144 32.115C8.83974 32.3633 9.174 32.497 9.4987 32.497C9.8234 32.497 10.1577 32.3728 10.406 32.115L18.5999 23.921C19.1061 23.4149 19.1061 22.6031 18.5999 22.097C18.0938 21.5908 17.282 21.5908 16.7759 22.097L10.788 28.0944V1.93672C10.788 1.22047 10.215 0.647461 9.4987 0.647461C8.78244 0.647461 8.20944 1.22047 8.20944 1.93672V28.0944L2.21198 22.097C1.70583 21.5908 0.894071 21.5908 0.387917 22.097C-0.118238 22.6031 -0.118238 23.4149 0.387917 23.921L8.59144 32.115Z" fill="#0A143D"/>
</svg>
