<svg width="32" height="19" viewBox="0 0 32 19" fill="none" xmlns="http://www.w3.org/2000/svg">
<path d="M31.4675 10.3881C31.7158 10.1397 31.8495 9.80549 31.8495 9.48079C31.8495 9.15609 31.7254 8.82184 31.4675 8.57353L23.2736 0.379561C22.7674 -0.126592 21.9556 -0.126592 21.4495 0.379561C20.9433 0.885716 20.9433 1.69747 21.4495 2.20363L27.4469 8.19153L1.28926 8.19153C0.573005 8.19153 -4.46147e-07 8.76454 -4.14838e-07 9.48079C-3.8353e-07 10.1971 0.573005 10.7701 1.28926 10.7701L27.4469 10.7701L21.4495 16.7675C20.9433 17.2737 20.9433 18.0854 21.4495 18.5916C21.9556 19.0977 22.7674 19.0977 23.2736 18.5916L31.4675 10.3881Z" fill="#0A143D"/>
</svg>
