<svg width="1083" height="997" viewBox="0 0 1083 997" fill="none" xmlns="http://www.w3.org/2000/svg">
<path opacity="0.05" fill-rule="evenodd" clip-rule="evenodd" d="M560.67 4.86029C558.234 12.1437 551.537 31.429 546.861 44.627C538.774 67.4503 535.504 76.9502 535.504 77.6226C535.504 79.283 536.649 79.5013 545.354 79.5013H554.004V156.236V232.971L545.379 237.437C503.342 259.204 468.995 291.583 442.776 334.159C436.174 344.879 434.537 347.808 429.54 357.848C413.334 390.409 404.736 422.707 402.514 459.376C398.374 527.691 418.206 591.783 459.599 643.856C473.734 661.639 490.928 678.314 509.504 692.255C517.559 698.3 529.62 706.517 535.879 710.224C537.873 711.405 539.504 712.467 539.504 712.584C539.504 712.78 508.835 728.111 432.754 765.948C417.354 773.608 391.254 786.591 374.754 794.801C358.254 803.011 332.042 816.05 316.504 823.778C300.967 831.505 275.542 844.15 260.004 851.877C244.467 859.605 219.604 871.968 204.754 879.351C189.904 886.735 163.804 899.717 146.754 908.202C89.4801 936.702 65.4216 948.598 65.0566 948.598C64.8571 948.598 62.6756 944.138 60.2086 938.688C56.4811 930.453 55.5566 928.793 54.7386 928.867C54.1971 928.917 53.4166 929.428 53.0041 930.004C52.2611 931.041 39.1311 946.921 13.3581 977.953C6.02361 986.784 0.0181042 994.405 0.0131042 994.888C0.00160417 996.023 -1.3969 996.053 28.3381 994.286C42.0421 993.471 59.9721 992.412 68.1831 991.933C82.4106 991.102 83.1341 991.011 83.5876 990.012C83.9726 989.164 83.1521 987.065 79.2836 979.005C76.6551 973.528 74.5041 968.95 74.5041 968.833C74.5041 968.716 81.7606 965.046 90.6291 960.678C99.4981 956.31 122.729 944.777 142.254 935.051C161.779 925.324 187.429 912.566 199.254 906.7C211.079 900.834 234.704 889.092 251.754 880.609C268.804 872.125 293.329 859.931 306.254 853.513C319.179 847.093 342.354 835.577 357.754 827.92C373.154 820.264 396.329 808.747 409.254 802.328C422.179 795.909 445.579 784.281 461.254 776.487C476.929 768.694 498.304 758.081 508.754 752.903C519.204 747.726 535.95 739.389 545.966 734.376C556.746 728.981 564.5 725.382 564.966 725.557C565.4 725.718 572.617 729.597 581.004 734.177C589.392 738.757 602.667 745.999 610.504 750.272C618.342 754.543 628.579 760.127 633.254 762.678C637.929 765.23 643.217 768.111 645.004 769.081C646.792 770.051 656.242 775.197 666.004 780.517C675.767 785.838 688.817 792.94 695.004 796.299C701.192 799.658 708.954 803.889 712.254 805.701C715.554 807.513 725.004 812.661 733.254 817.14C741.504 821.619 753.317 828.048 759.504 831.427C779.166 842.163 788.142 847.05 792.254 849.258C794.454 850.439 801.092 854.047 807.004 857.275C812.917 860.503 824.504 866.819 832.754 871.31C841.004 875.801 852.929 882.301 859.254 885.754C865.579 889.207 872.104 892.759 873.754 893.648C877.182 895.494 895.946 905.702 912.504 914.729C918.692 918.102 928.029 923.189 933.254 926.034C938.479 928.879 943.654 931.699 944.754 932.3C945.854 932.902 948.217 934.186 950.004 935.155C982.048 952.514 1020.07 973.206 1020.42 973.477C1020.51 973.547 1018.77 976.856 1016.55 980.828C1014.32 984.8 1012.5 988.417 1012.5 988.866C1012.5 989.926 1011.1 989.76 1047.25 993.005C1064.03 994.51 1078.81 995.867 1080.1 996.019C1082.35 996.284 1082.44 996.247 1082.35 995.054C1082.27 993.97 1076.17 985.915 1054.75 958.623C1053.1 956.52 1049.28 951.606 1046.25 947.704C1043.17 943.724 1040.39 940.6 1039.92 940.589C1039.06 940.569 1038.33 941.604 1035.5 946.842C1034.6 948.498 1033.33 950.79 1032.67 951.935L1031.47 954.017L1026.61 951.373C1017.95 946.659 993.044 933.078 981.504 926.778C957.353 913.596 946.634 907.753 943.754 906.203C942.104 905.315 935.579 901.765 929.254 898.314C922.929 894.862 907.067 886.215 894.004 879.098C880.942 871.981 865.079 863.336 858.754 859.885C852.429 856.435 845.904 852.886 844.254 851.998C841.231 850.371 827.604 842.944 806.629 831.493C794.986 825.136 788.765 821.747 763.004 807.726C754.892 803.31 747.242 799.138 746.004 798.453C744.767 797.769 742.292 796.418 740.504 795.451C738.717 794.485 731.967 790.812 725.504 787.291C698.266 772.448 689.288 767.562 671.504 757.904C661.192 752.304 652.533 747.524 652.262 747.283C651.979 747.031 656.683 746.985 663.262 747.174C712.801 748.594 759.954 736.882 803.754 712.278C835.401 694.502 865.392 667.834 887.862 637.49C913.671 602.638 930.608 562.642 937.692 519.82C940.417 503.345 940.735 498.762 940.736 475.914C940.738 453.159 940.48 449.413 937.746 432.415C926.341 361.524 886.638 297.258 828.633 255.801C791.364 229.163 749.965 213.068 705.004 207.736C664.331 202.913 618.406 207.995 582.293 221.316C579.014 222.525 576.145 223.514 575.918 223.514C575.69 223.514 575.504 191.112 575.504 151.508V79.5013H583.677C594.628 79.5013 594.274 79.9459 590.672 70.72C589.164 66.8562 585.714 57.824 583.007 50.6485C580.299 43.4729 574.916 29.2688 571.044 19.084C567.172 8.89868 564.004 0.487708 564.004 0.392369C564.004 0.297029 563.603 0.21875 563.113 0.21875C562.435 0.21875 561.852 1.32519 560.67 4.86029ZM694.413 229.323C740.08 233.709 783.708 250.926 821.422 279.445C850.985 301.799 876.002 331.437 891.469 362.429C892.893 365.282 893.99 367.811 893.906 368.049C893.823 368.286 888.59 373.742 882.277 380.173C875.965 386.603 864.603 398.188 857.027 405.917C849.452 413.647 836.726 426.63 828.747 434.77C811.464 452.403 792.759 471.499 756.004 509.036C741.017 524.343 722.229 543.524 714.254 551.662C700.227 565.975 686.547 579.95 658.254 608.867C650.829 616.455 638.342 629.217 630.504 637.225C609.881 658.298 591.273 677.331 583.271 685.536C579.435 689.469 576.118 692.686 575.9 692.686C575.682 692.686 575.56 592.6 575.629 470.271L575.754 247.856L582.004 245.178C593.341 240.32 609.764 235.229 622.747 232.548C632.017 230.634 646.446 229.031 660.754 228.326C667.351 228 686.572 228.57 694.413 229.323ZM554.004 476.935V695.23L552.879 694.631C552.261 694.302 548.717 692.225 545.004 690.015C508.897 668.526 478.214 637.25 457.163 600.478C438.047 567.086 427.413 532.401 424.471 493.848C423.722 484.028 424.121 460.878 425.208 451.155C428.633 420.502 436.785 392.448 449.885 366.229C468.141 329.691 494.711 298.439 527.754 274.638C535.606 268.983 551.998 258.776 553.379 258.682C553.878 258.648 554.004 302.611 554.004 476.935ZM903.636 388.979C903.773 389.462 905.144 393.922 906.683 398.889C913.033 419.392 916.892 438.171 918.745 457.584C919.62 466.753 919.748 486.43 918.988 494.982C918.099 504.98 915.642 520.83 913.621 529.605L912.754 533.369L909.254 535.128C903.83 537.856 877.728 550.557 810.504 583.178C806.242 585.247 798.367 589.082 793.004 591.701C787.642 594.32 780.779 597.651 777.754 599.103C774.729 600.556 767.754 603.941 762.254 606.627C756.754 609.313 746.067 614.506 738.504 618.169C730.942 621.831 720.254 627.026 714.754 629.714C709.254 632.402 702.279 635.787 699.254 637.236C696.229 638.685 685.767 643.766 676.004 648.524C666.242 653.284 656.229 658.141 653.754 659.318C651.279 660.496 643.662 664.195 636.827 667.539C629.991 670.883 624.179 673.618 623.91 673.618C623.641 673.618 623.496 673.416 623.588 673.168C623.679 672.92 636.688 659.542 652.495 643.437C668.302 627.333 693.837 601.286 709.238 585.555C724.639 569.824 743.768 550.296 751.747 542.161C770.587 522.952 799.956 492.967 837.521 454.588C893.957 396.928 902.659 388.101 903.057 388.101C903.239 388.101 903.5 388.496 903.636 388.979ZM903.441 564.354C902.864 565.803 901.839 568.447 901.163 570.229C896.042 583.734 885.752 602.25 874.522 618.171C861.715 636.328 840.41 658.24 821.504 672.698C796.895 691.518 768.981 705.978 740.337 714.743C715.709 722.28 696.064 725.307 671.754 725.308C646.686 725.309 625.413 722.047 597.963 713.994C590.498 711.804 589.238 711.31 589.798 710.796C590.049 710.565 596.329 707.499 603.754 703.981C611.179 700.464 619.617 696.456 622.504 695.076C625.392 693.696 631.804 690.653 636.754 688.313C641.704 685.973 652.111 681.033 659.879 677.334C685.267 665.245 702.194 657.204 705.504 655.659C707.292 654.826 711.567 652.799 715.004 651.157C718.442 649.514 723.054 647.316 725.254 646.273C727.454 645.23 735.795 641.264 743.79 637.46C751.784 633.655 761.684 628.97 765.79 627.047C769.895 625.126 776.179 622.143 779.754 620.42C783.329 618.698 789.742 615.653 794.004 613.654C802.167 609.827 822.292 600.297 839.504 592.107C845.142 589.425 855.154 584.666 861.754 581.533C868.354 578.4 880.392 572.67 888.504 568.801C896.617 564.932 903.532 561.756 903.872 561.743C904.305 561.727 904.176 562.509 903.441 564.354Z" fill="black"/>
</svg>
