<svg width="661" height="628" viewBox="0 0 661 628" fill="none" xmlns="http://www.w3.org/2000/svg">
<path fill-rule="evenodd" clip-rule="evenodd" d="M329.616 1.31969C328.801 2.04531 326.99 3.40424 325.591 4.33946C324.192 5.27467 322.55 6.45571 321.941 6.96396C321.333 7.47222 320.303 8.24786 319.654 8.68732C319.004 9.12701 318.015 9.85068 317.456 10.296C316.493 11.0626 315.806 11.579 312.361 14.1242C311.559 14.7172 310.419 15.5905 309.828 16.0649C308.604 17.0482 306.495 18.6359 304.529 20.0541C303.79 20.5878 302.615 21.5157 301.918 22.1163C301.222 22.7168 300.314 23.4409 299.901 23.7251C299.488 24.0096 298.579 24.7151 297.882 25.293C297.185 25.8709 296.245 26.5782 295.793 26.8648C295.341 27.1514 294.319 27.979 293.523 28.7044C292.726 29.4296 291.561 30.3525 290.933 30.7555C290.306 31.1583 289.193 32.0472 288.46 32.7307C287.726 33.4143 286.739 34.2085 286.267 34.4953C285.795 34.7823 284.791 35.5799 284.036 36.268C283.282 36.9559 282.134 37.8721 281.486 38.3043C280.838 38.7362 279.668 39.6902 278.886 40.424C278.104 41.158 276.981 42.0872 276.391 42.4891C275.8 42.8911 274.392 44.0635 273.261 45.0944C272.131 46.1254 270.902 47.1544 270.531 47.3813C270.159 47.6081 268.717 48.8461 267.326 50.1323C265.935 51.4186 264.38 52.7379 263.87 53.0641C263.361 53.3904 261.872 54.66 260.563 55.8855C259.253 57.1112 257.786 58.4024 257.302 58.755C256.819 59.1075 254.829 60.89 252.88 62.7156C250.932 64.5413 248.903 66.3337 248.372 66.6986C247.84 67.0636 244.848 69.8303 241.723 72.8472C238.597 75.864 235.361 78.8669 234.53 79.5207C232.287 81.2866 208.835 104.829 207.308 106.848C206.591 107.796 203.791 110.861 201.087 113.658C198.383 116.456 195.959 119.096 195.701 119.527C195.442 119.957 194.114 121.501 192.749 122.958C191.384 124.416 189.648 126.384 188.892 127.333C188.136 128.282 186.658 129.98 185.609 131.107C184.56 132.233 183.377 133.66 182.981 134.277C182.585 134.893 181.597 136.106 180.785 136.972C179.973 137.838 178.904 139.103 178.409 139.783C177.914 140.463 176.969 141.628 176.308 142.371C175.647 143.113 174.812 144.158 174.452 144.692C174.092 145.225 173.158 146.438 172.378 147.387C170.924 149.153 169.223 151.364 167.32 153.961C166.73 154.767 165.86 155.921 165.388 156.525C164.915 157.129 163.931 158.425 163.2 159.405C162.469 160.386 161.384 161.819 160.79 162.589C160.195 163.36 158.867 165.253 157.84 166.794C156.812 168.336 155.622 170.034 155.194 170.568C153.899 172.186 150.762 176.824 146.379 183.602C145.135 185.525 143.774 187.579 143.354 188.166C142.935 188.752 142.179 190.006 141.675 190.951C141.171 191.897 140.45 193.107 140.074 193.641C139.697 194.175 139.109 195.145 138.768 195.797C138.426 196.45 137.84 197.42 137.465 197.954C137.091 198.487 136.418 199.603 135.969 200.434C135.52 201.264 134.852 202.38 134.484 202.913C134.116 203.447 133.247 204.997 132.553 206.357C131.859 207.718 130.808 209.659 130.218 210.67C128.818 213.069 125.163 219.98 123.486 223.399C122.758 224.881 120.585 229.302 118.655 233.223C116.726 237.143 114.861 241.122 114.511 242.064C114.161 243.006 113.316 244.907 112.632 246.289C111.949 247.672 111.389 248.864 111.389 248.939C111.389 249.127 109.177 254.775 108.174 257.146C107.723 258.213 107.289 259.329 107.21 259.626C107.131 259.922 106.739 260.941 106.339 261.89C105.416 264.077 104.724 265.956 104.033 268.148C103.733 269.099 103.043 271.04 102.5 272.46C101.956 273.881 101.331 275.529 101.11 276.122C100.467 277.848 98.4983 284.075 98.5028 284.368C98.5052 284.515 98.2731 285.34 97.9871 286.201C97.2047 288.555 96.6263 290.675 96.4792 291.724C96.4069 292.241 96.2061 292.938 96.0328 293.275C95.8596 293.611 95.6215 294.547 95.5034 295.355C95.3853 296.162 95.1476 297.211 94.975 297.685C94.8024 298.16 94.657 298.957 94.6518 299.458C94.6467 299.958 94.4009 301.111 94.1056 302.019C93.7449 303.129 93.5659 304.174 93.5594 305.206C93.5543 306.056 93.4012 307.127 93.2172 307.605C93.004 308.157 92.8208 309.708 92.7081 311.917C92.5739 314.54 92.4245 315.663 92.0842 316.602C91.6548 317.786 91.6365 318.241 91.6365 327.733C91.6365 337.211 91.6556 337.688 92.0881 339.006C92.4011 339.96 92.5928 341.307 92.7133 343.4C92.8168 345.195 93.0216 346.769 93.2187 347.282C93.401 347.756 93.5543 348.835 93.5594 349.68C93.5659 350.712 93.7449 351.757 94.1056 352.867C94.4009 353.776 94.6424 354.697 94.6424 354.915C94.6424 355.133 94.8356 355.919 95.0718 356.662C95.308 357.404 95.5055 358.314 95.5107 358.685C95.5158 359.055 95.6704 359.745 95.854 360.22C96.0378 360.694 96.3236 361.687 96.4895 362.426C97.1738 365.478 99.9044 373.098 101.494 376.393C101.952 377.341 102.554 378.742 102.832 379.506C103.499 381.336 106.542 387.577 107.188 388.438C107.467 388.81 108.153 389.988 108.712 391.056C109.595 392.74 111.515 395.927 112.673 397.633C112.874 397.929 113.88 399.425 114.908 400.957C115.936 402.489 117.143 404.188 117.589 404.731C118.036 405.274 118.708 406.174 119.083 406.73C119.458 407.286 120.535 408.575 121.475 409.595C122.416 410.614 123.521 411.954 123.931 412.573C124.855 413.965 137.139 426.262 138.38 427.036C138.877 427.346 140.089 428.362 141.073 429.293C142.057 430.224 143.416 431.342 144.094 431.777C144.771 432.212 145.733 432.946 146.232 433.407C146.73 433.868 148.09 434.88 149.254 435.656C150.418 436.432 152.012 437.562 152.797 438.168C154.361 439.375 156.131 440.546 158.663 442.047C160.666 443.234 163.236 444.82 165.453 446.236C167.382 447.468 188.055 457.911 189.005 458.133C189.36 458.216 190.809 458.82 192.226 459.474C193.643 460.13 195.334 460.838 195.983 461.048C197.8 461.635 201.597 463.078 202.323 463.456C202.681 463.642 203.502 463.94 204.148 464.118C204.794 464.296 206.875 464.98 208.772 465.637C210.669 466.294 212.843 466.969 213.603 467.137C214.363 467.304 215.806 467.704 216.81 468.024C218.605 468.597 220.716 469.155 223.466 469.784C224.233 469.96 225.372 470.294 225.997 470.526C226.621 470.759 227.406 470.949 227.74 470.949C228.074 470.949 228.953 471.143 229.692 471.38C230.431 471.617 231.412 471.811 231.871 471.811C232.33 471.811 233.398 472.054 234.242 472.351C235.143 472.666 236.274 472.893 236.976 472.899C237.634 472.904 238.559 473.054 239.032 473.232C239.504 473.41 240.809 473.644 241.93 473.753C243.052 473.862 244.523 474.149 245.199 474.391C246.041 474.692 246.962 474.83 248.124 474.83C249.178 474.83 250.296 474.982 251.081 475.231C251.853 475.475 253.345 475.68 254.92 475.759C256.621 475.843 257.962 476.037 258.866 476.329C260.066 476.716 260.788 476.771 264.689 476.771C268.551 476.771 269.321 476.828 270.486 477.202C271.783 477.618 272.422 477.634 288.521 477.634C304.621 477.634 305.26 477.618 306.557 477.202C307.698 476.836 308.492 476.771 311.817 476.771C315.111 476.771 315.942 476.704 317.046 476.35C317.768 476.118 319.35 475.862 320.563 475.78C321.775 475.698 323.335 475.451 324.029 475.231C324.816 474.981 325.931 474.83 326.987 474.83C328.144 474.83 329.072 474.691 329.911 474.392C330.587 474.151 332.01 473.864 333.073 473.753C334.136 473.643 335.392 473.408 335.864 473.231C336.336 473.053 337.082 472.904 337.52 472.899C337.958 472.894 338.828 472.699 339.452 472.467C340.525 472.068 342.245 471.63 344.667 471.14C345.257 471.021 346.368 470.729 347.136 470.492C347.904 470.256 349.111 469.935 349.82 469.779C350.528 469.624 351.929 469.235 352.933 468.916C353.937 468.597 355.324 468.192 356.015 468.016C357.704 467.585 360.037 466.797 361.736 466.084C362.504 465.762 364.436 465.034 366.03 464.467C370.59 462.845 372.913 461.934 374.189 461.268C374.838 460.928 376.002 460.443 376.775 460.19C379.839 459.187 390.293 453.489 390.615 452.648C390.842 452.052 390.363 451.882 389.207 452.15C388.605 452.29 387.515 452.409 386.787 452.414C386.057 452.419 385.074 452.569 384.602 452.746C384.13 452.924 382.819 453.157 381.689 453.264C380.559 453.37 379.207 453.615 378.683 453.806C378.147 454.003 376.513 454.236 374.94 454.341C373.405 454.443 371.763 454.667 371.29 454.839C370.818 455.011 369.196 455.214 367.686 455.291C366.008 455.377 364.589 455.565 364.036 455.777C363.366 456.032 361.906 456.164 358.408 456.283C354.553 456.415 353.507 456.518 352.718 456.845C351.804 457.224 350.811 457.245 334.146 457.247L316.54 457.248L315.171 456.767C313.979 456.348 313.365 456.286 310.447 456.286C307.757 456.286 306.8 456.202 305.619 455.863C304.809 455.63 303.167 455.374 301.97 455.293C300.773 455.212 299.225 454.966 298.531 454.746C297.785 454.509 296.633 454.345 295.714 454.345C294.779 454.345 293.652 454.182 292.885 453.936C292.184 453.711 290.843 453.456 289.905 453.368C288.967 453.281 287.631 453.029 286.937 452.807C286.243 452.586 285.414 452.404 285.096 452.404C284.777 452.404 283.826 452.162 282.981 451.865C282.136 451.569 281.069 451.326 280.609 451.326C280.15 451.326 279.169 451.132 278.43 450.895C277.691 450.658 276.867 450.463 276.6 450.463C276.333 450.463 275.451 450.257 274.642 450.004C273.832 449.751 272.639 449.423 271.989 449.274C269.529 448.711 260.055 445.512 257.604 444.417C256.6 443.969 255.296 443.447 254.705 443.258C254.115 443.07 250.782 441.481 247.298 439.729C242.066 437.097 240.161 436.004 236.348 433.451C233.809 431.751 231.324 429.983 230.826 429.523C230.327 429.063 229.361 428.332 228.679 427.899C227.371 427.069 217.764 417.659 216.682 416.148C216.339 415.669 215.522 414.583 214.867 413.733C213.698 412.218 211.902 409.615 210.209 406.98C208.741 404.698 204.836 396.565 203.908 393.859C202.615 390.09 201.978 388.004 201.636 386.42C201.47 385.649 201.144 384.505 200.913 383.878C200.682 383.251 200.492 382.269 200.492 381.696C200.492 381.122 200.313 380.083 200.093 379.386C199.874 378.688 199.629 377.134 199.548 375.932C199.468 374.73 199.213 373.081 198.981 372.267C198.59 370.892 198.56 370.076 198.56 360.759C198.56 351.382 198.588 350.633 198.989 349.225C199.251 348.303 199.471 346.672 199.556 345.021C199.642 343.36 199.849 341.835 200.094 341.054C200.313 340.357 200.492 339.282 200.492 338.666C200.492 338.026 200.722 336.884 201.029 336.002C201.324 335.154 201.566 334.082 201.566 333.621C201.566 333.16 201.759 332.175 201.995 331.432C202.231 330.69 202.425 329.802 202.425 329.46C202.425 329.117 202.666 328.142 202.961 327.294C203.257 326.445 203.496 325.598 203.494 325.411C203.489 325.035 205.311 319.267 206.398 316.217C206.781 315.142 207.256 313.705 207.453 313.023C207.65 312.34 208.091 311.264 208.432 310.631C208.774 309.998 209.163 309.058 209.297 308.542C209.432 308.026 210.052 306.489 210.676 305.125C211.3 303.761 211.933 302.257 212.083 301.783C212.408 300.749 214.779 295.813 219.436 286.472C223.726 277.866 224.818 275.784 225.827 274.289C226.267 273.637 226.942 272.472 227.326 271.701C227.71 270.93 228.331 269.863 228.707 269.329C229.082 268.796 229.763 267.68 230.22 266.849C230.676 266.019 231.407 264.806 231.844 264.154C232.28 263.502 232.854 262.531 233.119 261.998C233.383 261.464 234.339 259.93 235.242 258.588C236.146 257.247 237.2 255.646 237.584 255.03C237.969 254.415 238.812 253.184 239.458 252.294C240.592 250.731 242.035 248.655 244.176 245.502C244.74 244.671 245.444 243.73 245.742 243.411C246.039 243.091 246.728 242.202 247.273 241.435C249.362 238.497 250.466 237.068 252.031 235.278C252.922 234.259 253.886 233.038 254.173 232.563C254.46 232.089 255.395 230.948 256.25 230.028C257.105 229.108 258.189 227.787 258.658 227.093C259.128 226.399 261.14 224.144 263.131 222.081C265.122 220.019 267.172 217.749 267.687 217.038C268.903 215.359 279.439 204.777 281.114 203.551C281.823 203.033 284.093 200.967 286.16 198.96C288.226 196.953 290.497 194.917 291.205 194.437C291.914 193.956 293.411 192.677 294.533 191.594C295.655 190.511 297.056 189.297 297.646 188.895C298.237 188.494 299.611 187.432 300.699 186.537C303.16 184.512 307.193 181.427 310.299 179.193C311.041 178.66 311.979 177.929 312.384 177.57C312.788 177.211 313.792 176.461 314.615 175.905C315.438 175.348 316.932 174.308 317.936 173.594C321.861 170.799 334.24 162.716 335.829 161.91C336.321 161.661 337.158 161.146 337.689 160.766C338.22 160.385 339.428 159.656 340.373 159.144C341.318 158.632 342.627 157.848 343.283 157.403C344.83 156.352 362.554 147.456 364.098 146.955C364.747 146.744 366.245 146.105 367.426 145.536C368.607 144.966 370.974 144.024 372.688 143.442C374.401 142.861 376.137 142.211 376.547 141.998C377.571 141.466 380.621 140.434 382.562 139.962C383.448 139.747 384.994 139.31 385.998 138.992C388.19 138.298 390.652 137.624 392.117 137.318C392.707 137.194 393.945 136.862 394.868 136.58C395.79 136.297 396.768 136.066 397.04 136.066C397.313 136.066 398.141 135.872 398.88 135.635C399.64 135.391 400.815 135.204 401.585 135.204C402.455 135.204 403.539 135.009 404.591 134.665C405.862 134.248 406.684 134.126 408.219 134.126C409.557 134.126 410.615 133.995 411.466 133.725C412.514 133.392 413.771 133.298 418.871 133.174C423.094 133.071 425.376 132.927 426.171 132.715C427.634 132.324 428.529 132.325 430.001 132.718C430.813 132.935 433.046 133.076 437.301 133.178C442.392 133.3 443.645 133.393 444.694 133.725C446.334 134.245 449.66 134.283 450.362 133.79C450.624 133.605 450.839 133.248 450.839 132.996C450.839 132.464 449.543 130.37 447.842 128.154C447.188 127.301 446.217 125.958 445.686 125.17C445.154 124.382 444.31 123.188 443.809 122.516C443.308 121.845 442.372 120.517 441.728 119.566C441.085 118.615 440.302 117.596 439.988 117.302C439.673 117.008 438.996 116.136 438.483 115.365C437.593 114.028 437.188 113.479 434.344 109.759C433.664 108.869 432.939 107.873 432.733 107.544C432.527 107.216 431.771 106.296 431.053 105.501C430.336 104.705 429.42 103.539 429.019 102.909C428.618 102.279 427.719 101.148 427.023 100.396C426.326 99.6443 425.512 98.6403 425.214 98.1655C424.915 97.6906 424.077 96.6357 423.352 95.8215C422.626 95.007 421.733 93.9041 421.366 93.3704C421 92.8367 419.945 91.5851 419.022 90.5891C418.099 89.5931 416.985 88.2346 416.546 87.5702C416.107 86.9058 415.012 85.5859 414.113 84.6371C413.213 83.6883 412.056 82.3298 411.541 81.6182C411.026 80.9066 409.601 79.2188 408.375 77.8679C407.15 76.5167 405.913 75.0396 405.628 74.5852C405.342 74.1309 403.646 72.2283 401.859 70.357C400.072 68.486 398.335 66.5269 397.998 66.0036C397.662 65.4804 395.214 62.7908 392.558 60.0266C389.902 57.2623 387.469 54.5854 387.15 54.0776C386.138 52.4644 345.281 11.4143 342.943 9.66114C342.12 9.0442 339.5 6.61808 337.121 4.26981C332.97 0.171431 332.762 0 331.946 0C331.211 0 330.898 0.176821 329.616 1.31969ZM403.561 176.606C402.722 176.883 401.336 177.058 399.159 177.162C397.027 177.263 395.566 177.445 394.719 177.714C393.889 177.978 392.814 178.115 391.579 178.115C390.159 178.115 389.303 178.246 388.058 178.654C387.154 178.951 386.236 179.193 386.019 179.193C385.802 179.193 385.019 179.388 384.28 179.625C383.541 179.862 382.462 180.056 381.884 180.056C381.305 180.056 380.472 180.212 380.033 180.403C379.223 180.756 377.448 181.285 374.726 181.985C370.836 182.985 366.303 184.652 359.959 187.416C358.332 188.125 356.638 188.833 356.194 188.991C354.839 189.471 347.748 193.032 346.492 193.864C345.842 194.293 344.538 195.061 343.593 195.57C342.649 196.079 341.103 197.005 340.158 197.627C339.213 198.249 337.716 199.225 336.83 199.796C334.853 201.07 334.53 201.285 332.643 202.591C331.817 203.162 329.992 204.405 328.589 205.351C327.185 206.297 325.543 207.473 324.939 207.964C324.335 208.455 323.502 209.089 323.089 209.374C322.676 209.658 321.565 210.539 320.62 211.33C319.675 212.121 318.613 212.953 318.259 213.178C317.906 213.403 316.601 214.497 315.361 215.609C314.12 216.721 312.722 217.876 312.253 218.175C311.784 218.475 310.477 219.607 309.35 220.691C308.222 221.775 306.576 223.206 305.693 223.87C303.734 225.343 289.935 239.255 288.944 240.758C288.552 241.351 287.007 243.097 285.51 244.639C284.012 246.181 282.533 247.851 282.222 248.35C281.911 248.849 281.052 249.955 280.312 250.808C279.572 251.66 278.532 252.968 278.001 253.714C276.323 256.068 274.91 257.944 274.214 258.744C273.411 259.667 272.102 261.558 269.052 266.203C267.806 268.1 266.048 270.748 265.147 272.085C264.246 273.423 262.975 275.461 262.323 276.614C261.671 277.766 260.833 279.153 260.46 279.696C260.088 280.238 259.457 281.354 259.06 282.175C257.793 284.793 255.183 289.664 254.353 290.96C253.911 291.65 253.387 292.717 253.188 293.332C252.989 293.948 252.077 296.003 251.161 297.901C249.197 301.966 248.249 304.125 248.035 305.017C247.95 305.373 247.569 306.295 247.19 307.066C246.81 307.836 246.325 309.001 246.113 309.653C245.9 310.306 245.403 311.516 245.009 312.343C244.615 313.169 244.292 313.97 244.292 314.121C244.292 314.51 243.505 316.773 242.622 318.926C241.643 321.311 240.904 323.462 240.508 325.071C240.173 326.436 238.746 331.152 238.062 333.158C237.682 334.269 237.272 335.915 236.744 338.441C236.62 339.034 236.287 340.248 236.004 341.14C235.721 342.032 235.489 342.965 235.489 343.214C235.489 343.464 235.296 344.275 235.06 345.018C234.824 345.76 234.63 346.745 234.63 347.206C234.63 347.667 234.389 348.739 234.094 349.587C233.779 350.492 233.553 351.628 233.547 352.333C233.542 352.994 233.394 353.923 233.219 354.398C233.043 354.872 232.813 356.052 232.707 357.02C232.6 357.989 232.347 359.105 232.143 359.5C231.895 359.98 231.723 361.013 231.625 362.596C231.544 363.903 231.348 365.213 231.191 365.507C231.023 365.82 230.846 367.162 230.764 368.737C230.658 370.798 230.528 371.611 230.212 372.188C229.82 372.905 229.796 373.584 229.739 385.854C229.686 397.372 229.716 398.823 230.021 399.291C230.241 399.628 230.525 399.791 230.814 399.748C231.28 399.679 231.212 399.866 233.688 391.918C233.983 390.97 234.405 389.514 234.625 388.684C235.361 385.91 235.698 384.824 236.901 381.352C237.559 379.455 238.273 377.32 238.489 376.608C238.704 375.897 239.14 374.635 239.458 373.805C239.776 372.975 240.209 371.713 240.421 371.002C240.634 370.29 241.07 369.126 241.39 368.414C241.711 367.702 242.196 366.489 242.468 365.719C242.739 364.948 243.393 363.395 243.92 362.268C244.447 361.142 245 359.832 245.149 359.357C245.468 358.34 247.38 354.325 251.154 346.743C254.725 339.57 255.953 337.248 256.832 336.008C257.229 335.448 257.867 334.36 258.251 333.589C258.633 332.818 259.303 331.653 259.739 331.001C260.174 330.349 260.932 329.184 261.423 328.414C262.528 326.679 265.344 322.457 266.458 320.866C266.915 320.214 267.839 318.891 268.512 317.925C271.261 313.981 272.531 312.289 273.589 311.163C274.201 310.51 275.071 309.394 275.52 308.683C275.97 307.971 277.326 306.37 278.533 305.125C279.74 303.88 281.051 302.375 281.446 301.783C282.405 300.342 294.455 288.146 295.963 287.09C296.617 286.632 298.23 285.282 299.547 284.091C300.863 282.9 302.327 281.691 302.799 281.405C303.272 281.118 304.19 280.383 304.839 279.77C307.304 277.443 312.967 273.911 319.549 270.594C322.972 268.869 326.401 267.255 327.168 267.007C327.936 266.76 330.255 265.969 332.321 265.25C334.388 264.531 336.332 263.942 336.641 263.941C336.951 263.939 337.809 263.744 338.548 263.507C339.287 263.27 340.29 263.076 340.776 263.076C341.263 263.076 342.498 262.829 343.52 262.527L345.379 261.977L355.222 262.053C363.99 262.12 365.168 262.169 366.015 262.507C366.539 262.715 367.892 262.972 369.021 263.079C370.151 263.186 371.462 263.418 371.935 263.596C372.407 263.774 373.084 263.924 373.44 263.929C373.795 263.934 375.196 264.325 376.553 264.797C377.91 265.269 379.559 265.756 380.217 265.878C380.876 266 382.277 266.486 383.33 266.957C384.384 267.428 385.372 267.815 385.527 267.817C385.681 267.818 386.792 268.246 387.996 268.767C389.2 269.289 390.426 269.784 390.721 269.869C391.73 270.159 398.77 273.699 399.987 274.528C400.655 274.983 402.346 275.953 403.744 276.684C405.143 277.415 406.626 278.272 407.039 278.59C407.452 278.907 408.66 279.73 409.723 280.419C411.794 281.762 412.575 282.315 414.314 283.669C417.681 286.29 418.657 287.021 419.513 287.562C420.033 287.89 421.376 289.047 422.498 290.132C423.619 291.217 425.262 292.644 426.148 293.303C428.119 294.77 438.455 305.035 439.461 306.526C439.861 307.119 441.259 308.774 442.566 310.202C443.874 311.631 445.328 313.346 445.798 314.014C446.268 314.682 447.425 316.102 448.37 317.17C450.029 319.045 450.997 320.293 452.936 323.059C453.439 323.778 454.246 324.816 454.729 325.366C455.211 325.915 455.855 326.802 456.16 327.335C456.465 327.869 456.988 328.661 457.323 329.096C458.275 330.333 459.401 331.938 462.97 337.147C464.176 338.907 464.329 339.137 465.91 341.567C466.565 342.575 467.341 343.837 467.633 344.371C467.925 344.904 468.704 346.214 469.363 347.282C471.965 351.498 472.465 352.326 473.786 354.613C476.109 358.634 477.379 361.041 481.009 368.306C486.273 378.843 488.765 384.001 489.344 385.557C489.939 387.156 490.937 389.603 492.643 393.643C493.921 396.671 496.019 402.398 496.261 403.518C496.343 403.899 496.727 404.843 497.114 405.618C497.501 406.393 497.931 407.46 498.069 407.99C498.207 408.52 498.69 410.021 499.142 411.326C499.594 412.63 500.119 414.183 500.31 414.776C501.546 418.624 501.913 419.857 502.107 420.814C502.227 421.407 502.674 422.894 503.099 424.118C503.523 425.342 503.875 426.652 503.88 427.029C503.886 427.406 504.04 428.102 504.222 428.576C504.405 429.051 504.731 430.167 504.946 431.056C505.455 433.166 506.121 435.475 506.531 436.555C506.711 437.029 506.862 437.817 506.867 438.306C506.873 438.795 507.07 439.802 507.306 440.544C507.542 441.287 507.736 442.112 507.736 442.378C507.736 442.644 507.977 443.604 508.272 444.513C508.568 445.421 508.809 446.585 508.809 447.1C508.809 447.614 509.003 448.643 509.239 449.385C509.475 450.128 509.668 450.948 509.668 451.208C509.668 451.468 509.91 452.492 510.205 453.482C510.505 454.488 510.742 455.826 510.742 456.511C510.742 457.186 510.935 458.346 511.171 459.089C511.407 459.831 511.6 460.894 511.6 461.451C511.6 462.008 511.842 463.274 512.137 464.264C512.52 465.549 512.674 466.571 512.674 467.832C512.674 469.005 512.818 470.052 513.103 470.949C513.412 471.918 513.533 472.893 513.533 474.404C513.533 475.951 513.675 477.057 514.07 478.583C514.552 480.45 514.606 481.077 514.606 484.832C514.606 488.412 514.667 489.198 515.036 490.356C515.445 491.641 515.465 492.3 515.465 504.049C515.465 515.798 515.445 516.457 515.036 517.742C514.673 518.882 514.606 519.686 514.606 522.907C514.606 526.353 514.554 526.897 514.07 528.524C513.687 529.809 513.533 530.831 513.533 532.092C513.533 533.265 513.388 534.312 513.103 535.208C512.847 536.015 512.674 537.152 512.674 538.033C512.674 539.022 512.497 540.052 512.137 541.159C511.842 542.068 511.6 543.222 511.6 543.725C511.6 544.229 511.407 545.248 511.171 545.99C510.935 546.733 510.742 547.618 510.742 547.957C510.742 548.296 510.512 549.278 510.232 550.139C509.951 551 509.621 552.19 509.497 552.783C509.025 555.045 507.907 558.891 506.769 562.163C506.46 563.052 506.008 564.411 505.765 565.182C505.522 565.953 505.057 567.117 504.732 567.769C504.407 568.422 503.981 569.513 503.785 570.195C503.59 570.877 503.183 571.896 502.881 572.459C502.58 573.023 501.946 574.454 501.473 575.64C500.632 577.749 498.434 582.164 497.672 583.275C497.461 583.583 496.779 584.805 496.157 585.991C495.124 587.96 491.795 593.307 490.001 595.88C488.926 597.422 489.071 598.609 490.334 598.603C490.635 598.601 491.494 598.407 492.242 598.171C492.991 597.936 494.114 597.743 494.737 597.743C495.361 597.743 496.439 597.561 497.134 597.338C497.828 597.116 499.121 596.861 500.006 596.772C500.892 596.684 502.185 596.429 502.879 596.207C503.573 595.984 504.685 595.798 505.348 595.793C506.012 595.787 506.941 595.641 507.414 595.466C507.886 595.292 508.996 595.053 509.881 594.935C510.766 594.818 512.047 594.528 512.727 594.291C513.407 594.055 514.471 593.857 515.09 593.852C515.71 593.847 516.603 593.7 517.075 593.525C517.548 593.351 518.658 593.112 519.543 592.994C520.428 592.877 521.708 592.587 522.389 592.351C523.069 592.114 523.917 591.921 524.274 591.921C524.631 591.921 525.445 591.736 526.084 591.511C526.723 591.285 527.662 591.036 528.172 590.956C528.682 590.877 529.655 590.624 530.334 590.396C531.014 590.167 532.077 589.976 532.696 589.97C533.315 589.965 534.209 589.811 534.681 589.627C535.565 589.283 538.153 588.609 540.049 588.229C540.639 588.11 541.75 587.82 542.518 587.583C543.824 587.18 545.207 586.835 547.778 586.271C548.369 586.142 549.606 585.807 550.527 585.528C551.448 585.249 552.374 585.02 552.584 585.02C552.96 585.02 554.998 584.445 556.903 583.802C557.435 583.623 558.618 583.29 559.533 583.062C560.448 582.835 561.946 582.461 562.861 582.232C563.776 582.003 565.347 581.554 566.35 581.234C567.354 580.915 568.9 580.478 569.786 580.264C571.721 579.796 574.08 579.063 576.978 578.031C578.159 577.611 579.367 577.267 579.662 577.266C580.184 577.266 584.648 575.876 589.431 574.225C593.006 572.991 593.808 572.734 595.443 572.299C598.718 571.427 603.864 569.785 605.856 568.974C606.269 568.806 607.574 568.358 608.755 567.979C609.936 567.6 611.675 566.975 612.619 566.59C614.221 565.938 615.674 565.428 622.281 563.202C623.698 562.725 625.534 562.057 626.36 561.718C628.631 560.786 634.205 558.792 635.056 558.607C635.469 558.517 636.378 558.155 637.076 557.803C638.243 557.214 639.384 556.78 642.571 555.714C643.22 555.496 644.54 554.966 645.504 554.536C646.468 554.105 647.372 553.753 647.513 553.753C647.655 553.753 648.75 553.328 649.948 552.808C651.145 552.288 652.801 551.648 653.628 551.386C656.301 550.54 656.841 550.316 658.059 549.551C659.373 548.726 660.143 547.721 660.727 546.069C661.086 545.053 661.088 544.912 660.749 543.56C660.553 542.772 660.391 541.736 660.391 541.257C660.391 540.777 660.2 539.827 659.966 539.145C659.733 538.462 659.443 537.225 659.323 536.394C659.203 535.564 658.964 534.497 658.792 534.022C658.619 533.548 658.474 532.602 658.468 531.921C658.463 531.239 658.272 530.123 658.043 529.441C657.815 528.758 657.522 527.485 657.394 526.612C657.265 525.738 657.055 524.828 656.928 524.589C656.801 524.351 656.62 523.261 656.527 522.168C656.432 521.052 656.2 519.875 655.998 519.482C655.8 519.097 655.554 517.972 655.452 516.982C655.351 515.991 655.156 514.971 655.02 514.715C654.883 514.459 654.692 513.398 654.595 512.357C654.498 511.316 654.26 510.156 654.066 509.78C653.873 509.405 653.627 508.327 653.52 507.386C653.413 506.445 653.223 505.481 653.097 505.245C652.971 505.009 652.775 504.084 652.663 503.191C652.55 502.298 652.306 501.273 652.12 500.912C651.934 500.551 651.692 499.508 651.583 498.595C651.473 497.681 651.241 496.545 651.066 496.07C650.891 495.596 650.746 494.965 650.743 494.669C650.739 494.372 650.5 493.353 650.211 492.405C649.922 491.456 649.582 490.17 649.456 489.547C648.898 486.796 648.729 486.075 648.354 484.857C648.135 484.146 647.813 482.933 647.638 482.162C647.246 480.434 646.613 477.801 646.108 475.801C645.751 474.382 645.527 473.517 644.628 470.086C644.426 469.315 644.16 468.2 644.036 467.607C643.913 467.014 643.669 466.092 643.496 465.558C643.322 465.024 643.003 463.86 642.787 462.97C642.571 462.081 642.183 460.625 641.926 459.736C641.669 458.846 641.321 457.585 641.153 456.933C640.985 456.28 640.656 455.092 640.421 454.291C640.186 453.49 639.802 452.181 639.567 451.38C639.332 450.579 639.007 449.391 638.844 448.738C638.681 448.086 638.287 446.728 637.97 445.719C637.653 444.711 637.213 443.207 636.993 442.377C636.299 439.764 635.743 437.92 634.958 435.623C634.539 434.399 634.197 433.239 634.197 433.045C634.197 432.851 633.907 431.815 633.553 430.742C633.198 429.67 632.038 426.124 630.976 422.862C629.913 419.601 628.789 416.204 628.478 415.315C628.167 414.425 627.69 412.97 627.418 412.08C627.146 411.191 626.471 409.299 625.917 407.875C624.088 403.172 623.843 402.497 623.456 401.083C623.245 400.312 622.616 398.517 622.058 397.094C621.501 395.67 620.619 393.342 620.1 391.918C619.581 390.495 618.875 388.651 618.533 387.821C618.19 386.991 617.793 385.924 617.651 385.449C617.508 384.975 617.101 384.004 616.746 383.293C616.391 382.581 615.881 381.368 615.612 380.597C614.933 378.649 613.794 375.861 612.174 372.177C611.415 370.451 610.794 368.888 610.794 368.704C610.794 368.521 610.219 367.21 609.516 365.792C608.813 364.374 607.981 362.491 607.667 361.609C607.353 360.726 606.443 358.646 605.644 356.985C604.846 355.325 604.075 353.578 603.931 353.104C603.528 351.776 589.691 324.002 588.461 322.051C587.862 321.103 586.687 318.969 585.848 317.308C585.009 315.648 583.957 313.747 583.511 313.085C583.065 312.423 582.193 310.919 581.572 309.743C580.951 308.567 580.088 307.071 579.653 306.419C579.218 305.766 578.545 304.602 578.159 303.831C577.771 303.06 577.203 302.098 576.896 301.694C576.589 301.289 575.902 300.197 575.37 299.267C573.528 296.05 566.257 284.859 562.152 278.925C560.921 277.146 559.661 275.312 559.352 274.85C559.043 274.387 558.244 273.298 557.578 272.429C554.365 268.241 552.209 265.28 551.323 263.837C551.034 263.366 550.228 262.349 549.532 261.578C548.836 260.806 547.947 259.674 547.557 259.062C547.168 258.45 546.262 257.299 545.545 256.505C544.827 255.71 543.942 254.616 543.578 254.074C543.214 253.532 542.141 252.239 541.193 251.201C540.245 250.164 539.138 248.82 538.733 248.215C538.327 247.61 537.09 246.153 535.983 244.976C534.876 243.8 533.415 242.078 532.736 241.151C531.049 238.843 503.439 211.141 501.402 209.711C500.575 209.131 499.271 208.06 498.503 207.332C497.736 206.603 496.335 205.44 495.39 204.747C494.445 204.053 493.321 203.174 492.892 202.792C491.683 201.715 479.6 193.737 477.958 192.931C477.154 192.536 474.274 191.093 471.558 189.723C468.842 188.354 466.04 186.984 465.331 186.678C459.756 184.274 453.677 182.138 449.551 181.135C448.665 180.919 447.554 180.593 447.081 180.409C446.609 180.225 445.884 180.066 445.471 180.056C445.058 180.046 444.333 179.895 443.861 179.722C443.388 179.549 442.326 179.308 441.499 179.188C440.672 179.067 439.44 178.777 438.761 178.542C437.939 178.258 436.96 178.115 435.836 178.115C434.787 178.115 433.67 177.964 432.885 177.715C431.984 177.429 430.591 177.271 428.023 177.165C425.37 177.056 424.077 176.906 423.11 176.596C421.896 176.206 421.16 176.176 413.291 176.188C405.575 176.2 404.671 176.239 403.561 176.606ZM362.38 286.804C362.38 287.471 363.196 288.952 364.124 289.97C364.581 290.471 365.31 291.441 365.746 292.127C366.181 292.812 367.04 293.906 367.654 294.559C368.268 295.211 369.173 296.327 369.666 297.039C370.159 297.75 371.178 299.06 371.93 299.95C372.683 300.839 373.619 302.02 374.012 302.573C375.125 304.143 376.78 306.351 377.839 307.681C378.37 308.348 379.969 310.641 381.392 312.778C382.815 314.914 384.277 317.098 384.642 317.632C385.006 318.165 385.796 319.378 386.397 320.327C386.998 321.276 387.773 322.448 388.119 322.933C388.465 323.417 389.426 324.921 390.254 326.275C391.082 327.629 392.24 329.513 392.828 330.462C393.417 331.411 394.476 333.303 395.181 334.667C396.767 337.731 397.305 338.699 397.863 339.488C398.366 340.201 404.677 352.762 404.677 353.052C404.677 353.158 405.294 354.669 406.047 356.409C406.801 358.149 407.538 359.961 407.687 360.435C407.835 360.91 408.272 361.932 408.658 362.707C409.043 363.481 409.475 364.547 409.616 365.075C409.758 365.603 410.107 366.498 410.392 367.063C411.118 368.501 415.334 381.345 415.491 382.596C415.562 383.161 415.758 383.893 415.928 384.222C416.098 384.551 416.349 385.445 416.487 386.207C416.624 386.97 416.825 387.759 416.932 387.96C417.039 388.161 417.224 389.018 417.344 389.865C417.464 390.712 417.698 391.67 417.865 391.994C418.032 392.318 418.281 393.208 418.419 393.97C418.556 394.733 418.768 395.542 418.888 395.768C419.008 395.994 419.183 397.073 419.277 398.166C419.375 399.32 419.603 400.457 419.82 400.879C420.049 401.325 420.261 402.443 420.367 403.77C420.463 404.961 420.687 406.323 420.865 406.797C421.075 407.352 421.194 408.438 421.2 409.842C421.207 411.52 421.319 412.342 421.686 413.4C422.147 414.733 422.162 415.052 422.169 423.617C422.175 432.213 422.162 432.499 421.693 433.936C421.34 435.014 421.209 435.926 421.209 437.304C421.209 438.6 421.075 439.618 420.78 440.544C420.544 441.287 420.346 442.342 420.341 442.89C420.336 443.438 420.184 444.275 420.004 444.749C419.824 445.224 419.499 446.242 419.282 447.013C419.064 447.784 418.628 449.143 418.314 450.032C417.999 450.922 417.564 452.232 417.346 452.943C416.358 456.179 415.873 457.331 413.444 462.216C412.382 464.35 410.772 467.195 409.866 468.536C408.961 469.878 407.943 471.431 407.605 471.987C407.267 472.543 406.658 473.367 406.252 473.818C405.847 474.27 405.173 475.192 404.755 475.867C403.764 477.467 393.729 487.473 391.032 489.551C387.243 492.471 382.012 496.014 379.944 497.062C379.199 497.44 378.291 497.978 377.925 498.258C377.206 498.808 370.179 502.441 368.07 503.353C367.361 503.659 365.67 504.346 364.312 504.879C362.954 505.412 360.491 506.383 358.837 507.036C355.444 508.376 350.713 509.979 350.153 509.979C349.949 509.979 348.582 510.368 347.117 510.843C345.651 511.318 343.86 511.803 343.137 511.921C342.413 512.039 341.494 512.272 341.095 512.44C340.695 512.608 339.645 512.85 338.76 512.977C337.876 513.105 336.766 513.352 336.293 513.526C335.821 513.699 334.925 513.846 334.302 513.851C333.679 513.856 332.616 514.058 331.94 514.3C331.264 514.542 329.793 514.829 328.671 514.938C327.55 515.047 326.245 515.281 325.773 515.459C325.215 515.669 324.114 515.786 322.634 515.792C320.945 515.799 319.999 515.916 318.984 516.243C317.886 516.597 316.804 516.71 313.535 516.813C310.436 516.911 309.152 517.038 308.193 517.342C307.006 517.718 305.88 517.742 289.38 517.742C272.88 517.742 271.755 517.718 270.568 517.342C269.58 517.028 268.324 516.913 264.796 516.813C261.083 516.708 260.046 516.607 258.918 516.243C257.844 515.897 256.962 515.799 254.838 515.792C252.952 515.785 251.868 515.683 251.27 515.454C250.798 515.274 249.3 515.042 247.942 514.939C246.417 514.823 245.003 514.581 244.244 514.306C243.389 513.996 242.474 513.858 241.238 513.851C240.212 513.846 239.098 513.705 238.602 513.52C238.13 513.342 236.874 513.107 235.811 512.997C234.748 512.886 233.326 512.599 232.65 512.358C231.974 512.117 230.887 511.92 230.235 511.92C229.583 511.92 228.494 511.728 227.814 511.493C227.135 511.258 225.903 510.968 225.076 510.847C224.249 510.727 223.187 510.486 222.714 510.313C222.242 510.14 221.493 509.994 221.051 509.988C220.609 509.983 219.691 509.789 219.011 509.557C217.669 509.099 215.607 508.56 213.911 508.225C213.321 508.108 212.21 507.819 211.442 507.582C210.675 507.345 209.467 507.024 208.758 506.869C208.05 506.713 206.649 506.324 205.645 506.004C204.641 505.683 203.096 505.244 202.21 505.028C200.384 504.581 198.629 504.035 195.983 503.089C194.98 502.73 193.627 502.337 192.978 502.216C192.328 502.095 191.314 501.808 190.723 501.579C190.133 501.349 188.828 500.909 187.825 500.601C186.821 500.293 185.082 499.665 183.96 499.206C182.838 498.747 180.423 497.872 178.592 497.263C176.762 496.653 174.491 495.824 173.547 495.421C172.602 495.018 171.153 494.43 170.326 494.114C169.499 493.799 168.002 493.128 166.998 492.623C165.994 492.119 164.602 491.541 163.904 491.338C163.205 491.136 161.225 490.264 159.502 489.4C157.78 488.536 155.984 487.707 155.511 487.558C154.201 487.145 147.292 483.717 145.957 482.818C145.308 482.381 143.134 481.172 141.126 480.131C139.119 479.091 137.186 478.02 136.832 477.751C136.478 477.483 135.607 476.968 134.896 476.608C133.27 475.783 128.216 472.71 126.886 471.737C126.334 471.333 125.359 470.738 124.721 470.415C124.082 470.093 122.556 469.135 121.329 468.286C120.102 467.438 118.546 466.4 117.872 465.98C117.197 465.56 116.099 464.783 115.432 464.255C114.765 463.726 113.527 462.809 112.68 462.216C111.834 461.623 110.449 460.603 109.602 459.951C108.755 459.298 107.675 458.509 107.203 458.197C106.73 457.885 105.4 456.794 104.246 455.772C103.092 454.75 101.741 453.655 101.243 453.34C100.745 453.024 99.3223 451.782 98.0807 450.58C94.5619 447.174 93.5597 446.265 92.1632 445.215C90.5901 444.033 87.5936 440.935 86.7975 439.669C86.4789 439.162 84.9367 437.421 83.3704 435.8C81.8041 434.18 80.2831 432.473 79.9905 432.009C79.6978 431.544 78.8085 430.397 78.0141 429.459C77.2197 428.521 76.3332 427.377 76.044 426.917C75.7548 426.457 75.195 425.721 74.8002 425.28C74.4051 424.84 73.3458 423.363 72.4459 422C71.5461 420.636 70.5183 419.083 70.1619 418.549C69.8057 418.016 69.0944 416.948 68.5815 416.176C68.0685 415.405 67.1863 413.901 66.621 412.834C66.0559 411.767 65.1436 410.167 64.5939 409.277C63.3873 407.324 61.1048 402.72 60.5315 401.083C60.3031 400.431 59.5894 398.781 58.9453 397.417C58.3014 396.053 57.6506 394.549 57.4992 394.075C56.9092 392.225 55.8713 391.506 55.0892 392.404C54.3821 393.215 52.1709 397.886 51.5925 399.789C51.5023 400.086 50.6798 401.881 49.7645 403.778C48.8492 405.676 47.98 407.617 47.8334 408.091C47.6865 408.565 47.0839 409.968 46.4941 411.208C45.9043 412.448 45.2503 413.952 45.0407 414.55C44.8314 415.149 44.1828 416.706 43.5992 418.01C43.0158 419.315 42.3644 420.916 42.1516 421.568C41.9389 422.221 41.4511 423.385 41.0676 424.156C40.6839 424.927 40.2251 426.043 40.0475 426.636C39.87 427.229 39.3835 428.49 38.9663 429.439C38.5491 430.388 38.1364 431.455 38.049 431.811C37.9617 432.167 37.6072 433.089 37.2613 433.859C36.9154 434.63 36.2118 436.426 35.6974 437.849C35.1832 439.272 34.3158 441.601 33.7698 443.024C33.2238 444.447 32.594 446.194 32.3705 446.905C31.838 448.6 30.908 451.179 29.9598 453.59C29.5401 454.658 28.9878 456.21 28.7328 457.04C28.4777 457.871 28.1307 458.889 27.9618 459.305C27.5852 460.229 26.0459 464.762 25.5085 466.528C25.2921 467.24 24.8595 468.55 24.5473 469.439C24.2354 470.329 23.8006 471.639 23.5811 472.351C23.3619 473.062 22.9291 474.372 22.6192 475.262C22.3094 476.151 21.8749 477.51 21.6537 478.281C21.4324 479.051 20.9926 480.41 20.6764 481.299C20.3601 482.189 20.0005 483.402 19.8772 483.995C19.754 484.588 19.29 486.189 18.8465 487.553C18.4027 488.917 17.7358 491.1 17.3645 492.405C16.1235 496.765 15.8861 497.563 14.8954 500.707C14.3535 502.426 13.9108 504.04 13.9117 504.293C13.9125 504.546 13.6716 505.397 13.3764 506.185C13.0812 506.972 12.8396 507.792 12.8396 508.007C12.8396 508.427 12.249 510.555 11.5273 512.734C11.0951 514.04 10.9732 514.516 10.1054 518.284C9.88658 519.234 9.63795 520.124 9.55314 520.262C9.40778 520.498 8.88391 522.386 8.21747 525.073C8.05558 525.726 7.73092 526.89 7.49582 527.661C7.26072 528.432 6.97194 529.548 6.85385 530.141C6.4749 532.045 5.80373 534.645 5.46149 535.532C5.27878 536.006 5.12483 536.755 5.11967 537.195C5.11452 537.636 4.97025 538.412 4.79934 538.921C4.62844 539.429 4.34803 540.475 4.17648 541.246C4.00493 542.017 3.71443 543.036 3.53064 543.51C3.34706 543.985 3.19248 544.685 3.18732 545.066C3.18217 545.447 3.0379 546.175 2.867 546.683C2.69609 547.192 2.41568 548.238 2.24413 549.009C2.07259 549.78 1.78208 550.799 1.59829 551.273C1.41472 551.748 1.26013 552.531 1.25497 553.014C1.24982 553.497 1.00764 554.691 0.716717 555.667C0.0595039 557.872 -0.185463 560.32 0.149263 561.339C0.284313 561.75 0.707068 562.389 1.0886 562.76C1.76535 563.417 5.00203 565.054 6.72053 565.607C7.19288 565.76 8.64214 566.39 9.94111 567.008C11.2401 567.626 12.6893 568.258 13.1617 568.412C13.634 568.566 15.2044 569.253 16.6513 569.94C18.0982 570.627 19.8373 571.349 20.516 571.545C21.1947 571.741 22.1847 572.144 22.7161 572.442C23.2475 572.74 24.6484 573.368 25.8293 573.837C27.0102 574.307 28.7493 575.019 29.694 575.42C30.6387 575.822 32.8126 576.694 34.5249 577.358C36.2372 578.023 38.4111 578.896 39.3558 579.299C42.0297 580.44 46.9989 582.373 48.7341 582.948C49.5985 583.234 50.9413 583.758 51.7181 584.111C52.4949 584.464 54.234 585.116 55.5828 585.56C56.9315 586.004 58.8564 586.734 59.8601 587.183C60.8639 587.631 61.975 588.062 62.3292 588.14C62.6835 588.218 64.0361 588.656 65.3351 589.114C66.6341 589.572 68.2283 590.108 68.8778 590.304C69.5272 590.501 71.218 591.127 72.6351 591.695C74.0522 592.263 76.1777 593.046 77.3586 593.435C78.5395 593.824 80.5685 594.505 81.8674 594.948C85.1344 596.064 86.8894 596.606 87.7718 596.769C88.1851 596.846 89.731 597.333 91.2071 597.852C92.6832 598.371 94.6156 599.004 95.5012 599.258C96.3869 599.512 98.2226 600.094 99.5806 600.551C100.939 601.007 102.629 601.527 103.338 601.706C104.047 601.884 105.447 602.291 106.451 602.609C107.455 602.927 109.001 603.363 109.886 603.578C110.772 603.792 112.318 604.228 113.322 604.548C114.326 604.867 115.872 605.291 116.76 605.488C117.647 605.686 118.503 605.929 118.663 606.028C118.979 606.224 121.092 606.827 123.628 607.445C124.513 607.661 125.624 607.988 126.097 608.172C126.569 608.355 127.266 608.51 127.646 608.515C128.025 608.52 128.75 608.665 129.256 608.837C129.762 609.008 130.804 609.29 131.572 609.462C132.339 609.635 133.354 609.926 133.826 610.111C134.299 610.295 134.999 610.451 135.382 610.456C135.765 610.461 136.635 610.649 137.314 610.874C138.726 611.34 140.847 611.899 142.414 612.218C143.005 612.338 144.362 612.672 145.431 612.961C146.5 613.249 147.671 613.484 148.033 613.484C148.396 613.484 149.297 613.678 150.036 613.916C150.776 614.153 151.657 614.347 151.996 614.347C152.334 614.347 153.168 614.54 153.848 614.777C154.528 615.013 155.809 615.303 156.694 615.42C157.579 615.538 158.689 615.777 159.161 615.952C159.634 616.126 160.414 616.273 160.895 616.278C161.376 616.283 162.577 616.53 163.563 616.827C164.549 617.123 165.761 617.366 166.257 617.366C166.752 617.366 167.762 617.56 168.501 617.797C169.24 618.034 170.299 618.228 170.853 618.228C171.407 618.228 172.668 618.471 173.654 618.767C174.676 619.075 176.008 619.31 176.751 619.316C177.469 619.321 178.442 619.472 178.914 619.652C179.387 619.831 180.743 620.056 181.928 620.152C183.28 620.261 184.36 620.47 184.827 620.713C185.335 620.977 186.32 621.146 187.936 621.247C189.238 621.328 190.539 621.522 190.827 621.677C191.116 621.832 192.467 622.035 193.829 622.128C195.414 622.236 196.748 622.457 197.535 622.742C198.466 623.08 199.298 623.19 200.97 623.197C202.427 623.204 203.468 623.32 204.035 623.54C204.557 623.743 206.114 623.943 208.007 624.05C210.291 624.178 211.447 624.345 212.349 624.677C213.385 625.057 214.066 625.129 216.669 625.129C219.082 625.129 220.037 625.216 221.022 625.529C221.969 625.828 223.282 625.962 226.268 626.063C229.401 626.169 230.542 626.291 231.61 626.634C232.828 627.024 233.541 627.069 238.495 627.069C243.581 627.069 244.131 627.106 245.391 627.533L246.761 627.996L273.599 627.998L300.438 628L301.807 627.535C303.065 627.107 303.614 627.069 308.489 627.069C313.261 627.069 313.94 627.024 315.171 626.626C316.225 626.285 317.431 626.145 320.405 626.02C323.04 625.908 324.441 625.76 324.807 625.556C325.17 625.352 326.453 625.214 328.779 625.127C331.551 625.024 332.359 624.921 332.965 624.596C333.508 624.305 334.432 624.148 336.293 624.031C337.71 623.942 339.256 623.72 339.729 623.538C340.234 623.343 341.301 623.203 342.321 623.197C343.599 623.19 344.459 623.046 345.592 622.649C346.611 622.291 347.589 622.11 348.5 622.11C349.28 622.11 350.451 621.924 351.215 621.678C351.955 621.441 353.061 621.247 353.675 621.247C354.312 621.247 355.45 621.016 356.327 620.708C357.172 620.412 358.287 620.169 358.805 620.169C359.324 620.169 360.353 619.975 361.092 619.738C361.831 619.5 362.834 619.305 363.32 619.304C363.807 619.302 364.958 619.06 365.877 618.765C366.797 618.47 367.919 618.228 368.372 618.228C368.824 618.228 369.8 618.034 370.539 617.797C371.278 617.56 372.088 617.367 372.338 617.369C372.588 617.372 373.566 617.136 374.511 616.845C375.456 616.555 376.712 616.22 377.302 616.101C379.857 615.588 382.358 614.844 390.184 612.267C393.609 611.139 396.942 609.946 397.592 609.616C398.241 609.286 399.304 608.845 399.954 608.637C401.36 608.185 411.948 602.999 413.111 602.192C413.558 601.882 414.717 601.174 415.688 600.619C418.031 599.279 420.749 597.485 422.653 596.023C424.754 594.409 427.572 592.281 428.617 591.521C429.089 591.177 430.297 590.143 431.301 589.223C432.304 588.302 433.512 587.311 433.984 587.019C435.024 586.377 440.449 580.852 441.665 579.198C442.145 578.546 443.247 577.26 444.115 576.34C444.983 575.42 446.044 574.116 446.473 573.442C446.902 572.768 447.796 571.629 448.458 570.91C449.121 570.191 450.229 568.729 450.919 567.662C451.61 566.594 452.685 564.945 453.309 563.996C453.932 563.047 454.713 561.786 455.043 561.193C455.373 560.6 456.012 559.561 456.462 558.886C456.912 558.21 458.718 554.765 460.476 551.231C463.809 544.526 464.87 542.225 465.131 541.138C465.216 540.783 465.606 539.847 465.998 539.059C466.389 538.271 466.825 537.165 466.966 536.602C467.107 536.038 467.506 534.839 467.851 533.937C468.197 533.035 468.66 531.667 468.882 530.896C469.103 530.125 469.536 528.621 469.844 527.553C470.153 526.486 470.507 525.127 470.631 524.534C470.756 523.941 471.087 522.698 471.368 521.772C471.65 520.845 471.88 519.863 471.88 519.59C471.88 519.316 472.073 518.484 472.309 517.742C472.546 516.999 472.739 515.798 472.739 515.072C472.739 514.345 472.936 513.072 473.176 512.243C473.417 511.413 473.701 509.569 473.807 508.146C473.913 506.723 474.156 505.13 474.347 504.606C474.655 503.76 474.694 501.842 474.692 487.49C474.691 472.067 474.671 471.262 474.27 469.898C474.009 469.014 473.802 467.482 473.726 465.881C473.65 464.28 473.438 462.719 473.171 461.785C472.896 460.825 472.735 459.61 472.729 458.443C472.724 457.386 472.586 456.243 472.404 455.747C472.23 455.272 471.988 454.108 471.866 453.159C471.744 452.21 471.455 450.817 471.225 450.063C470.995 449.31 470.802 448.048 470.797 447.26C470.792 446.472 470.637 445.439 470.453 444.965C470.269 444.49 470.021 443.617 469.9 443.024C469.78 442.431 469.499 441.323 469.278 440.562C469.056 439.801 468.874 438.903 468.874 438.568C468.874 438.233 468.688 437.4 468.461 436.718C468.233 436.035 467.984 435.137 467.908 434.722C467.831 434.307 467.583 433.409 467.355 432.727C467.128 432.044 466.937 431.171 466.932 430.786C466.927 430.401 466.773 429.698 466.59 429.223C466.408 428.749 466.082 427.633 465.868 426.744C465.272 424.272 464.87 422.925 464.13 420.921C463.758 419.913 463.276 418.458 463.058 417.687C462.841 416.916 462.228 415.024 461.698 413.482C458.733 404.877 458.373 403.914 456.165 398.711C455.687 397.584 455.061 396.08 454.773 395.368C452.909 390.756 443.589 371.956 442.373 370.355C442.096 369.991 441.316 368.677 440.639 367.436C439.271 364.928 439.3 364.974 434.841 358.171C431.19 352.601 431.277 352.732 429.903 350.732C429.332 349.902 428.499 348.674 428.051 348.004C427.603 347.334 426.844 346.331 426.364 345.774C425.885 345.218 425.306 344.396 425.079 343.948C424.851 343.5 424.196 342.611 423.622 341.973C423.048 341.335 422.345 340.424 422.059 339.95C421.772 339.476 420.921 338.412 420.167 337.587C419.413 336.762 418.559 335.709 418.269 335.247C417.979 334.786 416.787 333.391 415.62 332.148C414.453 330.905 413.136 329.338 412.693 328.665C411.108 326.261 389.724 304.688 386.901 302.645C386.245 302.171 384.926 301.094 383.969 300.252C383.012 299.411 381.797 298.449 381.269 298.115C380.74 297.78 379.825 297.094 379.234 296.589C378.644 296.085 377.091 294.952 375.784 294.072C374.477 293.192 373.124 292.28 372.778 292.044C372.432 291.809 371.425 291.149 370.539 290.578C369.653 290.007 368.301 289.124 367.533 288.615C365.816 287.475 363.511 286.365 362.863 286.365C362.52 286.365 362.38 286.492 362.38 286.804Z" fill="#2E56F6"/>
</svg>
