<svg width="70" height="70" viewBox="0 0 70 70" fill="none" xmlns="http://www.w3.org/2000/svg">
<path d="M35 0C15.6701 0 0 15.6701 0 35C0 54.3299 15.6701 70 35 70C54.3299 70 70 54.3299 70 35C69.9781 15.6791 54.3209 0.021875 35 0ZM66.402 43.9763L64.2098 43.2635L63.4877 45.4802L65.6892 46.1953C64.7786 48.679 63.5696 51.043 62.0888 53.235L60.2222 51.8817L58.8502 53.7693L60.7028 55.1157C59.0724 57.1967 57.1977 59.074 55.1192 60.7075L53.7728 58.8548L51.8852 60.2268L53.2385 62.0935C51.0466 63.5727 48.6831 64.78 46.2 65.6892L45.4848 63.4877L43.2682 64.2098L43.981 66.402C41.4364 67.1306 38.8121 67.5455 36.1667 67.6375V65.3333H33.8333V67.6375C31.1895 67.5452 28.5669 67.1303 26.0237 66.402L26.7365 64.2098L24.5198 63.4877L23.8 65.6892C21.3163 64.7786 18.9524 63.5696 16.7603 62.0888L18.1137 60.2222L16.226 58.8502L14.8797 60.7028C12.7996 59.0708 10.9234 57.1945 9.29133 55.1145L11.144 53.7682L9.772 51.8805L7.90533 53.2338C6.42892 51.043 5.2239 48.6812 4.31667 46.2L6.51817 45.4848L5.796 43.2682L3.60383 43.981C2.87321 41.4365 2.45642 38.8122 2.3625 36.1667H4.66667V33.8333H2.3625C2.45481 31.1895 2.86971 28.5669 3.598 26.0237L5.79017 26.7365L6.51233 24.5198L4.31667 23.8C5.22725 21.3163 6.43621 18.9524 7.917 16.7603L9.78367 18.1137L11.1557 16.226L9.2925 14.8808C10.9245 12.8008 12.8008 10.9245 14.8808 9.2925L16.2272 11.1452L18.1148 9.77317L16.7615 7.9065C18.9537 6.42935 21.3172 5.2239 23.8 4.31667L24.5152 6.51817L26.7318 5.796L26.019 3.60383C28.5635 2.87321 31.1878 2.45642 33.8333 2.3625V4.66667H36.1667V2.3625C38.8105 2.45481 41.4331 2.86971 43.9763 3.598L43.2635 5.79017L45.4802 6.51233L46.2 4.31667C48.6837 5.22725 51.0476 6.43621 53.2397 7.917L51.8863 9.78367L53.774 11.1557L55.1203 9.303C57.2004 10.935 59.0766 12.8113 60.7087 14.8913L58.856 16.2377L60.228 18.1253L62.0947 16.772C63.5727 18.9607 64.7796 21.3205 65.6892 23.8L63.4877 24.5152L64.2098 26.7318L66.402 26.019C67.1306 28.5636 67.5455 31.1879 67.6375 33.8333H65.3333V36.1667H67.6375C67.5452 38.8105 67.1303 41.4331 66.402 43.9763Z" fill="white"/>
<path d="M35.0002 9.3335C20.8249 9.3335 9.3335 20.8249 9.3335 35.0002C9.3335 49.1754 20.8249 60.6668 35.0002 60.6668C49.1754 60.6668 60.6668 49.1754 60.6668 35.0002C60.6508 20.8316 49.1687 9.34954 35.0002 9.3335ZM35.0002 58.3335C22.1135 58.3335 11.6668 47.8869 11.6668 35.0002C11.6668 22.1135 22.1135 11.6668 35.0002 11.6668C47.8869 11.6668 58.3335 22.1135 58.3335 35.0002C58.3188 47.8806 47.8807 58.3188 35.0002 58.3335Z" fill="white"/>
<path d="M34.9998 15.1665C24.0462 15.1665 15.1665 24.0462 15.1665 34.9998C15.1665 45.9535 24.0462 54.8332 34.9998 54.8332C45.9535 54.8332 54.8332 45.9535 54.8332 34.9998C54.8209 24.0513 45.9484 15.1788 34.9998 15.1665ZM50.002 26.0363C51.3584 28.288 52.1854 30.8184 52.4205 33.4365L45.1137 32.8462C44.4716 32.7922 43.9948 32.2278 44.0489 31.5859C44.0746 31.2815 44.2185 30.9993 44.4498 30.7998L50.002 26.0363ZM38.8953 17.9525L36.0767 24.7192C35.8288 25.3139 35.1457 25.595 34.551 25.3471C34.267 25.2287 34.0414 25.0031 33.923 24.7192L31.1043 17.9525C33.6663 17.3489 36.3333 17.3489 38.8953 17.9525ZM19.9977 26.036L25.5498 30.7998C26.0391 31.2191 26.0957 31.9557 25.6764 32.4448C25.4762 32.6785 25.1917 32.8236 24.8848 32.8485L17.578 33.4388C17.8131 30.8197 18.6405 28.2883 19.9977 26.036ZM29.8222 43.9528L28.1282 51.0905C25.7145 50.0485 23.5653 48.4786 21.8387 46.4962H21.8352L28.0792 42.687C28.6291 42.3512 29.347 42.5247 29.6829 43.0746C29.8435 43.3376 29.8935 43.6532 29.8222 43.9528ZM41.8715 51.0905H41.868L40.1705 43.9528C40.0213 43.326 40.4085 42.6969 41.0353 42.5477C41.335 42.4764 41.6506 42.5264 41.9135 42.687L48.1575 46.4962C46.4319 48.4782 44.2839 50.0481 41.8715 51.0905ZM43.1315 40.6943C41.4814 39.6875 39.3276 40.2089 38.3208 41.859C37.8397 42.6475 37.6896 43.5944 37.9037 44.493L39.6537 51.8523C36.6104 52.7157 33.3869 52.7157 30.3437 51.8523H30.3413L32.0913 44.493C32.5385 42.6125 31.3765 40.7254 29.4958 40.2783C28.5976 40.0648 27.6516 40.2147 26.8635 40.6955L20.4072 44.6365C18.6639 42 17.6725 38.9382 17.5395 35.7803L25.0738 35.1713C27.0003 35.0134 28.434 33.3235 28.276 31.397C28.2007 30.4784 27.7661 29.6266 27.0665 29.0265L21.3265 24.1032C23.2989 21.6354 25.9006 19.7455 28.8573 18.6327L31.7647 25.6128C32.5077 27.3973 34.5567 28.2416 36.3412 27.4985C37.194 27.1434 37.8717 26.4655 38.2268 25.6128L41.1353 18.6327C44.0918 19.7458 46.6935 21.6357 48.6662 24.1032L42.9332 29.0265C41.4661 30.2852 41.2972 32.4949 42.5559 33.9618C43.1567 34.6621 44.0097 35.0967 44.9293 35.1713L52.4637 35.7803C52.3307 38.9382 51.3393 42 49.596 44.6365L43.1315 40.6943Z" fill="white"/>
<path d="M35.0002 30.3335C32.4229 30.3335 30.3335 32.4229 30.3335 35.0002C30.3335 37.5775 32.4229 39.6668 35.0002 39.6668C37.5775 39.6668 39.6668 37.5775 39.6668 35.0002C39.6668 32.4229 37.5775 30.3335 35.0002 30.3335ZM35.0002 37.3335C33.7114 37.3335 32.6668 36.2889 32.6668 35.0002C32.6668 33.7114 33.7114 32.6668 35.0002 32.6668C36.2889 32.6668 37.3335 33.7114 37.3335 35.0002C37.3335 36.2889 36.2889 37.3335 35.0002 37.3335Z" fill="white"/>
</svg>
