<svg width="70" height="70" viewBox="0 0 70 70" fill="none" xmlns="http://www.w3.org/2000/svg">
<path d="M49.3174 58.8433C50.196 58.8433 50.9083 58.1311 50.9083 57.2525C50.9083 56.3739 50.196 55.6616 49.3174 55.6616C48.4388 55.6616 47.7266 56.3739 47.7266 57.2525C47.7266 58.1311 48.4388 58.8433 49.3174 58.8433Z" fill="white"/>
<path d="M20.6822 58.8433C21.5608 58.8433 22.273 58.1311 22.273 57.2525C22.273 56.3739 21.5608 55.6616 20.6822 55.6616C19.8036 55.6616 19.0913 56.3739 19.0913 57.2525C19.0913 58.1311 19.8036 58.8433 20.6822 58.8433Z" fill="white"/>
<path d="M61.7277 18.116L55.3641 10.1615C55.046 9.68418 54.4095 9.52504 53.7732 9.52504L46.7732 10.9569L42.6368 5.38875C42.1595 4.75233 41.046 4.59332 40.4095 5.07061L35.0004 9.04776L29.5913 5.07047C28.9548 4.59319 28.0004 4.75233 27.364 5.38862L21.6367 12.5478L14.6367 11.1159C14.0003 10.9568 13.364 11.275 13.0458 11.7523L8.27311 18.1159C7.79583 18.7523 7.95497 19.8659 8.59125 20.3432C8.9094 20.5023 9.22768 20.6613 9.54583 20.6613C10.0231 20.6613 10.5004 20.5022 10.8185 20.0249L14.955 14.4568L21.955 15.8886C22.5914 16.0478 23.0687 15.7295 23.5458 15.2522L28.955 8.57034L34.0458 12.3885C34.6823 12.8658 35.3185 12.8658 35.955 12.3885L41.0458 8.57034L44.864 13.6612C45.1821 14.1385 45.8185 14.4566 46.4548 14.2976L53.4548 12.8658L59.1821 20.0249C59.6594 20.6613 60.773 20.8203 61.4094 20.3431C62.0458 19.866 62.205 18.7523 61.7277 18.116Z" fill="white"/>
<path d="M64.4311 33.5475C63.6357 33.3884 62.6811 34.0248 62.6811 34.8202L59.4993 54.3885C59.3401 55.1839 58.7038 55.6612 57.9084 55.6612H57.272C56.4766 52.0021 53.2947 49.2976 49.4766 49.2976C45.6584 49.2976 42.4766 52.0022 41.6811 55.6612H33.4084C32.4538 55.6612 31.8176 56.2976 31.8176 57.2521C31.8176 58.2065 32.454 58.8429 33.4084 58.8429H42.9538C43.9084 58.8429 44.5447 58.2065 44.5447 57.2521C44.5447 54.5475 46.6129 52.4794 49.3174 52.4794C52.022 52.4794 54.0901 54.5475 54.0901 57.2521C54.0901 59.9566 52.022 62.0248 49.3174 62.0248H31.8174C30.8629 62.0248 30.2266 62.6612 30.2266 63.6156C30.2266 64.5702 30.863 65.2065 31.8174 65.2065H49.3174C53.1356 65.2065 56.3174 62.5019 57.1129 58.8429H57.7493C60.1357 58.8429 62.0447 57.0929 62.522 54.8656L65.7038 35.2975C65.8629 34.5021 65.2266 33.5475 64.4311 33.5475Z" fill="white"/>
<path d="M68.4082 62.0249H60.4537C59.4991 62.0249 58.8628 62.6613 58.8628 63.6158C58.8628 64.5703 59.4992 65.2066 60.4537 65.2066H68.4082C69.3628 65.2066 69.9991 64.5702 69.9991 63.6158C69.9991 62.6613 69.3627 62.0249 68.4082 62.0249Z" fill="white"/>
<path d="M66.0227 22.2524H3.97729C1.75 22.2524 0 24.0024 0 26.2297C0 28.2979 1.43186 29.8889 3.34086 30.207L7.47729 54.8662C7.95457 57.0934 9.86371 58.8434 12.25 58.8434H14.3181C15.2727 58.8434 15.909 58.207 15.909 57.2526C15.909 54.548 17.9771 52.4799 20.6817 52.4799C23.3863 52.4799 25.4544 54.548 25.4544 57.2526C25.4544 59.9571 23.3863 62.0253 20.6817 62.0253H1.59086C0.636426 62.0252 0 62.6616 0 63.6162C0 64.5707 0.636426 65.207 1.59086 65.207H20.6817C25.1363 65.207 28.6363 61.707 28.6363 57.2524C28.6363 52.7979 25.1363 49.2979 20.6817 49.2979C16.8636 49.2979 13.6817 52.0024 12.8863 55.6614H12.25C11.4546 55.6614 10.8181 55.025 10.6591 54.3887L6.36357 28.2979C6.20443 27.6614 5.56814 27.0252 4.77272 27.0252H3.97729C3.5 27.0252 3.18186 26.707 3.18186 26.2297C3.18186 25.7524 3.5 25.4343 3.97729 25.4343H66.0227C66.5 25.4343 66.8181 25.7524 66.8181 26.2297C66.8181 26.707 66.5 27.0252 66.0227 27.0252H65.2273H14.3181C13.3636 27.0252 12.7273 27.6616 12.7273 28.616C12.7273 29.5706 13.3637 30.2069 14.3181 30.2069H65.2273H66.0227C68.25 30.2069 70 28.4569 70 26.2296C70 24.0023 68.25 22.2524 66.0227 22.2524Z" fill="white"/>
</svg>
