<svg width="17" height="17" viewBox="0 0 17 17" fill="none" xmlns="http://www.w3.org/2000/svg">
<path d="M16.5129 8.30311C16.2424 8.30311 16.0259 8.51958 16.0259 8.79017V13.2206C16.0259 14.4256 15.0446 15.4033 13.8432 15.4033H3.15683C1.95183 15.4033 0.974109 14.422 0.974109 13.2206V8.71801C0.974109 8.44743 0.75764 8.23096 0.487054 8.23096C0.216469 8.23096 0 8.44743 0 8.71801V13.2206C0 14.9631 1.41787 16.3774 3.15683 16.3774H13.8432C15.5857 16.3774 17 14.9595 17 13.2206V8.79017C17 8.52319 16.7835 8.30311 16.5129 8.30311Z" fill="#0A143D"/>
<path d="M8.15707 12.5098C8.25087 12.6036 8.37715 12.6541 8.49981 12.6541C8.62248 12.6541 8.74875 12.6072 8.84255 12.5098L11.9381 9.4143C12.1293 9.22309 12.1293 8.91643 11.9381 8.72521C11.7468 8.534 11.4402 8.534 11.249 8.72521L8.98687 10.9909V1.10912C8.98687 0.838539 8.7704 0.62207 8.49981 0.62207C8.22923 0.62207 8.01276 0.838539 8.01276 1.10912V10.9909L5.74705 8.72521C5.55584 8.534 5.24918 8.534 5.05796 8.72521C4.86675 8.91643 4.86675 9.22309 5.05796 9.4143L8.15707 12.5098Z" fill="#0A143D"/>
</svg>
