<svg width="224" height="208" viewBox="0 0 224 208" fill="none" xmlns="http://www.w3.org/2000/svg">
<path fill-rule="evenodd" clip-rule="evenodd" d="M1.5575 0.0226728C0.822752 0.118059 0.230446 0.649197 0.0465853 1.37755L0 1.56211L0.00589036 112.07L0.0117751 222.578L0.0662198 222.74C0.259073 223.315 0.663642 223.724 1.24014 223.926L1.42555 223.991L85.3134 223.998C162.087 224.003 169.217 224.001 169.386 223.967C170.106 223.823 170.68 223.205 170.788 222.459C170.803 222.355 170.811 217.99 170.812 209.965L170.812 197.63H169.016H167.22V209.032V220.434H85.3946H3.56939V112.012V3.58988H68.2898H133.01L133.018 16.3185C133.026 30.2283 133.015 29.1255 133.15 29.9575C133.384 31.3985 134.003 32.8412 134.897 34.0296C135.276 34.5343 135.912 35.2041 136.383 35.5968C137.95 36.901 139.814 37.6437 141.841 37.7712C142.098 37.7873 146.346 37.7953 154.722 37.7954L167.22 37.7955L167.226 68.1947L167.231 98.5939H169.016H170.801L170.808 67.4705C170.814 44.3315 170.809 36.2906 170.789 36.1269C170.735 35.6771 170.714 35.5649 170.649 35.3724C170.613 35.2639 170.544 35.1104 170.497 35.0312C170.375 34.8254 135.987 0.440811 135.787 0.324869C135.498 0.157294 135.191 0.0670292 134.76 0.0236233C134.453 -0.0072452 1.79524 -0.00817254 1.5575 0.0226728ZM163.239 34.1979C162.452 34.2012 157.297 34.2011 151.784 34.1977L141.76 34.1915L141.481 34.1403C140.927 34.0388 140.47 33.9 140.019 33.6967C138.331 32.9345 137.092 31.3886 136.719 29.5781C136.597 28.9885 136.603 29.6486 136.603 17.4484V6.12752L150.637 20.1597L164.67 34.1919L163.239 34.1979ZM22.806 32.1989V33.9949H28.3916H33.9772V32.1989V30.4028H28.3916H22.806V32.1989ZM45.5993 30.4318C45.5933 30.4477 45.591 31.2533 45.5942 32.222L45.6003 33.9833H81.5936H117.587V32.1989V30.4144L81.5987 30.4086C52.8202 30.404 45.6082 30.4086 45.5993 30.4318ZM22.806 55.0026V56.7986L70.1965 56.7928L117.587 56.787V55.0026V53.2182L70.1965 53.2124L22.806 53.2066V55.0026ZM22.806 77.8064V79.6024H24.5906H26.3752V77.8064V76.0103H24.5906H22.806V77.8064ZM38.0099 77.8064V79.6024L91.1018 79.5966L144.194 79.5908V77.8064V76.0219L91.1018 76.0161L38.0099 76.0103V77.8064ZM31.9255 110.239C31.7331 110.267 31.5425 110.331 31.3466 110.432C31.2033 110.506 31.1112 110.577 30.941 110.748C30.8198 110.87 30.6857 111.029 30.6428 111.102C30.5311 111.293 30.4366 111.585 30.409 111.827C30.3774 112.103 30.3765 134.524 30.4081 135.2C30.4623 136.359 30.6986 137.428 31.1245 138.44C32.1669 140.918 34.2463 142.853 36.7808 143.704C37.7056 144.015 38.4506 144.149 39.4932 144.192C39.8739 144.207 68.9267 144.213 127.634 144.208C210.936 144.201 215.223 144.199 215.543 144.16C217.237 143.955 218.57 143.472 219.877 142.588C222.232 140.997 223.75 138.411 223.979 135.604C223.998 135.365 224.003 132.158 223.998 123.46L223.991 111.641L223.918 111.438C223.813 111.144 223.717 110.997 223.47 110.748C223.281 110.558 223.218 110.511 223.029 110.419C222.908 110.36 222.746 110.292 222.67 110.27C222.536 110.229 218.867 110.228 127.286 110.225C74.9019 110.223 31.9895 110.229 31.9255 110.239ZM56.9972 115.703L57.0032 117.597H58.7878H60.5724L60.5783 115.703L60.5842 113.808H70.1908H79.7973L79.8031 119.503L79.809 125.198H81.5936H83.3782L83.384 119.503L83.3899 113.808H92.9964H102.603L102.609 115.703L102.615 117.597H104.399H106.184L106.19 115.703L106.196 113.808H115.802H125.409L125.415 119.503L125.421 125.198H127.205H128.99L128.996 119.503L129.002 113.808H138.608H148.215L148.221 115.703L148.226 117.597H150.011H151.796L151.802 115.703L151.808 113.808H161.414H171.021L171.026 119.503L171.032 125.198H172.817H174.601L174.607 119.503L174.613 113.808H184.22H193.826L193.832 115.703L193.838 117.597H195.623H197.407L197.413 115.703L197.419 113.808H208.926H220.433V124.454C220.433 131.565 220.425 135.18 220.41 135.34C220.222 137.233 219.192 138.858 217.575 139.816C216.849 140.245 215.981 140.525 215.149 140.598C214.697 140.638 39.2659 140.619 39.0297 140.579C38.425 140.477 38.0202 140.368 37.5811 140.189C36.4263 139.718 35.4282 138.853 34.7853 137.767C34.361 137.05 34.0817 136.197 34.0017 135.374C33.9848 135.199 33.9772 131.801 33.9772 124.464V113.808H45.4842H56.9913L56.9972 115.703ZM47.1144 155.847C46.9235 155.879 46.7406 155.941 46.5505 156.038C46.3672 156.131 46.2754 156.221 38.5707 163.921C30.0928 172.393 30.6399 171.829 30.494 172.25C30.4357 172.418 30.4225 172.497 30.4138 172.729C30.3989 173.131 30.4691 173.417 30.6656 173.755C30.7248 173.857 32.5302 175.677 38.4612 181.612C42.7063 185.861 46.2422 189.384 46.3187 189.443C46.4968 189.579 46.7334 189.691 46.9656 189.751L47.1489 189.797H125.538C178.868 189.797 204.041 189.79 204.283 189.774C206.652 189.615 208.858 189.015 210.906 187.972C215.695 185.535 219.071 180.964 219.968 175.707C220.513 172.516 220.149 169.262 218.913 166.281C218.728 165.834 218.294 164.943 218.054 164.517C217.462 163.468 216.727 162.435 215.939 161.548C215.662 161.235 214.909 160.478 214.593 160.194C211.661 157.559 208.053 156.066 204.094 155.847C203.578 155.819 47.2832 155.819 47.1144 155.847ZM182.424 165.209V171.026H115.802H49.181V165.209V159.392H115.802H182.424V165.209ZM193.827 172.81V186.228H189.921H186.016V172.81V159.392H189.921H193.827V172.81ZM203.677 159.415C203.989 159.427 204.401 159.454 204.592 159.474C207.297 159.756 209.756 160.798 211.87 162.558C212.26 162.883 213.122 163.744 213.458 164.143C215.095 166.092 216.145 168.427 216.504 170.91C216.599 171.568 216.619 171.905 216.619 172.822C216.618 173.949 216.564 174.525 216.363 175.51C215.661 178.966 213.613 182.005 210.659 183.978C208.92 185.139 206.854 185.9 204.801 186.134C204.045 186.22 203.69 186.228 200.519 186.228L197.419 186.228V172.81V159.392L200.264 159.393C201.829 159.393 203.364 159.403 203.677 159.415ZM45.6118 172.828V183.714L40.1653 178.268L34.7188 172.822L40.1595 167.382C43.1519 164.39 45.6028 161.942 45.606 161.942C45.6092 161.942 45.6118 166.84 45.6118 172.828ZM182.424 180.412V186.228H115.802H49.181V180.412V174.595H115.802H182.424V180.412Z" fill="white"/>
</svg>
