<svg width="63" height="63" viewBox="0 0 63 63" fill="none" xmlns="http://www.w3.org/2000/svg">
<path fill-rule="evenodd" clip-rule="evenodd" d="M31.5809 13.6646C31.5689 13.6766 31.5591 20.0679 31.5591 27.8677C31.5591 35.6675 31.5477 42.0562 31.5338 42.0648C31.5198 42.0734 29.4938 40.0658 27.0315 37.6034C24.5692 35.141 22.5331 33.1263 22.507 33.1263C22.4553 33.1263 21.8811 33.6872 21.8811 33.7377C21.8811 33.7885 31.9782 43.8694 32.029 43.8694C32.0806 43.8694 42.1768 33.7879 42.1768 33.7364C42.1768 33.6861 41.6015 33.1263 41.5499 33.1263C41.5244 33.1263 39.4851 35.1447 37.0183 37.6115C34.0138 40.616 32.5273 42.0818 32.5157 42.0513C32.5062 42.0263 32.495 35.6281 32.4908 27.833L32.4831 13.6602L32.0428 13.6516C31.8007 13.6468 31.5928 13.6527 31.5809 13.6646ZM13.6576 49.4852C13.649 49.5076 13.6459 49.7226 13.6507 49.9629L13.6595 50.3999H32.029H50.3984V49.9301V49.4603L32.0358 49.4524C16.9996 49.446 13.6704 49.4519 13.6576 49.4852Z" fill="white"/>
<circle cx="31.5" cy="31.5" r="31" stroke="white"/>
</svg>
