<svg width="21" height="31" viewBox="0 0 21 31" fill="none" xmlns="http://www.w3.org/2000/svg">
<path d="M9.91046 14.2178C9.91046 6.41804 9.92023 0.0266505 9.93217 0.0146858C9.9441 0.00275248 10.152 -0.00310458 10.3941 0.00165623L10.8344 0.0103009L10.8421 14.1831C10.8463 21.9782 10.8576 28.3764 10.8671 28.4014C10.8786 28.4319 12.3651 26.9661 15.3696 23.9616C17.8364 21.4948 19.8757 19.4764 19.9012 19.4764C19.9528 19.4764 20.5281 20.0362 20.5281 20.0865C20.5281 20.138 10.432 30.2195 10.3803 30.2195C10.3295 30.2195 0.232422 20.1385 0.232422 20.0878C0.232422 20.0373 0.80659 19.4764 0.858269 19.4764C0.884453 19.4764 2.92051 21.4911 5.3828 23.9535C7.84512 26.4159 9.87116 28.4235 9.88509 28.4149C9.89906 28.4063 9.91046 22.0176 9.91046 14.2178Z" fill="white"/>
</svg>
