<svg width="45" height="43" viewBox="0 0 45 43" fill="none" xmlns="http://www.w3.org/2000/svg">
<path d="M43.7107 20.9796C42.9945 20.9796 42.4215 21.5526 42.4215 22.2688V33.9963C42.4215 37.1861 39.8239 39.7741 36.6437 39.7741H8.35632C5.1666 39.7741 2.57852 37.1765 2.57852 33.9963V22.0778C2.57852 21.3616 2.00552 20.7886 1.28926 20.7886C0.573005 20.7886 0 21.3616 0 22.0778V33.9963C0 38.609 3.75318 42.3527 8.35632 42.3527H36.6437C41.2564 42.3527 45 38.5995 45 33.9963V22.2688C45 21.5621 44.427 20.9796 43.7107 20.9796Z" fill="#0A143D"/>
<path d="M21.5914 32.115C21.8397 32.3633 22.174 32.497 22.4987 32.497C22.8234 32.497 23.1577 32.3728 23.406 32.115L31.5999 23.921C32.1061 23.4149 32.1061 22.6031 31.5999 22.097C31.0938 21.5908 30.282 21.5908 29.7759 22.097L23.788 28.0944V1.93672C23.788 1.22047 23.215 0.647461 22.4987 0.647461C21.7824 0.647461 21.2094 1.22047 21.2094 1.93672V28.0944L15.212 22.097C14.7058 21.5908 13.8941 21.5908 13.3879 22.097C12.8818 22.6031 12.8818 23.4149 13.3879 23.921L21.5914 32.115Z" fill="#0A143D"/>
</svg>
