<svg width="70" height="70" viewBox="0 0 70 70" fill="none" xmlns="http://www.w3.org/2000/svg">
<g clip-path="url(#clip0)">
<path d="M62.0403 15.9092H58.8584C57.9039 15.9092 57.2676 16.5456 57.2676 17.5C57.2676 18.4545 57.904 19.0909 58.8584 19.0909H62.0403C62.9949 19.0909 63.6311 18.4545 63.6311 17.5C63.6311 16.5456 62.9949 15.9092 62.0403 15.9092Z" fill="white"/>
<path d="M62.0403 22.2729H58.8584C57.9039 22.2729 57.2676 22.9094 57.2676 23.8638C57.2676 24.8182 57.904 25.4547 58.8584 25.4547H62.0403C62.9949 25.4547 63.6311 24.8182 63.6311 23.8638C63.6311 22.9094 62.9949 22.2729 62.0403 22.2729Z" fill="white"/>
<path d="M11.1311 15.9092H7.94926C6.99469 15.9092 6.3584 16.5456 6.3584 17.5C6.3584 18.4545 6.99482 19.0909 7.94926 19.0909H11.1311C12.0857 19.0909 12.722 18.4545 12.722 17.5C12.722 16.5456 12.0857 15.9092 11.1311 15.9092Z" fill="white"/>
<path d="M11.1311 22.2729H7.94926C6.99469 22.2729 6.3584 22.9094 6.3584 23.8638C6.3584 24.8182 6.99482 25.4547 7.94926 25.4547H11.1311C12.0857 25.4547 12.722 24.8182 12.722 23.8638C12.722 22.9094 12.0857 22.2729 11.1311 22.2729Z" fill="white"/>
<path d="M62.6776 9.70457L41.9957 0.159141C41.8367 0 41.5184 0 41.3594 0H28.6321C28.473 0 28.1549 0 27.9957 0.159141L7.31399 9.70457C6.67757 10.0227 6.20042 10.8181 6.35942 11.4546C6.51856 12.25 7.15485 12.7273 7.95028 12.7273H25.1321L17.4957 55.8409C17.3366 56.6363 17.973 57.5909 18.7684 57.75C18.9276 57.75 18.9276 57.75 19.0866 57.75C19.882 57.75 20.5184 57.2727 20.6774 56.4773L22.5866 45.1819L45.0184 61.7273C45.3366 61.8864 45.6549 62.0454 45.973 62.0454C46.4503 62.0454 46.9276 61.8863 47.2457 61.409C47.723 60.7726 47.5639 59.659 46.9276 59.1817L37.7003 52.3409L47.4049 45.1817L50.5867 63.6363H22.2684L31.3366 56.9544C31.973 56.4771 32.132 55.3636 31.6547 54.7271C31.1774 54.0907 30.0639 53.9317 29.4274 54.409L17.0183 63.6363H12.723C12.2457 63.6363 11.9276 63.7954 11.6093 64.1136L8.42757 67.2954C7.79114 67.9319 7.79114 68.8863 8.42757 69.5227C9.06399 70.1591 10.0184 70.1591 10.6549 69.5227L13.3594 66.8181H56.6321L59.3367 69.5227C59.6549 69.8409 60.1321 70 60.4503 70C60.7684 70 61.2457 69.8409 61.5639 69.5227C62.2003 68.8863 62.2003 67.9319 61.5639 67.2954L58.382 64.1136C58.0639 63.7954 57.7456 63.6363 57.2684 63.6363H53.7684L44.8594 12.7273H62.0413C62.8367 12.7273 63.4731 12.25 63.6321 11.4546C63.7911 10.6591 63.473 10.0227 62.6776 9.70457ZM46.7684 41.5227L34.9957 50.4319L24.973 42.9546L31.1776 38.5C31.814 38.0227 32.1321 37.0681 31.4957 36.2727C31.0184 35.4773 30.0639 35.3181 29.2684 35.9546L23.5411 40.091L25.4503 28.9546L41.9957 40.7273C42.3139 40.8864 42.6321 41.0454 42.9503 41.0454C43.4276 41.0454 43.9049 40.8863 44.223 40.409C44.7003 39.7726 44.5411 38.659 43.9049 38.1817L37.7003 33.7271L44.5411 28.7953L46.7684 41.5227ZM41.5184 22.5909L37.3821 19.25L41.9957 15.4319L43.7457 25.4546L34.8366 31.8181L27.9957 26.8863L31.1776 24.3409C31.814 23.8636 31.973 22.75 31.3367 22.1136C30.7004 21.4771 29.7458 21.3181 29.1094 21.9544L26.0867 24.3409L27.6776 15.4317L39.4503 25.1363C39.7684 25.4544 40.0867 25.4544 40.4049 25.4544C40.8821 25.4544 41.3594 25.2953 41.6776 24.818C42.1549 24.1819 42.1549 23.0681 41.5184 22.5909ZM44.5411 9.54543L44.223 7.63629C44.0639 6.84086 43.2684 6.20443 42.3139 6.36357C41.5184 6.52271 40.882 7.31814 41.0411 8.27271L41.2003 9.54543H33.4049C32.4503 9.54543 31.814 10.1819 31.814 11.1363C31.814 12.0907 32.4504 12.7271 33.4049 12.7271H40.4049L34.9957 17.1817L28.473 11.7726L29.1094 8.11344C29.2686 7.31801 28.6321 6.52258 27.8367 6.36344C27.0413 6.2043 26.0867 6.84072 25.9276 7.63615L25.6094 9.54529H25.4503H15.2684L29.1093 3.18172H41.2001L55.041 9.54529H44.5411V9.54543Z" fill="white"/>
</g>
<defs>
<clipPath id="clip0">
<rect width="70" height="70" fill="white"/>
</clipPath>
</defs>
</svg>
