<svg width="52" height="70" viewBox="0 0 52 70" fill="none" xmlns="http://www.w3.org/2000/svg">
<path d="M20.1661 42.0007C20.2407 42.0007 20.3189 41.9937 20.3959 41.9773L32.0623 39.644C32.6935 39.5179 33.1041 38.9031 32.9782 38.272C32.851 37.6408 32.2432 37.2314 31.605 37.3562L27.167 38.244V33.8341C27.167 33.1901 26.6456 32.6675 26.0004 32.6675C25.3553 32.6675 24.8338 33.1901 24.8338 33.8341V38.7106L19.9386 39.6906C19.3073 39.8167 18.8968 40.4315 19.0227 41.0626C19.1336 41.6169 19.6213 42.0007 20.1661 42.0007Z" fill="white"/>
<path d="M20.1661 51.3339C20.2407 51.3339 20.3189 51.3269 20.3959 51.3105L32.0623 48.9772C32.6935 48.8511 33.1041 48.2363 32.9782 47.6052C32.851 46.974 32.2432 46.5611 31.605 46.6894L19.9386 49.0227C19.3073 49.1499 18.8968 49.7647 19.0227 50.3959C19.1336 50.95 19.6213 51.3339 20.1661 51.3339Z" fill="white"/>
<path d="M25.9999 30.3342C29.8603 30.3342 32.9998 27.1948 32.9998 23.3343C32.9998 19.4739 29.8603 16.3345 25.9999 16.3345C22.1394 16.3345 19 19.4739 19 23.3343C19 27.1947 22.1394 30.3342 25.9999 30.3342ZM25.9999 18.6677C28.5736 18.6677 30.6664 20.7607 30.6664 23.3342C30.6664 25.9079 28.5734 28.0008 25.9999 28.0008C23.4263 28.0008 21.3333 25.9078 21.3333 23.3342C21.3332 20.7607 23.4262 18.6677 25.9999 18.6677Z" fill="white"/>
<path d="M24.1013 9.25163L27.5989 7.85166L26.0625 12.4657C25.8584 13.077 26.1886 13.7373 26.7998 13.9416C26.9223 13.9824 27.0471 14.001 27.1686 14.001C27.6574 14.001 28.1124 13.6919 28.2746 13.203L30.6079 6.20313C30.7526 5.77261 30.6336 5.2978 30.3022 4.98513C29.971 4.67369 29.4879 4.58386 29.069 4.75066L25.5714 6.15063L27.1078 1.53659C27.312 0.925334 26.9818 0.264994 26.3705 0.0607397C25.7545 -0.144608 25.1 0.187886 24.8959 0.799281L22.5626 7.79916C22.4179 8.22968 22.5369 8.70449 22.8683 9.01593C23.1983 9.3286 23.6801 9.41843 24.1013 9.25163Z" fill="white"/>
<path d="M20.1661 46.6671C20.2407 46.6671 20.3189 46.6601 20.3959 46.6437L32.0623 44.3104C32.6935 44.1843 33.1041 43.5695 32.9782 42.9384C32.851 42.3072 32.2432 41.8989 31.605 42.0225L19.9386 44.3559C19.3073 44.483 18.8968 45.0978 19.0227 45.7291C19.1336 46.2833 19.6213 46.6671 20.1661 46.6671Z" fill="white"/>
<path d="M51.386 2.74182C50.9673 2.25292 50.231 2.1981 49.7423 2.61576L41.5758 9.61564C41.2037 9.93296 41.0706 10.4487 41.2397 10.906C41.4089 11.3633 41.8453 11.6678 42.334 11.6678H44.8411L35.7716 18.9232C35.2688 19.3256 35.1872 20.0594 35.5897 20.5622C35.8207 20.8515 36.159 21.0008 36.502 21.0008C36.7575 21.0008 37.0141 20.9169 37.23 20.7453L48.8964 11.4121C49.2826 11.103 49.4319 10.5826 49.2675 10.1148C49.1041 9.64695 48.6632 9.33428 48.1673 9.33428H45.4875L51.2589 4.38651C51.7489 3.96789 51.806 3.23181 51.386 2.74182Z" fill="white"/>
<path d="M38.8339 63.0001H27.1675C27.1675 62.3562 26.6461 61.8335 26.0009 61.8335C25.3558 61.8335 24.8343 62.3562 24.8343 63.0001H13.1679C11.2044 63.0001 9.66797 64.5377 9.66797 66.5V68.8334C9.66797 69.4773 10.1894 70 10.8346 70C11.4797 70 12.0012 69.4773 12.0012 68.8334V66.5C12.0012 65.9342 12.4106 65.3334 13.1678 65.3334H38.8339C39.5316 65.3334 40.0005 65.8024 40.0005 66.5V68.8334C40.0005 69.4773 40.522 70 41.1671 70C41.8123 70 42.3337 69.4773 42.3337 68.8334V66.5C42.3339 64.5051 40.8289 63.0001 38.8339 63.0001Z" fill="white"/>
<path d="M20.1661 56.0001C20.2407 56.0001 20.3189 55.9931 20.3959 55.9767L32.0623 53.6434C32.6935 53.5173 33.1041 52.9025 32.9782 52.2714C32.851 51.6402 32.2432 51.2284 31.605 51.3556L19.9386 53.6889C19.3073 53.8161 18.8968 54.4309 19.0227 55.0621C19.1336 55.6163 19.6213 56.0001 20.1661 56.0001Z" fill="white"/>
<path d="M20.1661 60.6666C20.2407 60.6666 20.3189 60.6596 20.3959 60.6432L32.0623 58.3099C32.6935 58.1838 33.1041 57.569 32.9782 56.9379C32.851 56.3067 32.2432 55.8949 31.605 56.0221L19.9386 58.3554C19.3073 58.4826 18.8968 59.0974 19.0227 59.7286C19.1336 60.2828 19.6213 60.6666 20.1661 60.6666Z" fill="white"/>
<path d="M9.66734 8.90287L16.9624 17.1102C17.3893 17.5909 18.1267 17.6317 18.6086 17.207C19.0904 16.7777 19.1336 16.0404 18.7054 15.5585L9.37217 5.05868C9.05129 4.69816 8.54038 4.57334 8.08539 4.74369C7.63395 4.91636 7.33414 5.3503 7.33414 5.83454V14.6847L2.32567 9.67641C1.86945 9.22019 1.13213 9.22019 0.676049 9.67641C0.219963 10.1326 0.219963 10.8699 0.676049 11.326L7.67593 18.3259C7.89877 18.5487 8.19736 18.6677 8.50074 18.6677C8.65126 18.6677 8.80288 18.6386 8.94753 18.579C9.38379 18.3981 9.66734 17.9724 9.66734 17.501V8.90287Z" fill="white"/>
</svg>
