<svg width="70" height="62" viewBox="0 0 70 62" fill="none" xmlns="http://www.w3.org/2000/svg">
<path d="M68.8332 58.9996H65.3332C65.3332 58.3557 64.8118 57.833 64.1666 57.833C63.5214 57.833 63 58.3557 63 58.9996H53.6666C53.6666 58.3557 53.1452 57.833 52.5 57.833C51.8548 57.833 51.3334 58.3557 51.3334 58.9996H41.9999C41.9999 58.3557 41.4784 57.833 40.8332 57.833C40.1881 57.833 39.6666 58.3557 39.6666 58.9996H30.3332C30.3332 58.3557 29.8106 57.833 29.1666 57.833C28.5227 57.833 28 58.3557 28 58.9996H18.6666C18.6666 58.3557 18.1439 57.833 17.5 57.833C16.8561 57.833 16.3334 58.3557 16.3334 58.9996H6.99986C6.99986 58.3557 6.47719 57.833 5.83324 57.833C5.1893 57.833 4.66662 58.3557 4.66662 58.9996H1.16662C0.522676 58.9996 0 59.5223 0 60.1663C0 60.8102 0.522676 61.3329 1.16662 61.3329H68.8332C69.4784 61.3329 69.9999 60.8102 69.9999 60.1663C69.9999 59.5223 69.4784 58.9996 68.8332 58.9996Z" fill="white"/>
<path d="M68.8334 33.333C68.1882 33.333 67.6668 33.8557 67.6668 34.4996V35.6662H65.3334V13.4996C65.3334 12.8557 64.8119 12.333 64.1668 12.333H5.83338C5.18943 12.333 4.66676 12.8557 4.66676 13.4996V35.6662H2.33338V34.4996C2.33338 33.8557 1.8107 33.333 1.16676 33.333C0.522813 33.333 0 33.8557 0 34.4996V39.1662C0 39.8102 0.522676 40.3329 1.16662 40.3329C1.81057 40.3329 2.33324 39.8102 2.33324 39.1662V37.9996H4.66662V48.4996C4.66662 49.1436 5.1893 49.6662 5.83324 49.6662C6.47719 49.6662 6.99986 49.1436 6.99986 48.4996V37.9996H59.4999C60.145 37.9996 60.6665 37.4769 60.6665 36.833C60.6665 36.1891 60.145 35.6664 59.4999 35.6664H6.99986V26.333H59.4999C60.145 26.333 60.6665 25.8103 60.6665 25.1664C60.6665 24.5224 60.145 23.9998 59.4999 23.9998H6.99986V14.6664H62.9999V43.833C62.9999 45.3964 61.9627 46.7077 60.5463 47.1557C59.9024 43.2917 56.5435 40.333 52.4999 40.333C47.9977 40.333 44.3332 43.9964 44.3332 48.4996C44.3332 53.0029 47.9979 56.6662 52.5 56.6662C56.6439 56.6662 60.0693 53.5605 60.5909 49.5554C63.2859 49.0432 65.3334 46.6761 65.3334 43.8329V37.9996H67.6668V39.1662C67.6668 39.8102 68.1882 40.3329 68.8334 40.3329C69.4786 40.3329 70 39.8102 70 39.1662V34.4996C70 33.8557 69.4786 33.333 68.8334 33.333ZM52.5 54.333C49.2836 54.333 46.6666 51.7162 46.6666 48.4996C46.6666 45.283 49.2834 42.6663 52.5 42.6663C55.7164 42.6663 58.3334 45.283 58.3334 48.4996C58.3334 51.7162 55.7164 54.333 52.5 54.333Z" fill="white"/>
<path d="M9.97825 9.87492C10.5522 10.1642 11.2547 9.93098 11.544 9.35689C11.9302 8.59045 12.5951 7.75045 12.8343 7.66637C13.4398 7.66637 14.9693 8.28939 15.8129 8.71049C16.1862 8.89602 16.633 8.86922 16.9818 8.63693L20.4154 6.34799C21.0034 6.07154 22.142 5.78922 22.5095 6.15781C22.7591 6.40746 23.6784 7.14943 25.047 6.25584C25.5684 5.91637 26.0877 5.39602 26.6383 4.84531C27.4175 4.06711 28.484 2.99961 29.1675 2.99961C31.2804 2.99961 33.8342 4.04031 33.8342 5.33299C33.8342 7.07246 34.5622 7.96264 35.1724 8.40246C36.6506 9.46764 38.6456 8.84816 38.8695 8.77352C38.9675 8.74084 39.0608 8.69422 39.1472 8.63816C40.3675 7.82619 41.9706 7.18922 42.3427 7.32443C43.6284 8.61014 46.0434 9.8257 46.1461 9.87711C46.3095 9.95873 46.4891 9.99961 46.6676 9.99961C46.8192 9.99961 46.9709 9.97049 47.1143 9.91102C47.4258 9.78154 47.6674 9.52246 47.7735 9.20172C47.9636 8.63119 48.9272 6.49975 50.1674 6.49975C51.4508 6.49975 53.2112 8.50869 53.8646 9.48172C54.0583 9.77102 54.3721 9.9601 54.7197 9.99387C55.0674 10.0312 55.4128 9.90527 55.6589 9.65781L57.1674 8.14926L58.6761 9.65795C59.1323 10.1142 59.8697 10.1142 60.3258 9.65795C60.7818 9.20172 60.782 8.46439 60.3258 8.0083L57.9924 5.67492C57.5361 5.21869 56.7988 5.21869 56.3427 5.67492L54.9509 7.06672C53.9336 5.86742 52.1404 4.16637 50.1676 4.16637C48.0886 4.16637 46.7854 5.91992 46.1111 7.19742C45.3831 6.76689 44.5163 6.19869 43.9924 5.67492C42.3625 4.04277 39.1717 5.84172 38.0074 6.59545C37.6445 6.68295 36.9072 6.77633 36.5361 6.51027C36.2317 6.28975 36.1674 5.74848 36.1674 5.33313C36.1674 2.15045 31.9908 0.666504 29.1674 0.666504C27.5178 0.666504 26.1737 2.01045 24.9885 3.1958C24.6467 3.5365 24.1683 4.01598 23.8579 4.2458C22.1347 2.94492 19.6113 4.1408 19.3126 4.2901C19.2694 4.31115 19.2274 4.33563 19.1865 4.36242L16.2363 6.32939C15.3659 5.93619 13.8622 5.33313 12.8343 5.33313C11.082 5.33313 9.80681 7.61277 9.45681 8.31168C9.1697 8.88672 9.40308 9.58672 9.97825 9.87492Z" fill="white"/>
<path d="M25.572 49.6663H40.832C41.4772 49.6663 41.9987 49.1436 41.9987 48.4996C41.9987 47.8557 41.4772 47.333 40.832 47.333H25.572C25.0038 43.3816 21.6042 40.333 17.4987 40.333C12.9953 40.333 9.33203 43.9964 9.33203 48.4996C9.33203 53.0029 12.9953 56.6663 17.4987 56.6663C21.6042 56.6663 25.0038 53.6178 25.572 49.6663ZM11.6653 48.4996C11.6653 45.2832 14.2821 42.6663 17.4987 42.6663C20.7151 42.6663 23.332 45.283 23.332 48.4996C23.332 51.7162 20.7152 54.333 17.4987 54.333C14.2822 54.333 11.6653 51.7161 11.6653 48.4996Z" fill="white"/>
<path d="M52.5 44.9995C50.5704 44.9995 49 46.5699 49 48.4995C49 50.4292 50.5704 51.9995 52.5 51.9995C54.4296 51.9995 56 50.4292 56 48.4995C56 46.5699 54.4296 44.9995 52.5 44.9995ZM52.5 49.6661C51.8561 49.6661 51.3334 49.1424 51.3334 48.4995C51.3334 47.8567 51.8561 47.3329 52.5 47.3329C53.1439 47.3329 53.6666 47.8567 53.6666 48.4995C53.6666 49.1424 53.1439 49.6661 52.5 49.6661Z" fill="white"/>
<path d="M21 48.4995C21 46.5699 19.4296 44.9995 17.5 44.9995C15.5703 44.9995 14 46.5699 14 48.4995C14 50.4292 15.5703 51.9995 17.5 51.9995C19.4296 51.9995 21 50.4292 21 48.4995ZM16.3334 48.4995C16.3334 47.8567 16.8571 47.3329 17.5 47.3329C18.1428 47.3329 18.6666 47.8567 18.6666 48.4995C18.6666 49.1424 18.1428 49.6661 17.5 49.6661C16.8571 49.6661 16.3334 49.1424 16.3334 48.4995Z" fill="white"/>
</svg>
