<svg width="70" height="66" viewBox="0 0 70 66" fill="none" xmlns="http://www.w3.org/2000/svg">
<path d="M47.8334 37.6665H22.1666C21.5227 37.6665 21 38.1892 21 38.8331C21 39.4771 21.5227 39.9997 22.1666 39.9997H47.8332C48.4772 39.9997 48.9999 39.4771 48.9999 38.8331C48.9999 38.1892 48.4773 37.6665 47.8334 37.6665Z" fill="white"/>
<path d="M47.8334 33H22.1666C21.5227 33 21 33.5227 21 34.1666C21 34.8106 21.5227 35.3332 22.1666 35.3332H47.8332C48.4772 35.3332 48.9999 34.8106 48.9999 34.1666C48.9999 33.5227 48.4773 33 47.8334 33Z" fill="white"/>
<path d="M56 9.6665H52.5C51.8561 9.6665 51.3334 10.1892 51.3334 10.8331V48.1665C51.3334 48.8105 51.8561 49.3331 52.5 49.3331C53.1439 49.3331 53.6666 48.8105 53.6666 48.1665V11.9999H56C62.433 11.9999 67.6666 17.2336 67.6666 23.6665V39.9999C67.6666 46.4329 62.4329 51.6665 56 51.6665H22.1666C21.5227 51.6665 21 52.1892 21 52.8331C21 53.4771 21.5227 53.9997 22.1666 53.9997H56C63.7198 53.9997 70 47.7196 70 39.9997V23.6665C70 15.9467 63.7198 9.6665 56 9.6665Z" fill="white"/>
<path d="M24.5009 7.3335C25.1448 7.3335 25.6675 6.81082 25.6675 6.16687C25.6675 4.23723 27.2378 2.66687 29.1675 2.66687H38.5009C40.4305 2.66687 42.0009 4.23723 42.0009 6.16687C42.0009 6.81082 42.5235 7.3335 43.1675 7.3335C43.8114 7.3335 44.3341 6.81082 44.3341 6.16687C44.3341 2.95043 41.7173 0.333496 38.5007 0.333496H29.1674C25.9509 0.333496 23.334 2.95029 23.334 6.16687C23.3343 6.81082 23.8569 7.3335 24.5009 7.3335Z" fill="white"/>
<path d="M47.8334 42.3335H22.1666C21.5227 42.3335 21 42.8562 21 43.5001C21 44.1441 21.5227 44.6667 22.1666 44.6667H47.8332C48.4772 44.6667 48.9999 44.1441 48.9999 43.5001C48.9999 42.8562 48.4773 42.3335 47.8334 42.3335Z" fill="white"/>
<path d="M47.8334 28.3335H22.1666C21.5227 28.3335 21 28.8562 21 29.5001C21 30.1441 21.5227 30.6667 22.1666 30.6667H47.8332C48.4772 30.6667 48.9999 30.1441 48.9999 29.5001C49 28.8562 48.4773 28.3335 47.8334 28.3335Z" fill="white"/>
<path d="M17.5 14.3336C16.8561 14.3336 16.3334 14.8563 16.3334 15.5002V51.6669H14C7.56697 51.6669 2.33338 46.4331 2.33338 40.0002V23.6669C2.33338 17.2338 7.56711 12.0002 14 12.0002H47.8334C48.4773 12.0002 49 11.4776 49 10.8336C49 10.1897 48.4773 9.66699 47.8334 9.66699H14C6.28018 9.66686 0 15.947 0 23.6669V40.0002C0 47.7201 6.28018 54.0002 14 54.0002H17.5C18.1439 54.0002 18.6666 53.4776 18.6666 52.8336V15.5002C18.6666 14.8563 18.1439 14.3336 17.5 14.3336Z" fill="white"/>
<path d="M47.8334 47H22.1666C21.5227 47 21 47.5227 21 48.1666C21 48.8106 21.5227 49.3332 22.1666 49.3332H47.8332C48.4772 49.3332 48.9999 48.8106 48.9999 48.1666C48.9999 47.5227 48.4773 47 47.8334 47Z" fill="white"/>
<path d="M28.0344 57.5001C28.0344 56.8562 27.513 56.3335 26.8678 56.3335H26.8562C26.2122 56.3335 25.6953 56.8562 25.6953 57.5001C25.6953 58.1441 26.2239 58.6667 26.8678 58.6667C27.513 58.6667 28.0344 58.1441 28.0344 57.5001Z" fill="white"/>
<path d="M47.8332 56.3335C47.1893 56.3335 46.6666 56.8562 46.6666 57.5001V59.8335C46.6666 61.7631 45.0963 63.3335 43.1666 63.3335H26.8332C24.9036 63.3335 23.3332 61.7631 23.3332 59.8335V57.5001C23.3332 56.8562 22.8106 56.3335 22.1666 56.3335C21.5227 56.3335 21 56.8562 21 57.5001V59.8335C21 63.0499 23.6168 65.6669 26.8334 65.6669H43.1667C46.3832 65.6669 49.0001 63.0501 49.0001 59.8335V57.5001C48.9999 56.8562 48.4772 56.3335 47.8332 56.3335Z" fill="white"/>
<path d="M47.8334 23.6665H22.1666C21.5227 23.6665 21 24.1892 21 24.8331C21 25.4771 21.5227 25.9997 22.1666 25.9997H47.8332C48.4772 25.9997 48.9999 25.4771 48.9999 24.8331C48.9999 24.1892 48.4773 23.6665 47.8334 23.6665Z" fill="white"/>
<path d="M44.3684 57.5001C44.3684 56.8562 43.847 56.3335 43.2018 56.3335H43.1902C42.5462 56.3335 42.0293 56.8562 42.0293 57.5001C42.0293 58.1441 42.5579 58.6667 43.2018 58.6667C43.8468 58.6667 44.3684 58.1441 44.3684 57.5001Z" fill="white"/>
<path d="M47.8334 14.3335H22.1666C21.5227 14.3335 21 14.8562 21 15.5001C21 16.1441 21.5227 16.6667 22.1666 16.6667H47.8332C48.4772 16.6667 48.9999 16.1441 48.9999 15.5001C48.9999 14.8562 48.4773 14.3335 47.8334 14.3335Z" fill="white"/>
<path d="M47.8334 19H22.1666C21.5227 19 21 19.5227 21 20.1666C21 20.8106 21.5227 21.3332 22.1666 21.3332H47.8332C48.4772 21.3332 48.9999 20.8106 48.9999 20.1666C49 19.5227 48.4773 19 47.8334 19Z" fill="white"/>
</svg>
