<svg width="70" height="70" viewBox="0 0 70 70" fill="none" xmlns="http://www.w3.org/2000/svg">
<g clip-path="url(#clip0)">
<path d="M63.2173 34.7178C62.2814 34.7178 61.5223 35.4769 61.5223 36.4128V66.6104H43.3339V47.6542C43.3339 46.7183 42.5749 45.9592 41.639 45.9592H28.3615C27.4256 45.9592 26.6665 46.7183 26.6665 47.6542V62.6851C26.6665 63.621 27.4256 64.3801 28.3615 64.3801C29.2974 64.3801 30.0565 63.621 30.0565 62.6851V49.3492H39.944V66.6104H8.47787V25.1224L35 3.86754L62.1571 25.6312C62.8876 26.2168 63.9543 26.0988 64.5397 25.3685C65.125 24.638 65.0075 23.5715 64.277 22.9859L36.0599 0.372474C35.4407 -0.124158 34.5593 -0.124158 33.94 0.372474L5.72295 22.9859C5.32152 23.3077 5.08789 23.7938 5.08789 24.3086V68.3051C5.08789 69.2411 5.84668 70.0001 6.78288 70.0001H63.2173C64.1535 70.0001 64.9123 69.2411 64.9123 68.3051V36.4128C64.9123 35.4766 64.1535 34.7178 63.2173 34.7178Z" fill="white"/>
</g>
<defs>
<clipPath id="clip0">
<rect width="70" height="70" fill="white"/>
</clipPath>
</defs>
</svg>
