<svg width="73" height="20" viewBox="0 0 73 20" fill="none" xmlns="http://www.w3.org/2000/svg">
<path d="M0 17.4812H0.349454C2.61063 17.4812 3.55621 16.4613 3.63844 13.8503L3.88511 5.22192H5.8585V17.4608H8.16079V3.18211H1.76783L1.39782 13.9727C1.35671 15.2986 1.02781 15.4414 0 15.4414V17.4812Z" fill="#0A143D"/>
<path d="M14.1055 10.913L15.0306 7.40453V17.4608H17.0656V3.18211H14.5783L12.7283 9.07717L11.906 12.2185V3.18211H9.89152V17.4608H12.2144L14.1055 10.913Z" fill="#0A143D"/>
<path d="M20.9252 11.3414H23.4947V17.4608H25.797V3.18211H23.4947V9.30155H20.9252V3.18211H18.664V17.4608H20.9252V11.3414Z" fill="#0A143D"/>
<path d="M29.6977 5.22192H33.6033V3.18211H27.4365V17.4608H33.6033V15.421H29.6977V11.2394H32.8017V9.19956H29.6977V5.22192Z" fill="#0A143D"/>
<path d="M37.3274 17.4608H35.0045V3.18211H37.019V12.2185L37.8413 9.07717L39.6913 3.18211H42.1786V17.4608H40.1436V7.40453L39.2186 10.913L37.3274 17.4608ZM39.6502 0C39.5886 0.754731 39.2391 0.938314 38.6224 0.938314C38.0263 0.938314 37.718 0.754731 37.6563 0H36.2585C36.2996 1.38707 37.0396 2.26419 38.6224 2.26419C40.2258 2.26419 41.0275 1.38707 41.0275 0H39.6502Z" fill="#0A143D"/>
<path d="M54.5064 3.18211H52.2452V15.421H50.2924V3.18211H48.0312V15.421H46.0784V3.18211H43.8172V17.4608H53.3141V19.3782H55.5136V15.4618H54.5064V3.18211Z" fill="#0A143D"/>
<path d="M60.9591 10.913L61.8841 7.40453V17.4608H63.9192V3.18211H61.4319L59.5818 9.07717L58.7596 12.2185V3.18211H56.7451V17.4608H59.0679L60.9591 10.913Z" fill="#0A143D"/>
<path d="M70.6772 17.4608H73L69.8549 9.54633L73 3.18211H70.7388L67.7787 9.40354V3.18211H65.5176V17.4608H67.7787V13.0752L68.4776 11.7697L70.6772 17.4608Z" fill="#0A143D"/>
</svg>
