<svg width="73" height="83" viewBox="0 0 73 83" fill="none" xmlns="http://www.w3.org/2000/svg">
<path fill-rule="evenodd" clip-rule="evenodd" d="M36.4777 0.114664C36.4064 0.17771 36.248 0.295784 36.1257 0.377042C36.0033 0.4583 35.8597 0.560917 35.8064 0.605077C35.7532 0.649238 35.6632 0.716631 35.6064 0.754815C35.5496 0.793018 35.4631 0.855896 35.4142 0.894585C35.3299 0.961192 35.2698 1.00606 34.9685 1.2272C34.8983 1.27873 34.7986 1.35461 34.747 1.39583C34.6399 1.48126 34.4554 1.61922 34.2835 1.74244C34.2188 1.78881 34.116 1.86944 34.0551 1.92162C33.9942 1.97379 33.9148 2.03671 33.8787 2.0614C33.8425 2.08612 33.7631 2.14742 33.7021 2.19763C33.6411 2.24785 33.5589 2.3093 33.5194 2.3342C33.4798 2.3591 33.3905 2.43101 33.3208 2.49404C33.2511 2.55704 33.1492 2.63723 33.0943 2.67225C33.0395 2.70725 32.9421 2.78448 32.878 2.84387C32.8138 2.90327 32.7275 2.97227 32.6862 2.99719C32.6449 3.02213 32.5571 3.09143 32.4911 3.15122C32.4251 3.21099 32.3247 3.29059 32.268 3.32814C32.2114 3.36567 32.109 3.44856 32.0406 3.51232C31.9722 3.57609 31.874 3.65683 31.8224 3.69175C31.7707 3.72667 31.6475 3.82854 31.5487 3.91812C31.4498 4.00769 31.3423 4.0971 31.3098 4.11681C31.2773 4.13652 31.1512 4.24409 31.0295 4.35585C30.9079 4.46761 30.7718 4.58223 30.7273 4.61058C30.6827 4.63893 30.5525 4.74924 30.438 4.85572C30.3234 4.96222 30.1951 5.07441 30.1528 5.10504C30.1105 5.13567 29.9365 5.29054 29.766 5.44916C29.5956 5.6078 29.4182 5.76353 29.3717 5.79523C29.3252 5.82695 29.0635 6.06734 28.7901 6.32947C28.5168 6.59159 28.2337 6.8525 28.161 6.90931C27.9648 7.06274 25.9136 9.10824 25.7801 9.28366C25.7173 9.3661 25.4725 9.63239 25.236 9.87544C24.9995 10.1185 24.7875 10.3479 24.7649 10.3853C24.7423 10.4227 24.6261 10.5569 24.5067 10.6835C24.3873 10.8101 24.2355 10.9811 24.1693 11.0636C24.1032 11.146 23.974 11.2936 23.8822 11.3915C23.7904 11.4894 23.687 11.6133 23.6523 11.6669C23.6177 11.7205 23.5313 11.8259 23.4603 11.9011C23.3892 11.9763 23.2957 12.0862 23.2525 12.1453C23.2092 12.2044 23.1265 12.3056 23.0687 12.3701C23.0109 12.4347 22.9378 12.5254 22.9063 12.5718C22.8748 12.6182 22.7932 12.7236 22.7249 12.806C22.5978 12.9594 22.449 13.1516 22.2826 13.3772C22.2309 13.4473 22.1549 13.5475 22.1135 13.6C22.0722 13.6524 21.9861 13.7651 21.9222 13.8502C21.8582 13.9354 21.7634 14.0599 21.7114 14.1269C21.6593 14.1939 21.5432 14.3583 21.4533 14.4923C21.3635 14.6262 21.2593 14.7738 21.2219 14.8201C21.1087 14.9607 20.8343 15.3637 20.4509 15.9526C20.3421 16.1197 20.2231 16.2982 20.1864 16.3492C20.1497 16.4001 20.0836 16.509 20.0395 16.5912C19.9954 16.6733 19.9324 16.7785 19.8995 16.8249C19.8665 16.8713 19.8151 16.9556 19.7852 17.0122C19.7553 17.0689 19.704 17.1532 19.6713 17.1996C19.6386 17.246 19.5797 17.3429 19.5404 17.4151C19.5012 17.4872 19.4427 17.5842 19.4105 17.6305C19.3783 17.6769 19.3023 17.8116 19.2416 17.9298C19.181 18.048 19.0891 18.2166 19.0374 18.3045C18.915 18.5129 18.5953 19.1134 18.4486 19.4104C18.385 19.5393 18.1948 19.9234 18.0261 20.264C17.8573 20.6046 17.6942 20.9503 17.6636 21.0322C17.633 21.114 17.5591 21.2792 17.4993 21.3993C17.4395 21.5194 17.3906 21.623 17.3906 21.6296C17.3906 21.6459 17.1971 22.1367 17.1094 22.3426C17.0699 22.4354 17.0319 22.5323 17.025 22.5581C17.0181 22.5838 16.9838 22.6724 16.9488 22.7548C16.8682 22.9448 16.8076 23.1081 16.7472 23.2985C16.7209 23.3812 16.6606 23.5498 16.613 23.6732C16.5655 23.7967 16.5108 23.9399 16.4915 23.9914C16.4352 24.1414 16.2631 24.6824 16.2635 24.7079C16.2637 24.7207 16.2434 24.7923 16.2184 24.8671C16.1499 25.0717 16.0993 25.2558 16.0865 25.347C16.0801 25.3919 16.0626 25.4525 16.0474 25.4818C16.0323 25.511 16.0115 25.5923 16.0011 25.6625C15.9908 25.7326 15.97 25.8238 15.9549 25.865C15.9398 25.9062 15.9271 25.9755 15.9266 26.019C15.9262 26.0625 15.9047 26.1626 15.8789 26.2415C15.8473 26.338 15.8317 26.4287 15.8311 26.5184C15.8306 26.5922 15.8173 26.6854 15.8012 26.7268C15.7825 26.7748 15.7665 26.9096 15.7566 27.1015C15.7449 27.3295 15.7318 27.427 15.7021 27.5086C15.6645 27.6115 15.6629 27.651 15.6629 28.4757C15.6629 29.2992 15.6646 29.3407 15.7024 29.4552C15.7298 29.538 15.7466 29.6551 15.7571 29.837C15.7661 29.9929 15.7841 30.1297 15.8013 30.1742C15.8172 30.2155 15.8306 30.3092 15.8311 30.3826C15.8317 30.4723 15.8473 30.5631 15.8789 30.6596C15.9047 30.7385 15.9258 30.8186 15.9258 30.8375C15.9258 30.8565 15.9427 30.9247 15.9634 30.9893C15.984 31.0538 16.0013 31.1328 16.0018 31.165C16.0022 31.1972 16.0157 31.2572 16.0318 31.2984C16.0479 31.3396 16.0729 31.4259 16.0874 31.4901C16.1472 31.7552 16.3861 32.4173 16.5251 32.7036C16.5651 32.786 16.6178 32.9078 16.6421 32.9741C16.7005 33.1332 16.9666 33.6754 17.0231 33.7502C17.0475 33.7825 17.1075 33.8849 17.1565 33.9776C17.2337 34.124 17.4015 34.4009 17.5029 34.5491C17.5205 34.5748 17.6084 34.7048 17.6984 34.838C17.7883 34.9711 17.8938 35.1186 17.9329 35.1658C17.9719 35.2131 18.0307 35.2912 18.0635 35.3395C18.0963 35.3879 18.1905 35.4999 18.2728 35.5884C18.355 35.677 18.4517 35.7935 18.4876 35.8472C18.5683 35.9682 19.6428 37.0366 19.7513 37.1039C19.7948 37.1308 19.9008 37.2191 19.9868 37.3C20.0729 37.3809 20.1918 37.478 20.2511 37.5158C20.3103 37.5536 20.3944 37.6173 20.4381 37.6574C20.4817 37.6975 20.6006 37.7854 20.7024 37.8528C20.8042 37.9202 20.9437 38.0185 21.0123 38.0711C21.149 38.176 21.3039 38.2777 21.5254 38.4081C21.7006 38.5113 21.9254 38.649 22.1193 38.7721C22.288 38.8791 24.0961 39.7865 24.1793 39.8058C24.2102 39.813 24.337 39.8654 24.4609 39.9223C24.5849 39.9793 24.7328 40.0408 24.7896 40.059C24.9484 40.1101 25.2806 40.2354 25.3441 40.2683C25.3754 40.2844 25.4472 40.3103 25.5037 40.3258C25.5602 40.3413 25.7422 40.4007 25.9081 40.4578C26.074 40.5149 26.2642 40.5735 26.3306 40.5881C26.3971 40.6027 26.5234 40.6373 26.6112 40.6652C26.7682 40.715 26.9528 40.7634 27.1933 40.8181C27.2604 40.8334 27.36 40.8624 27.4147 40.8826C27.4693 40.9028 27.5379 40.9193 27.5671 40.9193C27.5964 40.9193 27.6732 40.9362 27.7379 40.9568C27.8026 40.9774 27.8883 40.9943 27.9285 40.9943C27.9687 40.9943 28.062 41.0153 28.1359 41.0411C28.2146 41.0685 28.3136 41.0883 28.375 41.0888C28.4326 41.0892 28.5135 41.1022 28.5548 41.1177C28.5961 41.1331 28.7102 41.1535 28.8083 41.1629C28.9064 41.1724 29.0351 41.1973 29.0942 41.2184C29.1679 41.2445 29.2484 41.2566 29.35 41.2566C29.4422 41.2566 29.54 41.2697 29.6087 41.2913C29.6762 41.3126 29.8066 41.3304 29.9444 41.3372C30.0932 41.3446 30.2105 41.3614 30.2896 41.3867C30.3946 41.4204 30.4577 41.4252 30.7989 41.4252C31.1367 41.4252 31.204 41.4302 31.3059 41.4627C31.4193 41.4988 31.4752 41.5001 32.8834 41.5001C34.2916 41.5001 34.3474 41.4988 34.4608 41.4627C34.5606 41.4308 34.6301 41.4252 34.9209 41.4252C35.209 41.4252 35.2817 41.4194 35.3783 41.3886C35.4414 41.3685 35.5798 41.3462 35.6859 41.3391C35.7919 41.332 35.9283 41.3105 35.9891 41.2914C36.0579 41.2697 36.1554 41.2566 36.2478 41.2566C36.349 41.2566 36.4301 41.2445 36.5035 41.2185C36.5627 41.1976 36.6871 41.1726 36.7801 41.163C36.873 41.1534 36.9829 41.1329 37.0242 41.1176C37.0655 41.1022 37.1307 41.0892 37.169 41.0888C37.2074 41.0883 37.2834 41.0714 37.338 41.0512C37.4319 41.0165 37.5823 40.9785 37.7941 40.9359C37.8458 40.9255 37.943 40.9002 38.0101 40.8796C38.0772 40.8591 38.1829 40.8312 38.2448 40.8177C38.3068 40.8042 38.4293 40.7704 38.5171 40.7427C38.6049 40.715 38.7262 40.6797 38.7867 40.6644C38.9344 40.627 39.1385 40.5586 39.2871 40.4966C39.3542 40.4686 39.5232 40.4054 39.6627 40.3561C40.0615 40.2152 40.2647 40.1361 40.3763 40.0781C40.4331 40.0486 40.5349 40.0065 40.6025 39.9845C40.8704 39.8973 41.7848 39.4023 41.8129 39.3292C41.8328 39.2774 41.7909 39.2627 41.6898 39.286C41.6371 39.2981 41.5419 39.3084 41.4781 39.3088C41.4143 39.3093 41.3284 39.3223 41.2871 39.3377C41.2457 39.3532 41.1311 39.3734 41.0323 39.3827C40.9334 39.392 40.8151 39.4132 40.7693 39.4299C40.7225 39.4469 40.5795 39.4672 40.442 39.4763C40.3077 39.4851 40.1641 39.5046 40.1227 39.5195C40.0814 39.5345 39.9396 39.5522 39.8075 39.5588C39.6607 39.5663 39.5366 39.5827 39.4882 39.601C39.4297 39.6233 39.302 39.6347 38.996 39.6451C38.6589 39.6565 38.5673 39.6654 38.4983 39.6938C38.4184 39.7268 38.3315 39.7287 36.874 39.7288L35.3341 39.7289L35.2143 39.6871C35.11 39.6507 35.0563 39.6453 34.8011 39.6453C34.5658 39.6453 34.4821 39.638 34.3788 39.6085C34.308 39.5883 34.1643 39.566 34.0596 39.559C33.9549 39.552 33.8196 39.5306 33.7589 39.5115C33.6936 39.4909 33.5928 39.4766 33.5125 39.4766C33.4307 39.4766 33.3321 39.4625 33.2651 39.4411C33.2037 39.4216 33.0864 39.3994 33.0044 39.3918C32.9224 39.3842 32.8055 39.3623 32.7448 39.343C32.6841 39.3238 32.6116 39.308 32.5837 39.308C32.5559 39.308 32.4727 39.2869 32.3988 39.2612C32.3249 39.2354 32.2315 39.2143 32.1914 39.2143C32.1512 39.2143 32.0654 39.1975 32.0008 39.1769C31.9361 39.1563 31.8641 39.1394 31.8407 39.1394C31.8173 39.1394 31.7402 39.1214 31.6694 39.0994C31.5986 39.0775 31.4942 39.049 31.4374 39.036C31.2222 38.9871 30.3936 38.7092 30.1792 38.6141C30.0914 38.5751 29.9773 38.5298 29.9257 38.5133C29.874 38.497 29.5825 38.3589 29.2778 38.2067C28.8202 37.978 28.6535 37.8831 28.3201 37.6612C28.098 37.5135 27.8806 37.3599 27.837 37.3199C27.7934 37.28 27.7089 37.2165 27.6492 37.1788C27.5349 37.1067 26.6946 36.2891 26.5999 36.1578C26.57 36.1162 26.4985 36.0218 26.4412 35.948C26.339 35.8164 26.1819 35.5902 26.0338 35.3613C25.9054 35.1629 25.5639 34.4563 25.4827 34.2212C25.3696 33.8937 25.3138 33.7125 25.284 33.5748C25.2694 33.5078 25.241 33.4085 25.2207 33.354C25.2005 33.2995 25.1839 33.2141 25.1839 33.1644C25.1839 33.1146 25.1682 33.0242 25.149 32.9636C25.1299 32.9031 25.1084 32.768 25.1014 32.6636C25.0944 32.5591 25.072 32.4158 25.0518 32.3451C25.0175 32.2257 25.0149 32.1548 25.0149 31.3452C25.0149 30.5305 25.0174 30.4654 25.0524 30.3431C25.0754 30.263 25.0946 30.1213 25.1021 29.9778C25.1096 29.8335 25.1277 29.701 25.1491 29.6331C25.1683 29.5726 25.1839 29.4792 25.1839 29.4256C25.1839 29.37 25.2041 29.2708 25.2309 29.1942C25.2567 29.1205 25.2778 29.0274 25.2778 28.9873C25.2778 28.9472 25.2947 28.8617 25.3154 28.7972C25.336 28.7326 25.3529 28.6555 25.3529 28.6257C25.3529 28.596 25.3741 28.5113 25.3999 28.4376C25.4257 28.3638 25.4467 28.2902 25.4465 28.274C25.4461 28.2413 25.6054 27.7401 25.7005 27.4751C25.734 27.3817 25.7755 27.2568 25.7928 27.1976C25.81 27.1383 25.8486 27.0448 25.8784 26.9898C25.9083 26.9347 25.9423 26.8531 25.9541 26.8083C25.9658 26.7635 26.0201 26.6299 26.0747 26.5114C26.1293 26.3929 26.1846 26.2622 26.1977 26.221C26.2262 26.1312 26.4335 25.7023 26.8408 24.8907C27.2161 24.1429 27.3116 23.962 27.3999 23.8321C27.4384 23.7754 27.4973 23.6743 27.5309 23.6073C27.5645 23.5403 27.6189 23.4476 27.6517 23.4012C27.6845 23.3548 27.7441 23.2579 27.784 23.1857C27.824 23.1136 27.8879 23.0082 27.9261 22.9515C27.9643 22.8949 28.0145 22.8105 28.0376 22.7642C28.0607 22.7178 28.1443 22.5845 28.2233 22.468C28.3024 22.3514 28.3945 22.2123 28.4282 22.1588C28.4618 22.1053 28.5356 21.9983 28.592 21.9211C28.6913 21.7853 28.8175 21.6048 29.0047 21.3309C29.054 21.2587 29.1156 21.177 29.1417 21.1492C29.1677 21.1214 29.228 21.0442 29.2756 20.9776C29.4583 20.7222 29.5549 20.5981 29.6918 20.4426C29.7697 20.3541 29.854 20.2479 29.8791 20.2067C29.9042 20.1655 29.986 20.0664 30.0608 19.9864C30.1356 19.9065 30.2304 19.7917 30.2714 19.7314C30.3125 19.6711 30.4885 19.4752 30.6626 19.296C30.8367 19.1168 31.0161 18.9196 31.0611 18.8577C31.1674 18.7119 32.089 17.7924 32.2355 17.686C32.2975 17.6409 32.4961 17.4614 32.6768 17.287C32.8576 17.1126 33.0562 16.9358 33.1181 16.894C33.1801 16.8523 33.3111 16.7411 33.4092 16.647C33.5073 16.5529 33.6299 16.4474 33.6815 16.4125C33.7331 16.3777 33.8533 16.2854 33.9485 16.2076C34.1638 16.0317 34.5165 15.7636 34.7881 15.5696C34.8531 15.5232 34.9351 15.4597 34.9705 15.4285C35.0059 15.3973 35.0937 15.3322 35.1657 15.2838C35.2376 15.2355 35.3683 15.1451 35.4561 15.083C35.7994 14.8402 36.8821 14.1379 37.0211 14.0679C37.0641 14.0462 37.1373 14.0015 37.1838 13.9685C37.2303 13.9354 37.3359 13.872 37.4185 13.8275C37.5012 13.783 37.6157 13.7149 37.6731 13.6762C37.8084 13.585 39.3586 12.812 39.4936 12.7685C39.5504 12.7501 39.6814 12.6947 39.7847 12.6452C39.888 12.5957 40.0951 12.5138 40.2449 12.4633C40.3948 12.4127 40.5467 12.3563 40.5825 12.3378C40.6721 12.2916 40.9389 12.2019 41.1087 12.1609C41.1861 12.1422 41.3213 12.1042 41.4091 12.0766C41.6009 12.0163 41.8162 11.9577 41.9443 11.9311C41.996 11.9204 42.1042 11.8915 42.1849 11.867C42.2656 11.8425 42.3511 11.8224 42.3749 11.8224C42.3988 11.8224 42.4712 11.8055 42.5359 11.7849C42.6024 11.7637 42.7051 11.7474 42.7725 11.7474C42.8486 11.7474 42.9434 11.7305 43.0353 11.7006C43.1466 11.6644 43.2184 11.6538 43.3527 11.6538C43.4698 11.6538 43.5622 11.6424 43.6367 11.6189C43.7284 11.59 43.8383 11.5819 44.2844 11.5711C44.6537 11.5621 44.8533 11.5497 44.9229 11.5312C45.0508 11.4972 45.1291 11.4973 45.2578 11.5315C45.3288 11.5503 45.5242 11.5625 45.8963 11.5714C46.3416 11.582 46.4513 11.5901 46.543 11.619C46.6864 11.6642 46.9773 11.6675 47.0387 11.6246C47.0616 11.6085 47.0804 11.5775 47.0804 11.5556C47.0804 11.5094 46.9671 11.3274 46.8183 11.1349C46.7611 11.0608 46.6762 10.9441 46.6297 10.8756C46.5832 10.8072 46.5094 10.7034 46.4656 10.6451C46.4217 10.5867 46.3398 10.4714 46.2836 10.3887C46.2273 10.3061 46.1588 10.2176 46.1313 10.192C46.1038 10.1664 46.0446 10.0907 45.9998 10.0237C45.9219 9.90751 45.8865 9.85985 45.6377 9.5366C45.5782 9.45931 45.5148 9.37273 45.4968 9.34418C45.4788 9.31564 45.4127 9.23573 45.3499 9.16662C45.2871 9.09748 45.207 8.99616 45.172 8.94143C45.1369 8.88672 45.0583 8.78847 44.9974 8.72312C44.9364 8.65779 44.8652 8.57055 44.8391 8.5293C44.813 8.48804 44.7397 8.39638 44.6763 8.32564C44.6128 8.25487 44.5347 8.15904 44.5026 8.11267C44.4705 8.06629 44.3783 7.95755 44.2976 7.87101C44.2169 7.78447 44.1194 7.66643 44.081 7.60871C44.0426 7.55098 43.9469 7.4363 43.8682 7.35386C43.7895 7.27142 43.6883 7.15338 43.6432 7.09156C43.5982 7.02973 43.4736 6.88308 43.3664 6.7657C43.2592 6.6483 43.151 6.51996 43.126 6.48048C43.1011 6.44101 42.9527 6.2757 42.7964 6.11311C42.6401 5.95054 42.4881 5.78032 42.4587 5.73485C42.4293 5.6894 42.2152 5.4557 41.9829 5.21553C41.7506 4.97535 41.5378 4.74276 41.5099 4.69864C41.4214 4.55847 37.8479 0.99175 37.6433 0.839427C37.5713 0.785823 37.3422 0.575025 37.1342 0.37099C36.7711 0.0148951 36.7529 0 36.6815 0C36.6172 0 36.5899 0.0153635 36.4777 0.114664ZM42.9453 15.3447C42.8719 15.3688 42.7507 15.384 42.5603 15.393C42.3738 15.4019 42.246 15.4177 42.1719 15.441C42.0993 15.464 42.0053 15.4759 41.8973 15.4759C41.7731 15.4759 41.6982 15.4873 41.5893 15.5227C41.5102 15.5485 41.43 15.5696 41.411 15.5696C41.392 15.5696 41.3235 15.5864 41.2589 15.607C41.1942 15.6277 41.0999 15.6445 41.0493 15.6445C40.9986 15.6445 40.9258 15.6581 40.8874 15.6747C40.8166 15.7053 40.6613 15.7513 40.4232 15.8121C40.083 15.899 39.6866 16.0438 39.1316 16.284C38.9893 16.3456 38.8411 16.4072 38.8023 16.4208C38.6838 16.4625 38.0636 16.772 37.9538 16.8442C37.8969 16.8816 37.7829 16.9483 37.7002 16.9925C37.6176 17.0367 37.4824 17.1172 37.3998 17.1712C37.3171 17.2253 37.1862 17.3101 37.1087 17.3597C36.9357 17.4703 36.9075 17.489 36.7425 17.6025C36.6702 17.6522 36.5106 17.7601 36.3879 17.8423C36.2651 17.9245 36.1215 18.0267 36.0686 18.0693C36.0158 18.112 35.943 18.1671 35.9068 18.1918C35.8707 18.2166 35.7735 18.293 35.6909 18.3618C35.6082 18.4306 35.5153 18.5028 35.4844 18.5224C35.4535 18.5419 35.3394 18.637 35.2309 18.7336C35.1224 18.8302 35 18.9306 34.959 18.9566C34.918 18.9826 34.8038 19.081 34.7051 19.1752C34.6064 19.2694 34.4625 19.3937 34.3853 19.4513C34.2139 19.5794 33.0071 20.7882 32.9203 20.9187C32.8861 20.9702 32.7509 21.122 32.6199 21.2559C32.489 21.3899 32.3596 21.535 32.3324 21.5783C32.3052 21.6217 32.23 21.7178 32.1653 21.7919C32.1006 21.866 32.0097 21.9796 31.9632 22.0444C31.8164 22.2489 31.6929 22.412 31.632 22.4815C31.5618 22.5617 31.4473 22.726 31.1805 23.1295C31.0715 23.2944 30.9178 23.5244 30.839 23.6407C30.7601 23.7569 30.649 23.934 30.592 24.0341C30.535 24.1343 30.4616 24.2548 30.429 24.3019C30.3964 24.349 30.3413 24.446 30.3065 24.5174C30.1957 24.7448 29.9675 25.168 29.8948 25.2807C29.8562 25.3406 29.8104 25.4333 29.793 25.4868C29.7756 25.5402 29.6958 25.7188 29.6156 25.8837C29.4439 26.2369 29.361 26.4245 29.3423 26.502C29.3348 26.5329 29.3015 26.613 29.2683 26.68C29.2351 26.747 29.1927 26.8481 29.1741 26.9048C29.1555 26.9615 29.1121 27.0666 29.0776 27.1385C29.0431 27.2103 29.0149 27.2799 29.0149 27.293C29.0149 27.3268 28.9461 27.5235 28.8688 27.7105C28.7832 27.9178 28.7185 28.1046 28.6839 28.2444C28.6546 28.363 28.5298 28.7728 28.4699 28.947C28.4368 29.0436 28.4009 29.1866 28.3547 29.4061C28.3439 29.4576 28.3147 29.5631 28.29 29.6406C28.2652 29.7181 28.2449 29.7992 28.2449 29.8208C28.2449 29.8425 28.228 29.913 28.2074 29.9775C28.1867 30.042 28.1698 30.1276 28.1698 30.1677C28.1698 30.2077 28.1487 30.3009 28.1229 30.3746C28.0954 30.4531 28.0756 30.5519 28.0751 30.6131C28.0746 30.6706 28.0617 30.7513 28.0463 30.7925C28.031 30.8337 28.0108 30.9363 28.0016 31.0204C27.9923 31.1045 27.9701 31.2015 27.9522 31.2359C27.9306 31.2775 27.9155 31.3673 27.9069 31.5049C27.8998 31.6184 27.8828 31.7323 27.869 31.7578C27.8543 31.785 27.8388 31.9016 27.8317 32.0385C27.8224 32.2175 27.811 32.2881 27.7834 32.3382C27.7491 32.4006 27.747 32.4596 27.742 33.5257C27.7373 34.5264 27.74 34.6525 27.7667 34.6932C27.7859 34.7224 27.8107 34.7367 27.8361 34.7329C27.8768 34.7269 27.8708 34.7431 28.0874 34.0526C28.1132 33.9701 28.1501 33.8437 28.1694 33.7715C28.2337 33.5306 28.2632 33.4362 28.3685 33.1345C28.426 32.9696 28.4885 32.7842 28.5073 32.7223C28.5261 32.6605 28.5642 32.5509 28.592 32.4788C28.6199 32.4066 28.6578 32.297 28.6763 32.2352C28.6949 32.1734 28.733 32.0722 28.7611 32.0104C28.7892 31.9485 28.8316 31.8431 28.8553 31.7762C28.8791 31.7092 28.9362 31.5743 28.9823 31.4764C29.0284 31.3785 29.0768 31.2647 29.0898 31.2235C29.1178 31.135 29.2849 30.7862 29.6151 30.1274C29.9274 29.5042 30.0348 29.3025 30.1117 29.1947C30.1464 29.1461 30.2022 29.0515 30.2358 28.9845C30.2692 28.9175 30.3278 28.8164 30.3659 28.7597C30.404 28.703 30.4703 28.6018 30.5132 28.5348C30.6099 28.3841 30.8562 28.0173 30.9536 27.8791C30.9935 27.8224 31.0744 27.7074 31.1332 27.6236C31.3737 27.2809 31.4848 27.1339 31.5773 27.036C31.6309 26.9793 31.7069 26.8823 31.7462 26.8205C31.7856 26.7587 31.9041 26.6196 32.0097 26.5114C32.1153 26.4032 32.23 26.2725 32.2645 26.221C32.3484 26.0958 33.4023 25.0362 33.5342 24.9444C33.5915 24.9046 33.7325 24.7873 33.8477 24.6838C33.9629 24.5803 34.0909 24.4753 34.1322 24.4504C34.1735 24.4255 34.2538 24.3616 34.3106 24.3083C34.5262 24.1062 35.0215 23.7993 35.5972 23.5111C35.8966 23.3612 36.1965 23.221 36.2636 23.1994C36.3308 23.1779 36.5336 23.1092 36.7143 23.0468C36.8951 22.9843 37.0651 22.9331 37.0922 22.933C37.1192 22.9329 37.1943 22.9159 37.2589 22.8953C37.3236 22.8747 37.4113 22.8579 37.4538 22.8579C37.4964 22.8579 37.6044 22.8364 37.6938 22.8101L37.8564 22.7624L38.7173 22.769C39.4843 22.7748 39.5872 22.7791 39.6614 22.8084C39.7072 22.8265 39.8255 22.8489 39.9243 22.8581C40.0231 22.8674 40.1378 22.8876 40.1791 22.9031C40.2204 22.9185 40.2796 22.9315 40.3107 22.932C40.3418 22.9324 40.4644 22.9664 40.583 23.0074C40.7017 23.0484 40.8459 23.0907 40.9035 23.1013C40.9611 23.1119 41.0837 23.1541 41.1758 23.195C41.268 23.236 41.3544 23.2696 41.3679 23.2698C41.3814 23.2699 41.4786 23.3071 41.5839 23.3524C41.6892 23.3977 41.7964 23.4407 41.8223 23.4481C41.9105 23.4733 42.5263 23.7808 42.6327 23.8529C42.6911 23.8924 42.839 23.9767 42.9613 24.0402C43.0837 24.1037 43.2133 24.1782 43.2495 24.2058C43.2856 24.2334 43.3913 24.3049 43.4842 24.3648C43.6654 24.4815 43.7337 24.5295 43.8858 24.6471C44.1803 24.8749 44.2657 24.9384 44.3405 24.9854C44.386 25.0139 44.5034 25.1144 44.6016 25.2087C44.6997 25.3029 44.8433 25.4269 44.9208 25.4842C45.0933 25.6116 45.9972 26.5036 46.0853 26.6331C46.1203 26.6847 46.2425 26.8284 46.3569 26.9525C46.4712 27.0766 46.5984 27.2257 46.6395 27.2837C46.6806 27.3418 46.7818 27.4651 46.8645 27.5579C47.0096 27.7208 47.0942 27.8293 47.2638 28.0696C47.3079 28.1321 47.3784 28.2222 47.4206 28.27C47.4628 28.3178 47.5192 28.3948 47.5459 28.4412C47.5725 28.4875 47.6183 28.5564 47.6475 28.5941C47.7309 28.7017 47.8293 28.8411 48.1415 29.2937C48.247 29.4466 48.2603 29.4665 48.3986 29.6777C48.4559 29.7653 48.5237 29.8749 48.5493 29.9213C48.5749 29.9677 48.643 30.0815 48.7006 30.1742C48.9282 30.5406 48.9719 30.6126 49.0875 30.8113C49.2907 31.1606 49.4017 31.3697 49.7192 32.001C50.1797 32.9165 50.3977 33.3647 50.4483 33.4999C50.5003 33.6388 50.5876 33.8515 50.7368 34.2025C50.8486 34.4655 51.0321 34.9632 51.0532 35.0605C51.0604 35.0935 51.094 35.1756 51.1278 35.2429C51.1617 35.3102 51.1993 35.403 51.2114 35.449C51.2235 35.495 51.2657 35.6255 51.3052 35.7388C51.3448 35.8522 51.3907 35.9871 51.4074 36.0386C51.5155 36.373 51.5476 36.4801 51.5646 36.5632C51.5751 36.6147 51.6141 36.7439 51.6513 36.8503C51.6885 36.9567 51.7192 37.0705 51.7197 37.1032C51.7201 37.136 51.7336 37.1965 51.7496 37.2377C51.7656 37.2789 51.7941 37.3759 51.8129 37.4532C51.8574 37.6364 51.9157 37.8371 51.9515 37.9309C51.9672 37.9721 51.9805 38.0406 51.9809 38.0831C51.9814 38.1255 51.9987 38.213 52.0193 38.2775C52.04 38.342 52.0569 38.4137 52.0569 38.4369C52.0569 38.46 52.078 38.5434 52.1038 38.6223C52.1297 38.7013 52.1508 38.8024 52.1508 38.8471C52.1508 38.8918 52.1677 38.9812 52.1883 39.0457C52.209 39.1102 52.2259 39.1815 52.2259 39.2041C52.2259 39.2267 52.247 39.3156 52.2729 39.4017C52.2991 39.4891 52.3198 39.6053 52.3198 39.6649C52.3198 39.7235 52.3367 39.8243 52.3574 39.8888C52.378 39.9533 52.3949 40.0457 52.3949 40.0941C52.3949 40.1424 52.416 40.2524 52.4419 40.3385C52.4754 40.4501 52.4888 40.539 52.4888 40.6485C52.4888 40.7504 52.5014 40.8414 52.5264 40.9193C52.5533 41.0035 52.5639 41.0882 52.5639 41.2195C52.5639 41.354 52.5763 41.45 52.6109 41.5826C52.6531 41.7448 52.6578 41.7993 52.6578 42.1256C52.6578 42.4367 52.6632 42.5049 52.6954 42.6055C52.7311 42.7172 52.7329 42.7744 52.7329 43.7953C52.7329 44.8161 52.7311 44.8734 52.6954 44.985C52.6637 45.084 52.6578 45.1539 52.6578 45.4338C52.6578 45.7332 52.6533 45.7805 52.6109 45.9218C52.5774 46.0335 52.5639 46.1223 52.5639 46.2318C52.5639 46.3337 52.5513 46.4247 52.5264 46.5026C52.5039 46.5727 52.4888 46.6715 52.4888 46.748C52.4888 46.834 52.4733 46.9234 52.4419 47.0197C52.416 47.0986 52.3949 47.1989 52.3949 47.2426C52.3949 47.2864 52.378 47.3749 52.3574 47.4394C52.3367 47.5039 52.3198 47.5808 52.3198 47.6103C52.3198 47.6398 52.2997 47.7251 52.2752 47.7999C52.2507 47.8747 52.2218 47.9781 52.211 48.0296C52.1697 48.2262 52.0718 48.5604 51.9724 48.8446C51.9453 48.9219 51.9058 49.0399 51.8846 49.1069C51.8633 49.1739 51.8226 49.2751 51.7942 49.3317C51.7658 49.3884 51.7285 49.4833 51.7114 49.5425C51.6943 49.6018 51.6587 49.6903 51.6323 49.7392C51.6059 49.7882 51.5505 49.9126 51.5091 50.0156C51.4355 50.1988 51.2433 50.5824 51.1766 50.679C51.1582 50.7057 51.0986 50.8119 51.0442 50.9149C50.9538 51.086 50.6627 51.5506 50.5058 51.7741C50.4117 51.9082 50.4244 52.0113 50.5348 52.0107C50.5612 52.0106 50.6363 51.9938 50.7018 51.9733C50.7673 51.9528 50.8654 51.936 50.92 51.936C50.9745 51.936 51.0688 51.9202 51.1296 51.9009C51.1903 51.8816 51.3034 51.8595 51.3808 51.8517C51.4583 51.844 51.5714 51.8219 51.6321 51.8026C51.6928 51.7832 51.79 51.767 51.8481 51.7666C51.9061 51.7661 51.9874 51.7534 52.0287 51.7382C52.07 51.7231 52.1672 51.7023 52.2445 51.6921C52.3219 51.6819 52.4339 51.6567 52.4935 51.6362C52.5529 51.6156 52.646 51.5984 52.7001 51.598C52.7543 51.5975 52.8325 51.5848 52.8738 51.5696C52.9151 51.5544 53.0122 51.5337 53.0896 51.5235C53.167 51.5132 53.279 51.4881 53.3385 51.4675C53.398 51.447 53.4722 51.4302 53.5034 51.4302C53.5346 51.4302 53.6059 51.4142 53.6617 51.3946C53.7176 51.375 53.7998 51.3533 53.8443 51.3464C53.8889 51.3395 53.974 51.3175 54.0335 51.2977C54.0929 51.2778 54.1859 51.2612 54.24 51.2607C54.2942 51.2603 54.3724 51.2468 54.4137 51.2309C54.491 51.201 54.7173 51.1425 54.8832 51.1094C54.9348 51.0991 55.032 51.0738 55.0991 51.0533C55.2133 51.0183 55.3343 50.9883 55.5592 50.9393C55.6108 50.9281 55.719 50.899 55.7996 50.8747C55.8802 50.8505 55.9612 50.8306 55.9795 50.8306C56.0124 50.8306 56.1907 50.7807 56.3573 50.7248C56.4038 50.7092 56.5073 50.6803 56.5874 50.6605C56.6674 50.6407 56.7984 50.6082 56.8784 50.5883C56.9585 50.5684 57.0958 50.5294 57.1836 50.5017C57.2714 50.4739 57.4066 50.436 57.4841 50.4173C57.6533 50.3767 57.8597 50.313 58.1132 50.2234C58.2164 50.1868 58.3221 50.1569 58.3479 50.1569C58.3936 50.1569 58.784 50.0361 59.2024 49.8927C59.515 49.7855 59.5852 49.7631 59.7282 49.7253C60.0147 49.6496 60.4647 49.5068 60.639 49.4364C60.6751 49.4218 60.7892 49.3829 60.8925 49.35C60.9958 49.317 61.1479 49.2627 61.2305 49.2293C61.3706 49.1726 61.4977 49.1283 62.0756 48.9349C62.1995 48.8935 62.3601 48.8354 62.4324 48.8059C62.631 48.725 63.1184 48.5518 63.1929 48.5357C63.2291 48.5278 63.3086 48.4964 63.3696 48.4658C63.4716 48.4146 63.5715 48.3769 63.8502 48.2843C63.907 48.2654 64.0225 48.2193 64.1068 48.1819C64.1911 48.1445 64.2702 48.1139 64.2825 48.1139C64.2949 48.1139 64.3907 48.0769 64.4954 48.0318C64.6002 47.9866 64.745 47.931 64.8173 47.9083C65.0511 47.8347 65.0983 47.8153 65.2049 47.7488C65.3198 47.6771 65.3871 47.5898 65.4382 47.4463C65.4697 47.358 65.4698 47.3458 65.4402 47.2283C65.423 47.1598 65.4089 47.0698 65.4089 47.0281C65.4089 46.9865 65.3921 46.9039 65.3717 46.8446C65.3512 46.7853 65.326 46.6778 65.3155 46.6057C65.305 46.5335 65.284 46.4408 65.2689 46.3996C65.2538 46.3584 65.2411 46.2762 65.2407 46.217C65.2402 46.1578 65.2235 46.0608 65.2035 46.0015C65.1835 45.9422 65.1579 45.8316 65.1467 45.7557C65.1354 45.6798 65.1171 45.6007 65.1059 45.58C65.0948 45.5592 65.079 45.4646 65.0709 45.3696C65.0626 45.2726 65.0423 45.1703 65.0246 45.1362C65.0073 45.1028 64.9858 45.005 64.9769 44.9189C64.968 44.8329 64.951 44.7443 64.939 44.722C64.9271 44.6998 64.9104 44.6076 64.9019 44.5171C64.8934 44.4266 64.8726 44.3259 64.8556 44.2932C64.8387 44.2606 64.8172 44.167 64.8079 44.0852C64.7985 44.0035 64.7819 43.9197 64.7708 43.8992C64.7598 43.8787 64.7427 43.7983 64.7329 43.7208C64.723 43.6432 64.7016 43.5541 64.6854 43.5227C64.6692 43.4914 64.648 43.4008 64.6384 43.3214C64.6288 43.2419 64.6085 43.1433 64.5932 43.102C64.5779 43.0608 64.5652 43.006 64.5649 42.9803C64.5647 42.9545 64.5438 42.866 64.5185 42.7835C64.4932 42.7011 64.4635 42.5894 64.4524 42.5353C64.4036 42.2962 64.3888 42.2335 64.3561 42.1278C64.3369 42.0659 64.3087 41.9606 64.2934 41.8936C64.2591 41.7434 64.2037 41.5147 64.1596 41.3409C64.1283 41.2176 64.1087 41.1424 64.0301 40.8444C64.0125 40.7774 63.9892 40.6804 63.9784 40.6289C63.9676 40.5774 63.9463 40.4973 63.9311 40.4509C63.9159 40.4045 63.888 40.3034 63.8691 40.2261C63.8502 40.1488 63.8163 40.0223 63.7938 39.945C63.7713 39.8678 63.7409 39.7581 63.7262 39.7015C63.7115 39.6448 63.6827 39.5415 63.6622 39.472C63.6416 39.4024 63.608 39.2886 63.5875 39.219C63.567 39.1495 63.5385 39.0462 63.5242 38.9895C63.5099 38.9328 63.4756 38.8148 63.4478 38.7272C63.4201 38.6396 63.3816 38.5089 63.3623 38.4368C63.3016 38.2098 63.253 38.0495 63.1843 37.85C63.1477 37.7436 63.1178 37.6428 63.1178 37.626C63.1178 37.6091 63.0924 37.5191 63.0614 37.4259C63.0304 37.3327 62.929 37.0246 62.836 36.7412C62.7431 36.4578 62.6447 36.1627 62.6175 36.0854C62.5903 36.0081 62.5486 35.8817 62.5249 35.8044C62.5011 35.7271 62.442 35.5627 62.3936 35.439C62.2336 35.0304 62.2122 34.9717 62.1783 34.8489C62.1599 34.7819 62.1049 34.6259 62.0561 34.5022C62.0073 34.3786 61.9302 34.1762 61.8848 34.0526C61.8394 33.9289 61.7777 33.7687 61.7477 33.6966C61.7177 33.6245 61.683 33.5317 61.6706 33.4905C61.6581 33.4493 61.6225 33.365 61.5914 33.3031C61.5604 33.2413 61.5158 33.1359 61.4922 33.0689C61.4328 32.8997 61.3333 32.6574 61.1916 32.3373C61.1252 32.1873 61.0709 32.0516 61.0709 32.0356C61.0709 32.0196 61.0206 31.9057 60.9591 31.7825C60.8976 31.6593 60.8248 31.4958 60.7974 31.4191C60.7699 31.3424 60.6903 31.1616 60.6204 31.0174C60.5506 30.8731 60.4832 30.7213 60.4706 30.6801C60.4353 30.5647 59.2251 28.1515 59.1175 27.982C59.0652 27.8996 58.9623 27.7142 58.8889 27.5699C58.8155 27.4257 58.7236 27.2606 58.6846 27.203C58.6456 27.1455 58.5692 27.0148 58.5149 26.9126C58.4607 26.8104 58.3851 26.6805 58.3471 26.6238C58.3091 26.5671 58.2502 26.4659 58.2164 26.3989C58.1825 26.332 58.1329 26.2484 58.106 26.2132C58.0791 26.1781 58.019 26.0832 57.9725 26.0024C57.8114 25.7228 57.1754 24.7505 56.8164 24.2349C56.7087 24.0804 56.5985 23.921 56.5715 23.8808C56.5444 23.8406 56.4746 23.746 56.4163 23.6705C56.1353 23.3067 55.9467 23.0494 55.8693 22.924C55.844 22.8831 55.7735 22.7947 55.7126 22.7277C55.6517 22.6606 55.574 22.5623 55.5399 22.5091C55.5058 22.456 55.4266 22.356 55.3638 22.2869C55.3011 22.2178 55.2237 22.1228 55.1919 22.0757C55.16 22.0286 55.0661 21.9163 54.9832 21.8261C54.9003 21.7359 54.8035 21.6192 54.768 21.5666C54.7326 21.5141 54.6243 21.3875 54.5275 21.2853C54.4307 21.183 54.3029 21.0334 54.2436 20.9528C54.096 20.7523 51.6811 18.3454 51.5029 18.2212C51.4306 18.1708 51.3165 18.0777 51.2494 18.0144C51.1823 17.9511 51.0597 17.85 50.9771 17.7898C50.8945 17.7296 50.7961 17.6531 50.7586 17.6199C50.6528 17.5264 49.596 16.8332 49.4524 16.7632C49.3821 16.7289 49.1302 16.6035 48.8926 16.4845C48.655 16.3655 48.41 16.2464 48.348 16.2199C47.8604 16.011 47.3286 15.8254 46.9677 15.7382C46.8903 15.7195 46.7931 15.6911 46.7518 15.6752C46.7105 15.6592 46.6471 15.6454 46.6109 15.6445C46.5748 15.6436 46.5114 15.6306 46.4701 15.6155C46.4288 15.6004 46.3358 15.5796 46.2635 15.5691C46.1912 15.5586 46.0835 15.5334 46.024 15.513C45.9521 15.4883 45.8665 15.4759 45.7682 15.4759C45.6764 15.4759 45.5787 15.4627 45.5101 15.4411C45.4313 15.4163 45.3095 15.4026 45.0848 15.3934C44.8528 15.3838 44.7397 15.3708 44.6551 15.3439C44.549 15.31 44.4846 15.3074 43.7963 15.3084C43.1214 15.3095 43.0423 15.3129 42.9453 15.3447ZM39.3434 24.9196C39.3434 24.9775 39.4148 25.1061 39.496 25.1946C39.5359 25.2381 39.5997 25.3224 39.6378 25.382C39.6759 25.4415 39.751 25.5366 39.8047 25.5933C39.8584 25.65 39.9376 25.7469 39.9807 25.8088C40.0238 25.8706 40.1129 25.9844 40.1787 26.0617C40.2445 26.139 40.3264 26.2416 40.3608 26.2897C40.4582 26.4261 40.6029 26.6179 40.6955 26.7334C40.742 26.7914 40.8818 26.9907 41.0063 27.1763C41.1307 27.3619 41.2586 27.5517 41.2905 27.598C41.3224 27.6444 41.3915 27.7498 41.4441 27.8322C41.4966 27.9147 41.5644 28.0166 41.5947 28.0586C41.6249 28.1007 41.709 28.2314 41.7814 28.349C41.8538 28.4667 41.9551 28.6304 42.0066 28.7128C42.058 28.7953 42.1506 28.9597 42.2124 29.0782C42.3511 29.3444 42.3981 29.4285 42.4469 29.4971C42.4909 29.559 43.0429 30.6504 43.0429 30.6756C43.0429 30.6848 43.0968 30.8161 43.1627 30.9673C43.2286 31.1185 43.2932 31.2759 43.3062 31.3171C43.3191 31.3584 43.3574 31.4471 43.3911 31.5145C43.4248 31.5818 43.4625 31.6744 43.4749 31.7202C43.4873 31.7661 43.5178 31.8439 43.5428 31.893C43.6062 32.0179 43.975 33.1339 43.9887 33.2426C43.9949 33.2917 44.0121 33.3553 44.027 33.3839C44.0418 33.4125 44.0638 33.4901 44.0758 33.5564C44.0878 33.6227 44.1054 33.6912 44.1148 33.7087C44.1241 33.7261 44.1404 33.8006 44.1508 33.8742C44.1613 33.9478 44.1818 34.031 44.1964 34.0592C44.211 34.0873 44.2328 34.1646 44.2448 34.2309C44.2569 34.2971 44.2753 34.3674 44.2859 34.3871C44.2964 34.4067 44.3117 34.5005 44.3198 34.5954C44.3284 34.6957 44.3484 34.7945 44.3674 34.8312C44.3874 34.8699 44.4059 34.9671 44.4152 35.0823C44.4236 35.1858 44.4432 35.3041 44.4588 35.3454C44.4771 35.3936 44.4875 35.488 44.4881 35.6099C44.4887 35.7557 44.4985 35.8271 44.5306 35.9191C44.5709 36.0349 44.5722 36.0626 44.5728 36.8068C44.5734 37.5537 44.5722 37.5785 44.5311 37.7034C44.5003 37.797 44.4889 37.8763 44.4889 37.996C44.4889 38.1087 44.4771 38.1971 44.4513 38.2775C44.4307 38.342 44.4134 38.4338 44.413 38.4814C44.4125 38.529 44.3992 38.6017 44.3835 38.6429C44.3677 38.6841 44.3393 38.7726 44.3203 38.8396C44.3012 38.9066 44.2631 39.0246 44.2356 39.1019C44.2081 39.1792 44.17 39.293 44.151 39.3549C44.0646 39.636 44.0222 39.7361 43.8097 40.1605C43.7168 40.346 43.576 40.5931 43.4968 40.7097C43.4176 40.8263 43.3285 40.9612 43.299 41.0095C43.2694 41.0578 43.2162 41.1294 43.1807 41.1686C43.1452 41.2079 43.0863 41.288 43.0497 41.3466C42.963 41.4856 42.0854 42.355 41.8494 42.5356C41.518 42.7893 41.0605 43.0971 40.8796 43.1882C40.8145 43.221 40.735 43.2677 40.703 43.2921C40.6402 43.3399 40.0255 43.6556 39.8411 43.7348C39.7791 43.7614 39.6312 43.8211 39.5124 43.8674C39.3936 43.9137 39.1782 43.998 39.0336 44.0548C38.7367 44.1712 38.323 44.3105 38.274 44.3105C38.2561 44.3105 38.1366 44.3443 38.0084 44.3856C37.8802 44.4268 37.7236 44.469 37.6603 44.4792C37.597 44.4895 37.5167 44.5098 37.4817 44.5243C37.4467 44.5389 37.3548 44.5599 37.2775 44.571C37.2001 44.5821 37.1031 44.6036 37.0617 44.6187C37.0204 44.6338 36.942 44.6465 36.8876 44.6469C36.8331 44.6474 36.7401 44.665 36.681 44.686C36.6219 44.707 36.4932 44.7319 36.3951 44.7414C36.297 44.7508 36.1829 44.7712 36.1416 44.7867C36.0928 44.8049 35.9965 44.815 35.867 44.8156C35.7193 44.8162 35.6365 44.8263 35.5478 44.8548C35.4517 44.8855 35.3571 44.8954 35.0712 44.9043C34.8001 44.9128 34.6878 44.9238 34.6039 44.9502C34.5001 44.9829 34.4016 44.985 32.9585 44.985C31.5153 44.985 31.4169 44.9829 31.3131 44.9502C31.2267 44.923 31.1168 44.913 30.8083 44.9043C30.4835 44.8952 30.3928 44.8864 30.2941 44.8548C30.2002 44.8247 30.1231 44.8162 29.9373 44.8156C29.7723 44.815 29.6775 44.8061 29.6252 44.7862C29.5839 44.7706 29.4529 44.7504 29.3341 44.7414C29.2007 44.7314 29.0771 44.7104 29.0107 44.6865C28.9359 44.6595 28.8558 44.6475 28.7477 44.6469C28.658 44.6465 28.5606 44.6343 28.5172 44.6181C28.4759 44.6028 28.3661 44.5823 28.2731 44.5727C28.1801 44.5631 28.0557 44.5381 27.9966 44.5172C27.9374 44.4963 27.8424 44.4791 27.7854 44.4791C27.7284 44.4791 27.6331 44.4624 27.5737 44.4421C27.5142 44.4217 27.4064 44.3964 27.3341 44.3859C27.2618 44.3755 27.1689 44.3546 27.1276 44.3395C27.0863 44.3245 27.0208 44.3118 26.9821 44.3113C26.9434 44.3109 26.8631 44.294 26.8037 44.2739C26.6863 44.2341 26.506 44.1873 26.3576 44.1581C26.306 44.1479 26.2088 44.1228 26.1417 44.1022C26.0745 44.0817 25.9689 44.0538 25.9069 44.0403C25.845 44.0267 25.7224 43.9929 25.6346 43.9651C25.5468 43.9373 25.4116 43.8991 25.3342 43.8803C25.1745 43.8415 25.021 43.794 24.7896 43.7118C24.7018 43.6806 24.5835 43.6465 24.5267 43.636C24.4699 43.6255 24.3811 43.6006 24.3295 43.5806C24.2778 43.5607 24.1638 43.5225 24.076 43.4957C23.9882 43.4689 23.8361 43.4143 23.7379 43.3745C23.6398 43.3346 23.4286 43.2586 23.2685 43.2056C23.1084 43.1527 22.9098 43.0807 22.8272 43.0456C22.7445 43.0106 22.6178 42.9595 22.5455 42.9321C22.4732 42.9046 22.3422 42.8464 22.2544 42.8025C22.1666 42.7587 22.0448 42.7085 21.9837 42.6909C21.9227 42.6733 21.7494 42.5975 21.5988 42.5225C21.4481 42.4474 21.291 42.3754 21.2497 42.3624C21.1351 42.3265 20.5308 42.0287 20.414 41.9506C20.3572 41.9126 20.1671 41.8075 19.9915 41.7171C19.8159 41.6268 19.6469 41.5337 19.6159 41.5103C19.5849 41.487 19.5087 41.4423 19.4466 41.411C19.3043 41.3394 18.8623 41.0723 18.746 40.9878C18.6977 40.9527 18.6125 40.901 18.5566 40.873C18.5008 40.8449 18.3673 40.7617 18.26 40.688C18.1526 40.6143 18.0166 40.5241 17.9576 40.4876C17.8986 40.4511 17.8025 40.3836 17.7442 40.3377C17.6858 40.2918 17.5775 40.212 17.5035 40.1605C17.4295 40.109 17.3083 40.0204 17.2342 39.9637C17.1601 39.907 17.0657 39.8384 17.0244 39.8113C16.9831 39.7842 16.8667 39.6894 16.7658 39.6006C16.6649 39.5118 16.5467 39.4167 16.5031 39.3893C16.4596 39.3619 16.3351 39.254 16.2265 39.1495C15.9188 38.8535 15.8311 38.7746 15.709 38.6834C15.5714 38.5806 15.3093 38.3115 15.2397 38.2015C15.2118 38.1574 15.0769 38.0062 14.9399 37.8653C14.8029 37.7245 14.6699 37.5763 14.6443 37.5359C14.6187 37.4956 14.5409 37.3958 14.4714 37.3144C14.4019 37.2329 14.3244 37.1335 14.2991 37.0935C14.2738 37.0536 14.2249 36.9896 14.1903 36.9513C14.1558 36.913 14.0631 36.7848 13.9844 36.6662C13.9057 36.5477 13.8158 36.4128 13.7846 36.3665C13.7535 36.3201 13.6913 36.2273 13.6464 36.1603C13.6015 36.0933 13.5244 35.9626 13.4749 35.8699C13.4255 35.7772 13.3457 35.6381 13.2976 35.5608C13.1921 35.3912 12.9925 34.9911 12.9423 34.8489C12.9223 34.7922 12.8599 34.6489 12.8036 34.5303C12.7473 34.4118 12.6903 34.2812 12.6771 34.2399C12.6255 34.0792 12.5347 34.0167 12.4663 34.0947C12.4045 34.1653 12.2111 34.5711 12.1605 34.7364C12.1526 34.7622 12.0806 34.9182 12.0006 35.0831C11.9205 35.2479 11.8445 35.4166 11.8317 35.4578C11.8188 35.499 11.7661 35.6209 11.7145 35.7286C11.663 35.8363 11.6058 35.967 11.5874 36.019C11.5691 36.071 11.5124 36.2063 11.4613 36.3196C11.4103 36.433 11.3533 36.5721 11.3347 36.6288C11.3161 36.6855 11.2735 36.7866 11.2399 36.8536C11.2064 36.9206 11.1662 37.0176 11.1507 37.0691C11.1352 37.1206 11.0926 37.2302 11.0561 37.3126C11.0196 37.3951 10.9835 37.4878 10.9759 37.5187C10.9683 37.5496 10.9373 37.6297 10.907 37.6967C10.8767 37.7637 10.8152 37.9197 10.7702 38.0433C10.7252 38.167 10.6494 38.3693 10.6016 38.493C10.5539 38.6167 10.4988 38.7684 10.4792 38.8302C10.4327 38.9775 10.3513 39.2016 10.2684 39.4111C10.2317 39.5038 10.1834 39.6387 10.1611 39.7108C10.1387 39.783 10.1084 39.8715 10.0936 39.9076C10.0607 39.9879 9.92605 40.3817 9.87905 40.5352C9.86012 40.597 9.82228 40.7109 9.79497 40.7882C9.76769 40.8654 9.72966 40.9793 9.71047 41.0411C9.69129 41.1029 9.65343 41.2167 9.62633 41.294C9.59924 41.3713 9.56123 41.4893 9.54189 41.5563C9.52252 41.6233 9.48406 41.7413 9.4564 41.8186C9.42874 41.8959 9.39728 42.0013 9.38651 42.0528C9.37573 42.1044 9.33515 42.2435 9.29635 42.362C9.25753 42.4805 9.1992 42.6702 9.16673 42.7835C9.05819 43.1624 9.03742 43.2317 8.95077 43.5049C8.90337 43.6543 8.86465 43.7945 8.86473 43.8165C8.8648 43.8384 8.84373 43.9124 8.81791 43.9808C8.79209 44.0493 8.77096 44.1205 8.77096 44.1392C8.77096 44.1757 8.7193 44.3605 8.65618 44.5499C8.61838 44.6633 8.60772 44.7047 8.53181 45.0321C8.51268 45.1146 8.49093 45.192 8.48351 45.204C8.4708 45.2245 8.42498 45.3885 8.36669 45.622C8.35253 45.6787 8.32413 45.7799 8.30357 45.8469C8.28301 45.9138 8.25775 46.0108 8.24742 46.0623C8.21427 46.2278 8.15557 46.4536 8.12564 46.5307C8.10966 46.5719 8.09619 46.637 8.09574 46.6753C8.09529 46.7136 8.08267 46.781 8.06772 46.8252C8.05277 46.8693 8.02825 46.9602 8.01324 47.0272C7.99824 47.0942 7.97283 47.1827 7.95676 47.224C7.9407 47.2652 7.92718 47.326 7.92673 47.3591C7.92628 47.3923 7.91366 47.4555 7.89871 47.4997C7.88376 47.5438 7.85924 47.6347 7.84423 47.7017C7.82923 47.7687 7.80382 47.8572 7.78774 47.8984C7.77169 47.9397 7.75817 48.0077 7.75772 48.0497C7.75726 48.0917 7.73608 48.1954 7.71064 48.2802C7.65315 48.4718 7.63173 48.6845 7.661 48.773C7.67282 48.8087 7.70979 48.8643 7.74316 48.8965C7.80236 48.9536 8.08545 49.0958 8.23576 49.1439C8.27707 49.1571 8.40383 49.2119 8.51745 49.2656C8.63106 49.3193 8.75782 49.3742 8.79913 49.3876C8.84045 49.4009 8.9778 49.4607 9.10435 49.5204C9.2309 49.5801 9.38301 49.6428 9.44238 49.6598C9.50174 49.6768 9.58833 49.7119 9.6348 49.7378C9.68128 49.7636 9.80382 49.8182 9.9071 49.859C10.0104 49.8997 10.1625 49.9617 10.2451 49.9965C10.3278 50.0314 10.5179 50.1072 10.6677 50.1649C10.8174 50.2226 11.0076 50.2985 11.0902 50.3335C11.3241 50.4326 11.7587 50.6006 11.9105 50.6506C11.9861 50.6755 12.1035 50.7209 12.1715 50.7516C12.2394 50.7823 12.3915 50.839 12.5095 50.8776C12.6274 50.9161 12.7958 50.9796 12.8836 51.0185C12.9714 51.0575 13.0686 51.0949 13.0996 51.1017C13.1305 51.1084 13.2489 51.1465 13.3625 51.1863C13.4761 51.2261 13.6155 51.2726 13.6723 51.2897C13.7291 51.3068 13.877 51.3612 14.001 51.4106C14.1249 51.4599 14.3108 51.5279 14.4141 51.5617C14.5174 51.5955 14.6948 51.6547 14.8085 51.6932C15.0942 51.7902 15.2477 51.8372 15.3249 51.8515C15.361 51.8581 15.4962 51.9005 15.6254 51.9455C15.7545 51.9906 15.9235 52.0456 16.0009 52.0677C16.0784 52.0898 16.239 52.1403 16.3577 52.18C16.4765 52.2197 16.6244 52.2648 16.6864 52.2804C16.7483 52.2959 16.8709 52.3312 16.9587 52.3589C17.0465 52.3865 17.1817 52.4244 17.2591 52.443C17.3366 52.4616 17.4718 52.4995 17.5596 52.5273C17.6474 52.5551 17.7827 52.5918 17.8603 52.609C17.9379 52.6262 18.0128 52.6473 18.0267 52.6559C18.0544 52.673 18.2392 52.7254 18.461 52.7791C18.5385 52.7978 18.6356 52.8262 18.677 52.8422C18.7183 52.8581 18.7793 52.8716 18.8125 52.872C18.8457 52.8725 18.909 52.8851 18.9533 52.9C18.9976 52.9149 19.0887 52.9394 19.1558 52.9543C19.223 52.9693 19.3117 52.9946 19.353 53.0107C19.3943 53.0267 19.4556 53.0402 19.4891 53.0406C19.5226 53.0411 19.5987 53.0574 19.6581 53.0769C19.7816 53.1175 19.9671 53.1661 20.1042 53.1938C20.1558 53.2042 20.2746 53.2332 20.368 53.2583C20.4615 53.2833 20.5639 53.3038 20.5956 53.3038C20.6273 53.3038 20.7062 53.3206 20.7708 53.3412C20.8355 53.3619 20.9126 53.3787 20.9422 53.3787C20.9718 53.3787 21.0447 53.3955 21.1042 53.4161C21.1637 53.4366 21.2757 53.4618 21.3531 53.472C21.4305 53.4822 21.5276 53.503 21.5689 53.5181C21.6103 53.5333 21.6785 53.5461 21.7206 53.5465C21.7626 53.547 21.8677 53.5684 21.9539 53.5942C22.0402 53.6199 22.1462 53.641 22.1895 53.641C22.2328 53.641 22.3212 53.6579 22.3858 53.6785C22.4505 53.6991 22.5431 53.716 22.5916 53.716C22.64 53.716 22.7503 53.737 22.8365 53.7628C22.9259 53.7895 23.0425 53.81 23.1075 53.8105C23.1702 53.8109 23.2553 53.824 23.2966 53.8397C23.3379 53.8552 23.4566 53.8748 23.5603 53.8831C23.6785 53.8926 23.773 53.9108 23.8138 53.9318C23.8582 53.9548 23.9444 53.9695 24.0857 53.9782C24.1996 53.9853 24.3134 54.0021 24.3386 54.0156C24.3639 54.0291 24.482 54.0467 24.6011 54.0548C24.7398 54.0642 24.8564 54.0834 24.9253 54.1082C25.0067 54.1375 25.0795 54.1471 25.2257 54.1477C25.3532 54.1483 25.4442 54.1584 25.4938 54.1775C25.5395 54.1952 25.6756 54.2125 25.8412 54.2218C26.041 54.2329 26.1421 54.2474 26.221 54.2763C26.3116 54.3093 26.3712 54.3155 26.5988 54.3155C26.8099 54.3155 26.8934 54.3231 26.9796 54.3503C27.0624 54.3763 27.1772 54.3879 27.4384 54.3967C27.7124 54.4059 27.8122 54.4165 27.9057 54.4463C28.0122 54.4802 28.0745 54.4841 28.5078 54.4841C28.9527 54.4841 29.0008 54.4873 29.111 54.5244L29.2308 54.5646L31.5782 54.5648L33.9256 54.565L34.0454 54.5246C34.1554 54.4874 34.2034 54.4841 34.6298 54.4841C35.0472 54.4841 35.1066 54.4802 35.2143 54.4456C35.3064 54.416 35.412 54.4039 35.6721 54.3929C35.9026 54.3832 36.025 54.3704 36.0571 54.3526C36.0888 54.3349 36.2011 54.3229 36.4045 54.3154C36.6469 54.3064 36.7176 54.2975 36.7707 54.2693C36.8182 54.244 36.8989 54.2304 37.0617 54.2202C37.1857 54.2124 37.3209 54.1931 37.3622 54.1773C37.4064 54.1604 37.4997 54.1482 37.589 54.1477C37.7008 54.1471 37.7759 54.1346 37.875 54.1C37.9642 54.069 38.0497 54.0532 38.1294 54.0532C38.1976 54.0532 38.3 54.0371 38.3669 54.0157C38.4316 53.9951 38.5284 53.9783 38.582 53.9783C38.6377 53.9783 38.7372 53.9582 38.814 53.9314C38.8879 53.9057 38.9854 53.8846 39.0308 53.8846C39.0761 53.8846 39.1661 53.8677 39.2307 53.8471C39.2954 53.8265 39.3831 53.8095 39.4257 53.8094C39.4682 53.8093 39.5689 53.7882 39.6493 53.7626C39.7297 53.7369 39.8279 53.716 39.8675 53.716C39.9071 53.716 39.9924 53.6991 40.057 53.6785C40.1217 53.6579 40.1925 53.6412 40.2144 53.6413C40.2363 53.6415 40.3218 53.621 40.4044 53.5958C40.4871 53.5705 40.5969 53.5415 40.6486 53.5312C40.8721 53.4866 41.0908 53.4219 41.7753 53.198C42.0748 53.1 42.3664 52.9963 42.4232 52.9676C42.48 52.939 42.573 52.9007 42.6298 52.8826C42.7528 52.8434 43.6789 52.3927 43.7806 52.3226C43.8196 52.2956 43.9211 52.2342 44.0059 52.186C44.2109 52.0695 44.4487 51.9137 44.6151 51.7866C44.7989 51.6463 45.0454 51.4615 45.1368 51.3954C45.1781 51.3656 45.2837 51.2757 45.3715 51.1958C45.4593 51.1158 45.5649 51.0296 45.6063 51.0043C45.6971 50.9485 46.1717 50.4685 46.278 50.3248C46.32 50.2681 46.4164 50.1563 46.4923 50.0764C46.5682 49.9965 46.661 49.8832 46.6986 49.8246C46.7361 49.7661 46.8142 49.6671 46.8722 49.6046C46.9302 49.5421 47.0271 49.4151 47.0874 49.3224C47.1479 49.2296 47.2419 49.0863 47.2964 49.0039C47.351 48.9214 47.4193 48.8118 47.4481 48.7603C47.477 48.7088 47.5329 48.6186 47.5723 48.5599C47.6116 48.5011 47.7696 48.2018 47.9233 47.8947C48.2148 47.3122 48.3077 47.1123 48.3305 47.0179C48.3379 46.9869 48.3721 46.9056 48.4063 46.8372C48.4405 46.7687 48.4786 46.6726 48.491 46.6237C48.5034 46.5747 48.5382 46.4705 48.5684 46.3922C48.5986 46.3138 48.6392 46.1949 48.6585 46.1279C48.6779 46.0609 48.7157 45.9302 48.7427 45.8375C48.7697 45.7448 48.8007 45.6267 48.8115 45.5752C48.8224 45.5237 48.8515 45.4157 48.876 45.3351C48.9006 45.2547 48.9208 45.1693 48.9208 45.1456C48.9208 45.1218 48.9377 45.0495 48.9583 44.985C48.979 44.9205 48.9959 44.8161 48.9959 44.753C48.9959 44.6899 49.0131 44.5793 49.0342 44.5072C49.0552 44.4351 49.08 44.2749 49.0893 44.1513C49.0986 44.0276 49.1198 43.8892 49.1365 43.8437C49.1635 43.7702 49.1669 43.6035 49.1667 42.3565C49.1666 41.0165 49.1649 40.9465 49.1298 40.828C49.107 40.7512 49.0888 40.6181 49.0822 40.479C49.0756 40.3399 49.0571 40.2042 49.0337 40.1231C49.0096 40.0396 48.9956 39.9341 48.9951 39.8327C48.9946 39.7409 48.9825 39.6416 48.9666 39.5984C48.9514 39.5572 48.9302 39.456 48.9195 39.3736C48.9089 39.2912 48.8836 39.1701 48.8635 39.1046C48.8433 39.0391 48.8265 38.9295 48.8261 38.8611C48.8256 38.7926 48.8121 38.7028 48.796 38.6616C48.7799 38.6204 48.7581 38.5445 48.7476 38.493C48.7371 38.4415 48.7126 38.3452 48.6932 38.2791C48.6738 38.2129 48.6579 38.135 48.6579 38.1058C48.6579 38.0767 48.6416 38.0044 48.6217 37.9451C48.6018 37.8858 48.58 37.8077 48.5734 37.7717C48.5667 37.7356 48.5449 37.6576 48.525 37.5983C48.5051 37.539 48.4885 37.4631 48.488 37.4297C48.4876 37.3962 48.4741 37.3351 48.4581 37.2939C48.4421 37.2527 48.4137 37.1557 48.3949 37.0784C48.3428 36.8637 48.3076 36.7466 48.2429 36.5726C48.2104 36.485 48.1682 36.3585 48.1492 36.2915C48.1302 36.2245 48.0766 36.0601 48.0302 35.9262C47.7709 35.1785 47.7394 35.0948 47.5463 34.6428C47.5045 34.5449 47.4497 34.4142 47.4245 34.3524C47.2615 33.9516 46.4463 32.3182 46.34 32.179C46.3158 32.1474 46.2475 32.0332 46.1883 31.9254C46.0687 31.7075 46.0712 31.7115 45.6812 31.1204C45.3618 30.6364 45.3695 30.6478 45.2492 30.474C45.1993 30.4019 45.1265 30.2952 45.0873 30.237C45.0481 30.1788 44.9817 30.0916 44.9398 30.0433C44.8978 29.9949 44.8472 29.9235 44.8273 29.8846C44.8074 29.8457 44.7501 29.7685 44.6999 29.713C44.6497 29.6575 44.5882 29.5784 44.5632 29.5372C44.5381 29.496 44.4637 29.4036 44.3977 29.3319C44.3318 29.2602 44.2571 29.1687 44.2317 29.1286C44.2063 29.0885 44.1021 28.9673 44 28.8593C43.898 28.7513 43.7827 28.6151 43.744 28.5567C43.6054 28.3478 41.735 26.4734 41.4881 26.2959C41.4308 26.2547 41.3154 26.1611 41.2317 26.088C41.148 26.0149 41.0417 25.9313 40.9955 25.9023C40.9493 25.8732 40.8692 25.8136 40.8176 25.7697C40.7659 25.7259 40.6301 25.6275 40.5158 25.551C40.4014 25.4746 40.2831 25.3953 40.2529 25.3748C40.2226 25.3544 40.1345 25.2971 40.057 25.2475C39.9796 25.1979 39.8612 25.1211 39.7941 25.0768C39.6439 24.9779 39.4423 24.8814 39.3857 24.8814C39.3557 24.8813 39.3434 24.8924 39.3434 24.9196Z" fill="#2E56F6"/>
<path d="M0 81.1028H0.349454C2.61063 81.1028 3.55621 80.0829 3.63844 77.4719L3.88511 68.8435H5.8585V81.0824H8.16079V66.8037H1.76783L1.39782 77.5943C1.35671 78.9202 1.02781 79.063 0 79.063V81.1028Z" fill="#0A143D"/>
<path d="M14.1055 74.5346L15.0306 71.0261V81.0824H17.0656V66.8037H14.5783L12.7283 72.6988L11.906 75.8401V66.8037H9.89152V81.0824H12.2144L14.1055 74.5346Z" fill="#0A143D"/>
<path d="M20.9252 74.9629H23.4947V81.0824H25.797V66.8037H23.4947V72.9231H20.9252V66.8037H18.664V81.0824H20.9252V74.9629Z" fill="#0A143D"/>
<path d="M29.6977 68.8435H33.6033V66.8037H27.4365V81.0824H33.6033V79.0426H29.6977V74.861H32.8017V72.8211H29.6977V68.8435Z" fill="#0A143D"/>
<path d="M37.3274 81.0824H35.0045V66.8037H37.019V75.8401L37.8413 72.6988L39.6913 66.8037H42.1786V81.0824H40.1436V71.0261L39.2186 74.5346L37.3274 81.0824ZM39.6502 63.6216C39.5886 64.3763 39.2391 64.5599 38.6224 64.5599C38.0263 64.5599 37.718 64.3763 37.6563 63.6216H36.2585C36.2996 65.0087 37.0396 65.8858 38.6224 65.8858C40.2258 65.8858 41.0275 65.0087 41.0275 63.6216H39.6502Z" fill="#0A143D"/>
<path d="M54.5064 66.8037H52.2452V79.0426H50.2924V66.8037H48.0312V79.0426H46.0784V66.8037H43.8172V81.0824H53.3141V82.9998H55.5136V79.0834H54.5064V66.8037Z" fill="#0A143D"/>
<path d="M60.9591 74.5346L61.8841 71.0261V81.0824H63.9192V66.8037H61.4319L59.5818 72.6988L58.7596 75.8401V66.8037H56.7451V81.0824H59.0679L60.9591 74.5346Z" fill="#0A143D"/>
<path d="M70.6772 81.0824H73L69.8549 73.1679L73 66.8037H70.7388L67.7787 73.0251V66.8037H65.5176V81.0824H67.7787V76.6968L68.4776 75.3913L70.6772 81.0824Z" fill="#0A143D"/>
</svg>
