<svg width="40" height="38" viewBox="0 0 40 38" fill="none" xmlns="http://www.w3.org/2000/svg">
<path fill-rule="evenodd" clip-rule="evenodd" d="M19.9847 0.0787452C19.9359 0.122042 19.8274 0.203129 19.7436 0.258933C19.6598 0.314736 19.5614 0.385208 19.5249 0.415535C19.4884 0.445862 19.4268 0.492144 19.3879 0.518367C19.349 0.544603 19.2897 0.587784 19.2562 0.614354C19.1986 0.660095 19.1574 0.690912 18.951 0.842779C18.9029 0.878163 18.8346 0.930274 18.7993 0.958581C18.7259 1.01725 18.5996 1.11199 18.4818 1.19662C18.4375 1.22846 18.3671 1.28383 18.3254 1.31966C18.2837 1.3555 18.2293 1.3987 18.2045 1.41566C18.1798 1.43263 18.1254 1.47473 18.0836 1.50922C18.0418 1.5437 17.9855 1.5859 17.9584 1.603C17.9314 1.6201 17.8702 1.66949 17.8224 1.71277C17.7747 1.75604 17.7049 1.81111 17.6673 1.83516C17.6298 1.8592 17.5631 1.91223 17.5191 1.95302C17.4752 1.99381 17.4161 2.0412 17.3878 2.05831C17.3595 2.07544 17.2993 2.12303 17.2541 2.16409C17.2089 2.20513 17.1402 2.25981 17.1013 2.28559C17.0625 2.31136 16.9924 2.36829 16.9456 2.41207C16.8987 2.45587 16.8315 2.51131 16.7961 2.5353C16.7607 2.55928 16.6764 2.62924 16.6086 2.69076C16.5409 2.75227 16.4673 2.81367 16.445 2.82721C16.4228 2.84074 16.3364 2.91461 16.2531 2.99136C16.1697 3.06811 16.0766 3.14683 16.046 3.1663C16.0155 3.18577 15.9264 3.26153 15.8479 3.33465C15.7694 3.40779 15.6815 3.48483 15.6526 3.50587C15.6236 3.52691 15.5044 3.63327 15.3877 3.7422C15.2709 3.85114 15.1494 3.95809 15.1176 3.97986C15.0857 4.00164 14.9065 4.16673 14.7192 4.34675C14.532 4.52675 14.3381 4.70594 14.2883 4.74495C14.1539 4.85032 12.749 6.25505 12.6576 6.37553C12.6146 6.43214 12.4469 6.61502 12.2849 6.78193C12.1229 6.94884 11.9777 7.1064 11.9622 7.13207C11.9467 7.15774 11.8671 7.24989 11.7853 7.33685C11.7036 7.4238 11.5996 7.54126 11.5543 7.59788C11.509 7.65449 11.4205 7.75582 11.3576 7.82305C11.2948 7.89028 11.2239 7.97539 11.2002 8.0122C11.1765 8.049 11.1173 8.12138 11.0686 8.17304C11.02 8.22469 10.9559 8.30016 10.9263 8.34076C10.8967 8.38134 10.84 8.45082 10.8004 8.49516C10.7608 8.53949 10.7108 8.60181 10.6892 8.63366C10.6677 8.66551 10.6117 8.73788 10.565 8.7945C10.4779 8.89986 10.376 9.03181 10.262 9.18678C10.2266 9.23486 10.1745 9.30369 10.1462 9.33973C10.1179 9.37577 10.0589 9.45311 10.0151 9.51162C9.97135 9.57011 9.90636 9.65561 9.87075 9.70161C9.83512 9.74761 9.7556 9.86051 9.69403 9.95251C9.63247 10.0445 9.56115 10.1458 9.53554 10.1777C9.45794 10.2742 9.27001 10.551 9.00745 10.9554C8.93291 11.0702 8.85137 11.1927 8.82624 11.2277C8.80111 11.2627 8.75583 11.3375 8.72565 11.3939C8.69546 11.4504 8.65229 11.5226 8.62973 11.5544C8.60717 11.5863 8.57195 11.6442 8.55148 11.6831C8.53099 11.722 8.49588 11.7799 8.47346 11.8118C8.45106 11.8436 8.41071 11.9102 8.38381 11.9597C8.35692 12.0093 8.31688 12.0759 8.29483 12.1077C8.27279 12.1396 8.22073 12.232 8.17916 12.3132C8.1376 12.3944 8.07465 12.5102 8.03929 12.5705C7.95542 12.7137 7.73643 13.1261 7.63597 13.3301C7.5924 13.4185 7.46218 13.6823 7.34659 13.9162C7.23099 14.1502 7.11927 14.3876 7.09833 14.4438C7.07738 14.5 7.02672 14.6135 6.98578 14.6959C6.94483 14.7784 6.91132 14.8495 6.91132 14.854C6.91132 14.8653 6.77876 15.2023 6.71871 15.3437C6.69167 15.4074 6.66566 15.474 6.66093 15.4917C6.6562 15.5094 6.63271 15.5702 6.60875 15.6268C6.55349 15.7573 6.51202 15.8694 6.47062 16.0002C6.45265 16.057 6.41131 16.1728 6.37875 16.2575C6.3462 16.3423 6.30874 16.4406 6.29551 16.476C6.25697 16.579 6.13905 16.9506 6.13932 16.9681C6.13946 16.9768 6.12556 17.0261 6.10842 17.0774C6.06155 17.2179 6.0269 17.3444 6.01809 17.407C6.01376 17.4378 6.00173 17.4794 5.99135 17.4995C5.98097 17.5196 5.96671 17.5754 5.95963 17.6236C5.95256 17.6718 5.93832 17.7344 5.92798 17.7627C5.91764 17.791 5.90893 17.8386 5.90862 17.8684C5.90831 17.8983 5.89358 17.9671 5.8759 18.0213C5.85429 18.0875 5.84356 18.1499 5.84318 18.2115C5.84287 18.2621 5.8337 18.3261 5.82267 18.3546C5.8099 18.3875 5.79893 18.4801 5.79218 18.6119C5.78414 18.7684 5.77518 18.8354 5.7548 18.8914C5.72907 18.9621 5.72798 18.9892 5.72798 19.5556C5.72798 20.1211 5.72912 20.1496 5.75503 20.2282C5.77378 20.2852 5.78527 20.3656 5.79248 20.4905C5.79868 20.5976 5.81096 20.6915 5.82276 20.7221C5.83368 20.7504 5.84287 20.8148 5.84318 20.8652C5.84356 20.9268 5.85429 20.9891 5.8759 21.0554C5.89358 21.1096 5.90805 21.1645 5.90805 21.1776C5.90805 21.1906 5.91963 21.2375 5.93378 21.2818C5.94793 21.3261 5.95976 21.3804 5.96007 21.4025C5.96038 21.4245 5.96964 21.4658 5.98064 21.4941C5.99165 21.5224 6.00877 21.5816 6.01871 21.6257C6.0597 21.8078 6.22329 22.2625 6.31851 22.4591C6.34593 22.5157 6.382 22.5993 6.39868 22.6449C6.43863 22.7541 6.62094 23.1265 6.65961 23.1779C6.67633 23.2001 6.71743 23.2704 6.75095 23.334C6.80383 23.4345 6.91882 23.6247 6.98821 23.7265C7.00028 23.7442 7.06054 23.8334 7.12214 23.9249C7.18372 24.0163 7.256 24.1176 7.28274 24.15C7.30948 24.1825 7.34975 24.2361 7.37223 24.2693C7.39472 24.3025 7.45921 24.3794 7.51555 24.4403C7.57189 24.5011 7.63809 24.581 7.66267 24.618C7.71799 24.701 8.45391 25.4348 8.52824 25.481C8.55802 25.4995 8.63062 25.5601 8.68958 25.6156C8.74854 25.6712 8.82997 25.7379 8.87055 25.7639C8.91113 25.7898 8.96876 25.8336 8.99862 25.8611C9.02849 25.8886 9.10997 25.949 9.1797 25.9953C9.24943 26.0416 9.34493 26.1091 9.39193 26.1452C9.48561 26.2172 9.59167 26.2871 9.74336 26.3767C9.86335 26.4475 10.0173 26.5421 10.1501 26.6266C10.2657 26.7001 11.5041 27.3232 11.5611 27.3365C11.5823 27.3414 11.6691 27.3775 11.754 27.4165C11.8389 27.4556 11.9402 27.4979 11.9791 27.5104C12.0879 27.5455 12.3154 27.6316 12.3589 27.6541C12.3803 27.6652 12.4295 27.683 12.4683 27.6936C12.507 27.7043 12.6316 27.745 12.7452 27.7843C12.8589 27.8235 12.9891 27.8638 13.0346 27.8738C13.0802 27.8838 13.1666 27.9076 13.2268 27.9267C13.3343 27.9609 13.4608 27.9942 13.6255 28.0317C13.6715 28.0422 13.7397 28.0621 13.7771 28.076C13.8145 28.0899 13.8615 28.1012 13.8816 28.1012C13.9016 28.1012 13.9542 28.1128 13.9985 28.1269C14.0428 28.1411 14.1015 28.1527 14.1291 28.1527C14.1566 28.1527 14.2205 28.1672 14.2711 28.1848C14.325 28.2037 14.3928 28.2172 14.4349 28.2176C14.4743 28.2179 14.5297 28.2268 14.558 28.2374C14.5863 28.248 14.6645 28.262 14.7317 28.2685C14.7989 28.275 14.887 28.2921 14.9275 28.3066C14.9779 28.3245 15.0331 28.3328 15.1027 28.3328C15.1658 28.3328 15.2328 28.3418 15.2799 28.3567C15.3261 28.3713 15.4155 28.3835 15.5099 28.3882C15.6117 28.3933 15.6921 28.4048 15.7463 28.4222C15.8182 28.4453 15.8614 28.4486 16.0951 28.4486C16.3264 28.4486 16.3726 28.452 16.4424 28.4744C16.5201 28.4992 16.5583 28.5001 17.5228 28.5001C18.4873 28.5001 18.5256 28.4992 18.6033 28.4744C18.6716 28.4525 18.7192 28.4486 18.9184 28.4486C19.1157 28.4486 19.1655 28.4446 19.2316 28.4235C19.2749 28.4097 19.3697 28.3944 19.4423 28.3895C19.515 28.3846 19.6084 28.3699 19.65 28.3567C19.6971 28.3418 19.7639 28.3328 19.8272 28.3328C19.8965 28.3328 19.9521 28.3245 20.0024 28.3067C20.0429 28.2923 20.1281 28.2751 20.1918 28.2685C20.2554 28.262 20.3307 28.2479 20.359 28.2374C20.3873 28.2268 20.4319 28.2179 20.4582 28.2176C20.4844 28.2173 20.5365 28.2057 20.5739 28.1918C20.6382 28.168 20.7412 28.1419 20.8863 28.1126C20.9217 28.1055 20.9883 28.0881 21.0343 28.074C21.0802 28.0599 21.1526 28.0407 21.195 28.0314C21.2375 28.0221 21.3214 27.999 21.3816 27.9799C21.4417 27.9609 21.5248 27.9367 21.5662 27.9262C21.6674 27.9005 21.8071 27.8535 21.9089 27.8109C21.9549 27.7917 22.0707 27.7483 22.1662 27.7144C22.4393 27.6177 22.5785 27.5633 22.6549 27.5235C22.6938 27.5033 22.7636 27.4744 22.8099 27.4592C22.9934 27.3994 23.6197 27.0594 23.639 27.0092C23.6526 26.9736 23.6239 26.9635 23.5546 26.9795C23.5185 26.9878 23.4533 26.9949 23.4096 26.9952C23.3659 26.9955 23.3071 27.0045 23.2788 27.0151C23.2505 27.0257 23.1719 27.0396 23.1042 27.0459C23.0366 27.0523 22.9555 27.0669 22.9242 27.0783C22.892 27.0901 22.7941 27.104 22.7 27.1102C22.608 27.1163 22.5096 27.1297 22.4813 27.1399C22.453 27.1502 22.3558 27.1623 22.2654 27.1669C22.1648 27.172 22.0798 27.1833 22.0467 27.1959C22.0066 27.2112 21.9191 27.219 21.7095 27.2261C21.4786 27.234 21.4159 27.2401 21.3687 27.2596C21.3139 27.2822 21.2544 27.2835 20.2561 27.2836L19.2014 27.2837L19.1193 27.255C19.0479 27.23 19.0111 27.2263 18.8363 27.2263C18.6752 27.2263 18.6178 27.2213 18.5471 27.201C18.4986 27.1871 18.4002 27.1718 18.3285 27.167C18.2568 27.1622 18.1641 27.1475 18.1225 27.1344C18.0778 27.1202 18.0088 27.1105 17.9537 27.1105C17.8977 27.1105 17.8302 27.1007 17.7842 27.0861C17.7422 27.0726 17.6619 27.0574 17.6057 27.0522C17.5495 27.047 17.4695 27.0319 17.4279 27.0187C17.3863 27.0055 17.3367 26.9947 17.3176 26.9947C17.2985 26.9947 17.2415 26.9802 17.1909 26.9625C17.1403 26.9448 17.0763 26.9303 17.0488 26.9303C17.0213 26.9303 16.9626 26.9187 16.9183 26.9046C16.874 26.8904 16.8247 26.8789 16.8086 26.8789C16.7926 26.8789 16.7398 26.8665 16.6913 26.8514C16.6428 26.8363 16.5713 26.8168 16.5324 26.8079C16.385 26.7743 15.8175 26.5834 15.6706 26.5181C15.6105 26.4913 15.5324 26.4602 15.497 26.4489C15.4616 26.4377 15.2619 26.3429 15.0532 26.2383C14.7398 26.0813 14.6257 26.0161 14.3973 25.8637C14.2452 25.7623 14.0963 25.6568 14.0664 25.6294C14.0366 25.6019 13.9787 25.5583 13.9378 25.5325C13.8595 25.4829 13.2839 24.9214 13.2191 24.8313C13.1986 24.8027 13.1496 24.7379 13.1104 24.6872C13.0403 24.5968 12.9328 24.4414 12.8313 24.2842C12.7434 24.148 12.5095 23.6628 12.4539 23.5013C12.3764 23.2764 12.3382 23.1519 12.3177 23.0574C12.3078 23.0114 12.2883 22.9432 12.2744 22.9057C12.2606 22.8683 12.2492 22.8097 12.2492 22.7755C12.2492 22.7413 12.2385 22.6793 12.2253 22.6377C12.2122 22.5961 12.1975 22.5033 12.1927 22.4316C12.1879 22.3599 12.1726 22.2615 12.1587 22.2129C12.1353 22.1309 12.1335 22.0822 12.1335 21.5262C12.1335 20.9668 12.1351 20.922 12.1592 20.838C12.1749 20.783 12.1881 20.6857 12.1932 20.5872C12.1983 20.488 12.2107 20.397 12.2254 20.3505C12.2385 20.3089 12.2492 20.2447 12.2492 20.208C12.2492 20.1698 12.263 20.1016 12.2814 20.049C12.2991 19.9984 12.3135 19.9345 12.3135 19.9069C12.3135 19.8794 12.3251 19.8207 12.3393 19.7764C12.3534 19.7321 12.365 19.6791 12.365 19.6586C12.365 19.6382 12.3795 19.58 12.3971 19.5294C12.4148 19.4788 12.4292 19.4282 12.429 19.4171C12.4288 19.3946 12.5379 19.0505 12.603 18.8684C12.626 18.8043 12.6544 18.7185 12.6662 18.6778C12.6781 18.6372 12.7045 18.5729 12.7249 18.5351C12.7453 18.4974 12.7687 18.4413 12.7767 18.4105C12.7848 18.3797 12.822 18.288 12.8593 18.2066C12.8967 18.1252 12.9346 18.0355 12.9436 18.0072C12.9631 17.9455 13.1051 17.651 13.3841 17.0936C13.6411 16.5801 13.7065 16.4559 13.767 16.3666C13.7934 16.3277 13.8338 16.2582 13.8568 16.2122C13.8798 16.1662 13.917 16.1025 13.9395 16.0707C13.962 16.0389 14.0028 15.9723 14.0301 15.9227C14.0575 15.8732 14.1013 15.8008 14.1274 15.7619C14.1536 15.723 14.1879 15.6651 14.2038 15.6332C14.2197 15.6014 14.2769 15.5098 14.331 15.4298C14.3851 15.3498 14.4483 15.2542 14.4713 15.2175C14.4944 15.1808 14.5449 15.1073 14.5836 15.0542C14.6515 14.961 14.7379 14.8371 14.8662 14.6489C14.9 14.5994 14.9422 14.5432 14.96 14.5242C14.9778 14.5051 15.0191 14.452 15.0518 14.4063C15.1769 14.2309 15.243 14.1457 15.3368 14.0389C15.3902 13.9781 15.4479 13.9052 15.4651 13.8769C15.4823 13.8486 15.5383 13.7805 15.5895 13.7256C15.6408 13.6707 15.7057 13.5919 15.7338 13.5505C15.7619 13.5091 15.8825 13.3745 16.0017 13.2514C16.121 13.1284 16.2438 12.993 16.2747 12.9505C16.3475 12.8503 16.9787 12.2189 17.0791 12.1458C17.1215 12.1149 17.2575 11.9916 17.3813 11.8718C17.5051 11.752 17.6412 11.6306 17.6836 11.6019C17.7261 11.5732 17.8158 11.4969 17.883 11.4323C17.9502 11.3677 18.0341 11.2952 18.0695 11.2713C18.1048 11.2473 18.1872 11.184 18.2524 11.1305C18.3998 11.0097 18.6414 10.8256 18.8274 10.6924C18.8719 10.6605 18.9281 10.6169 18.9524 10.5955C18.9766 10.574 19.0367 10.5293 19.086 10.4961C19.1353 10.4629 19.2248 10.4009 19.285 10.3582C19.5201 10.1914 20.2617 9.70915 20.3569 9.66108C20.3863 9.6462 20.4365 9.61548 20.4683 9.59279C20.5002 9.5701 20.5725 9.52654 20.6291 9.496C20.6857 9.46544 20.7642 9.41869 20.8034 9.39211C20.8961 9.32944 21.9579 8.79857 22.0504 8.7687C22.0893 8.75611 22.179 8.71802 22.2498 8.68402C22.3205 8.65003 22.4624 8.59381 22.565 8.55911C22.6676 8.52441 22.7716 8.48564 22.7962 8.47295C22.8575 8.44121 23.0403 8.37959 23.1566 8.35144C23.2096 8.3386 23.3022 8.31255 23.3624 8.29358C23.4937 8.25213 23.6412 8.21192 23.7289 8.19367C23.7643 8.18629 23.8385 8.16648 23.8937 8.14964C23.949 8.13278 24.0076 8.11899 24.0239 8.11899C24.0402 8.11899 24.0898 8.10741 24.1341 8.09325C24.1797 8.0787 24.2501 8.06752 24.2962 8.06752C24.3483 8.06752 24.4132 8.05591 24.4762 8.03535C24.5524 8.01047 24.6016 8.00318 24.6936 8.00318C24.7738 8.00318 24.8371 7.9954 24.8881 7.97926C24.9509 7.95941 25.0262 7.95383 25.3317 7.9464C25.5847 7.94025 25.7214 7.9317 25.7691 7.91901C25.8567 7.89569 25.9103 7.89573 25.9985 7.9192C26.0471 7.93215 26.1809 7.94054 26.4358 7.94662C26.7408 7.9539 26.8159 7.95945 26.8787 7.97929C26.977 8.01034 27.1762 8.0126 27.2182 7.98315C27.234 7.97214 27.2468 7.95083 27.2468 7.9358C27.2468 7.90405 27.1692 7.77908 27.0673 7.64686C27.0281 7.59596 26.97 7.51584 26.9381 7.46881C26.9063 7.4218 26.8557 7.35054 26.8257 7.31046C26.7957 7.27039 26.7396 7.19117 26.701 7.13443C26.6625 7.07767 26.6156 7.01688 26.5968 6.99933C26.5779 6.98176 26.5374 6.92977 26.5066 6.88377C26.4533 6.80395 26.429 6.77122 26.2586 6.54923C26.2179 6.49615 26.1745 6.4367 26.1622 6.41709C26.1498 6.39749 26.1045 6.34261 26.0615 6.29515C26.0185 6.24767 25.9637 6.17809 25.9396 6.1405C25.9156 6.10293 25.8618 6.03546 25.8201 5.99058C25.7783 5.94571 25.7296 5.8858 25.7117 5.85747C25.6938 5.82914 25.6436 5.76619 25.6001 5.71761C25.5567 5.66901 25.5031 5.60319 25.4812 5.57135C25.4592 5.5395 25.396 5.46482 25.3408 5.40539C25.2855 5.34596 25.2187 5.2649 25.1924 5.22526C25.1661 5.18561 25.1005 5.10685 25.0467 5.05024C24.9928 4.99363 24.9235 4.91257 24.8926 4.8701C24.8617 4.82764 24.7764 4.72694 24.703 4.64632C24.6295 4.5657 24.5554 4.47756 24.5383 4.45045C24.5212 4.42334 24.4196 4.30982 24.3126 4.19816C24.2055 4.08651 24.1014 3.96962 24.0813 3.93839C24.0611 3.90718 23.9145 3.74669 23.7554 3.58175C23.5963 3.41681 23.4505 3.25708 23.4314 3.22678C23.3708 3.13052 20.9231 0.681081 20.7831 0.576474C20.7337 0.539662 20.5768 0.394897 20.4343 0.254777C20.1856 0.0102292 20.1732 0 20.1243 0C20.0802 0 20.0615 0.0105508 19.9847 0.0787452ZM24.4145 10.538C24.3643 10.5545 24.2813 10.5649 24.1508 10.5711C24.0231 10.5772 23.9356 10.588 23.8848 10.6041C23.8351 10.6198 23.7707 10.628 23.6968 10.628C23.6117 10.628 23.5604 10.6358 23.4858 10.6602C23.4316 10.6779 23.3767 10.6924 23.3636 10.6924C23.3506 10.6924 23.3038 10.7039 23.2595 10.7181C23.2152 10.7322 23.1506 10.7438 23.1159 10.7438C23.0812 10.7438 23.0313 10.7532 23.005 10.7646C22.9565 10.7856 22.8502 10.8172 22.6871 10.8589C22.454 10.9186 22.1825 11.018 21.8024 11.183C21.705 11.2253 21.6035 11.2676 21.5769 11.2769C21.4957 11.3056 21.0709 11.5181 20.9957 11.5677C20.9568 11.5934 20.8786 11.6392 20.822 11.6696C20.7654 11.6999 20.6728 11.7552 20.6162 11.7923C20.5596 11.8294 20.4699 11.8876 20.4169 11.9217C20.2984 11.9977 20.2791 12.0105 20.1661 12.0884C20.1165 12.1226 20.0072 12.1967 19.9232 12.2532C19.8391 12.3096 19.7407 12.3798 19.7045 12.4091C19.6683 12.4384 19.6184 12.4762 19.5937 12.4932C19.5689 12.5102 19.5024 12.5627 19.4458 12.6099C19.3892 12.6571 19.3255 12.7067 19.3043 12.7202C19.2831 12.7336 19.205 12.7989 19.1307 12.8652C19.0564 12.9316 18.9726 13.0005 18.9445 13.0184C18.9164 13.0363 18.8382 13.1038 18.7706 13.1685C18.703 13.2332 18.6044 13.3185 18.5515 13.3582C18.4342 13.4461 17.6075 14.2762 17.5481 14.3658C17.5247 14.4012 17.4321 14.5054 17.3424 14.5974C17.2527 14.6894 17.1641 14.7891 17.1455 14.8189C17.1268 14.8486 17.0753 14.9146 17.031 14.9655C16.9867 15.0164 16.9244 15.0944 16.8926 15.1389C16.792 15.2794 16.7074 15.3914 16.6657 15.4391C16.6176 15.4942 16.5392 15.607 16.3564 15.8841C16.2818 15.9974 16.1765 16.1553 16.1225 16.2352C16.0685 16.315 15.9924 16.4366 15.9534 16.5054C15.9143 16.5741 15.8641 16.6569 15.8418 16.6893C15.8194 16.7216 15.7817 16.7882 15.7578 16.8372C15.682 16.9934 15.5256 17.284 15.4759 17.3614C15.4494 17.4026 15.418 17.4662 15.4061 17.503C15.3942 17.5397 15.3395 17.6623 15.2846 17.7756C15.167 18.0181 15.1102 18.147 15.0974 18.2002C15.0923 18.2214 15.0695 18.2764 15.0467 18.3224C15.024 18.3684 14.995 18.4379 14.9822 18.4768C14.9695 18.5157 14.9397 18.5879 14.9161 18.6373C14.8925 18.6866 14.8732 18.7344 14.8732 18.7434C14.8732 18.7666 14.826 18.9017 14.7731 19.0301C14.7145 19.1724 14.6702 19.3007 14.6465 19.3968C14.6264 19.4782 14.5409 19.7596 14.4999 19.8793C14.4772 19.9456 14.4526 20.0438 14.421 20.1945C14.4136 20.2299 14.3936 20.3024 14.3766 20.3556C14.3597 20.4088 14.3458 20.4645 14.3458 20.4794C14.3458 20.4942 14.3342 20.5427 14.3201 20.587C14.3059 20.6313 14.2944 20.69 14.2944 20.7176C14.2944 20.7451 14.2799 20.809 14.2622 20.8597C14.2434 20.9136 14.2298 20.9814 14.2295 21.0235C14.2292 21.0629 14.2203 21.1184 14.2098 21.1467C14.1993 21.175 14.1855 21.2454 14.1791 21.3032C14.1727 21.3609 14.1575 21.4275 14.1453 21.4511C14.1305 21.4797 14.1202 21.5414 14.1143 21.6359C14.1094 21.7139 14.0977 21.792 14.0883 21.8096C14.0782 21.8282 14.0676 21.9083 14.0628 22.0023C14.0564 22.1253 14.0486 22.1738 14.0297 22.2082C14.0062 22.251 14.0048 22.2915 14.0013 23.0237C13.9981 23.7109 13.9999 23.7975 14.0182 23.8254C14.0314 23.8455 14.0484 23.8553 14.0658 23.8527C14.0937 23.8486 14.0896 23.8597 14.2379 23.3855C14.2556 23.3289 14.2809 23.242 14.2941 23.1925C14.3381 23.027 14.3583 22.9622 14.4304 22.755C14.4698 22.6418 14.5126 22.5144 14.5255 22.472C14.5384 22.4295 14.5645 22.3542 14.5836 22.3047C14.6026 22.2552 14.6286 22.1799 14.6413 22.1374C14.654 22.095 14.6801 22.0255 14.6993 21.983C14.7186 21.9406 14.7476 21.8682 14.7639 21.8222C14.7801 21.7762 14.8193 21.6835 14.8508 21.6163C14.8824 21.5491 14.9156 21.4709 14.9245 21.4426C14.9436 21.3819 15.0581 21.1423 15.2843 20.6899C15.4982 20.2619 15.5718 20.1234 15.6244 20.0494C15.6482 20.016 15.6864 19.951 15.7094 19.905C15.7323 19.859 15.7724 19.7895 15.7985 19.7506C15.8246 19.7117 15.87 19.6422 15.8994 19.5962C15.9656 19.4927 16.1343 19.2408 16.2011 19.1459C16.2284 19.107 16.2838 19.028 16.3241 18.9704C16.4888 18.735 16.5649 18.6341 16.6283 18.5669C16.665 18.528 16.717 18.4614 16.744 18.4189C16.7709 18.3764 16.8521 18.2809 16.9244 18.2066C16.9968 18.1323 17.0753 18.0425 17.0989 18.0072C17.1564 17.9212 17.8783 17.1935 17.9686 17.1305C18.0078 17.1031 18.1044 17.0226 18.1833 16.9515C18.2622 16.8804 18.3499 16.8083 18.3782 16.7912C18.4065 16.7741 18.4615 16.7302 18.5004 16.6937C18.648 16.5548 18.9873 16.3441 19.3816 16.1462C19.5867 16.0432 19.7921 15.9469 19.8381 15.9322C19.884 15.9174 20.023 15.8702 20.1468 15.8273C20.2706 15.7844 20.387 15.7493 20.4056 15.7492C20.4241 15.7491 20.4755 15.7375 20.5198 15.7233C20.5641 15.7091 20.6241 15.6976 20.6533 15.6976C20.6824 15.6976 20.7564 15.6828 20.8176 15.6648L20.929 15.632L21.5187 15.6365C22.044 15.6405 22.1145 15.6435 22.1653 15.6636C22.1966 15.676 22.2777 15.6914 22.3454 15.6978C22.4131 15.7041 22.4916 15.718 22.5199 15.7286C22.5482 15.7392 22.5888 15.7482 22.6101 15.7485C22.6314 15.7488 22.7153 15.7721 22.7966 15.8003C22.8778 15.8284 22.9766 15.8575 23.0161 15.8648C23.0555 15.8721 23.1394 15.901 23.2026 15.9291C23.2657 15.9572 23.3249 15.9803 23.3341 15.9804C23.3434 15.9805 23.4099 16.0061 23.4821 16.0372C23.5542 16.0683 23.6277 16.0979 23.6453 16.1029C23.7058 16.1202 24.1275 16.3314 24.2004 16.3809C24.2404 16.4081 24.3417 16.466 24.4255 16.5096C24.5093 16.5532 24.5981 16.6043 24.6229 16.6233C24.6476 16.6422 24.72 16.6913 24.7837 16.7324C24.9078 16.8126 24.9546 16.8456 25.0587 16.9263C25.2604 17.0827 25.3189 17.1264 25.3702 17.1586C25.4013 17.1782 25.4818 17.2472 25.549 17.312C25.6162 17.3767 25.7146 17.4619 25.7676 17.5012C25.8858 17.5887 26.5049 18.2012 26.5652 18.2902C26.5892 18.3256 26.6729 18.4243 26.7512 18.5096C26.8296 18.5948 26.9167 18.6972 26.9448 18.737C26.973 18.7769 27.0423 18.8616 27.0989 18.9253C27.1983 19.0372 27.2563 19.1117 27.3724 19.2767C27.4026 19.3196 27.4509 19.3815 27.4798 19.4143C27.5087 19.4471 27.5473 19.5 27.5656 19.5319C27.5839 19.5637 27.6152 19.611 27.6353 19.6369C27.6923 19.7108 27.7597 19.8065 27.9736 20.1173C28.0458 20.2223 28.055 20.2361 28.1497 20.3811C28.1889 20.4413 28.2354 20.5165 28.2529 20.5484C28.2704 20.5802 28.3171 20.6584 28.3565 20.7221C28.5124 20.9736 28.5424 21.0231 28.6215 21.1595C28.7607 21.3994 28.8368 21.5431 29.0542 21.9766C29.3696 22.6053 29.5189 22.9131 29.5536 23.0059C29.5892 23.1013 29.649 23.2474 29.7512 23.4884C29.8277 23.6691 29.9535 24.0109 29.9679 24.0777C29.9728 24.1004 29.9958 24.1567 30.019 24.203C30.0422 24.2492 30.068 24.3129 30.0762 24.3445C30.0845 24.3761 30.1135 24.4657 30.1405 24.5435C30.1676 24.6214 30.1991 24.714 30.2105 24.7494C30.2846 24.979 30.3065 25.0526 30.3182 25.1097C30.3254 25.1451 30.3521 25.2338 30.3776 25.3068C30.403 25.3799 30.4241 25.4581 30.4244 25.4805C30.4247 25.503 30.4339 25.5446 30.4449 25.5729C30.4558 25.6012 30.4753 25.6678 30.4882 25.7208C30.5187 25.8467 30.5586 25.9845 30.5832 26.0489C30.594 26.0773 30.603 26.1243 30.6033 26.1534C30.6037 26.1826 30.6155 26.2427 30.6296 26.287C30.6438 26.3313 30.6554 26.3805 30.6554 26.3964C30.6554 26.4123 30.6698 26.4696 30.6875 26.5238C30.7052 26.578 30.7197 26.6474 30.7197 26.6782C30.7197 26.7089 30.7313 26.7702 30.7454 26.8145C30.7595 26.8588 30.7711 26.9078 30.7711 26.9233C30.7711 26.9388 30.7856 26.9999 30.8033 27.059C30.8212 27.119 30.8354 27.1988 30.8354 27.2397C30.8354 27.28 30.847 27.3492 30.8612 27.3935C30.8753 27.4378 30.8869 27.5013 30.8869 27.5345C30.8869 27.5677 30.9014 27.6432 30.919 27.7023C30.942 27.779 30.9512 27.84 30.9512 27.9152C30.9512 27.9852 30.9598 28.0477 30.9769 28.1012C30.9954 28.159 31.0026 28.2172 31.0026 28.3074C31.0026 28.3997 31.0112 28.4657 31.0348 28.5567C31.0637 28.6681 31.067 28.7055 31.067 28.9296C31.067 29.1432 31.0706 29.1901 31.0927 29.2592C31.1172 29.3359 31.1184 29.3752 31.1184 30.0763C31.1184 30.7773 31.1172 30.8166 31.0927 30.8933C31.071 30.9613 31.067 31.0093 31.067 31.2015C31.067 31.4071 31.0638 31.4396 31.0348 31.5367C31.0119 31.6133 31.0026 31.6743 31.0026 31.7496C31.0026 31.8196 30.994 31.882 30.9769 31.9355C30.9616 31.9837 30.9512 32.0515 30.9512 32.1041C30.9512 32.1631 30.9406 32.2245 30.919 32.2906C30.9014 32.3448 30.8869 32.4137 30.8869 32.4437C30.8869 32.4738 30.8753 32.5346 30.8612 32.5789C30.847 32.6232 30.8354 32.676 30.8354 32.6962C30.8354 32.7165 30.8217 32.7751 30.8049 32.8265C30.7881 32.8778 30.7683 32.9488 30.7609 32.9842C30.7326 33.1192 30.6656 33.3487 30.5975 33.5439C30.5789 33.597 30.5519 33.678 30.5373 33.724C30.5228 33.77 30.4949 33.8395 30.4754 33.8784C30.456 33.9174 30.4304 33.9825 30.4187 34.0232C30.407 34.0639 30.3826 34.1247 30.3645 34.1583C30.3465 34.1919 30.3085 34.2773 30.2802 34.3481C30.2298 34.4739 30.0981 34.7373 30.0525 34.8037C30.0398 34.822 29.999 34.8949 29.9617 34.9657C29.8998 35.0832 29.7004 35.4022 29.593 35.5557C29.5285 35.6478 29.5372 35.7186 29.6129 35.7182C29.6309 35.7181 29.6824 35.7066 29.7272 35.6925C29.7721 35.6784 29.8393 35.6669 29.8767 35.6669C29.914 35.6669 29.9786 35.6561 30.0202 35.6428C30.0618 35.6295 30.1393 35.6143 30.1923 35.609C30.2454 35.6037 30.3228 35.5885 30.3644 35.5753C30.406 35.562 30.4726 35.5509 30.5123 35.5506C30.5521 35.5502 30.6078 35.5415 30.6361 35.5311C30.6644 35.5207 30.7309 35.5064 30.7839 35.4994C30.8369 35.4924 30.9136 35.4751 30.9544 35.461C30.9951 35.4469 31.0588 35.4351 31.096 35.4348C31.1331 35.4344 31.1866 35.4257 31.2149 35.4153C31.2432 35.4049 31.3097 35.3906 31.3627 35.3836C31.4157 35.3766 31.4924 35.3593 31.5332 35.3452C31.5739 35.3311 31.6248 35.3195 31.6461 35.3195C31.6675 35.3195 31.7163 35.3085 31.7546 35.2951C31.7928 35.2816 31.8491 35.2667 31.8796 35.262C31.9102 35.2572 31.9685 35.2422 32.0092 35.2285C32.0499 35.2149 32.1136 35.2035 32.1507 35.2032C32.1878 35.2028 32.2413 35.1936 32.2696 35.1827C32.3225 35.1622 32.4776 35.1219 32.5912 35.0992C32.6265 35.0921 32.6931 35.0748 32.7391 35.0607C32.8173 35.0367 32.9002 35.0161 33.0542 34.9824C33.0896 34.9747 33.1637 34.9547 33.2189 34.9381C33.2741 34.9214 33.3295 34.9078 33.3421 34.9078C33.3646 34.9078 33.4867 34.8735 33.6009 34.8351C33.6327 34.8244 33.7036 34.8045 33.7584 34.7909C33.8132 34.7774 33.903 34.7551 33.9578 34.7414C34.0126 34.7277 34.1067 34.7009 34.1668 34.6819C34.2269 34.6628 34.3195 34.6367 34.3726 34.624C34.4885 34.596 34.6299 34.5523 34.8035 34.4908C34.8742 34.4657 34.9466 34.4451 34.9643 34.4451C34.9956 34.4451 35.263 34.3622 35.5495 34.2637C35.7637 34.19 35.8117 34.1747 35.9097 34.1487C36.1059 34.0967 36.4142 33.9987 36.5335 33.9503C36.5583 33.9403 36.6364 33.9136 36.7071 33.8909C36.7779 33.8683 36.8821 33.831 36.9387 33.808C37.0346 33.7691 37.1217 33.7387 37.5175 33.6059C37.6024 33.5774 37.7123 33.5376 37.7619 33.5173C37.8979 33.4618 38.2318 33.3428 38.2828 33.3317C38.3075 33.3264 38.362 33.3048 38.4038 33.2837C38.4737 33.2486 38.5421 33.2227 38.733 33.1591C38.7719 33.1461 38.851 33.1145 38.9087 33.0888C38.9664 33.0631 39.0206 33.0421 39.0291 33.0421C39.0375 33.0421 39.1032 33.0167 39.1749 32.9857C39.2467 32.9546 39.3459 32.9165 39.3954 32.9009C39.5555 32.8504 39.5878 32.837 39.6608 32.7913C39.7395 32.7421 39.7857 32.6821 39.8207 32.5836C39.8422 32.5229 39.8423 32.5146 39.822 32.4339C39.8102 32.3869 39.8005 32.325 39.8005 32.2964C39.8005 32.2678 39.7891 32.2111 39.7751 32.1704C39.7611 32.1297 39.7438 32.0558 39.7366 32.0063C39.7294 31.9568 39.715 31.8931 39.7047 31.8648C39.6944 31.8365 39.6857 31.78 39.6854 31.7394C39.685 31.6987 39.6736 31.6321 39.6599 31.5914C39.6462 31.5507 39.6287 31.4747 39.621 31.4226C39.6132 31.3704 39.6007 31.3161 39.5931 31.3019C39.5855 31.2877 39.5746 31.2227 39.569 31.1574C39.5634 31.0909 39.5494 31.0206 39.5373 30.9972C39.5255 30.9742 39.5108 30.9071 39.5047 30.848C39.4986 30.7889 39.4869 30.728 39.4787 30.7127C39.4706 30.6974 39.4591 30.6341 39.4533 30.572C39.4475 30.5099 39.4332 30.4407 39.4216 30.4182C39.41 30.3958 39.3953 30.3316 39.3889 30.2754C39.3825 30.2192 39.3711 30.1617 39.3635 30.1476C39.356 30.1335 39.3443 30.0784 39.3375 30.0251C39.3308 29.9718 39.3162 29.9106 39.305 29.8891C39.2939 29.8676 39.2794 29.8053 39.2729 29.7508C39.2663 29.6963 39.2523 29.6285 39.2419 29.6002C39.2314 29.5719 39.2227 29.5343 39.2225 29.5166C39.2223 29.4989 39.208 29.4381 39.1907 29.3815C39.1734 29.3249 39.153 29.2481 39.1455 29.211C39.112 29.0468 39.1019 29.0038 39.0795 28.9311C39.0663 28.8887 39.047 28.8163 39.0365 28.7703C39.013 28.6672 38.9751 28.5101 38.9449 28.3907C38.9235 28.3061 38.91 28.2544 38.8562 28.0497C38.8441 28.0037 38.8282 27.9372 38.8208 27.9018C38.8134 27.8664 38.7988 27.8114 38.7884 27.7795C38.778 27.7477 38.7589 27.6782 38.7459 27.6251C38.733 27.5721 38.7098 27.4852 38.6943 27.4321C38.6789 27.3791 38.6581 27.3038 38.648 27.2649C38.638 27.2259 38.6183 27.155 38.6042 27.1072C38.5901 27.0595 38.5671 26.9813 38.553 26.9335C38.539 26.8858 38.5195 26.8148 38.5097 26.7759C38.4999 26.737 38.4764 26.6559 38.4574 26.5958C38.4384 26.5356 38.412 26.4459 38.3988 26.3964C38.3572 26.2405 38.3239 26.1304 38.2769 25.9934C38.2518 25.9203 38.2313 25.8511 38.2313 25.8395C38.2313 25.8279 38.214 25.7661 38.1927 25.7021C38.1715 25.6381 38.102 25.4265 38.0383 25.2319C37.9747 25.0373 37.9073 24.8346 37.8887 24.7816C37.87 24.7285 37.8415 24.6416 37.8252 24.5886C37.8089 24.5355 37.7685 24.4226 37.7353 24.3377C37.6257 24.057 37.611 24.0167 37.5879 23.9324C37.5752 23.8864 37.5375 23.7792 37.5041 23.6943C37.4707 23.6094 37.4179 23.4704 37.3868 23.3855C37.3557 23.3006 37.3134 23.1906 37.2929 23.141C37.2724 23.0915 37.2486 23.0278 37.2401 22.9995C37.2315 22.9712 37.2071 22.9133 37.1859 22.8708C37.1646 22.8284 37.134 22.756 37.1179 22.71C37.0772 22.5937 37.0091 22.4274 36.912 22.2075C36.8665 22.1046 36.8293 22.0113 36.8293 22.0004C36.8293 21.9894 36.7949 21.9112 36.7528 21.8265C36.7107 21.7419 36.6608 21.6296 36.642 21.577C36.6232 21.5243 36.5686 21.4002 36.5208 21.3011C36.473 21.202 36.4268 21.0978 36.4182 21.0695C36.394 20.9902 35.5651 19.333 35.4914 19.2166C35.4555 19.16 35.3851 19.0327 35.3348 18.9336C35.2846 18.8345 35.2216 18.7211 35.1949 18.6816C35.1682 18.6421 35.1159 18.5523 35.0787 18.4822C35.0415 18.412 34.9898 18.3227 34.9637 18.2838C34.9377 18.2449 34.8974 18.1754 34.8742 18.1294C34.851 18.0834 34.817 18.026 34.7986 18.0019C34.7802 17.9777 34.739 17.9126 34.7071 17.8571C34.5968 17.6651 34.1612 16.9974 33.9153 16.6433C33.8416 16.5371 33.7661 16.4277 33.7475 16.4001C33.729 16.3725 33.6812 16.3075 33.6413 16.2557C33.4488 16.0058 33.3196 15.8291 33.2666 15.743C33.2493 15.7149 33.201 15.6542 33.1593 15.6082C33.1175 15.5621 33.0643 15.4946 33.041 15.4581C33.0176 15.4216 32.9634 15.3529 32.9204 15.3055C32.8774 15.258 32.8244 15.1928 32.8026 15.1604C32.7808 15.1281 32.7165 15.051 32.6597 14.989C32.6029 14.9271 32.5366 14.8469 32.5123 14.8108C32.488 14.7747 32.4139 14.6878 32.3476 14.6176C32.2812 14.5474 32.1937 14.4447 32.1531 14.3893C32.052 14.2516 30.398 12.5986 30.2759 12.5133C30.2264 12.4787 30.1483 12.4148 30.1023 12.3713C30.0563 12.3279 29.9724 12.2584 29.9158 12.2171C29.8592 12.1757 29.7918 12.1232 29.7661 12.1004C29.6937 12.0362 28.9698 11.5601 28.8715 11.5121C28.8233 11.4885 28.6508 11.4024 28.488 11.3207C28.3253 11.239 28.1575 11.1572 28.115 11.139C27.781 10.9955 27.4168 10.8681 27.1696 10.8082C27.1166 10.7953 27.05 10.7758 27.0217 10.7649C26.9934 10.7539 26.95 10.7444 26.9253 10.7438C26.9005 10.7432 26.8571 10.7342 26.8288 10.7239C26.8005 10.7135 26.7368 10.6992 26.6873 10.692C26.6378 10.6848 26.564 10.6675 26.5233 10.6535C26.474 10.6365 26.4154 10.628 26.3481 10.628C26.2852 10.628 26.2183 10.619 26.1713 10.6041C26.1173 10.5871 26.0338 10.5777 25.88 10.5713C25.721 10.5648 25.6436 10.5559 25.5857 10.5373C25.5129 10.5141 25.4688 10.5123 24.9974 10.513C24.5352 10.5138 24.481 10.5161 24.4145 10.538ZM21.9475 17.1134C21.9475 17.1532 21.9964 17.2416 22.052 17.3023C22.0793 17.3322 22.123 17.3901 22.1491 17.431C22.1752 17.4719 22.2266 17.5372 22.2634 17.5761C22.3002 17.615 22.3545 17.6816 22.384 17.7241C22.4135 17.7666 22.4745 17.8447 22.5196 17.8978C22.5647 17.9509 22.6208 18.0213 22.6443 18.0543C22.711 18.148 22.8101 18.2798 22.8736 18.3591C22.9054 18.3989 23.0012 18.5358 23.0865 18.6632C23.1717 18.7907 23.2593 18.921 23.2811 18.9529C23.303 18.9847 23.3503 19.0571 23.3863 19.1137C23.4223 19.1703 23.4687 19.2403 23.4895 19.2692C23.5102 19.2981 23.5677 19.3878 23.6173 19.4686C23.6669 19.5494 23.7363 19.6618 23.7716 19.7185C23.8068 19.7751 23.8703 19.888 23.9125 19.9694C24.0075 20.1522 24.0398 20.21 24.0732 20.257C24.1033 20.2996 24.4814 21.0491 24.4814 21.0664C24.4814 21.0727 24.5183 21.1629 24.5635 21.2667C24.6086 21.3705 24.6528 21.4786 24.6617 21.5069C24.6706 21.5353 24.6968 21.5962 24.7199 21.6425C24.743 21.6887 24.7688 21.7523 24.7773 21.7838C24.7858 21.8153 24.8067 21.8687 24.8238 21.9024C24.8672 21.9882 25.1198 22.7546 25.1292 22.8292C25.1335 22.863 25.1453 22.9066 25.1554 22.9263C25.1656 22.9459 25.1806 22.9992 25.1889 23.0447C25.1971 23.0903 25.2091 23.1373 25.2155 23.1493C25.222 23.1613 25.2331 23.2125 25.2402 23.263C25.2474 23.3135 25.2615 23.3707 25.2714 23.39C25.2815 23.4094 25.2964 23.4624 25.3046 23.508C25.3129 23.5535 25.3255 23.6017 25.3327 23.6152C25.34 23.6287 25.3504 23.6931 25.356 23.7583C25.3619 23.8272 25.3756 23.895 25.3886 23.9202C25.4023 23.9468 25.415 24.0135 25.4214 24.0927C25.4271 24.1637 25.4405 24.245 25.4512 24.2733C25.4637 24.3064 25.4709 24.3713 25.4712 24.455C25.4717 24.5551 25.4784 24.6042 25.5003 24.6673C25.528 24.7468 25.5289 24.7659 25.5293 25.2769C25.5297 25.7899 25.5289 25.8069 25.5007 25.8927C25.4796 25.957 25.4718 26.0114 25.4718 26.0937C25.4718 26.171 25.4637 26.2317 25.4461 26.287C25.4319 26.3313 25.4201 26.3943 25.4198 26.427C25.4195 26.4597 25.4104 26.5096 25.3996 26.5379C25.3888 26.5662 25.3693 26.627 25.3563 26.673C25.3433 26.719 25.3172 26.8001 25.2983 26.8531C25.2795 26.9062 25.2534 26.9844 25.2404 27.0268C25.1812 27.2199 25.1521 27.2886 25.0066 27.5801C24.943 27.7075 24.8465 27.8772 24.7923 27.9573C24.738 28.0373 24.677 28.13 24.6568 28.1631C24.6365 28.1963 24.6001 28.2455 24.5758 28.2724C24.5515 28.2994 24.5111 28.3544 24.486 28.3947C24.4267 28.4901 23.8256 29.0872 23.664 29.2112C23.437 29.3854 23.1236 29.5968 22.9997 29.6594C22.9551 29.6819 22.9007 29.714 22.8787 29.7307C22.8357 29.7636 22.4147 29.9803 22.2884 30.0347C22.2459 30.053 22.1446 30.094 22.0633 30.1258C21.9819 30.1576 21.8343 30.2155 21.7353 30.2545C21.532 30.3344 21.2486 30.4301 21.215 30.4301C21.2028 30.4301 21.1209 30.4533 21.0331 30.4816C20.9453 30.51 20.838 30.5389 20.7947 30.546C20.7513 30.553 20.6963 30.567 20.6723 30.577C20.6484 30.587 20.5855 30.6014 20.5325 30.609C20.4795 30.6167 20.413 30.6314 20.3847 30.6417C20.3564 30.6521 20.3027 30.6608 20.2654 30.6612C20.2281 30.6615 20.1644 30.6735 20.1239 30.688C20.0834 30.7024 19.9953 30.7195 19.9281 30.726C19.8609 30.7325 19.7828 30.7465 19.7545 30.7571C19.7211 30.7696 19.6551 30.7766 19.5664 30.777C19.4652 30.7774 19.4085 30.7844 19.3477 30.8039C19.282 30.825 19.2172 30.8318 19.0213 30.8379C18.8356 30.8437 18.7587 30.8513 18.7013 30.8694C18.6302 30.8919 18.5627 30.8933 17.5743 30.8933C16.5858 30.8933 16.5184 30.8919 16.4473 30.8694C16.3881 30.8507 16.3129 30.8439 16.1015 30.8379C15.8791 30.8316 15.8169 30.8256 15.7494 30.8039C15.685 30.7832 15.6322 30.7774 15.505 30.777C15.392 30.7766 15.327 30.7704 15.2912 30.7568C15.2629 30.746 15.1732 30.7322 15.0918 30.7261C15.0005 30.7191 14.9158 30.7047 14.8703 30.6883C14.819 30.6698 14.7642 30.6616 14.6902 30.6612C14.6288 30.6608 14.562 30.6525 14.5323 30.6414C14.504 30.6308 14.4288 30.6168 14.3651 30.6102C14.3014 30.6036 14.2162 30.5864 14.1757 30.5721C14.1352 30.5577 14.0701 30.5459 14.031 30.5459C13.992 30.5459 13.9267 30.5345 13.886 30.5205C13.8453 30.5064 13.7715 30.4891 13.722 30.4819C13.6725 30.4747 13.6088 30.4604 13.5805 30.45C13.5522 30.4397 13.5074 30.431 13.4809 30.4307C13.4544 30.4304 13.3994 30.4188 13.3587 30.4049C13.2783 30.3776 13.1547 30.3455 13.0531 30.3254C13.0178 30.3185 12.9512 30.3012 12.9052 30.2871C12.8592 30.273 12.7869 30.2538 12.7444 30.2445C12.702 30.2352 12.6181 30.212 12.5579 30.1929C12.4978 30.1738 12.4052 30.1476 12.3521 30.1347C12.2427 30.108 12.1376 30.0754 11.9791 30.019C11.919 29.9975 11.838 29.9741 11.799 29.9669C11.7601 29.9597 11.6994 29.9426 11.664 29.9289C11.6286 29.9152 11.5505 29.8889 11.4903 29.8705C11.4302 29.8521 11.326 29.8147 11.2588 29.7873C11.1916 29.7599 11.0469 29.7077 10.9373 29.6713C10.8276 29.635 10.6916 29.5855 10.635 29.5614C10.5784 29.5374 10.4916 29.5023 10.4421 29.4835C10.3925 29.4646 10.3028 29.4246 10.2427 29.3945C10.1826 29.3644 10.0991 29.3299 10.0573 29.3178C10.0155 29.3058 9.89682 29.2537 9.79362 29.2022C9.69043 29.1506 9.58285 29.1012 9.55455 29.0923C9.47603 29.0676 9.06213 28.8631 8.98217 28.8094C8.94326 28.7833 8.81303 28.7112 8.69277 28.6491C8.5725 28.5871 8.45674 28.5232 8.43552 28.5071C8.4143 28.4911 8.36211 28.4604 8.31955 28.4389C8.22211 28.3897 7.91934 28.2063 7.83967 28.1482C7.8066 28.1241 7.74823 28.0886 7.70996 28.0694C7.67171 28.0501 7.58027 27.993 7.50678 27.9423C7.43328 27.8917 7.34008 27.8298 7.29967 27.8047C7.25926 27.7796 7.19349 27.7333 7.15351 27.7018C7.11353 27.6702 7.03935 27.6155 6.98866 27.5801C6.93797 27.5447 6.85497 27.4839 6.80423 27.445C6.75347 27.406 6.6888 27.3589 6.66051 27.3403C6.63221 27.3217 6.5525 27.2566 6.48338 27.1956C6.41425 27.1346 6.33331 27.0693 6.30348 27.0505C6.27367 27.0317 6.18842 26.9576 6.11403 26.8858C5.90323 26.6826 5.84319 26.6283 5.75953 26.5657C5.66529 26.4951 5.48578 26.3103 5.43809 26.2347C5.419 26.2045 5.32661 26.1006 5.23278 26.0039C5.13894 25.9072 5.04783 25.8054 5.0303 25.7777C5.01276 25.75 4.95949 25.6815 4.9119 25.6255C4.86431 25.5696 4.8112 25.5013 4.79387 25.4739C4.77655 25.4464 4.74301 25.4025 4.71936 25.3762C4.69569 25.3499 4.63223 25.2618 4.57832 25.1804C4.52442 25.0991 4.46284 25.0064 4.44149 24.9746C4.42015 24.9427 4.37754 24.879 4.34681 24.833C4.31608 24.7869 4.26323 24.6972 4.22937 24.6335C4.19551 24.5699 4.14086 24.4744 4.10793 24.4213C4.03564 24.3048 3.8989 24.0301 3.86456 23.9324C3.85088 23.8934 3.80812 23.795 3.76953 23.7136C3.73096 23.6322 3.69197 23.5425 3.68291 23.5142C3.64756 23.4038 3.58538 23.3609 3.53853 23.4145C3.49617 23.4629 3.3637 23.7416 3.32905 23.8552C3.32365 23.8728 3.27437 23.98 3.21954 24.0932C3.1647 24.2064 3.11264 24.3222 3.10385 24.3505C3.09505 24.3788 3.05895 24.4625 3.02362 24.5365C2.98828 24.6105 2.9491 24.7002 2.93655 24.7359C2.92401 24.7716 2.88515 24.8646 2.85019 24.9424C2.81524 25.0202 2.77622 25.1158 2.76347 25.1547C2.75073 25.1936 2.7215 25.2631 2.69853 25.3091C2.67555 25.3551 2.64806 25.4217 2.63742 25.4571C2.62678 25.4925 2.59764 25.5677 2.57265 25.6243C2.54766 25.681 2.52293 25.7446 2.5177 25.7659C2.51246 25.7871 2.49123 25.8421 2.47051 25.8881C2.44978 25.9341 2.40763 26.0412 2.37682 26.1262C2.34601 26.2111 2.29405 26.35 2.26134 26.435C2.22863 26.5199 2.1909 26.6241 2.17751 26.6666C2.14561 26.7677 2.08989 26.9216 2.03309 27.0654C2.00795 27.1291 1.97486 27.2218 1.95958 27.2713C1.9443 27.3208 1.92352 27.3816 1.9134 27.4064C1.89083 27.4616 1.79862 27.732 1.76643 27.8374C1.75346 27.8799 1.72755 27.9581 1.70885 28.0111C1.69016 28.0642 1.66411 28.1424 1.65096 28.1848C1.63783 28.2273 1.6119 28.3055 1.59334 28.3585C1.57478 28.4116 1.54875 28.4927 1.5355 28.5387C1.52224 28.5847 1.49589 28.6657 1.47695 28.7188C1.458 28.7719 1.43646 28.8443 1.42907 28.8797C1.42169 28.915 1.3939 29.0106 1.36732 29.092C1.34074 29.1733 1.30078 29.3036 1.27854 29.3815C1.2042 29.6416 1.18997 29.6893 1.13063 29.8768C1.09816 29.9795 1.07164 30.0757 1.07169 30.0908C1.07174 30.1059 1.05731 30.1567 1.03963 30.2037C1.02194 30.2507 1.00747 30.2996 1.00747 30.3124C1.00747 30.3375 0.972084 30.4645 0.928853 30.5945C0.902961 30.6724 0.895656 30.7008 0.843666 30.9256C0.83056 30.9823 0.815665 31.0355 0.810584 31.0437C0.801876 31.0578 0.770492 31.1704 0.730567 31.3308C0.720869 31.3697 0.70142 31.4392 0.687336 31.4852C0.673251 31.5312 0.655952 31.5978 0.648877 31.6332C0.626175 31.7468 0.585967 31.9019 0.565465 31.9548C0.554519 31.9831 0.545296 32.0278 0.544987 32.0541C0.544678 32.0804 0.536036 32.1267 0.525797 32.157C0.515559 32.1874 0.49876 32.2498 0.488483 32.2958C0.478206 32.3418 0.460802 32.4026 0.449792 32.4309C0.438795 32.4592 0.429534 32.501 0.429225 32.5237C0.428917 32.5465 0.420274 32.5899 0.410035 32.6202C0.399797 32.6506 0.382998 32.713 0.372721 32.759C0.362444 32.805 0.345041 32.8658 0.33403 32.8941C0.323033 32.9224 0.313772 32.9692 0.313463 32.998C0.313155 33.0268 0.298646 33.0981 0.281218 33.1563C0.241846 33.2879 0.227171 33.434 0.247223 33.4947C0.255314 33.5193 0.28064 33.5574 0.303496 33.5795C0.344039 33.6187 0.537939 33.7164 0.64089 33.7494C0.669187 33.7585 0.756009 33.7961 0.833826 33.833C0.911644 33.8699 0.998465 33.9076 1.02676 33.9168C1.05506 33.9259 1.14914 33.967 1.23582 34.008C1.3225 34.049 1.42668 34.092 1.46734 34.1037C1.508 34.1154 1.56731 34.1395 1.59914 34.1573C1.63098 34.175 1.7149 34.2125 1.78565 34.2405C1.85639 34.2685 1.96057 34.311 2.01717 34.335C2.07376 34.3589 2.204 34.4109 2.30657 34.4506C2.40915 34.4902 2.53938 34.5423 2.59598 34.5664C2.75617 34.6344 3.05386 34.7498 3.15781 34.7841C3.20959 34.8012 3.29004 34.8324 3.33657 34.8535C3.38311 34.8746 3.48729 34.9135 3.5681 34.94C3.6489 34.9665 3.76421 35.0101 3.82434 35.0368C3.88447 35.0636 3.95104 35.0893 3.97226 35.0939C3.99348 35.0986 4.07451 35.1247 4.15233 35.152C4.23015 35.1794 4.32565 35.2113 4.36456 35.2231C4.40347 35.2348 4.50476 35.2722 4.58965 35.3061C4.67455 35.34 4.80188 35.3867 4.87263 35.4099C4.94337 35.4331 5.06492 35.4737 5.14274 35.5002C5.33845 35.5668 5.44359 35.5991 5.49646 35.6088C5.52122 35.6134 5.61383 35.6425 5.70225 35.6734C5.79068 35.7044 5.90645 35.7422 5.9595 35.7573C6.01256 35.7725 6.12253 35.8072 6.20389 35.8345C6.28524 35.8617 6.38654 35.8927 6.42898 35.9034C6.47143 35.914 6.55536 35.9383 6.61549 35.9573C6.67562 35.9763 6.76823 36.0023 6.82129 36.0151C6.87434 36.0279 6.96695 36.0539 7.02708 36.073C7.08722 36.092 7.17989 36.1173 7.23304 36.1291C7.28618 36.1409 7.33748 36.1554 7.34704 36.1613C7.36597 36.173 7.49255 36.209 7.64448 36.2459C7.69754 36.2588 7.7641 36.2783 7.7924 36.2892C7.8207 36.3002 7.86246 36.3094 7.8852 36.3097C7.90794 36.31 7.95135 36.3187 7.98167 36.3289C8.01199 36.3391 8.07441 36.3559 8.12039 36.3662C8.16637 36.3765 8.22715 36.3939 8.25545 36.4049C8.28374 36.4159 8.32569 36.4252 8.34865 36.4255C8.37161 36.4258 8.4237 36.437 8.46441 36.4504C8.54897 36.4783 8.67603 36.5116 8.76994 36.5307C8.80532 36.5378 8.88664 36.5578 8.95067 36.575C9.0147 36.5921 9.08485 36.6062 9.10657 36.6062C9.12827 36.6062 9.18227 36.6178 9.22656 36.6319C9.27084 36.6461 9.32367 36.6577 9.34394 36.6577C9.36421 36.6577 9.41416 36.6692 9.45491 36.6833C9.49567 36.6974 9.57238 36.7147 9.62538 36.7217C9.67839 36.7288 9.74492 36.743 9.77321 36.7534C9.80151 36.7638 9.84824 36.7726 9.87706 36.7729C9.90588 36.7732 9.9778 36.7879 10.0369 36.8056C10.096 36.8233 10.1686 36.8378 10.1983 36.8378C10.2279 36.8378 10.2884 36.8494 10.3327 36.8635C10.377 36.8777 10.4404 36.8893 10.4736 36.8893C10.5068 36.8893 10.5823 36.9038 10.6414 36.9214C10.7027 36.9398 10.7825 36.9539 10.827 36.9542C10.87 36.9545 10.9283 36.9635 10.9566 36.9742C10.9849 36.9849 11.0661 36.9984 11.1371 37.0041C11.2181 37.0106 11.2828 37.0231 11.3108 37.0375C11.3412 37.0533 11.4002 37.0634 11.497 37.0694C11.575 37.0742 11.6529 37.0858 11.6702 37.095C11.6875 37.1043 11.7684 37.1164 11.85 37.122C11.945 37.1284 12.0249 37.1416 12.0721 37.1586C12.1278 37.1788 12.1777 37.1854 12.2779 37.1858C12.3651 37.1861 12.4275 37.1931 12.4615 37.2062C12.4928 37.2184 12.586 37.2303 12.6994 37.2366C12.8363 37.2443 12.9055 37.2543 12.9596 37.2741C13.0216 37.2968 13.0624 37.301 13.2183 37.301C13.3629 37.301 13.4201 37.3063 13.4791 37.3249C13.5358 37.3428 13.6145 37.3508 13.7934 37.3568C13.9811 37.3631 14.0494 37.3704 14.1134 37.3908C14.1864 37.4141 14.2291 37.4168 14.5259 37.4168C14.8306 37.4168 14.8635 37.419 14.939 37.4445L15.0211 37.4721L16.6289 37.4722L18.2367 37.4723L18.3188 37.4446C18.3941 37.4191 18.427 37.4168 18.719 37.4168C19.0049 37.4168 19.0456 37.4141 19.1193 37.3904C19.1825 37.37 19.2547 37.3617 19.4329 37.3542C19.5908 37.3475 19.6746 37.3387 19.6966 37.3265C19.7183 37.3144 19.7952 37.3061 19.9345 37.3009C20.1006 37.2948 20.149 37.2887 20.1853 37.2693C20.2179 37.2519 20.2732 37.2425 20.3847 37.2355C20.4696 37.2302 20.5622 37.217 20.5905 37.2061C20.6208 37.1945 20.6847 37.1861 20.7458 37.1858C20.8224 37.1854 20.8739 37.1768 20.9417 37.153C21.0028 37.1317 21.0614 37.1209 21.116 37.1209C21.1627 37.1209 21.2328 37.1098 21.2787 37.0951C21.3229 37.081 21.3892 37.0694 21.426 37.0694C21.4642 37.0694 21.5323 37.0556 21.5849 37.0372C21.6355 37.0196 21.7023 37.0051 21.7334 37.0051C21.7644 37.0051 21.826 36.9935 21.8703 36.9793C21.9146 36.9652 21.9747 36.9535 22.0038 36.9534C22.033 36.9534 22.1019 36.9389 22.157 36.9213C22.2121 36.9037 22.2793 36.8893 22.3065 36.8893C22.3336 36.8893 22.392 36.8777 22.4363 36.8635C22.4806 36.8494 22.5291 36.8379 22.5441 36.838C22.5591 36.8382 22.6176 36.8241 22.6742 36.8067C22.7308 36.7894 22.8061 36.7694 22.8414 36.7624C22.9945 36.7317 23.1443 36.6873 23.6132 36.5335C23.8183 36.4663 24.018 36.3951 24.0569 36.3754C24.0958 36.3557 24.1595 36.3294 24.1984 36.3169C24.2827 36.29 24.917 35.9806 24.9867 35.9324C25.0134 35.9139 25.0829 35.8717 25.141 35.8386C25.2814 35.7586 25.4443 35.6516 25.5583 35.5643C25.6841 35.468 25.853 35.341 25.9156 35.2957C25.9439 35.2751 26.0162 35.2134 26.0763 35.1585C26.1365 35.1036 26.2088 35.0445 26.2371 35.027C26.2994 34.9887 26.6244 34.6591 26.6972 34.5604C26.726 34.5215 26.792 34.4447 26.844 34.3898C26.896 34.3349 26.9596 34.2571 26.9853 34.2169C27.011 34.1767 27.0645 34.1087 27.1042 34.0658C27.1439 34.0229 27.2103 33.9357 27.2516 33.872C27.293 33.8083 27.3574 33.7099 27.3948 33.6533C27.4321 33.5966 27.4789 33.5214 27.4987 33.486C27.5185 33.4506 27.5567 33.3887 27.5837 33.3483C27.6107 33.308 27.7189 33.1025 27.8242 32.8916C28.0238 32.4915 28.0874 32.3542 28.103 32.2894C28.1081 32.2681 28.1315 32.2123 28.1549 32.1653C28.1784 32.1183 28.2045 32.0523 28.213 32.0187C28.2214 31.985 28.2453 31.9135 28.266 31.8597C28.2867 31.8059 28.3145 31.7242 28.3277 31.6782C28.341 31.6322 28.3669 31.5425 28.3854 31.4788C28.4039 31.4151 28.4251 31.334 28.4325 31.2986C28.44 31.2632 28.4599 31.1891 28.4767 31.1338C28.4935 31.0785 28.5073 31.0199 28.5073 31.0036C28.5073 30.9872 28.5189 30.9376 28.5331 30.8933C28.5472 30.849 28.5588 30.7773 28.5588 30.734C28.5588 30.6907 28.5706 30.6147 28.585 30.5652C28.5994 30.5157 28.6164 30.4057 28.6228 30.3207C28.6291 30.2358 28.6437 30.1408 28.6551 30.1095C28.6736 30.059 28.6759 29.9446 28.6758 29.0882C28.6757 28.168 28.6745 28.1199 28.6505 28.0385C28.6349 27.9858 28.6225 27.8943 28.6179 27.7988C28.6133 27.7033 28.6007 27.6101 28.5847 27.5544C28.5682 27.4971 28.5586 27.4246 28.5582 27.355C28.5579 27.292 28.5496 27.2237 28.5387 27.1941C28.5283 27.1658 28.5138 27.0963 28.5065 27.0397C28.4992 26.9831 28.4819 26.9 28.4681 26.855C28.4543 26.81 28.4428 26.7347 28.4425 26.6877C28.4422 26.6407 28.4329 26.5791 28.4219 26.5508C28.4109 26.5224 28.396 26.4703 28.3887 26.435C28.3815 26.3996 28.3647 26.3335 28.3514 26.288C28.3381 26.2426 28.3273 26.1891 28.3273 26.1691C28.3273 26.1491 28.3161 26.0994 28.3025 26.0587C28.2889 26.0179 28.274 25.9643 28.2694 25.9396C28.2648 25.9148 28.2499 25.8612 28.2363 25.8205C28.2227 25.7798 28.2112 25.7277 28.2109 25.7047C28.2106 25.6817 28.2014 25.6398 28.1905 25.6115C28.1795 25.5832 28.16 25.5166 28.1472 25.4635C28.1115 25.316 28.0874 25.2356 28.0431 25.1161C28.0208 25.056 27.9919 24.9691 27.9789 24.9231C27.9658 24.8771 27.9291 24.7642 27.8973 24.6722C27.7198 24.1588 27.6982 24.1013 27.5659 23.7908C27.5373 23.7236 27.4998 23.6338 27.4825 23.5914C27.3708 23.3162 26.8125 22.1944 26.7397 22.0989C26.7231 22.0771 26.6763 21.9987 26.6358 21.9247C26.5538 21.775 26.5555 21.7778 26.2884 21.3718C26.0697 21.0394 26.0749 21.0473 25.9926 20.9279C25.9584 20.8784 25.9085 20.8052 25.8817 20.7652C25.8548 20.7252 25.8093 20.6653 25.7806 20.6321C25.7519 20.5989 25.7172 20.5499 25.7036 20.5232C25.69 20.4964 25.6507 20.4434 25.6163 20.4053C25.582 20.3672 25.5398 20.3129 25.5227 20.2846C25.5055 20.2563 25.4545 20.1928 25.4094 20.1436C25.3642 20.0943 25.313 20.0315 25.2957 20.004C25.2783 19.9764 25.2069 19.8932 25.137 19.819C25.067 19.7449 24.9881 19.6514 24.9616 19.6112C24.8666 19.4678 23.5856 18.1805 23.4165 18.0586C23.3772 18.0303 23.2982 17.9661 23.2409 17.9159C23.1835 17.8657 23.1107 17.8082 23.0791 17.7883C23.0474 17.7683 22.9926 17.7274 22.9572 17.6973C22.9218 17.6672 22.8288 17.5996 22.7505 17.5471C22.6722 17.4946 22.5911 17.4401 22.5704 17.4261C22.5497 17.412 22.4893 17.3727 22.4363 17.3386C22.3832 17.3046 22.3022 17.2518 22.2562 17.2215C22.1533 17.1535 22.0152 17.0872 21.9764 17.0872C21.9559 17.0872 21.9475 17.0948 21.9475 17.1134Z" fill="#2E56F6"/>
</svg>
