<svg width="70" height="70" viewBox="0 0 70 70" fill="none" xmlns="http://www.w3.org/2000/svg">
<path d="M45.5 67.6665H43.1666C42.5214 67.6665 42 68.1892 42 68.8331C42 69.4771 42.5214 69.9997 43.1666 69.9997H45.5C46.1452 69.9997 46.6666 69.4771 46.6666 68.8331C46.6666 68.1892 46.1452 67.6665 45.5 67.6665Z" fill="white"/>
<path d="M68.8334 67.6665H50.1666C49.5214 67.6665 49 68.1892 49 68.8331C49 69.4771 49.5214 69.9997 50.1666 69.9997H68.8332C69.4784 69.9997 69.9999 69.4771 69.9999 68.8331C69.9999 68.1892 69.4786 67.6665 68.8334 67.6665Z" fill="white"/>
<path d="M36.1653 67.6665H24.4987C23.8535 67.6665 23.332 68.1892 23.332 68.8331C23.332 69.477 23.8535 69.9999 24.4987 69.9999H36.1653C36.8105 69.9999 37.3319 69.4772 37.3319 68.8332C37.3319 68.1893 36.8105 67.6665 36.1653 67.6665Z" fill="white"/>
<path d="M17.5 67.6665H1.16662C0.521445 67.6665 0 68.1892 0 68.8331C0 69.477 0.521445 69.9999 1.16662 69.9999H17.5C18.1452 69.9999 18.6666 69.4772 18.6666 68.8332C18.6666 68.1893 18.1452 67.6665 17.5 67.6665Z" fill="white"/>
<path d="M1.16662 32.6666C0.521445 32.6666 0 33.1893 0 33.8332C0 34.4772 0.521445 35 1.16662 35H8.16662C8.8118 35 9.33324 34.4773 9.33324 33.8334C9.33324 33.1894 8.8118 32.6668 8.16662 32.6668H5.83338V30.3334H8.16676C8.81193 30.3334 9.33338 29.8107 9.33338 29.1668C9.33338 28.5228 8.81193 28.0001 8.16676 28.0001H5.83338V25.6668H11.6668V59.5C11.6668 59.6516 11.6971 59.8034 11.7566 59.9457C11.8755 60.2316 12.1019 60.4579 12.3878 60.5769C12.5301 60.6364 12.6818 60.6668 12.8335 60.6668C12.9851 60.6668 13.1369 60.6364 13.2792 60.5769C13.4228 60.5175 13.551 60.4323 13.6596 60.3237L23.3335 50.6498V59.5C23.3335 60.1439 23.855 60.6666 24.5001 60.6666C25.1453 60.6666 25.6668 60.1439 25.6668 59.5V25.6666H59.5C59.6482 25.6666 59.7905 25.6339 59.9259 25.5804C59.9748 25.5616 60.0146 25.5291 60.0612 25.5034C60.123 25.4684 60.1919 25.4427 60.2479 25.3961L65.3334 21.1575V35C65.3334 35.6557 65.0802 35.9368 64.5086 36.5086C63.8716 37.1444 63 38.0171 63 39.6668C63 41.5964 64.5704 43.1668 66.5 43.1668C68.4296 43.1668 70 41.5964 70 39.6668C70 39.0228 69.4786 38.5001 68.8334 38.5001C68.1882 38.5001 67.6668 39.0228 67.6668 39.6668C67.6668 40.3096 67.1441 40.8334 66.5001 40.8334C65.8562 40.8334 65.3335 40.3096 65.3335 39.6668C65.3335 39.0111 65.5867 38.73 66.1583 38.1582C66.7953 37.5223 67.6669 36.6496 67.6669 35V18.6666C67.6669 18.4963 67.6272 18.3377 67.5607 18.1918C67.5432 18.1498 67.5082 18.1182 67.486 18.0798C67.4265 17.9807 67.3623 17.8873 67.2772 17.8091C67.2656 17.7986 67.2598 17.7811 67.2481 17.7706L60.2481 11.9372C60.1921 11.8906 60.1233 11.8649 60.0615 11.8299C60.0206 11.8077 59.9892 11.7738 59.946 11.7563C59.9367 11.7528 59.9272 11.7517 59.9179 11.7481C59.7849 11.6968 59.6449 11.6665 59.5003 11.6665H25.6666V1.16648C25.6666 1.01486 25.6363 0.863105 25.5768 0.720781C25.4579 0.436133 25.2314 0.208633 24.9456 0.0895508C24.8034 0.0303516 24.6516 0 24.5 0H12.8334C12.1882 0 11.6668 0.522676 11.6668 1.16662V11.6666H1.16676C0.521445 11.6666 0 12.1893 0 12.8334V24.5C0 24.6516 0.0303516 24.8034 0.0898242 24.9457C0.20877 25.2316 0.435176 25.4579 0.721055 25.5769C0.863379 25.6364 1.015 25.6668 1.16676 25.6668H3.5V28H1.16662C0.521445 28 0 28.5227 0 29.1666C0 29.8106 0.521445 30.3332 1.16662 30.3332H3.5V32.6666H1.16662ZM60.6666 15.3241L64.6764 18.6666L60.6666 22.0091V15.3241ZM58.3334 23.3334H50.6497L58.3334 15.6496V23.3334ZM49 14H56.6837L49 21.6837V14ZM46.6666 23.3334H38.9829L46.6666 15.6496V23.3334ZM37.3334 14H45.0171L37.3334 21.6837V14ZM35 23.3334H27.3163L35 15.6496V23.3334ZM25.6666 14H33.3504L25.6666 21.6837V14ZM23.3334 46.6666H15.6496L23.3334 38.9829V46.6666ZM23.3334 35H15.6496L23.3334 27.3163V35ZM23.3334 23.3334H15.6496L23.3334 15.6496V23.3334ZM23.3334 11.6666H15.6496L23.3334 3.98289V11.6666ZM14 2.33338H21.6837L14 10.017V2.33338ZM14 14H21.6837L14 21.6837V14ZM14 25.6666H21.6837L14 33.3504V25.6666ZM14 37.3334H21.6837L14 45.017V37.3334ZM14 49H21.6837L14 56.6837V49ZM11.6666 23.3334H3.98303L11.6668 15.6496V23.3334H11.6666ZM2.33338 21.6837V14H10.0171L2.33338 21.6837Z" fill="white"/>
<path d="M8.16662 63C7.52145 63 7 63.5227 7 64.1666C7 64.8106 7.52145 65.3332 8.16662 65.3332H29.1666C29.8118 65.3332 30.3332 64.8106 30.3332 64.1666C30.3332 63.5227 29.8118 63 29.1666 63H8.16662Z" fill="white"/>
</svg>
