<svg width="70" height="70" viewBox="0 0 70 70" fill="none" xmlns="http://www.w3.org/2000/svg">
<path d="M54.732 54.6002C52.8654 56.3502 52.8654 59.2668 54.732 61.1335C55.6654 62.0669 56.832 62.5335 57.9986 62.5335C59.1652 62.5335 60.332 62.0669 61.2652 61.1335C63.1319 59.3835 63.1319 56.4669 61.2652 54.6002C59.5154 52.7335 56.5986 52.7335 54.732 54.6002ZM59.632 59.6168C58.6986 60.5502 57.2986 60.5502 56.3654 59.6168C55.4321 58.6834 55.432 57.2834 56.3654 56.3502C56.832 55.8835 57.4154 55.6502 57.9988 55.6502C58.5821 55.6502 59.1654 55.8835 59.6321 56.3502C60.5654 57.2835 60.5654 58.6835 59.632 59.6168Z" fill="white"/>
<path d="M69.1989 56L48.1989 35L56.4822 26.7166L56.4824 26.7165L61.3822 21.8166L61.3824 21.8165L68.4989 14.7C70.4822 12.7166 70.4822 9.45 68.4989 7.46662L62.5489 1.51662C61.6156 0.583379 60.3322 0 58.9322 0C57.5322 0 56.2489 0.583379 55.3156 1.51662L48.199 8.63324L43.299 13.5332L35.0156 21.8166L14.2489 1.05C12.9655 -0.233379 10.6322 -0.233379 9.34887 1.05L1.06563 9.33338C-0.334375 10.6168 -0.334375 12.8334 1.06563 14.2334L3.51562 16.6834L10.1656 23.3334L16.6989 29.8666C16.6989 29.8666 16.6989 29.8666 16.699 29.8668L21.8322 35L3.10369 53.7286C2.75451 53.8826 2.56625 54.1975 2.46563 54.6L0.015625 68.6C0.015625 69.0666 0.132246 69.4166 0.365625 69.65C0.598867 69.8834 0.832246 70 1.18225 70C1.29887 70 1.29887 70 1.41562 70L14.8749 67.5117C14.968 67.5363 15.0685 67.55 15.1822 67.55C15.5322 67.55 15.8822 67.4334 15.9989 67.2L35.0155 48.1834L36.5321 49.7C36.5321 49.7 36.5321 49.7 36.5322 49.7001L36.5324 49.7003L39.7989 52.9668C39.7989 52.9668 39.7989 52.9668 39.799 52.9669L39.7991 52.967L56.0156 69.1835C56.599 69.7669 57.299 70.0001 57.999 70.0001C58.699 70.0001 59.399 69.7668 59.8656 69.1835L69.199 59.8501C70.2489 58.8 70.2489 57.05 69.1989 56ZM15.1822 64.6334L11.1001 60.5512L49.8894 21.8738L53.9156 25.9L15.1822 64.6334ZM56.9489 3.15C57.9989 2.1 59.8655 2.1 60.9155 3.15L66.8655 9.1C67.9155 10.15 67.9155 12.0166 66.8655 13.0666L60.5655 19.3666L50.6489 9.45L56.9489 3.15ZM49.0156 11.0834L53.974 16.0418L58.9322 21L55.6656 24.2666L45.749 14.35L49.0156 11.0834ZM22.4739 32.375L24.9822 29.8666C25.4489 29.4 25.4489 28.7 24.9822 28.2332C24.5156 27.7665 23.8156 27.7666 23.3489 28.2332L20.8405 30.7416L19.1489 29.05L23.2322 24.9666C23.6989 24.5 23.6989 23.8 23.2322 23.3332C22.7656 22.8665 22.0656 22.8666 21.5989 23.3332L17.5155 27.4166L15.8821 25.7832L18.3321 23.3332C18.7987 22.8666 18.7987 22.1666 18.3321 21.6999C17.8655 21.2331 17.1655 21.2332 16.6987 21.6999L14.2487 24.1499L12.6154 22.5165L16.6987 18.4331C17.1654 17.9665 17.1654 17.2665 16.6987 16.7997C16.2321 16.333 15.5321 16.3331 15.0654 16.7997L10.9822 20.8834L9.23225 19.1334L11.6822 16.6834C12.1489 16.2168 12.1489 15.5168 11.6822 15.05C11.2156 14.5832 10.5156 14.5834 10.0489 15.05L7.59887 17.5L5.96549 15.8666L10.0489 11.7832C10.5155 11.3166 10.5155 10.6166 10.0489 10.1499C9.58224 9.68311 8.88225 9.68324 8.41549 10.1499L4.33225 14.2334L2.69887 12.6C2.23225 12.1334 2.23225 11.4334 2.69887 10.9666L10.9822 2.68338C11.2156 2.45 11.4489 2.33338 11.7989 2.33338C12.0322 2.33338 12.3822 2.45 12.6155 2.68338L33.3822 23.45L23.4656 33.3666L22.4739 32.375ZM44.1156 16.1L48.1978 20.1821L9.40848 58.8596L5.38225 54.8334L44.1156 16.1ZM4.44887 57.1666L8.27645 60.9942C8.33469 61.1275 8.41959 61.254 8.53225 61.3666L12.7495 65.5837L2.699 67.3165L4.44887 57.1666ZM67.5656 58.2166L58.2323 67.55C58.1156 67.6666 57.7656 67.6666 57.6489 67.55L45.5739 55.475L49.7155 51.3334C50.1821 50.8668 50.1821 50.1668 49.7155 49.7C49.2489 49.2334 48.5489 49.2334 48.0821 49.7L43.9405 53.8416L42.2489 52.15L44.6989 49.7C45.1655 49.2334 45.1655 48.5334 44.6989 48.0666C44.2323 47.6 43.5322 47.6 43.0655 48.0666L40.6155 50.5166L38.9821 48.8832L43.0655 44.7999C43.5321 44.3332 43.5321 43.6332 43.0655 43.1665C42.5989 42.6999 41.8989 42.6999 41.4321 43.1665L37.3489 47.25L36.6489 46.55L46.5655 36.6334L67.5655 57.6334C67.6823 57.75 67.6823 58.1 67.5656 58.2166Z" fill="white"/>
</svg>
