<svg width="58" height="70" viewBox="0 0 58 70" fill="none" xmlns="http://www.w3.org/2000/svg">
<path d="M56.6771 9.70457L35.9952 0.159141C35.8362 0 35.5179 0 35.3589 0H22.6316C22.4725 0 22.1544 0 21.9952 0.159141L1.31351 9.70457C0.677079 10.0227 0.199931 10.8181 0.358935 11.4546C0.518076 12.25 1.15436 12.7273 1.94979 12.7273H19.1317L11.4952 55.8409C11.3361 56.6363 11.9725 57.5909 12.7679 57.75C12.9271 57.75 12.9271 57.75 13.0861 57.75C13.8815 57.75 14.5179 57.2727 14.6769 56.4773L16.5861 45.1819L39.0179 61.7273C39.3361 61.8864 39.6544 62.0454 39.9725 62.0454C40.4498 62.0454 40.9271 61.8863 41.2452 61.409C41.7225 60.7726 41.5634 59.659 40.9271 59.1817L31.6998 52.3409L41.4044 45.1817L44.5862 63.6363H16.2679L25.3361 56.9544C25.9725 56.4771 26.1315 55.3636 25.6542 54.7271C25.1769 54.0907 24.0634 53.9317 23.4269 54.409L11.0178 63.6363H6.72251C6.24522 63.6363 5.92708 63.7954 5.6088 64.1136L2.42708 67.2954C1.79065 67.9319 1.79065 68.8863 2.42708 69.5227C3.06351 70.1591 4.01794 70.1591 4.65436 69.5227L7.35893 66.8181H50.6316L53.3362 69.5227C53.6544 69.8409 54.1316 70 54.4498 70C54.7679 70 55.2452 69.8409 55.5634 69.5227C56.1998 68.8863 56.1998 67.9319 55.5634 67.2954L52.3815 64.1136C52.0634 63.7954 51.7451 63.6363 51.2679 63.6363H47.7679L38.8589 12.7273H56.0408C56.8362 12.7273 57.4726 12.25 57.6316 11.4546C57.7907 10.6591 57.4725 10.0227 56.6771 9.70457ZM40.7679 41.5227L28.9952 50.4319L18.9725 42.9546L25.1771 38.5C25.8135 38.0227 26.1317 37.0681 25.4952 36.2727C25.0179 35.4773 24.0634 35.3181 23.2679 35.9546L17.5407 40.091L19.4498 28.9546L35.9952 40.7273C36.3134 40.8864 36.6316 41.0454 36.9498 41.0454C37.4271 41.0454 37.9044 40.8863 38.2225 40.409C38.6998 39.7726 38.5407 38.659 37.9044 38.1817L31.6998 33.7271L38.5407 28.7953L40.7679 41.5227ZM35.5179 22.5909L31.3816 19.25L35.9952 15.4319L37.7452 25.4546L28.8361 31.8181L21.9952 26.8863L25.1771 24.3409C25.8135 23.8636 25.9725 22.75 25.3362 22.1136C24.6999 21.4771 23.7454 21.3181 23.1089 21.9544L20.0862 24.3409L21.6771 15.4317L33.4498 25.1363C33.7679 25.4544 34.0862 25.4544 34.4044 25.4544C34.8817 25.4544 35.3589 25.2953 35.6771 24.818C36.1544 24.1819 36.1544 23.0681 35.5179 22.5909ZM38.5407 9.54543L38.2225 7.63629C38.0634 6.84086 37.2679 6.20443 36.3134 6.36357C35.5179 6.52271 34.8815 7.31814 35.0407 8.27271L35.1998 9.54543H27.4044C26.4498 9.54543 25.8135 10.1819 25.8135 11.1363C25.8135 12.0907 26.4499 12.7271 27.4044 12.7271H34.4044L28.9952 17.1817L22.4725 11.7726L23.1089 8.11344C23.2681 7.31801 22.6317 6.52258 21.8362 6.36344C21.0408 6.2043 20.0862 6.84072 19.9271 7.63615L19.6089 9.54529H19.4498H9.26794L23.1088 3.18172H35.1997L49.0405 9.54529H38.5407V9.54543Z" fill="white"/>
</svg>
