<svg width="70" height="70" viewBox="0 0 70 70" fill="none" xmlns="http://www.w3.org/2000/svg">
<g clip-path="url(#clip0)">
<path d="M38.0415 34.4136C37.8507 34.1319 37.5327 33.9634 37.1924 33.9634H34.3231L35.9525 29.8933C36.1629 29.3679 35.9071 28.7716 35.3813 28.5616C34.8554 28.3509 34.2587 28.6069 34.0484 29.1323L31.8566 34.6074C31.7302 34.9231 31.7687 35.2809 31.9595 35.5623C32.1502 35.8438 32.4684 36.0124 32.8085 36.0124H35.6779L34.0484 40.0825C33.838 40.6078 34.0938 41.2041 34.6197 41.4142C34.7446 41.4642 34.8734 41.4878 35.0001 41.4878C35.4072 41.4878 35.7922 41.2441 35.9525 40.8436L38.1444 35.3685C38.2707 35.0528 38.2323 34.695 38.0415 34.4136Z" fill="white"/>
<path d="M64.3456 5.88668C60.7038 2.19064 55.8494 0.107453 50.6767 0.0208469C45.515 -0.0671249 40.5875 1.93505 36.8027 5.65378C32.9156 9.4729 30.6864 14.7569 30.6864 20.1507V24.1083H27.3281C25.554 24.1083 24.1108 25.5504 24.1108 27.3228V42.653C24.1108 44.4256 25.5542 45.8675 27.3281 45.8675H30.6864V50.3182C30.6864 53.4089 29.3697 56.3794 27.0736 58.4676C24.7482 60.5826 21.7349 61.5844 18.5904 61.2887C13.0029 60.7632 8.62629 55.7894 8.62629 49.9653C8.62629 49.3995 8.16718 48.9408 7.60089 48.9408C7.0346 48.9408 6.5755 49.3995 6.5755 49.9653C6.5755 53.2695 7.76755 56.4568 9.93195 58.9402C12.1312 61.4636 15.1379 63.022 18.3981 63.3286C18.8263 63.3689 19.2521 63.3888 19.6751 63.3888C22.9346 63.3888 26.0133 62.2029 28.4542 59.9828C31.1762 57.507 32.7374 53.9845 32.7374 50.3182V45.8675H37.2624V49.8252C37.2624 54.6733 35.2564 59.4248 31.7589 62.8611C28.3692 66.1916 23.967 67.9834 19.3572 67.9063C14.7253 67.8288 10.3777 65.9627 7.11554 62.6517C3.84946 59.3369 2.05092 54.9568 2.05092 50.318V36.083C2.05092 36.0441 2.0825 36.0125 2.12147 36.0125H6.50523C6.54419 36.0125 6.57577 36.0441 6.57577 36.083V45.5275C6.57577 46.0933 7.03488 46.5521 7.60117 46.5521C8.16746 46.5521 8.62656 46.0933 8.62656 45.5275V36.083C8.62656 34.9142 7.675 33.9635 6.50523 33.9635H5.3386V28.4178C5.3386 27.852 4.8795 27.3933 4.31321 27.3933C3.74692 27.3933 3.28782 27.852 3.28782 28.4178V33.9635H2.12133C0.951564 33.9635 0 34.9142 0 36.083V50.318C0 55.4981 2.00799 60.3889 5.65402 64.0892C9.2958 67.7852 14.1501 69.8686 19.3229 69.955C19.4301 69.9568 19.5366 69.9578 19.6435 69.9578C24.6884 69.9578 29.4906 67.9638 33.1967 64.3221C37.0838 60.503 39.313 55.2189 39.313 49.8252V45.8675H42.6714C44.4454 45.8675 45.8886 44.4254 45.8886 42.653V27.323C45.8886 25.5504 44.4453 24.1085 42.6714 24.1085H39.313V19.6578C39.313 16.5671 40.6297 13.5966 42.9258 11.5084C45.2513 9.3934 48.2644 8.39183 51.4091 8.6873C56.9965 9.21281 61.3732 14.1866 61.3732 20.0107C61.3732 20.5765 61.8323 21.0352 62.3986 21.0352C62.9649 21.0352 63.424 20.5765 63.424 20.0107C63.424 16.7065 62.2319 13.5192 60.0675 11.0358C57.8682 8.51245 54.8615 6.95396 51.6013 6.64742C47.8737 6.2969 44.303 7.48506 41.5452 9.99322C38.8233 12.469 37.2621 15.9916 37.2621 19.6578V24.1085H32.737V20.1508C32.737 15.3027 34.7429 10.5512 38.2404 7.11487C41.6301 3.78437 46.0329 1.99366 50.6421 2.06974C55.274 2.1472 59.6217 4.01332 62.8838 7.32428C66.1499 10.6391 67.9484 15.0192 67.9484 19.658V33.893C67.9484 33.9319 67.9168 33.9635 67.8779 33.9635H63.4941C63.4551 33.9635 63.4235 33.9319 63.4235 33.893V24.4485C63.4235 23.8827 62.9644 23.4239 62.3982 23.4239C61.8319 23.4239 61.3728 23.8827 61.3728 24.4485V33.893C61.3728 35.0618 62.3243 36.0125 63.4941 36.0125H64.6606V41.5582C64.6606 42.124 65.1197 42.5827 65.686 42.5827C66.2523 42.5827 66.7114 42.124 66.7114 41.5582V36.0125H67.8779C69.0476 36.0125 69.9992 35.0618 69.9992 33.893V19.6578C69.9996 14.4777 67.9916 9.58724 64.3456 5.88668ZM42.6714 26.1575C43.3145 26.1575 43.8379 26.6804 43.8379 27.323V42.6532C43.8379 43.2959 43.3145 43.8186 42.6714 43.8186H27.3281C26.6848 43.8186 26.1616 43.2957 26.1616 42.6532V27.323C26.1616 26.6803 26.685 26.1575 27.3281 26.1575H42.6714Z" fill="white"/>
<path d="M3.03868 24.6746L1.94274 22.4846C1.68954 21.9785 1.07362 21.7732 0.567075 22.0265C0.0605314 22.2794 -0.14482 22.8948 0.10852 23.4009L1.20446 25.591C1.38411 25.9499 1.74614 26.1574 2.12239 26.1574C2.27647 26.1574 2.43288 26.1226 2.58013 26.0491C3.08667 25.7961 3.29202 25.1807 3.03868 24.6746Z" fill="white"/>
<path d="M8.05956 22.0264C7.55302 21.7732 6.9371 21.9786 6.68389 22.4846L5.58795 24.6746C5.33475 25.1807 5.53996 25.7961 6.04651 26.0491C6.19375 26.1227 6.35016 26.1574 6.50424 26.1574C6.88036 26.1574 7.24253 25.9498 7.42218 25.5909L8.51812 23.4009C8.77146 22.8948 8.5661 22.2794 8.05956 22.0264Z" fill="white"/>
<path d="M69.8912 46.575L68.7953 44.385C68.5421 43.8789 67.9263 43.6736 67.4196 43.9268C66.9131 44.1798 66.7077 44.7952 66.9611 45.3013L68.057 47.4913C68.2366 47.8503 68.5987 48.0578 68.9749 48.0578C69.129 48.0578 69.2854 48.023 69.4327 47.9495C69.9392 47.6965 70.1446 47.0811 69.8912 46.575Z" fill="white"/>
<path d="M63.9532 43.9263C63.4466 43.6731 62.8308 43.8785 62.5775 44.3845L61.4816 46.5745C61.2282 47.0806 61.4336 47.696 61.9401 47.949C62.0874 48.0226 62.2438 48.0573 62.3979 48.0573C62.774 48.0573 63.1361 47.8497 63.3158 47.4908L64.4117 45.3008C64.6651 44.7947 64.4597 44.1793 63.9532 43.9263Z" fill="white"/>
</g>
<defs>
<clipPath id="clip0">
<rect width="70" height="69.9402" fill="white" transform="translate(0 0.0175781)"/>
</clipPath>
</defs>
</svg>
