<svg width="70" height="71" viewBox="0 0 70 71" fill="none" xmlns="http://www.w3.org/2000/svg">
<g clip-path="url(#clip0)">
<path d="M35.9276 44.2098C35.6661 43.6591 35.0067 43.4241 34.4553 43.6857C33.5582 44.1111 32.6175 44.4627 31.6597 44.7304C31.259 44.8424 30.9553 45.1696 30.8738 45.5774L29.7046 51.4182C29.5892 51.9949 29.0782 52.4136 28.4895 52.4136H25.2999C24.7112 52.4136 24.2003 51.995 24.0848 51.4182L22.9156 45.5774C22.8339 45.1696 22.5302 44.8424 22.1297 44.7304C20.7765 44.3521 19.4705 43.8114 18.2481 43.1235C17.8854 42.9194 17.4387 42.9362 17.0926 43.1668L12.1316 46.4711C11.6419 46.7973 10.9843 46.7322 10.5678 46.3164L8.3125 44.0629C7.89619 43.6469 7.83125 42.9899 8.1576 42.5004L11.4648 37.5437C11.6957 37.1977 11.7126 36.7515 11.5082 36.3891C10.8195 35.1676 10.2784 33.8627 9.89981 32.5109C9.7877 32.1105 9.46025 31.8071 9.05215 31.7257L3.20633 30.5575C2.6291 30.4422 2.21006 29.9316 2.21006 29.3434V26.1566C2.21006 25.5684 2.62896 25.0579 3.20633 24.9425L9.05215 23.7743C9.46025 23.6927 9.7877 23.3892 9.89981 22.9891C10.2785 21.637 10.8196 20.3322 11.5082 19.1108C11.7124 18.7486 11.6956 18.3023 11.4648 17.9563L8.15787 13.0001C7.83139 12.5107 7.89646 11.8537 8.31277 11.4377L10.5681 9.18427C10.9844 8.76832 11.6421 8.70344 12.1319 9.02951L17.0929 12.3339C17.439 12.5646 17.8858 12.5813 18.2484 12.3772C19.4708 11.6893 20.7767 11.1486 22.13 10.7702C22.5307 10.6582 22.8344 10.331 22.9158 9.92329L24.0851 4.08248C24.2004 3.50575 24.7115 3.08707 25.3002 3.08707H28.4897C29.0784 3.08707 29.5894 3.50562 29.7049 4.08248L30.8741 9.92329C30.9557 10.331 31.2595 10.6582 31.66 10.7702C33.0132 11.1486 34.3191 11.6893 35.5415 12.3772C35.9043 12.5813 36.3509 12.5645 36.6971 12.3339L41.6581 9.02951C42.1478 8.7033 42.8053 8.76846 43.2219 9.18427L45.4772 11.4377C45.8935 11.8536 45.9584 12.5107 45.6321 13.0001L42.3248 17.9568C42.0939 18.3028 42.0771 18.749 42.2815 19.1114C42.97 20.3327 43.5112 21.6375 43.8899 22.9896C44.002 23.39 44.3294 23.6934 44.7375 23.7748L50.5833 24.943C51.1606 25.0583 51.5796 25.5689 51.5796 26.1571V29.3439C51.5796 29.9321 51.1607 30.4426 50.5833 30.558L44.7375 31.7262C44.3294 31.8078 44.002 32.1113 43.8899 32.5117C43.6152 33.4925 43.2528 34.4546 42.8125 35.3713C42.5484 35.9211 42.7805 36.5808 43.3308 36.8446C43.8811 37.1086 44.5415 36.8765 44.8053 36.3267C45.2026 35.4993 45.5438 34.6391 45.8228 33.7617L51.0169 32.7238C52.6232 32.4026 53.7894 30.9811 53.7894 29.3438V26.157C53.7894 24.5197 52.6232 23.0984 51.0162 22.7771L45.8222 21.7392C45.4815 20.6677 45.0498 19.626 44.5324 18.6289L47.4708 14.225C48.3797 12.8627 48.1986 11.0336 47.0397 9.87575L44.7844 7.62237C43.6255 6.46454 41.7948 6.28368 40.4314 7.19167L36.0238 10.1275C35.0258 9.61075 33.9832 9.17922 32.9108 8.83881L31.872 3.64932C31.5509 2.04412 30.1282 0.878906 28.4895 0.878906H25.2999C23.6612 0.878906 22.2387 2.04412 21.9171 3.64973L20.8783 8.83922C19.8059 9.17963 18.7633 9.61102 17.7654 10.1279L13.358 7.19208C11.9946 6.28395 10.1638 6.46481 9.00498 7.62278L6.74967 9.87616C5.59098 11.034 5.40969 12.863 6.31859 14.2254L9.25695 18.6293C8.73975 19.6264 8.30785 20.668 7.96715 21.7396L2.77307 22.7775C1.16621 23.0985 0 24.52 0 26.1573V29.3441C0 30.9814 1.16621 32.4027 2.7732 32.724L7.96715 33.7619C8.30771 34.8332 8.73961 35.875 9.25695 36.8722L6.31859 41.2761C5.40969 42.6384 5.59084 44.4675 6.74967 45.6253L9.00498 47.8787C10.1638 49.0365 11.9945 49.2174 13.358 48.3094L17.7656 45.3736C18.7636 45.8903 19.806 46.3218 20.8786 46.6623L21.9174 51.852C22.2387 53.4571 23.6614 54.6224 25.3001 54.6224H28.4896C30.1283 54.6224 31.5509 53.4572 31.8724 51.8516L32.9112 46.6621C33.7628 46.3918 34.5987 46.063 35.4033 45.6813C35.9547 45.4196 36.1896 44.7609 35.9276 44.2098Z" fill="white"/>
<path d="M36.4681 33.8868C36.6294 33.9696 36.8017 34.0088 36.9715 34.0088C37.3729 34.0088 37.7602 33.7895 37.9558 33.4081C38.8473 31.6712 39.3185 29.715 39.3185 27.7508C39.3185 20.9061 33.7452 15.3374 26.8945 15.3374C23.6354 15.3374 20.5556 16.5889 18.2224 18.8619C17.7853 19.2875 17.7764 19.9868 18.2024 20.4233C18.6285 20.8599 19.3282 20.8691 19.7653 20.4433C21.6833 18.5751 24.2151 17.5461 26.8942 17.5461C32.5259 17.5461 37.1078 22.1239 37.1078 27.7509C37.1078 29.3893 36.7313 30.9537 35.9887 32.4006C35.7104 32.9429 35.9249 33.6084 36.4681 33.8868Z" fill="white"/>
<path d="M16.5486 23.0253C15.9712 22.8268 15.3426 23.1334 15.1439 23.7102C14.6972 25.0076 14.4707 26.3671 14.4707 27.7504C14.4707 34.5953 20.0442 40.1638 26.8947 40.1638C29.5295 40.1638 32.0467 39.3502 34.1746 37.8106C34.669 37.4528 34.7796 36.7623 34.4217 36.2684C34.0637 35.7744 33.3725 35.6639 32.8781 36.0215C31.1297 37.2863 29.0608 37.955 26.8946 37.955C21.2628 37.955 16.681 33.377 16.681 27.7502C16.681 26.6117 16.867 25.4939 17.2339 24.4283C17.4324 23.8517 17.1256 23.2235 16.5486 23.0253Z" fill="white"/>
<path d="M67.8738 49.1423L64.6777 48.5037C64.4831 47.9249 64.2486 47.3598 63.9768 46.8135L65.785 44.1036C66.4822 43.0586 66.3432 41.6557 65.4544 40.7678L63.9724 39.287C63.0836 38.3991 61.6795 38.2602 60.6337 38.9567L57.9215 40.7634C57.3748 40.4919 56.8092 40.2576 56.2299 40.0632L55.5907 36.8699C55.3442 35.6384 54.2531 34.7446 52.9962 34.7446H50.9002C49.6435 34.7446 48.5522 35.6384 48.3057 36.8699L47.6665 40.0632C47.0872 40.2577 46.5216 40.492 45.9749 40.7634L43.2627 38.9567C42.2168 38.2603 40.8127 38.399 39.924 39.287L38.442 40.7678C37.5531 41.6558 37.4142 43.0587 38.1114 44.1036L39.9196 46.8135C39.5458 47.5645 39.243 48.3511 39.0166 49.1599C38.8521 49.7473 39.1954 50.3565 39.7832 50.521C40.3711 50.6853 40.9808 50.3425 41.1454 49.7551C41.3861 48.8956 41.73 48.0664 42.1675 47.2904C42.3718 46.928 42.355 46.4817 42.1242 46.1358L39.9508 42.8786C39.8361 42.7066 39.8589 42.4757 40.0052 42.3296L41.4872 40.8488C41.6335 40.7028 41.8646 40.6801 42.0367 40.7944L45.2968 42.966C45.6429 43.1967 46.0896 43.2134 46.4523 43.0093C47.2291 42.5722 48.0589 42.2285 48.9191 41.9881C49.3198 41.876 49.6235 41.5489 49.705 41.1411L50.4732 37.303C50.5137 37.1005 50.6933 36.9533 50.9002 36.9533H52.9962C53.2029 36.9533 53.3826 37.1005 53.4232 37.303L54.1914 41.1414C54.273 41.5492 54.5768 41.8763 54.9773 41.9883C55.8375 42.2287 56.6674 42.5724 57.4441 43.0096C57.8067 43.2136 58.2535 43.1968 58.5996 42.9663L61.8597 40.7947C62.0318 40.6801 62.2629 40.7028 62.4092 40.8491L63.8912 42.3298C64.0373 42.476 64.0602 42.7069 63.9456 42.8788L61.7722 46.1361C61.5413 46.4821 61.5245 46.9282 61.7289 47.2906C62.1664 48.0668 62.5103 48.8959 62.751 49.7553C62.8631 50.1557 63.1905 50.4591 63.5986 50.5405L67.44 51.3081C67.6428 51.3485 67.79 51.528 67.79 51.7347V53.8289C67.79 54.0355 67.6428 54.215 67.44 54.2555L63.5983 55.0231C63.1902 55.1047 62.8628 55.4082 62.7507 55.8083C62.5101 56.6678 62.1661 57.497 61.7286 58.273C61.5243 58.6354 61.5411 59.0817 61.7719 59.4275L63.9453 62.6848C64.06 62.8568 64.0372 63.0876 63.8909 63.2338L62.4089 64.7146C62.2627 64.8607 62.0317 64.8834 61.8594 64.7689L58.5994 62.5974C58.2532 62.3668 57.8064 62.35 57.4438 62.5541C56.667 62.9912 55.8372 63.3349 54.977 63.5753C54.5763 63.6873 54.2726 64.0145 54.1911 64.4222L53.4229 68.2603C53.3824 68.4629 53.2028 68.61 52.9959 68.61H50.8999C50.6932 68.61 50.5135 68.4629 50.4729 68.2603L49.7047 64.422C49.6231 64.0142 49.3193 63.6871 48.9188 63.575C48.0586 63.3346 47.2287 62.9909 46.452 62.5538C46.0893 62.3497 45.6425 62.3665 45.2965 62.5971L42.0364 64.7687C41.8643 64.8833 41.6332 64.8606 41.487 64.7143L40.0049 63.2335C39.8588 63.0874 39.8359 62.8565 39.9505 62.6845L42.1239 59.4273C42.3548 59.0813 42.3717 58.6351 42.1673 58.2727C41.7298 57.4966 41.3858 56.6675 41.1452 55.808C41.0331 55.4076 40.7056 55.1042 40.2975 55.0228L36.4561 54.2553C36.2534 54.2148 36.1061 54.0353 36.1061 53.8287V51.7344C36.1061 51.5279 36.2534 51.3484 36.4561 51.3078L36.6913 51.2608C37.2898 51.1412 37.6781 50.5594 37.5582 49.9613C37.4384 49.3633 36.8568 48.976 36.2575 49.0952L36.0223 49.1421C34.7901 49.3886 33.8955 50.4788 33.8955 51.7346V53.8288C33.8955 55.0844 34.7901 56.1748 36.0226 56.4211L39.2187 57.0597C39.4133 57.6385 39.6478 58.2036 39.9195 58.7499L38.1112 61.4598C37.414 62.5048 37.553 63.9077 38.4418 64.7956L39.9238 66.2763C40.8127 67.1644 42.2168 67.3032 43.2625 66.6066L45.9747 64.7999C46.5215 65.0715 47.0871 65.3058 47.6664 65.5002L48.3055 68.6935C48.5523 69.925 49.6435 70.8187 50.9003 70.8187H52.9963C54.2531 70.8187 55.3444 69.925 55.5909 68.6935L56.23 65.5002C56.8093 65.3056 57.3749 65.0714 57.9216 64.7998L60.6339 66.6065C61.6798 67.303 63.0839 67.1642 63.9725 66.2762L65.4546 64.7954C66.3434 63.9074 66.4823 62.5045 65.7852 61.4596L63.9769 58.7497C64.2487 58.2035 64.4832 57.6383 64.6777 57.0596L67.8738 56.421C69.1062 56.1747 70.0007 55.0844 70.0007 53.8287V51.7344C70.0009 50.4788 69.1063 49.3886 67.8738 49.1423Z" fill="white"/>
<path d="M51.9475 48.8064C54.1415 48.8064 55.9264 50.5897 55.9264 52.7819C55.9264 53.3918 56.4213 53.8862 57.0316 53.8862C57.6419 53.8862 58.1369 53.3917 58.1369 52.7819C58.1369 49.3719 55.3603 46.5977 51.9473 46.5977C48.5344 46.5977 45.7578 49.3719 45.7578 52.7819C45.7578 56.1919 48.5344 58.9661 51.9473 58.9661C53.3297 58.9661 54.6373 58.5206 55.7288 57.6781C56.2119 57.3052 56.3009 56.6116 55.9278 56.1289C55.5545 55.6463 54.8603 55.5572 54.3772 55.9301C53.6762 56.4712 52.8359 56.7574 51.9473 56.7574C49.7533 56.7574 47.9684 54.9741 47.9684 52.7819C47.9686 50.5896 49.7534 48.8064 51.9475 48.8064Z" fill="white"/>
<path d="M33.6287 27.7505C33.6287 24.0407 30.6078 21.0225 26.8949 21.0225C23.1819 21.0225 20.1611 24.0408 20.1611 27.7505C20.1611 31.4603 23.1819 34.4785 26.8949 34.4785C30.6079 34.4785 33.6287 31.4602 33.6287 27.7505ZM22.3716 27.7505C22.3716 25.2586 24.4009 23.231 26.8949 23.231C29.389 23.231 31.4183 25.2586 31.4183 27.7505C31.4183 30.2424 29.3891 32.2699 26.8949 32.2699C24.4006 32.2699 22.3716 30.2424 22.3716 27.7505Z" fill="white"/>
</g>
<defs>
<clipPath id="clip0">
<rect width="70" height="69.9399" fill="white" transform="translate(0 0.878906)"/>
</clipPath>
</defs>
</svg>
