<svg width="70" height="71" viewBox="0 0 70 71" fill="none" xmlns="http://www.w3.org/2000/svg">
<g clip-path="url(#clip0)">
<path d="M27.1885 46.5999C27.735 46.452 28.0579 45.8892 27.9097 45.3432C27.3342 43.2218 26.1894 41.2692 24.5992 39.6967C21.674 36.8038 20.1467 32.9427 20.2987 28.8247C20.5856 21.0433 26.9207 14.9049 34.7209 14.8499C34.7562 14.8497 34.7908 14.8495 34.8259 14.8495C39.8017 14.8495 44.372 17.3438 47.0673 21.5362C47.3733 22.0121 48.0075 22.1502 48.4841 21.8445C48.9605 21.5388 49.0987 20.905 48.7927 20.4289C45.7179 15.6458 40.504 12.8008 34.8263 12.8008C34.7866 12.8008 34.7464 12.8009 34.7066 12.8012C30.4317 12.8314 26.3759 14.4961 23.2863 17.489C20.1955 20.483 18.407 24.482 18.2495 28.7493C18.0788 33.379 19.8674 37.9 23.1567 41.1529C24.4904 42.4718 25.4496 44.1061 25.9307 45.8796C26.0545 46.336 26.468 46.6363 26.9196 46.6363C27.0084 46.636 27.0987 46.6244 27.1885 46.5999Z" fill="white"/>
<path d="M50.6844 24.5018C50.5181 23.9608 49.9442 23.6569 49.4033 23.8234C48.8619 23.9895 48.558 24.5627 48.7244 25.1034C49.1478 26.481 49.3627 27.9181 49.3627 29.3745C49.3627 33.3114 47.8119 36.9968 44.9961 39.7518C42.6576 42.0397 41.3164 45.2381 41.3164 48.5268V49.3759C41.3164 51.5819 40.1748 53.6484 38.3235 54.8362H35.7697V41.0716L39.7737 37.0711C40.6205 36.2248 41.0869 35.0999 41.0869 33.9033V30.0869C41.0869 29.5211 40.6279 29.0625 40.0616 29.0625C39.4953 29.0625 39.0363 29.5211 39.0363 30.0869V31.1559C38.2975 31.3349 37.8658 31.8515 37.5873 32.185C37.3025 32.5262 37.2617 32.5414 37.1648 32.5414C37.0679 32.5414 37.0273 32.5262 36.7425 32.1851C36.4012 31.7762 35.8302 31.0921 34.7453 31.0921C33.6606 31.0921 33.0895 31.7762 32.7484 32.1851C32.4636 32.5262 32.423 32.5414 32.3261 32.5414C32.2293 32.5414 32.1888 32.5262 31.9041 32.1851C31.6254 31.8512 31.1929 31.3338 30.4526 31.1554V30.0869C30.4526 29.5211 29.9936 29.0625 29.4273 29.0625C28.8611 29.0625 28.4021 29.5211 28.4021 30.0869V33.9033C28.4021 35.0999 28.8686 36.225 29.7154 37.0711L33.7194 41.0715V54.8363H31.3258C29.6101 53.7364 28.5038 51.8985 28.3525 49.8649C28.3103 49.3006 27.819 48.8768 27.2539 48.9194C26.6893 48.9615 26.2656 49.4528 26.3076 50.017C26.4534 51.9771 27.2722 53.7998 28.5857 55.2036C28.4367 55.3815 28.3467 55.6106 28.3467 55.8607C28.3467 56.3309 28.6639 56.7259 29.0959 56.8464V58.9219C28.6639 59.0425 28.3467 59.4376 28.3467 59.9076C28.3467 60.3777 28.6639 60.7729 29.0959 60.8934V62.1601C29.0959 62.5203 29.1313 62.872 29.1966 63.2135C29.0114 63.3989 28.897 63.6546 28.897 63.9373C28.897 64.4772 29.3154 64.9186 29.8457 64.9578C30.6744 66.3936 32.1188 67.4311 33.8167 67.7065V69.8005C33.8167 70.3663 34.2757 70.8249 34.8419 70.8249C35.4082 70.8249 35.8672 70.3663 35.8672 69.8005V67.7008C37.5495 67.4177 38.9797 66.3864 39.8035 64.9618H39.846C40.4123 64.9618 40.8712 64.5032 40.8712 63.9374C40.8712 63.6067 40.7139 63.3135 40.4705 63.1263C40.5252 62.8122 40.5554 62.4897 40.5554 62.1603V60.9186C41.0458 60.842 41.4214 60.4193 41.4214 59.9078C41.4214 59.3962 41.0458 58.9736 40.5554 58.8969V56.8717C41.0458 56.795 41.4214 56.3724 41.4214 55.8608C41.4214 55.5785 41.3071 55.323 41.1223 55.1376C42.5422 53.5827 43.3675 51.5293 43.3675 49.376V48.5269C43.3675 45.7855 44.484 43.1208 46.431 41.2157C49.6442 38.0721 51.4136 33.8669 51.4136 29.3747C51.4132 27.714 51.1679 26.0746 50.6844 24.5018ZM30.4525 33.9033V33.6431C30.8042 34.0503 31.3619 34.5903 32.3259 34.5903C33.4108 34.5903 33.9819 33.9061 34.323 33.4973C34.6078 33.1562 34.6484 33.141 34.7452 33.141C34.8421 33.141 34.8828 33.1562 35.1676 33.4974C35.5089 33.9061 36.0798 34.5903 37.1647 34.5903C38.1266 34.5903 38.6842 34.0527 39.0361 33.6458V33.9033C39.0361 34.5527 38.783 35.1632 38.3235 35.6223L34.7443 39.1984L31.1652 35.6223C30.7055 35.163 30.4525 34.5525 30.4525 33.9033ZM38.4236 62.913H31.2266C31.1742 62.6701 31.1459 62.4185 31.1459 62.1603V60.9323H38.5041V62.1603C38.5042 62.4185 38.4759 62.6701 38.4236 62.913ZM31.146 58.8833V56.8851H38.5042V58.8833H31.146ZM34.9299 65.7314H34.7203C33.8852 65.7314 33.1168 65.443 32.5077 64.9619H37.1424C36.5333 65.443 35.7649 65.7314 34.9299 65.7314Z" fill="white"/>
<path d="M65.916 24.0962C65.7874 23.545 65.2362 23.2023 64.6848 23.3306L60.3223 24.3463C59.7707 24.4747 59.4279 25.0255 59.5562 25.5767C59.6666 26.0498 60.0879 26.3692 60.5539 26.3692C60.6308 26.3692 60.7092 26.3605 60.7874 26.3423L65.1499 25.3267C65.7015 25.1981 66.0443 24.6474 65.916 24.0962Z" fill="white"/>
<path d="M50.7032 53.9668C50.4097 53.4828 49.7793 53.3286 49.295 53.6213C48.8106 53.9145 48.656 54.5445 48.9492 55.0283L51.2702 58.8562C51.4631 59.1742 51.8013 59.35 52.148 59.35C52.3291 59.35 52.5123 59.3021 52.6784 59.2017C53.1628 58.9085 53.3174 58.2785 53.0241 57.7947L50.7032 53.9668Z" fill="white"/>
<path d="M53.4771 7.9092C53.0182 7.57863 52.3772 7.68217 52.0458 8.14115L49.4261 11.7716C49.095 12.2305 49.1989 12.8707 49.6582 13.2017C49.8395 13.3323 50.0491 13.3953 50.2571 13.3953C50.5753 13.3953 50.8893 13.2475 51.0895 12.9698L53.7092 9.33929C54.0404 8.8803 53.9364 8.24005 53.4771 7.9092Z" fill="white"/>
<path d="M63.5947 42.0428L59.4241 40.4101C58.8964 40.204 58.3021 40.4635 58.0953 40.9903C57.8888 41.5171 58.1488 42.1114 58.676 42.3179L62.8466 43.9506C62.9695 43.9987 63.096 44.0213 63.2204 44.0213C63.63 44.0213 64.0169 43.7745 64.1754 43.3704C64.3818 42.8435 64.1219 42.2493 63.5947 42.0428Z" fill="white"/>
<path d="M34.9969 7.57525C35.5632 7.57525 36.0222 7.11668 36.0222 6.55088V1.90914C36.0222 1.34334 35.5632 0.884766 34.9969 0.884766C34.4306 0.884766 33.9717 1.34334 33.9717 1.90914V6.55088C33.9715 7.11668 34.4305 7.57525 34.9969 7.57525Z" fill="white"/>
<path d="M9.44568 26.3697C9.91148 26.3697 10.3331 26.0501 10.4433 25.5771C10.5717 25.0259 10.2288 24.4751 9.67729 24.3467L5.31473 23.331C4.7632 23.203 4.21195 23.5454 4.08357 24.0966C3.9552 24.6478 4.29809 25.1986 4.84961 25.3271L9.21217 26.3427C9.29051 26.3609 9.36871 26.3697 9.44568 26.3697Z" fill="white"/>
<path d="M20.7057 53.6214C20.2216 53.3286 19.5909 53.4827 19.2975 53.9668L16.9766 57.7947C16.6833 58.2785 16.8379 58.9086 17.3223 59.2017C17.4885 59.3021 17.6715 59.35 17.8527 59.35C18.1994 59.35 18.5378 59.1742 18.7305 58.8562L21.0515 55.0284C21.3449 54.5445 21.1901 53.9145 20.7057 53.6214Z" fill="white"/>
<path d="M19.7415 13.3952C19.9492 13.3952 20.1589 13.3322 20.3404 13.2016C20.7997 12.8706 20.9036 12.2304 20.5725 11.7715L17.9528 8.14121C17.6217 7.68223 16.9805 7.57855 16.5215 7.90926C16.0621 8.24025 15.9582 8.8805 16.2894 9.33935L18.909 12.9698C19.1093 13.2474 19.4232 13.3952 19.7415 13.3952Z" fill="white"/>
<path d="M10.576 40.4101L6.40542 42.0428C5.87823 42.2493 5.61833 42.8435 5.82478 43.3704C5.98323 43.7745 6.37015 44.0213 6.77976 44.0213C6.90417 44.0213 7.03077 43.9985 7.15355 43.9506L11.3241 42.3179C11.8513 42.1114 12.1112 41.5171 11.9048 40.9903C11.6982 40.4635 11.1031 40.204 10.576 40.4101Z" fill="white"/>
</g>
<defs>
<clipPath id="clip0">
<rect width="70" height="69.9402" fill="white" transform="translate(0 0.884766)"/>
</clipPath>
</defs>
</svg>
