<svg width="70" height="70" viewBox="0 0 70 70" fill="none" xmlns="http://www.w3.org/2000/svg">
<g clip-path="url(#clip0)">
<path d="M60.2073 61.3388H59.0409V27.2521H59.1114C60.2812 27.2521 61.2327 26.3014 61.2327 25.1326V22.9426C61.2327 21.7738 60.2812 20.8231 59.1114 20.8231H51.3691V18.492H52.5358C52.8911 18.492 53.2211 18.3081 53.408 18.0061C53.5949 17.704 53.6119 17.3269 53.4529 17.0093L52.003 14.1119H52.5358C52.8911 14.1119 53.2211 13.9281 53.408 13.6261C53.5949 13.324 53.6119 12.9469 53.4529 12.6293L52.003 9.73193H52.5358C52.8911 9.73193 53.2211 9.54806 53.408 9.24603C53.5949 8.944 53.6119 8.56684 53.4529 8.24924L51.2609 3.86922C51.0871 3.52211 50.7322 3.30287 50.3437 3.30287H49.1772V1.0421C49.1772 0.476289 48.7181 0.0175781 48.1519 0.0175781C47.5856 0.0175781 47.1265 0.476289 47.1265 1.0421V3.30259H45.96C45.5716 3.30259 45.2165 3.52184 45.0429 3.86895L42.851 8.24897C42.692 8.56657 42.7089 8.94373 42.8958 9.24576C43.0827 9.54779 43.4128 9.73165 43.7681 9.73165H44.3009L42.851 12.629C42.692 12.9466 42.7089 13.3238 42.8958 13.6258C43.0827 13.9278 43.4128 14.1117 43.7681 14.1117H44.3009L42.851 17.009C42.692 17.3266 42.7089 17.7038 42.8958 18.0058C43.0827 18.3078 43.4128 18.4917 43.7681 18.4917H44.9346V20.8228H38.2177V18.4917H39.3842C39.7395 18.4917 40.0696 18.3078 40.2565 18.0058C40.4433 17.7038 40.4603 17.3266 40.3013 17.009L38.8514 14.1117H39.3842C39.7395 14.1117 40.0696 13.9278 40.2565 13.6258C40.4433 13.3238 40.4603 12.9466 40.3013 12.629L38.8514 9.73165H39.3842C39.7395 9.73165 40.0696 9.54779 40.2565 9.24576C40.4433 8.94373 40.4603 8.56657 40.3013 8.24897L38.1093 3.86895C37.9356 3.52184 37.5806 3.30259 37.1922 3.30259H36.0257V1.0421C36.0257 0.476289 35.5666 0.0175781 35.0003 0.0175781C34.434 0.0175781 33.9749 0.476289 33.9749 1.0421V3.30259H32.8084C32.42 3.30259 32.0649 3.52184 31.8913 3.86895L29.6994 8.24897C29.5404 8.56657 29.5573 8.94373 29.7442 9.24576C29.9311 9.54779 30.2612 9.73165 30.6165 9.73165H31.1493L29.6994 12.629C29.5404 12.9466 29.5573 13.3238 29.7442 13.6258C29.9311 13.9278 30.2612 14.1117 30.6165 14.1117H31.1493L29.6994 17.009C29.5404 17.3266 29.5573 17.7038 29.7442 18.0058C29.9311 18.3078 30.2612 18.4917 30.6165 18.4917H31.783V20.8228H25.0661V18.4917H26.2326C26.5879 18.4917 26.918 18.3078 27.1049 18.0058C27.2918 17.7038 27.3087 17.3266 27.1497 17.009L25.6998 14.1117H26.2326C26.5879 14.1117 26.918 13.9278 27.1049 13.6258C27.2918 13.3238 27.3087 12.9466 27.1497 12.629L25.6998 9.73165H26.2326C26.5879 9.73165 26.918 9.54779 27.1049 9.24576C27.2918 8.94373 27.3087 8.56657 27.1497 8.24897L24.9578 3.86895C24.7842 3.52184 24.4291 3.30259 24.0407 3.30259H22.8742V1.0421C22.8742 0.476289 22.4151 0.0175781 21.8488 0.0175781C21.2826 0.0175781 20.8234 0.476289 20.8234 1.0421V3.30259H19.657C19.2685 3.30259 18.9135 3.52184 18.7398 3.86895L16.5478 8.24897C16.3888 8.56657 16.4058 8.94373 16.5927 9.24576C16.7796 9.54779 17.1096 9.73165 17.4649 9.73165H17.9977L16.5478 12.629C16.3888 12.9466 16.4058 13.3238 16.5927 13.6258C16.7796 13.9278 17.1096 14.1117 17.4649 14.1117H17.9977L16.5478 17.009C16.3888 17.3266 16.4058 17.7038 16.5927 18.0058C16.7796 18.3078 17.1096 18.4917 17.4649 18.4917H18.6316V20.8228H10.8892C9.71938 20.8228 8.76782 21.7736 8.76782 22.9423V25.1324C8.76782 26.3011 9.71938 27.2519 10.8892 27.2519H10.9597V61.3386H9.79321C8.62344 61.3386 7.67188 62.2893 7.67188 63.4581V67.8381C7.67188 69.0069 8.62344 69.9578 9.79321 69.9578H60.2073C61.3771 69.9578 62.3287 69.0069 62.3287 67.8381V63.4581C62.3287 62.2897 61.3771 61.3388 60.2073 61.3388ZM46.5935 5.35163H49.7099L50.8765 7.68262H45.427L46.5935 5.35163ZM46.5935 9.73179H49.7099L50.8765 12.0628H45.427L46.5935 9.73179ZM46.5935 14.1118H49.7099L50.8765 16.4428H45.427L46.5935 14.1118ZM49.3182 18.492V20.8231H46.9852V18.492H49.3182ZM33.4421 5.35163H36.5585L37.725 7.68262H32.2756L33.4421 5.35163ZM33.4421 9.73179H36.5585L37.725 12.0628H32.2756L33.4421 9.73179ZM33.4421 14.1118H36.5585L37.725 16.4428H32.2756L33.4421 14.1118ZM36.1668 18.492V20.8231H33.8338V18.492H36.1668ZM20.2907 5.35163H23.407L24.5735 7.68262H19.124L20.2907 5.35163ZM20.2907 9.73179H23.407L24.5735 12.0628H19.124L20.2907 9.73179ZM20.2907 14.1118H23.407L24.5735 16.4428H19.124L20.2907 14.1118ZM23.0152 18.492V20.8231H20.6822V18.492H23.0152ZM60.2073 67.909H9.79321C9.75425 67.909 9.72266 67.8774 9.72266 67.8384V63.4584C9.72266 63.4194 9.75425 63.3879 9.79321 63.3879H14.1775C14.7438 63.3879 15.2029 62.9292 15.2029 62.3634C15.2029 61.7975 14.7438 61.3388 14.1775 61.3388H13.0105V27.2521H20.8234V28.4176C20.8234 28.9834 21.2826 29.4422 21.8488 29.4422C22.4151 29.4422 22.8742 28.9834 22.8742 28.4176V27.2521H33.9749V28.4176C33.9749 28.9834 34.434 29.4422 35.0003 29.4422C35.5666 29.4422 36.0257 28.9834 36.0257 28.4176V27.2521H47.1263V28.4176C47.1263 28.9834 47.5854 29.4422 48.1517 29.4422C48.718 29.4422 49.1771 28.9834 49.1771 28.4176V27.2521H51.439C52.0053 27.2521 52.4644 26.7934 52.4644 26.2276C52.4644 25.6618 52.0053 25.2031 51.439 25.2031H10.8892C10.8502 25.2031 10.8186 25.1716 10.8186 25.1326V22.9426C10.8186 22.9037 10.8502 22.8721 10.8892 22.8721H59.1114C59.1504 22.8721 59.182 22.9037 59.182 22.9426V25.1326C59.182 25.1716 59.1504 25.2031 59.1114 25.2031H55.8229C55.2566 25.2031 54.7975 25.6618 54.7975 26.2276C54.7975 26.7934 55.2566 27.2521 55.8229 27.2521H56.9901V61.3388H18.5612C17.9949 61.3388 17.5358 61.7975 17.5358 62.3634C17.5358 62.9292 17.9949 63.3879 18.5612 63.3879H60.2073C60.2463 63.3879 60.2779 63.4194 60.2779 63.4584V67.8384C60.2779 67.8773 60.2463 67.909 60.2073 67.909Z" fill="white"/>
<path d="M47.0904 52.7781L36.7008 34.798C36.3456 34.1833 35.7096 33.8164 34.9992 33.8164C34.2888 33.8164 33.6528 34.1833 33.2976 34.798L22.908 52.7781C22.5528 53.3928 22.5528 54.1266 22.908 54.7413C23.2631 55.3559 23.8992 55.7229 24.6096 55.7229H45.3887C46.0991 55.7229 46.7353 55.3559 47.0904 54.7413C47.4456 54.1266 47.4456 53.3928 47.0904 52.7781ZM24.7584 53.6739L34.9992 35.9514L45.24 53.6739H24.7584Z" fill="white"/>
<path d="M37.1915 45.9558C36.9983 45.6935 36.6917 45.5385 36.3656 45.5385H35.0273L35.9787 42.4873C36.1471 41.9471 35.8454 41.3727 35.3047 41.2044C34.7639 41.0361 34.1892 41.3375 34.0206 41.8778L32.6548 46.2582C32.5578 46.5693 32.6147 46.9078 32.8079 47.1702C33.0011 47.4325 33.3077 47.5875 33.6338 47.5875H34.9722L34.0207 50.6388C33.8523 51.1791 34.154 51.7535 34.6948 51.9218C34.7963 51.9533 34.899 51.9684 35.0001 51.9684C35.437 51.9684 35.842 51.6871 35.9787 51.2483L37.3445 46.8678C37.4416 46.5567 37.3847 46.2181 37.1915 45.9558Z" fill="white"/>
</g>
<defs>
<clipPath id="clip0">
<rect width="70" height="69.9402" fill="white" transform="translate(0 0.0175781)"/>
</clipPath>
</defs>
</svg>
