<svg width="70" height="71" viewBox="0 0 70 71" fill="none" xmlns="http://www.w3.org/2000/svg">
<g clip-path="url(#clip0)">
<path d="M63.7098 68.2019V63.9888C63.7098 63.2343 63.0977 62.6228 62.3426 62.6228H59.6082V32.5706C60.3633 32.5706 60.9754 31.959 60.9754 31.2046V25.7405C60.9754 24.9861 60.3633 24.3745 59.6082 24.3745H40.4679V21.6425H41.835C42.5901 21.6425 43.2022 21.0309 43.2022 20.2765V9.34835C43.2022 8.5939 42.5901 7.98234 41.835 7.98234H36.3663V4.11242C41.2902 5.57378 46.7658 6.34325 52.3281 6.34325C58.6015 6.34325 64.4118 5.36587 69.1308 3.51697C69.8338 3.24158 70.1801 2.44888 69.9045 1.74662C69.6289 1.04421 68.8352 0.6982 68.1326 0.973588C59.1844 4.47946 45.7414 4.471 35.4414 0.952688C35.2846 0.89914 35.1193 0.875781 34.9539 0.881246C34.8022 0.8863 34.6505 0.916215 34.5088 0.970583C34.506 0.971676 34.503 0.972359 34.5 0.973588C25.552 4.47946 12.109 4.471 1.80899 0.952688C1.09464 0.708718 0.31739 1.08956 0.0729367 1.80344C-0.17138 2.51732 0.209792 3.2939 0.924284 3.53787C6.29733 5.37311 12.4426 6.34325 18.6955 6.34325C24.1654 6.34325 29.2826 5.59973 33.6319 4.18386V7.98247H28.1632C27.4081 7.98247 26.796 8.59404 26.796 9.34849V20.2766C26.796 21.0311 27.4081 21.6426 28.1632 21.6426H29.5304V24.3746H10.39C9.63491 24.3746 9.02282 24.9862 9.02282 25.7407V31.2047C9.02282 31.9592 9.63491 32.5707 10.39 32.5707V62.6228H7.65563C6.90053 62.6228 6.28844 63.2343 6.28844 63.9888V68.0868H1.36657C0.613249 68.0868 -0.000618017 68.7002 -0.000618017 69.4529C-0.000618017 70.2055 0.613249 70.8189 1.36657 70.8189H63.1628C63.9161 70.8189 64.5299 70.2055 64.5299 69.4529C64.5301 68.8944 64.1918 68.4133 63.7098 68.2019ZM29.5305 10.7145H40.4679V13.4465H29.5305V10.7145ZM29.5305 16.1786H40.4679V18.9106H29.5305V16.1786ZM37.7335 21.6426V24.3746H32.2647V21.6426H37.7335ZM11.7572 27.1067H58.241V29.8387H11.7572V27.1067ZM51.4052 51.6948H41.835C41.0799 51.6948 40.4679 52.3064 40.4679 53.0608V62.6229H29.5305V53.0608C29.5305 52.3064 28.9184 51.6948 28.1633 51.6948H18.5931C17.838 51.6948 17.2259 52.3064 17.2259 53.0608V62.6229H13.1244V32.5706H56.874V62.6228H52.7724V53.0607C52.7724 52.3064 52.1603 51.6948 51.4052 51.6948ZM50.038 54.4268V62.6229H43.2022V54.4268H50.038ZM26.7961 54.4268V62.6229H19.9603V54.4268H26.7961ZM60.9754 68.0868H9.02282V65.3548H60.9754V68.0868Z" fill="white"/>
<path d="M68.6309 68.0869C67.8775 68.0869 67.2637 68.7004 67.2637 69.4533C67.2637 70.2062 67.8775 70.8197 68.6309 70.8197C69.3842 70.8197 69.998 70.2062 69.998 69.4533C69.998 68.7004 69.3842 68.0869 68.6309 68.0869Z" fill="white"/>
<path d="M21.6006 46.231H18.5928C17.8377 46.231 17.2256 46.8427 17.2256 47.5974C17.2256 48.352 17.8377 48.9638 18.5928 48.9638H21.6006C22.3557 48.9638 22.9678 48.352 22.9678 47.5974C22.9678 46.8427 22.3557 46.231 21.6006 46.231Z" fill="white"/>
<path d="M24.335 40.7666H18.5928C17.8377 40.7666 17.2256 41.3783 17.2256 42.133C17.2256 42.8877 17.8377 43.4994 18.5928 43.4994H24.335C25.0901 43.4994 25.7022 42.8877 25.7022 42.133C25.7022 41.3783 25.0901 40.7666 24.335 40.7666Z" fill="white"/>
<path d="M18.5928 38.0355H21.3272C22.0805 38.0355 22.6943 37.422 22.6943 36.6691C22.6943 35.9163 22.0805 35.3027 21.3272 35.3027H18.5928C17.8395 35.3027 17.2256 35.9163 17.2256 36.6691C17.2256 37.422 17.8395 38.0355 18.5928 38.0355Z" fill="white"/>
<path d="M26.7959 35.3027C26.0426 35.3027 25.4287 35.9163 25.4287 36.6691C25.4287 37.422 26.0426 38.0355 26.7959 38.0355C27.5492 38.0355 28.1631 37.422 28.1631 36.6691C28.1631 35.9163 27.5491 35.3027 26.7959 35.3027Z" fill="white"/>
<path d="M51.4053 46.231H48.3975C47.6424 46.231 47.0303 46.8427 47.0303 47.5974C47.0303 48.352 47.6424 48.9638 48.3975 48.9638H51.4053C52.1604 48.9638 52.7725 48.352 52.7725 47.5974C52.7725 46.8427 52.1604 46.231 51.4053 46.231Z" fill="white"/>
<path d="M52.7725 42.133C52.7725 41.3783 52.1604 40.7666 51.4053 40.7666H45.6631C44.908 40.7666 44.2959 41.3783 44.2959 42.133C44.2959 42.8877 44.908 43.4994 45.6631 43.4994H51.4053C52.1604 43.4994 52.7725 42.8877 52.7725 42.133Z" fill="white"/>
<path d="M48.6709 38.0355H51.4053C52.1586 38.0355 52.7725 37.422 52.7725 36.6691C52.7725 35.9163 52.1586 35.3027 51.4053 35.3027H48.6709C47.9176 35.3027 47.3037 35.9163 47.3037 36.6691C47.3037 37.422 47.9176 38.0355 48.6709 38.0355Z" fill="white"/>
<path d="M43.2021 35.3027C42.4488 35.3027 41.835 35.9163 41.835 36.6691C41.835 37.422 42.4488 38.0355 43.2021 38.0355C43.9555 38.0355 44.5693 37.422 44.5693 36.6691C44.5693 35.9163 43.9555 35.3027 43.2021 35.3027Z" fill="white"/>
<path d="M37.8075 48.0416L36.6716 48.8362L39.1565 41.9105C39.3066 41.4921 39.2436 41.0269 38.9875 40.6634C38.7314 40.2999 38.3143 40.0835 37.8694 40.0835H34.4761L36.2212 36.5963C36.5588 35.9215 36.2851 35.1009 35.6097 34.7637C34.9344 34.4263 34.1131 34.6997 33.7755 35.3746L31.0412 40.8386C30.8292 41.2621 30.8519 41.7649 31.101 42.1676C31.3501 42.5703 31.7901 42.8155 32.264 42.8155H35.9269L33.5709 49.3821L31.9022 47.0011C31.4692 46.3831 30.6166 46.2329 29.9981 46.6656C29.3796 47.0984 29.2294 47.9501 29.6624 48.5681L32.8785 53.1572C33.1444 53.5367 33.5687 53.7398 33.9996 53.7398C34.2703 53.7398 34.5439 53.6596 34.7826 53.4926L39.3757 50.2793C39.9942 49.8467 40.1444 48.9948 39.7114 48.3768C39.2785 47.7591 38.426 47.6089 37.8075 48.0416Z" fill="white"/>
</g>
<defs>
<clipPath id="clip0">
<rect width="70" height="69.9399" fill="white" transform="translate(0 0.878906)"/>
</clipPath>
</defs>
</svg>
