<svg width="62" height="70" viewBox="0 0 62 70" fill="none" xmlns="http://www.w3.org/2000/svg">
<path d="M60.1664 37.3191H57.833V34.9877H60.1664C60.7451 34.9877 61.2362 34.5634 61.3203 33.991C61.4055 33.4187 61.0566 32.872 60.5014 32.7053L37.9999 25.9607V14.4067L52.2181 18.6684H40.3333C39.6881 18.6684 39.1667 19.1906 39.1667 19.834C39.1667 20.4774 39.6881 20.9996 40.3333 20.9996H55.4999V23.331H53.1665C52.5214 23.331 51.9999 23.8532 51.9999 24.4966C51.9999 25.14 52.5214 25.6623 53.1665 25.6623H60.1665C60.8117 25.6623 61.3332 25.14 61.3332 24.4966C61.3332 23.8532 60.8117 23.331 60.1665 23.331H57.8332V20.9996H60.1665C60.7453 20.9996 61.2364 20.5753 61.3204 20.003C61.4056 19.4306 61.0567 18.8839 60.5015 18.7173L37.6558 11.869L32.1443 0.669169C31.9494 0.272887 31.5469 0.0199004 31.1048 0.0175781H31.0966C30.6578 0.0175781 30.2553 0.263598 30.0559 0.655236L24.1257 12.3119C24.1198 12.3247 24.1221 12.3376 24.1164 12.3504C24.0826 12.4203 24.0732 12.4973 24.0534 12.5731C24.0346 12.6489 24.0102 12.7235 24.0078 12.8004C24.0078 12.8143 23.9996 12.8261 23.9996 12.84V18.6684H9.93429L21.9953 15.1236C22.6137 14.9428 22.9671 14.2948 22.7852 13.677C22.6043 13.0603 21.9591 12.7048 21.3373 12.8866L1.50407 18.715C0.947626 18.8793 0.595302 19.426 0.678017 20.0007C0.760869 20.5741 1.25319 20.9996 1.83302 20.9996H4.1664V23.331H1.83302C1.18784 23.331 0.666395 23.8532 0.666395 24.4966C0.666395 25.14 1.18784 25.6623 1.83302 25.6623H8.83302C9.47819 25.6623 9.99964 25.14 9.99964 24.4966C9.99964 23.8532 9.47819 23.331 8.83302 23.331H6.49964V20.9996H23.9996V32.6563H9.93429L21.9953 29.1115C22.6137 28.9307 22.9671 28.2827 22.7852 27.6649C22.6043 27.0482 21.9591 26.6939 21.3373 26.8745L1.50407 32.703C0.947626 32.8673 0.595302 33.414 0.678017 33.9887C0.760869 34.5622 1.25319 34.9877 1.83302 34.9877H4.1664V37.3191H1.83302C1.18784 37.3191 0.666395 37.8413 0.666395 38.4847C0.666395 39.1281 1.18784 39.6503 1.83302 39.6503H8.83302C9.47819 39.6503 9.99964 39.1281 9.99964 38.4847C9.99964 37.8413 9.47819 37.3191 8.83302 37.3191H6.49964V34.9877H23.6194L14.9523 65.2951H11.1664C10.5212 65.2951 9.99978 65.8174 9.99978 66.4608V68.7921C9.99978 69.4355 10.5212 69.9578 11.1664 69.9578C11.8116 69.9578 12.333 69.4355 12.333 68.7921V67.6265H15.8307H15.8343H46.1618H46.1653H49.6665V68.7921C49.6665 69.4355 50.188 69.9578 50.8332 69.9578C51.4783 69.9578 51.9998 69.4355 51.9998 68.7921V66.4608C51.9998 65.8174 51.4783 65.2951 50.8332 65.2951H47.0473L37.9998 33.6588V28.3946L52.218 32.6563H40.3332C39.688 32.6563 39.1665 33.1785 39.1665 33.8219C39.1665 34.4653 39.688 34.9875 40.3332 34.9875H55.4998V37.3189H53.1664C52.5212 37.3189 51.9998 37.8411 51.9998 38.4845C51.9998 39.1279 52.5212 39.6502 53.1664 39.6502H60.1664C60.8116 39.6502 61.333 39.1279 61.333 38.4845C61.333 37.8411 60.8116 37.3191 60.1664 37.3191ZM17.38 65.2951L21.1927 51.9646L28.8273 56.8172L20.6898 61.9916C20.1461 62.3366 19.9863 63.0581 20.3316 63.6014C20.5545 63.9499 20.9313 64.1411 21.3175 64.1411C21.5321 64.1411 21.748 64.0828 21.9428 63.9581L30.9996 58.1996L42.1588 65.295H17.38V65.2951ZM44.2005 63.8287L21.8612 49.625L24.5177 40.3335L28.8834 43.2138L24.5236 46.0896C23.9857 46.4439 23.8375 47.1678 24.1934 47.7052C24.4162 48.0444 24.7884 48.2274 25.1675 48.2274C25.388 48.2274 25.612 48.1657 25.8091 48.0351L30.9996 44.6103L39.3553 50.1228L33.8487 53.6244C33.3062 53.9706 33.1452 54.6898 33.4918 55.2341C33.7134 55.5827 34.0914 55.7738 34.4776 55.7738C34.6912 55.7738 34.9082 55.7144 35.103 55.5908L40.8068 51.9644L44.2005 63.8287ZM39.5118 47.4324L31.6484 42.2452C31.6471 42.244 31.6461 42.2429 31.6437 42.2416L25.1909 37.9835L26.0471 34.9877H33.333C33.9782 34.9877 34.4996 34.4654 34.4996 33.822C34.4996 33.1786 33.9782 32.6564 33.333 32.6564H26.333V27.9937H33.333C33.9782 27.9937 34.4996 27.4714 34.4996 26.828C34.4996 26.1846 33.9782 25.6624 33.333 25.6624H26.333V20.9996H33.333C33.9782 20.9996 34.4996 20.4774 34.4996 19.834C34.4996 19.1906 33.9782 18.6684 33.333 18.6684H26.333V14.0056H32.1664C32.8116 14.0056 33.333 13.4834 33.333 12.84C33.333 12.1966 32.8116 11.6744 32.1664 11.6744H27.068L31.0791 3.78984L35.6664 13.1117V33.8222C35.6664 33.9306 35.6816 34.0379 35.7107 34.1428L36.8096 37.9836L33.8977 39.9047C33.3598 40.259 33.2128 40.9829 33.5675 41.5192C33.7914 41.8596 34.1637 42.0425 34.5416 42.0425C34.7632 42.0425 34.9861 41.9807 35.1832 41.8501L37.4816 40.3336L39.5118 47.4324Z" fill="white"/>
</svg>
