<svg width="70" height="70" viewBox="0 0 70 70" fill="none" xmlns="http://www.w3.org/2000/svg">
<path d="M34.9995 38.3408C36.9325 38.3408 38.4995 36.7738 38.4995 34.8408C38.4995 32.9078 36.9325 31.3408 34.9995 31.3408C33.0665 31.3408 31.4995 32.9078 31.4995 34.8408C31.4995 36.7738 33.0665 38.3408 34.9995 38.3408Z" fill="white"/>
<path d="M35 0C15.75 0 0 15.75 0 35C0 54.25 15.75 70 35 70C54.25 70 70 54.25 70 35C70 15.75 54.25 0 35 0ZM35 66.8181C17.5 66.8181 3.18186 52.5 3.18186 35C3.18186 17.5 17.5 3.18186 35 3.18186C52.5 3.18186 66.8181 17.5 66.8181 35C66.8181 52.5 52.5 66.8181 35 66.8181Z" fill="white"/>
<path d="M49.9545 57.5906L41.2045 42.4771C41.0454 42.1589 40.5681 41.8406 40.25 41.6816C39.7727 41.5225 39.4546 41.6816 38.9773 41.8408C37.7046 42.6362 36.4318 42.9544 35 42.9544C34.0454 42.9544 33.4091 43.5908 33.4091 44.5452C33.4091 45.4996 34.0455 46.1361 35 46.1361C36.4318 46.1361 37.8636 45.8179 39.1364 45.3406L46.2955 57.7498C39.2955 61.2498 30.7047 61.2498 23.7047 57.7498L31.6593 44.0679C32.1365 43.2725 31.8184 42.3179 31.0228 41.8406C30.2273 41.3634 29.2728 41.6815 28.7955 42.4771L20.0455 57.5906C19.5683 58.3861 19.8864 59.3406 20.682 59.8179C24.9774 62.3634 29.9093 63.6361 35.0001 63.6361C40.091 63.6361 45.0228 62.3634 49.3183 59.8179C50.1136 59.3406 50.2727 58.3862 49.9545 57.5906Z" fill="white"/>
<path d="M59.8186 20.6818C57.2731 16.3863 53.614 12.7272 49.3186 10.1818C48.5231 9.70449 47.5686 10.0226 47.0913 10.8182L38.3413 25.9318C38.1821 26.2499 38.1821 26.7272 38.1821 27.2045C38.3413 27.6818 38.5003 27.9999 38.9776 28.1591C40.2503 28.7955 41.2048 29.7499 41.8411 31.0226C42.3184 31.8181 43.273 31.9772 44.0684 31.6591C44.8638 31.1818 45.023 30.2272 44.7048 29.4318C44.0684 28.1591 43.114 27.0454 42.0003 26.2499L49.1594 13.8408C52.3413 16.0681 55.2048 18.9316 57.114 22.2726C59.0231 25.6135 60.2958 29.4318 60.4548 33.4091H44.5458C43.5913 33.4091 42.955 34.0455 42.955 34.9999C42.955 35.9544 43.5914 36.5908 44.5458 36.5908H62.0458C63.0004 36.5908 63.6367 35.9544 63.6367 34.9999C63.6368 30.0681 62.364 24.9772 59.8186 20.6818Z" fill="white"/>
<path d="M31.6593 25.9319L22.9093 10.8184C22.4321 10.0229 21.4775 9.86378 20.6821 10.1819C16.3866 12.7274 12.7275 16.3865 10.1821 20.6819C7.63662 24.9774 6.36377 30.0682 6.36377 35.0001C6.36377 35.9546 7.0002 36.5909 7.95463 36.5909H25.4546C25.9319 36.5909 26.2501 36.4318 26.5682 36.1136C26.8863 35.7955 27.0455 35.4772 27.0455 35.0001C27.0455 33.5682 27.3636 32.2955 28.1591 31.0228C28.6363 30.2274 28.3182 29.2728 27.5226 28.7955C26.7272 28.3182 25.7726 28.6364 25.2954 29.4319C24.6589 30.7046 24.1818 31.9774 23.8635 33.4092H9.54563C9.86377 29.4319 10.9775 25.6138 12.8865 22.2728C14.7956 18.9319 17.6592 15.9092 20.8411 13.8409L28.7956 27.5228C29.2729 28.3182 30.2275 28.4774 31.0229 28.1592C31.8183 27.6819 31.9775 26.7274 31.6593 25.9319Z" fill="white"/>
</svg>
