<svg width="70" height="70" viewBox="0 0 70 70" fill="none" xmlns="http://www.w3.org/2000/svg">
<g clip-path="url(#clip0)">
<path d="M15.3142 54.878C14.22 53.7838 12.7653 53.1813 11.2182 53.1813C10.3043 53.1813 9.42325 53.3932 8.62905 53.7908C0.824719 42.7338 0.797648 27.5819 8.69509 16.4981C9.13313 15.8831 8.98985 15.0295 8.37489 14.5913C7.75993 14.1531 6.90625 14.2964 6.46807 14.9113C2.11179 21.0253 -0.123018 28.2451 0.00522461 35.7902C0.127315 42.9706 2.38181 49.7819 6.53547 55.5642C4.885 57.8282 5.08037 61.0277 7.12227 63.0699C8.25157 64.1991 9.73483 64.7637 11.2182 64.7637C12.7016 64.7637 14.1849 64.1991 15.3142 63.0699C17.5727 60.8113 17.5727 57.1366 15.3142 54.878ZM13.3806 61.1363C12.188 62.3286 10.2481 62.3286 9.05575 61.1363C7.86329 59.9438 7.86329 58.0037 9.05575 56.8113C9.63339 56.2337 10.4013 55.9155 11.2181 55.9155C12.0349 55.9155 12.8029 56.2337 13.3804 56.8113C14.573 58.0038 14.573 59.944 13.3806 61.1363Z" fill="white"/>
<path d="M55.7761 61.68C55.3344 61.0681 54.4799 60.9303 53.8675 61.3725C49.959 64.1968 45.5653 66.0678 40.8083 66.9336C39.706 67.1343 38.5819 66.8389 37.7243 66.1233C36.8728 65.4129 36.3846 64.3692 36.3846 63.26V53.2387H36.5039C38.087 53.2387 39.375 51.9508 39.375 50.3676V48.0594C44.0061 46.2916 47.3047 41.8037 47.3047 36.5591V30.0862C49.5081 29.4843 51.1329 27.4662 51.1329 25.0747C51.1329 22.4419 49.1637 20.2617 46.6211 19.9258V11.4028C46.6211 9.14123 44.7812 7.30127 42.5196 7.30127C40.258 7.30127 38.418 9.14123 38.418 11.4028V19.8794H31.5821V11.4028C31.5821 9.14123 29.7421 7.30127 27.4805 7.30127C25.2189 7.30127 23.3789 9.14123 23.3789 11.4028V19.9258C20.8364 20.2617 18.8672 22.4418 18.8672 25.0747C18.8672 27.4662 20.492 29.4843 22.6953 30.0862V36.5591C22.6953 41.8037 25.9939 46.2916 30.625 48.0594V50.3678C30.625 51.951 31.9131 53.2389 33.4961 53.2389H33.6502V63.2601C33.6502 65.1826 34.4966 66.9914 35.9724 68.2229C37.1502 69.2056 38.618 69.7299 40.1258 69.7299C40.5153 69.7299 40.9074 69.6949 41.2979 69.6238C46.4593 68.6843 51.2271 66.6539 55.4686 63.5889C56.0807 63.1466 56.2183 62.292 55.7761 61.68ZM41.1525 11.4028C41.1525 10.649 41.7658 10.0356 42.5197 10.0356C43.2736 10.0356 43.8869 10.649 43.8869 11.4028V19.8794H41.1525V11.4028ZM26.1134 11.4028C26.1134 10.649 26.7268 10.0356 27.4806 10.0356C28.2345 10.0356 28.8478 10.649 28.8478 11.4028V19.8794H26.1134V11.4028ZM21.6017 25.0747C21.6017 23.7178 22.7057 22.6138 24.0626 22.6138H45.9377C47.2946 22.6138 48.3986 23.7178 48.3986 25.0747C48.3986 26.4317 47.2946 27.5357 45.9377 27.5357H24.0626C22.7057 27.5357 21.6017 26.4317 21.6017 25.0747ZM25.4298 36.5591V30.2701H44.5705V36.5591C44.5705 41.8362 40.2772 46.1295 35.0002 46.1295C29.7231 46.1295 25.4298 41.8362 25.4298 36.5591ZM35.052 50.5045C35.0405 50.5042 35.0292 50.5027 35.0177 50.5027C35.0062 50.5027 34.9948 50.5042 34.9834 50.5045H33.4965C33.4208 50.5045 33.3595 50.4431 33.3595 50.3678V48.7542C33.8964 48.8261 34.444 48.8638 35.0002 48.8638C35.5563 48.8638 36.1039 48.8261 36.6408 48.7542V50.3678C36.6408 50.4431 36.5795 50.5045 36.5041 50.5045H35.052Z" fill="white"/>
<path d="M59.7151 57.9746C59.1733 57.4687 58.329 57.4883 57.8109 58.0121C57.8004 58.0227 57.7898 58.0337 57.7798 58.0442C57.2646 58.5963 57.2945 59.4613 57.8464 59.9766C58.11 60.2225 58.4448 60.3442 58.779 60.3442C59.1321 60.3442 59.4845 60.2082 59.7507 59.9391C59.7612 59.9285 59.7717 59.9175 59.7817 59.907C60.297 59.3549 60.267 58.4899 59.7151 57.9746Z" fill="white"/>
<path d="M69.9065 32.6364C69.2974 24.2667 65.6898 16.3851 59.7487 10.4437C53.9091 4.60378 46.1085 1.02912 37.7838 0.378473C29.5606 -0.264516 21.3765 1.96701 14.7363 6.6614C14.1197 7.09726 13.9733 7.95052 14.4091 8.56699C14.8448 9.18345 15.6982 9.33015 16.3147 8.89416C29.0122 -0.082406 46.8535 1.4148 57.8152 12.3772C69.1433 23.7059 70.5131 41.2982 61.072 54.2078C60.6263 54.8173 60.759 55.6726 61.3685 56.1184C61.6119 56.2964 61.8945 56.3821 62.1746 56.3821C62.5959 56.3821 63.0115 56.1881 63.2793 55.8219C68.1558 49.1535 70.5096 40.9195 69.9065 32.6364Z" fill="white"/>
<path d="M12.018 10.6017C11.4817 10.0703 10.616 10.0739 10.0844 10.6104L10.0621 10.633C9.53057 11.1693 9.53454 12.035 10.0708 12.5665C10.3374 12.8307 10.6853 12.9626 11.0333 12.9626C11.385 12.9626 11.7369 12.8275 12.0044 12.5579L12.0267 12.5352C12.5582 11.999 12.5543 11.1333 12.018 10.6017Z" fill="white"/>
<path d="M38.082 36.0528C37.837 35.6326 37.3872 35.3742 36.9008 35.3742H35.9238L37.7233 33.1011C38.192 32.5091 38.0919 31.6491 37.4999 31.1806C36.9079 30.7118 36.0479 30.812 35.5793 31.4039L32.0257 35.8927C31.7003 36.3039 31.6386 36.8648 31.8669 37.3368C32.0953 37.8087 32.5734 38.1085 33.0977 38.1085H34.5551L32.8809 41.0647C32.5087 41.7218 32.7398 42.556 33.3966 42.928C33.6096 43.0486 33.8408 43.1059 34.0692 43.1059C34.546 43.1058 35.0087 42.8563 35.2603 42.4122L38.0905 37.4151C38.3303 36.9918 38.327 36.4731 38.082 36.0528Z" fill="white"/>
</g>
<defs>
<clipPath id="clip0">
<rect width="70" height="70" fill="white"/>
</clipPath>
</defs>
</svg>
