<svg width="64" height="64" viewBox="0 0 64 64" fill="none" xmlns="http://www.w3.org/2000/svg">
<path d="M63.5 32C63.5 49.397 49.397 63.5 32 63.5C14.603 63.5 0.5 49.397 0.5 32C0.5 14.603 14.603 0.5 32 0.5C49.397 0.5 63.5 14.603 63.5 32Z" stroke="white"/>
<path d="M29.9865 31.997C22.0629 31.997 15.57 31.987 15.5579 31.9749C15.5458 31.9628 15.5398 31.7516 15.5447 31.5056L15.5534 31.0583L29.9512 31.0505C37.87 31.0462 44.3698 31.0348 44.3952 31.0252C44.4262 31.0134 42.9371 29.5033 39.885 26.4512C37.3789 23.9452 35.3285 21.8736 35.3285 21.8477C35.3285 21.7952 35.8972 21.2108 35.9483 21.2108C36.0006 21.2108 46.2422 31.4672 46.2422 31.5196C46.2422 31.5713 36.0012 41.8286 35.9496 41.8286C35.8983 41.8286 35.3285 41.2453 35.3285 41.1928C35.3285 41.1662 37.3752 39.0979 39.8766 36.5965C42.3781 34.0951 44.4177 32.0369 44.4089 32.0227C44.4001 32.0085 37.9101 31.997 29.9865 31.997Z" fill="white"/>
</svg>
