<svg width="70" height="70" viewBox="0 0 70 70" fill="none" xmlns="http://www.w3.org/2000/svg">
<g clip-path="url(#clip0)">
<path d="M62.58 0.270426C62.3257 0.0581019 61.9932 -0.0329527 61.6654 0.0114808C61.3387 0.0593324 61.0459 0.243629 60.8627 0.518981L56.1961 7.51898C56.0689 7.71025 56 7.93666 56 8.16648V18.6665H4.66662C2.09303 18.6665 0 20.7595 0 23.3331C0 25.9068 2.09303 27.9997 4.66662 27.9997H7V37.3331H1.16662C0.522676 37.3331 0 37.8558 0 38.4997V45.4997C0 46.1437 0.522676 46.6663 1.16662 46.6663H15.1666C15.8106 46.6663 16.3332 46.1437 16.3332 45.4997V38.4997C16.3332 37.8558 15.8106 37.3331 15.1666 37.3331H12.8334C12.1894 37.3331 11.6668 37.8558 11.6668 38.4997C11.6668 39.1437 12.1894 39.6663 12.8334 39.6663H14V44.333H2.33338V39.6663H8.16676C8.8107 39.6663 9.33338 39.1437 9.33338 38.4997V27.9997H28V33.6697L18.9537 65.3331H15.1668C14.5228 65.3331 14.0001 65.8558 14.0001 66.4997V68.8331C14.0001 69.477 14.5228 69.9997 15.1668 69.9997C15.8107 69.9997 16.3334 69.477 16.3334 68.8331V67.6665H19.8298H19.8334H19.8369H50.1632H50.1668H50.1703H53.6668V68.8331C53.6668 69.477 54.1894 69.9997 54.8334 69.9997C55.4773 69.9997 56 69.477 56 68.8331V66.4997C56 65.8558 55.4773 65.3331 54.8334 65.3331H51.0464L42 33.6697V27.9997H56.9298L66.8454 32.2033C65.6087 38.4613 63.273 42.0522 61.9873 43.6272L58.3334 38.1462V31.4997C58.3334 30.8558 57.8107 30.3331 57.1668 30.3331C56.5228 30.3331 56.0001 30.8558 56.0001 31.4997V38.4997C56.0001 38.7295 56.0689 38.956 56.1962 39.1472L60.6669 45.8533V61.8331C60.6669 62.477 61.1896 62.9997 61.8335 62.9997C62.4775 62.9997 63.0001 62.477 63.0001 61.8331V46.0026C64.581 44.4113 70.0001 37.8978 70.0001 23.3331C70 6.64508 62.8834 0.522399 62.58 0.270426ZM58.3334 8.5199L61.9873 3.04007C63.2741 4.6174 65.6086 8.20845 66.8454 14.4629L58.3334 18.0715V8.5199ZM21.3804 65.3331L25.1918 51.9899L32.8277 56.849L24.6902 62.0267C24.1464 62.372 23.9866 63.0942 24.332 63.6379C24.5548 63.9867 24.9329 64.1781 25.3179 64.1781C25.5325 64.1781 25.7495 64.1197 25.9432 63.9961L35 58.2317L46.1591 65.3331H21.3804ZM48.2009 63.8654L25.8614 49.6495L28.5179 40.3501L32.8824 43.2329L28.5236 46.1111C27.9858 46.4658 27.8376 47.1903 28.1935 47.7281C28.4174 48.0676 28.7885 48.2508 29.1676 48.2508C29.3881 48.2508 29.611 48.189 29.8092 48.0583L35 44.6306L43.3557 50.1478L37.8491 53.6524C37.3066 53.9988 37.1455 54.7187 37.4921 55.2636C37.715 55.6124 38.0918 55.8038 38.4768 55.8038C38.6914 55.8038 38.9084 55.7443 39.1032 55.6206L44.8082 51.9899L48.2009 63.8654ZM43.512 47.4551L29.19 37.9969L30.2879 34.1538C30.3182 34.0488 30.3334 33.9415 30.3334 33.833V27.9996H39.6668V33.833C39.6668 33.9415 39.6819 34.0488 39.7123 34.1538L40.8101 37.9969L37.8982 39.9206C37.3603 40.2753 37.2133 40.9998 37.568 41.5365C37.7919 41.8772 38.163 42.0603 38.5421 42.0603C38.7626 42.0603 38.9866 41.9985 39.1837 41.8678L41.4821 40.3499L43.512 47.4551ZM58.3334 26.0595V24.4997C58.3334 23.8558 57.8107 23.3331 57.1668 23.3331C56.5228 23.3331 56.0001 23.8558 56.0001 24.4997V25.6663H4.66662C3.37982 25.6663 2.33324 24.6199 2.33324 23.333C2.33324 22.0462 3.37969 20.9996 4.66662 20.9996H57.1666C57.3277 20.9996 57.4816 20.9669 57.6216 20.9074L67.2396 16.8312C67.5045 18.7772 67.6666 20.932 67.6666 23.333C67.6666 25.734 67.5045 27.8888 67.2396 29.8348L58.3334 26.0595Z" fill="white"/>
<path d="M8.20131 22.1665H8.18969C7.54574 22.1665 7.02881 22.6892 7.02881 23.3331C7.02881 23.9771 7.55736 24.4997 8.20131 24.4997C8.84648 24.4997 9.36793 23.9771 9.36793 23.3331C9.36806 22.6892 8.84648 22.1665 8.20131 22.1665Z" fill="white"/>
<path d="M35.0353 22.1665H35.0237C34.3797 22.1665 33.8628 22.6892 33.8628 23.3331C33.8628 23.9771 34.3914 24.4997 35.0353 24.4997C35.6805 24.4997 36.2019 23.9771 36.2019 23.3331C36.2019 22.6892 35.6805 22.1665 35.0353 22.1665Z" fill="white"/>
</g>
<defs>
<clipPath id="clip0">
<rect width="70" height="70" fill="white"/>
</clipPath>
</defs>
</svg>
