<svg width="83" height="10" viewBox="0 0 83 10" fill="none" xmlns="http://www.w3.org/2000/svg">
<path d="M32.4482 7.35059H34.6681V9.73765H32.4482V7.35059Z" fill="#2E56F6"/>
<path d="M12.969 2.16711C11.3883 2.16711 10.1401 3.29091 10.1401 4.9893C10.1401 6.29899 10.883 7.26648 11.9497 7.64249C12.0188 7.66784 12.0923 7.68896 12.1656 7.71009V9.86899C12.0923 9.85633 12.0188 9.84366 11.9497 9.83099C9.65205 9.38312 7.92017 7.43547 7.92017 4.99352C7.92017 2.20091 10.179 0.0546875 12.969 0.0546875C15.7547 0.0546875 18.0178 2.19668 18.0178 4.99352C18.0178 5.5681 17.9184 6.64965 17.2059 7.71009C16.0873 9.3789 14.2819 9.78023 13.8933 9.85633V7.68052C14.148 7.60024 14.5842 7.4228 14.9859 7.03412C15.7849 6.25674 15.8022 5.24701 15.8022 4.99352C15.7979 3.29514 14.5497 2.16711 12.969 2.16711Z" fill="#0A143D"/>
<path d="M2.21992 9.73769H0V4.71856H3.8827C4.49167 4.71856 4.99266 4.19046 4.99266 3.49758C4.99266 2.80471 4.49167 2.27661 3.8827 2.27661H0V0.240234H3.8827C5.72687 0.240234 7.21258 1.69358 7.21258 3.49758C7.21258 4.66364 6.49133 5.72407 5.42455 6.25217L7.48899 9.73769H5.10496L3.27373 6.61551H2.21992V9.73769Z" fill="#0A143D"/>
<path d="M32.0553 0.240234L31.4808 2.27661H29.2091L29.723 0.240234H32.0553ZM28.0473 6.89012L26.1772 0.24446H24.3762L22.5061 6.89012L20.8303 0.24446H18.5024L21.1802 9.73769H23.7024L25.2831 4.13553L26.8639 9.73769H29.3862L30.833 4.60449H28.6303L28.0473 6.89012Z" fill="#0A143D"/>
<path d="M69.5199 0.244805H71.7397V9.73804H69.5199V0.244805ZM40.9545 4.07251C40.337 3.97533 39.8057 3.99223 39.5379 3.59933C39.3997 3.40075 39.3609 3.13459 39.4429 2.90645C39.5725 2.54312 40.013 2.29808 40.5356 2.34033H42.5568L41.3303 0.253255H40.5313C40.406 0.24903 38.3718 0.185659 37.4519 1.55873C37.007 2.2178 36.9898 2.95293 36.9898 2.95293C36.9854 3.15149 36.9941 3.71762 37.318 4.2753C37.819 5.14139 38.8253 5.56387 39.8489 5.84271C41.3043 6.23562 41.8615 6.46798 41.8615 7.05101C41.8615 7.41857 41.5981 7.82415 40.5442 7.82415C39.4472 7.82415 38.8512 7.29605 38.5057 6.51023L36.5881 7.58334C37.128 8.98176 38.4323 9.92813 40.4708 9.92813C42.5784 9.92813 44.0771 8.84234 44.0771 7.01299C44.0771 6.44686 43.9475 6.00325 43.7273 5.64414C42.9672 4.41472 41.0971 4.09363 40.9545 4.07251ZM44.5565 2.3361H47.0744V9.74223H49.2943V0.244805H43.3343L44.5565 2.3361ZM63.8836 0.244805H56.1873V6.32012C56.1873 7.03833 55.8418 7.65093 54.6628 7.65093C53.4837 7.65093 53.1382 7.04256 53.1382 6.32012V0.244805H50.9182V6.51023C50.9182 8.5466 52.5249 9.76756 54.6628 9.76756C56.7963 9.76756 58.4073 8.5466 58.4073 6.51023V2.33188C60.2342 2.33188 62.0568 2.33188 63.8836 2.33188C65.4082 2.33188 66.462 3.36273 66.462 4.9893C66.462 6.61585 65.4082 7.64672 63.8836 7.64672H62.2208V3.84858H60.0009V9.73375H63.8836C66.5613 9.73375 68.5999 7.67206 68.5999 4.98507C68.5999 2.29808 66.5613 0.244805 63.8836 0.244805ZM77.9287 0.0546875C75.143 0.0546875 72.8799 2.19668 72.8799 4.99352C72.8799 7.49039 74.6852 9.46762 77.0607 9.86051V7.69741C75.9161 7.36365 75.0998 6.36659 75.0998 4.99774C75.0998 3.30358 76.348 2.17555 77.9287 2.17555C79.5094 2.17555 80.7577 3.29936 80.7577 4.99774C80.7577 6.36659 79.9414 7.36365 78.7969 7.69741V9.86051C81.1723 9.46762 82.9775 7.49462 82.9775 4.99352C82.9733 2.20091 80.7144 0.0546875 77.9287 0.0546875Z" fill="#0A143D"/>
</svg>
