<svg width="68" height="68" viewBox="0 0 68 68" fill="none" xmlns="http://www.w3.org/2000/svg">
<g clip-path="url(#clip0)">
<path d="M67.9485 64.4892C67.7744 63.9672 67.2106 63.6854 66.6886 63.8592L60.4028 65.9548L54.1174 63.8594C53.9127 63.7911 53.6917 63.7911 53.4873 63.8594L52.153 64.3042L59.1373 45.3463C59.229 45.0977 59.2176 44.823 59.1062 44.5826C58.9948 44.3423 58.7921 44.1563 58.5432 44.0657L54.7189 42.6751L52.5693 24.6359C52.2827 21.88 49.9768 19.8028 47.2019 19.8028H43.7972V16.3986C43.7972 15.8484 43.3514 15.4025 42.8011 15.4025H40.4967V6.39348H40.6007C41.1509 6.39348 41.5968 5.94763 41.5968 5.39739V0.997067C41.5968 0.446826 41.1509 0.000976562 40.6007 0.000976562H27.3992C26.8489 0.000976562 26.4031 0.446826 26.4031 0.997067V5.39739C26.4031 5.94763 26.8489 6.39348 27.3992 6.39348H27.5033V15.4027H25.199C24.6488 15.4027 24.2029 15.8485 24.2029 16.3987V19.803H20.7983C18.0236 19.803 15.7177 21.88 15.4308 24.6359L13.2813 42.6751L9.45682 44.0657C9.20793 44.1563 9.00539 44.3423 8.89383 44.5826C8.78227 44.823 8.77098 45.0978 8.86275 45.3463L10.3352 49.3432C10.3355 49.3441 10.3358 49.345 10.336 49.3459C10.3363 49.3469 10.3368 49.3477 10.3371 49.3485L15.8472 64.3042L14.513 63.8594C14.3083 63.7911 14.0876 63.7911 13.8829 63.8594L7.59679 65.9548L1.31133 63.8592C0.788979 63.6847 0.225192 63.9672 0.0513409 64.4892C-0.12251 65.0111 0.15945 65.5752 0.681268 65.7492L7.28176 67.9495C7.48642 68.0177 7.70715 68.0177 7.91182 67.9495L14.1978 65.8541L17.1689 66.8446C17.1693 66.8447 17.1697 66.8449 17.1701 66.845L20.4833 67.9495C20.6877 68.0177 20.9087 68.0177 21.1133 67.9495L27.3992 65.8541L33.6846 67.9495C33.6861 67.95 33.6878 67.9501 33.6893 67.9507C33.7345 67.9654 33.7811 67.9767 33.8287 67.9849C33.8378 67.9865 33.8468 67.9877 33.8558 67.989C33.903 67.9958 33.9507 68.0006 33.9997 68.0006C34.0487 68.0006 34.0964 67.9958 34.1434 67.989C34.1524 67.9877 34.1614 67.9865 34.1705 67.9849C34.2182 67.9767 34.2648 67.9654 34.3099 67.9507C34.3115 67.9501 34.3131 67.95 34.3146 67.9495L40.6006 65.8541L46.886 67.9495C47.0904 68.0177 47.3114 68.0177 47.5161 67.9495L53.8019 65.8541L60.0874 67.9495C60.2918 68.0177 60.5128 68.0177 60.7175 67.9495L67.3182 65.7492C67.8406 65.5753 68.1225 65.0111 67.9485 64.4892ZM53.4463 44.3322L56.9221 45.5961L56.1394 47.7206L34.996 39.9075V37.623L53.4318 44.327C53.4366 44.3288 53.4414 44.3304 53.4463 44.3322ZM39.6045 1.99316V4.4013H28.3951V1.99316H39.6045ZM29.4954 12.4391V6.39348H38.5044V7.03377L29.4954 12.4391ZM38.5044 9.35692V15.4025H29.4954V14.7622L38.5044 9.35692ZM26.1951 17.3948H41.8049V19.803H26.1951V17.3948ZM20.7983 21.795H25.1938C25.1956 21.795 25.1973 21.7953 25.199 21.7953C25.2008 21.7953 25.2025 21.795 25.2042 21.795H42.7959C42.7977 21.795 42.7993 21.7953 42.8011 21.7953C42.8029 21.7953 42.8046 21.795 42.8063 21.795H47.2019C48.7305 21.795 50.0331 22.7935 50.4593 24.2036H17.541C17.9671 22.7936 19.2696 21.795 20.7983 21.795ZM17.2513 26.1958H50.7487L52.6215 41.9125L34.3403 35.2647C34.3369 35.2635 34.3333 35.2631 34.3298 35.2619C34.2814 35.2449 34.2314 35.2314 34.1799 35.2219C34.1727 35.2206 34.1657 35.2198 34.1585 35.2186C34.1067 35.2102 34.054 35.2048 33.9999 35.2048C33.9459 35.2048 33.8932 35.2102 33.8414 35.2186C33.8342 35.2198 33.8272 35.2206 33.82 35.2219C33.7685 35.2314 33.7185 35.2449 33.67 35.2619C33.6666 35.2631 33.6629 35.2635 33.6594 35.2647L15.3782 41.9123L17.2513 26.1958ZM11.0777 45.5963L14.5491 44.3339C14.5518 44.333 14.5544 44.332 14.5571 44.331L33.0039 37.623V39.9075L11.8603 47.7206L11.0777 45.5963ZM47.2015 65.9548L40.916 63.8594C40.7113 63.7911 40.4906 63.7911 40.2859 63.8594L34.996 65.6227V59.9834C34.996 59.4332 34.5502 58.9873 33.9999 58.9873C33.4497 58.9873 33.0039 59.4332 33.0039 59.9834V65.6227L27.7145 63.8594C27.5098 63.7911 27.2888 63.7911 27.0844 63.8594L20.7986 65.9548L18.2676 65.111L12.5491 49.5899L33.0039 42.0315V56.0032C33.0039 56.5534 33.4497 56.9992 33.9999 56.9992C34.5502 56.9992 34.996 56.5534 34.996 56.0032V42.0315L55.4507 49.5901L49.7326 65.111L47.2015 65.9548Z" fill="white"/>
<path d="M27.3986 47.3052C26.8483 47.3052 26.4025 47.751 26.4025 48.3013V51.5409L19.4652 53.4325L18.6634 51.2563C18.4733 50.7401 17.9009 50.4757 17.3844 50.6661C16.8682 50.8563 16.6039 51.4289 16.7942 51.9451L17.9117 54.9781C18.0588 55.3779 18.438 55.63 18.8459 55.63C18.9326 55.63 19.0208 55.6185 19.1083 55.5946L27.6607 53.2626C28.0942 53.1444 28.3948 52.7509 28.3948 52.3017V48.3013C28.3946 47.7512 27.9488 47.3052 27.3986 47.3052Z" fill="white"/>
<path d="M50.6139 50.666C50.0974 50.4762 49.5251 50.7402 49.3348 51.2563L48.5331 53.4325L41.5957 51.5409V48.3013C41.5957 47.751 41.1498 47.3052 40.5996 47.3052C40.0494 47.3052 39.6035 47.751 39.6035 48.3013V52.3017C39.6035 52.7509 39.9042 53.1445 40.3376 53.2626L48.89 55.5948C48.9774 55.6185 49.0654 55.63 49.1524 55.63C49.5604 55.63 49.9396 55.3779 50.0869 54.9781L51.2042 51.9451C51.3944 51.4289 51.13 50.8563 50.6139 50.666Z" fill="white"/>
<path d="M25.1987 27.5029H19.1478C18.6455 27.5029 18.2217 27.8769 18.1594 28.3754L17.6093 32.7757C17.5738 33.0593 17.6619 33.3443 17.8509 33.5586C18.04 33.7727 18.312 33.8954 18.5977 33.8954H25.1985C25.7488 33.8954 26.1946 33.4496 26.1946 32.8993V28.499C26.1948 27.9488 25.7488 27.5029 25.1987 27.5029ZM19.726 31.9033L20.0271 29.4951H24.2024V31.9033H19.726Z" fill="white"/>
<path d="M39.5012 27.5029H28.5C27.9498 27.5029 27.5039 27.9488 27.5039 28.499V32.8993C27.5039 33.4496 27.9498 33.8954 28.5 33.8954H39.5012C40.0515 33.8954 40.4973 33.4495 40.4973 32.8993V28.499C40.4973 27.9488 40.0515 27.5029 39.5012 27.5029ZM38.5051 31.9033H29.4961V29.4951H38.5051V31.9033Z" fill="white"/>
<path d="M50.3902 32.7757L49.8401 28.3754C49.7777 27.8769 49.354 27.5029 48.8517 27.5029H42.8008C42.2505 27.5029 41.8047 27.9488 41.8047 28.499V32.8993C41.8048 33.4495 42.2507 33.8954 42.8009 33.8954H49.4018C49.6875 33.8954 49.9595 33.7727 50.1486 33.5586C50.3376 33.3444 50.4256 33.0593 50.3902 32.7757ZM43.7971 31.9033V29.4951H47.9725L48.2736 31.9033H43.7971Z" fill="white"/>
</g>
<defs>
<clipPath id="clip0">
<rect width="68" height="68" fill="white"/>
</clipPath>
</defs>
</svg>
