<svg width="62" height="70" viewBox="0 0 62 70" fill="none" xmlns="http://www.w3.org/2000/svg">
<path d="M60.1664 37.3334H57.833V35H60.1664C60.7451 35 61.2362 34.5754 61.3203 34.0025C61.4055 33.4296 61.0566 32.8825 60.5014 32.7157L37.9999 25.9654V14.4014L52.2181 18.6668H40.3333C39.6881 18.6668 39.1667 19.1894 39.1667 19.8334C39.1667 20.4773 39.6881 21 40.3333 21H55.4999V23.3334H53.1665C52.5214 23.3334 51.9999 23.8561 51.9999 24.5C51.9999 25.1439 52.5214 25.6666 53.1665 25.6666H60.1665C60.8117 25.6666 61.3332 25.1439 61.3332 24.5C61.3332 23.8561 60.8117 23.3334 60.1665 23.3334H57.8332V21H60.1665C60.7453 21 61.2364 20.5754 61.3204 20.0025C61.4056 19.4296 61.0567 18.8825 60.5015 18.7157L37.6558 11.8616L32.1442 0.652148C31.9494 0.255527 31.5469 0.00232422 31.1048 0H31.0966C30.6578 0 30.2553 0.24623 30.0559 0.638203L24.1257 12.3048C24.1198 12.3177 24.1221 12.3305 24.1164 12.3434C24.0826 12.4134 24.0732 12.4904 24.0534 12.5662C24.0346 12.6421 24.0102 12.7168 24.0078 12.7937C24.0078 12.8077 23.9996 12.8194 23.9996 12.8334V18.6668H9.93429L21.9953 15.1189C22.6137 14.938 22.9671 14.2894 22.7852 13.6711C22.6043 13.0539 21.9591 12.698 21.3373 12.88L1.50407 18.7134C0.947626 18.8779 0.595302 19.425 0.678017 20.0002C0.760869 20.5741 1.25319 21 1.83302 21H4.1664V23.3334H1.83302C1.18784 23.3334 0.666395 23.8561 0.666395 24.5C0.666395 25.1439 1.18784 25.6666 1.83302 25.6666H8.83302C9.47819 25.6666 9.99964 25.1439 9.99964 24.5C9.99964 23.8561 9.47819 23.3334 8.83302 23.3334H6.49964V21H23.9996V32.6666H9.93429L21.9953 29.1188C22.6137 28.9379 22.9671 28.2893 22.7852 27.6709C22.6043 27.0538 21.9591 26.6991 21.3373 26.8799L1.50407 32.7134C0.947626 32.8778 0.595302 33.425 0.678017 34.0002C0.760869 34.5741 1.25319 35 1.83302 35H4.1664V37.3334H1.83302C1.18784 37.3334 0.666395 37.8561 0.666395 38.5C0.666395 39.1439 1.18784 39.6666 1.83302 39.6666H8.83302C9.47819 39.6666 9.99964 39.1439 9.99964 38.5C9.99964 37.8561 9.47819 37.3334 8.83302 37.3334H6.49964V35H23.6194L14.9523 65.3334H11.1664C10.5212 65.3334 9.99978 65.8561 9.99978 66.5V68.8334C9.99978 69.4773 10.5212 70 11.1664 70C11.8116 70 12.333 69.4773 12.333 68.8334V67.6668H15.8307H15.8342H46.1618H46.1653H49.6665V68.8334C49.6665 69.4773 50.188 70 50.8332 70C51.4783 70 51.9998 69.4773 51.9998 68.8334V66.5C51.9998 65.8561 51.4783 65.3334 50.8332 65.3334H47.0473L37.9998 33.67V28.4013L52.218 32.6666H40.3332C39.688 32.6666 39.1665 33.1893 39.1665 33.8332C39.1665 34.4772 39.688 34.9999 40.3332 34.9999H55.4998V37.3332H53.1664C52.5212 37.3332 51.9998 37.8559 51.9998 38.4999C51.9998 39.1438 52.5212 39.6665 53.1664 39.6665H60.1664C60.8116 39.6665 61.333 39.1438 61.333 38.4999C61.333 37.8559 60.8116 37.3334 60.1664 37.3334ZM17.38 65.3334L21.1927 51.9914L28.8273 56.8482L20.6898 62.027C20.1461 62.3723 19.9863 63.0945 20.3316 63.6382C20.5545 63.987 20.9313 64.1784 21.3175 64.1784C21.5321 64.1784 21.748 64.12 21.9428 63.9952L30.9996 58.2318L42.1588 65.3332H17.38V65.3334ZM44.2005 63.8657L21.8612 49.6498L24.5177 40.3504L28.8834 43.2332L24.5235 46.1114C23.9857 46.4661 23.8375 47.1905 24.1934 47.7284C24.4162 48.0679 24.7884 48.2511 25.1675 48.2511C25.388 48.2511 25.612 48.1893 25.8091 48.0586L30.9996 44.6309L39.3553 50.148L33.8487 53.6527C33.3062 53.9991 33.1452 54.7189 33.4918 55.2638C33.7134 55.6127 34.0914 55.8039 34.4776 55.8039C34.6912 55.8039 34.9082 55.7445 35.103 55.6207L40.8068 51.9913L44.2005 63.8657ZM39.5117 47.4553L31.6484 42.2637C31.6471 42.2625 31.646 42.2614 31.6437 42.2602L25.1909 37.9984L26.0471 35H33.333C33.9782 35 34.4996 34.4773 34.4996 33.8334C34.4996 33.1894 33.9782 32.6668 33.333 32.6668H26.333V28H33.333C33.9782 28 34.4996 27.4773 34.4996 26.8334C34.4996 26.1894 33.9782 25.6668 33.333 25.6668H26.333V21H33.333C33.9782 21 34.4996 20.4773 34.4996 19.8334C34.4996 19.1894 33.9782 18.6668 33.333 18.6668H26.333V14H32.1664C32.8116 14 33.333 13.4773 33.333 12.8334C33.333 12.1894 32.8116 11.6668 32.1664 11.6668H27.068L31.0791 3.77549L35.6664 13.1053V33.8335C35.6664 33.9421 35.6816 34.0494 35.7107 34.1544L36.8096 37.9985L33.8977 39.9212C33.3598 40.2758 33.2128 41.0003 33.5675 41.5371C33.7914 41.8778 34.1637 42.0608 34.5416 42.0608C34.7632 42.0608 34.9861 41.999 35.1832 41.8683L37.4816 40.3505L39.5117 47.4553Z" fill="white"/>
</svg>
