<svg width="70" height="70" viewBox="0 0 70 70" fill="none" xmlns="http://www.w3.org/2000/svg">
<g clip-path="url(#clip0)">
<path fill-rule="evenodd" clip-rule="evenodd" d="M33.8413 2.07129C33.6009 2.14504 33.2571 2.43917 33.0893 2.71435C33.0032 2.85559 32.9971 3.01914 32.9969 5.1796C32.9967 7.94333 33.0664 7.69368 32.295 7.69368C31.858 7.69368 31.7629 7.70964 31.5574 7.81756C31.1569 8.02789 30.9323 8.27269 30.795 8.64838C30.7033 8.89954 30.6965 9.05263 30.6965 10.8789C30.6965 12.5948 30.6867 12.8496 30.618 12.9184C30.5534 12.983 30.4036 12.997 29.7796 12.997C28.7152 12.997 28.42 13.1116 28.104 13.6474C27.9931 13.8355 27.9718 13.9302 27.9744 14.2228C27.9764 14.4425 28.0074 14.6289 28.0576 14.7231C28.1612 14.9173 28.4221 15.1813 28.6579 15.3305C28.866 15.4623 28.923 15.6083 28.8747 15.8865C28.8568 15.9896 28.8203 16.3441 28.7937 16.6743C28.767 17.0045 28.7232 17.4998 28.6963 17.775C28.6695 18.0502 28.6238 18.5568 28.5949 18.9007C28.566 19.2447 28.5219 19.7513 28.4968 20.0264C28.4717 20.3016 28.4266 20.7969 28.3966 21.1271C28.3667 21.4573 28.3215 21.9301 28.2963 22.1778C28.2541 22.5934 28.2172 22.9903 28.0963 24.3291C27.9754 25.6679 27.9385 26.0649 27.8963 26.4805C27.854 26.8961 27.8171 27.293 27.6963 28.6318C27.5784 29.9376 27.5385 30.3683 27.4947 30.8082C27.4687 31.0696 27.4244 31.5537 27.3962 31.8839C27.3681 32.2141 27.3237 32.6981 27.2976 32.9596C27.1915 34.0207 27.1435 34.5691 27.0983 35.236C27.0722 35.6212 27.0249 36.1165 26.9931 36.3367C26.9614 36.5568 26.9144 36.9846 26.8888 37.2873C26.8445 37.8108 26.8243 38.0362 26.6962 39.4386C26.666 39.7688 26.621 40.2641 26.5962 40.5393C26.4753 41.8781 26.4384 42.2751 26.3961 42.6907C26.3528 43.1169 26.3016 43.6683 26.1942 44.867C26.1683 45.156 26.1334 45.595 26.1166 45.8427C26.0999 46.0903 26.0631 46.3211 26.035 46.3555C25.9599 46.4474 24.6293 46.4434 24.5527 46.3511C24.5015 46.2893 24.4908 43.9505 24.4953 33.8011C24.496 32.2412 24.5017 32.2091 24.7766 32.2091C24.9235 32.2091 25.274 32.0405 25.4385 31.8907C25.6523 31.6961 25.7961 31.3413 25.7961 31.0083C25.7961 30.5123 25.5634 30.1407 25.1105 29.9133L24.9 29.8076H14.2298H3.55963L3.25545 30.0043C2.93372 30.2123 2.89432 30.2619 2.77226 30.6126C2.6476 30.9709 2.6702 31.3018 2.83701 31.5614C3.06978 31.9236 3.45097 32.2085 3.70309 32.2089C4.01572 32.2093 3.99417 31.6817 3.99417 39.3321C3.99417 44.6833 3.98026 46.3119 3.93416 46.358C3.89351 46.3987 3.66024 46.418 3.21155 46.418C2.06284 46.418 1.52395 46.6553 1.19932 47.3041C1.09561 47.5113 1.09391 47.5634 1.09391 50.5202V53.5258L1.21772 53.7618C1.42794 54.1625 1.67261 54.3873 2.04809 54.5246C2.30312 54.6179 2.45518 54.6232 4.87744 54.6232C7.13794 54.6232 7.44652 54.6324 7.51593 54.7018C7.58623 54.7722 7.59448 55.2829 7.59448 59.5737C7.59448 63.6395 7.58378 64.3759 7.52393 64.4256C7.46932 64.471 7.35461 64.4604 7.01668 64.3787C6.55069 64.2659 5.98264 64.0021 5.29428 63.5788C4.73813 63.2367 3.85395 62.7943 3.47247 62.6672C2.99653 62.5086 2.48193 62.4227 1.55265 62.3467C0.845137 62.2888 0.30269 62.5977 0.093021 63.1778C-0.0311899 63.5216 -0.03109 63.6371 0.0938211 63.979C0.30424 64.5551 0.777331 64.8284 1.56825 64.8311C2.01379 64.8326 2.62054 64.9595 3.04408 65.1398C3.14034 65.1808 3.61288 65.451 4.09417 65.7404C5.33373 66.4856 5.45214 66.5397 6.39438 66.7896C7.66979 67.1279 9.66482 67.0425 10.6698 66.6066C11.2556 66.3525 11.5758 66.1897 12.1199 65.8694C12.4499 65.6751 12.8437 65.4433 12.995 65.3543C13.4314 65.0973 13.5437 65.0503 14.001 64.9331C14.3833 64.8351 14.5245 64.8252 15.2511 64.8448C16.0918 64.8676 16.4406 64.9141 16.7458 65.0442C16.8418 65.0851 17.0439 65.1718 17.1949 65.2367C17.3459 65.3017 17.7013 65.5072 17.9846 65.6932C19.4115 66.6303 20.603 67 22.1958 67C22.898 67 23.1122 66.979 23.8459 66.8381C24.048 66.7993 24.3191 66.7093 24.9872 66.4594C25.281 66.3495 25.6795 66.1453 25.9211 65.9808C26.6815 65.4631 27.3984 65.0976 27.9463 64.9484C28.3051 64.8506 28.492 64.8326 29.1464 64.8326C30.3387 64.8326 30.7555 64.9711 32.2217 65.8544C33.1096 66.3894 33.8527 66.718 34.4469 66.8384C35.8213 67.1171 37.6296 67.0155 38.5722 66.6066C39.337 66.2749 39.4446 66.2176 40.6904 65.4786C41.2016 65.1753 41.4003 65.088 41.8405 64.9729C42.3111 64.8498 42.4621 64.8337 43.1476 64.8332C44.3875 64.8323 44.8483 64.9978 46.4261 66.0108C46.6971 66.1848 46.9854 66.3282 47.623 66.6062C47.9211 66.7361 48.5186 66.8822 48.9981 66.9424C49.813 67.0446 51.2435 66.9921 51.7984 66.8397C52.7024 66.5914 53.1783 66.3759 54.2486 65.7302C55.1584 65.1814 55.4045 65.0586 55.7487 64.9821C55.9 64.9485 56.1051 64.9004 56.2046 64.8753C56.304 64.8501 56.5917 64.8296 56.8438 64.8296C57.2296 64.8296 57.3395 64.8105 57.538 64.709C58.0446 64.45 58.2991 64.0496 58.2988 63.5121C58.2985 63.0627 58.0414 62.7059 57.529 62.444C57.3046 62.3293 57.2462 62.3212 56.829 62.3468C55.7695 62.4118 55.0828 62.5466 54.5361 62.7968C54.378 62.8692 54.1192 62.9872 53.9611 63.059C53.6721 63.1903 53.0957 63.5258 52.7235 63.7795C52.0223 64.2574 51.1139 64.5294 50.2194 64.5294C49.7733 64.5294 49.6389 64.5129 49.5767 64.4508C49.5064 64.3804 49.4982 63.8695 49.4982 59.5763C49.4982 55.2831 49.5064 54.7722 49.5767 54.7018C49.6461 54.6324 49.9547 54.6232 52.2152 54.6232C54.6375 54.6232 54.7895 54.6179 55.0446 54.5246C55.3973 54.3956 55.5775 54.2395 55.8515 53.8254L55.9988 53.6029V50.5588C55.9988 47.5628 55.9971 47.5114 55.8933 47.3041C55.5645 46.6468 55.0019 46.4025 53.8845 46.4316C53.4135 46.4439 53.2316 46.4321 53.2148 46.3882C53.1881 46.3187 53.3821 45.9334 53.5902 45.6425C53.669 45.5325 53.853 45.251 53.999 45.0171C54.1451 44.7832 54.4149 44.3555 54.5986 44.0665C54.7823 43.7776 55.0488 43.3555 55.1907 43.1284C55.3326 42.9014 55.5648 42.53 55.7067 42.3029C55.8486 42.0759 56.1224 41.6425 56.315 41.3398C57.0455 40.1923 57.3411 39.7257 57.5989 39.3135C57.7452 39.0797 58.0188 38.6463 58.207 38.3504C58.3951 38.0546 58.7029 37.5706 58.891 37.2748C59.2097 36.7736 59.3411 36.5645 59.9991 35.5112C60.656 34.4596 60.7879 34.2496 61.0992 33.7601C61.2829 33.4711 61.5529 33.0434 61.6993 32.8095C61.8456 32.5756 62.1164 32.1478 62.3011 31.8589C62.4858 31.5699 62.7235 31.1872 62.8293 31.0083C62.9352 30.8295 63.0752 30.6105 63.1406 30.5216C63.206 30.4328 63.3323 30.2414 63.4212 30.0964C63.5101 29.9513 63.7028 29.6412 63.8495 29.4073C63.9962 29.1734 64.2143 28.821 64.3341 28.6242C64.5559 28.2602 64.6841 28.152 64.7573 28.2674C64.7797 28.3027 64.7983 33.2662 64.7988 39.2975C64.7995 49.2004 64.7919 50.2709 64.721 50.3419C64.6575 50.4054 64.5157 50.4205 63.9827 50.4205C63.1 50.4205 62.8404 50.5113 62.4091 50.9709C62.2101 51.183 62.1341 51.3206 62.0822 51.563C62.0032 51.9321 61.9787 57.8353 62.0547 58.1754C62.1786 58.7296 62.4487 59.1022 62.8849 59.3207C63.0917 59.4243 63.1458 59.4262 65.9993 59.4262H68.9032L69.1391 59.3056C69.2688 59.2393 69.4512 59.1098 69.5443 59.0179C70.0068 58.5618 70 58.6235 70 54.9077C70 51.9001 69.9952 51.7319 69.9028 51.4789C69.728 51.0004 69.4204 50.6926 68.9422 50.5178C68.7291 50.4398 68.5454 50.4205 68.0166 50.4205C67.4826 50.4205 67.3419 50.4055 67.2781 50.3416C67.2066 50.2701 67.2009 49.03 67.2177 37.0458C67.228 29.7765 67.2527 23.7232 67.2729 23.5942C67.3006 23.4159 67.2856 23.2934 67.2101 23.0835C67.0506 22.6397 66.7721 22.3572 66.3368 22.1981C66.0047 22.0767 65.8261 22.0781 65.41 22.2054C64.716 22.4179 63.7487 22.7173 62.9994 22.9516C62.5731 23.0849 61.988 23.2649 61.6993 23.3515C61.1733 23.5093 60.1917 23.8149 58.974 24.1998C58.6165 24.3129 58.2902 24.4051 58.249 24.4049C58.1336 24.4043 57.8932 24.567 57.6651 24.7998C57.4716 24.9973 57.1262 25.5025 56.4988 26.5055C56.3525 26.7394 56.0789 27.1728 55.8907 27.4686C55.7026 27.7644 55.3948 28.2484 55.2067 28.5443C55.0186 28.8401 54.7449 29.2735 54.5986 29.5074C54.4523 29.7413 54.1823 30.1691 53.9986 30.458C53.6768 30.9641 53.4147 31.3811 52.8823 32.2341C52.7449 32.4542 52.4821 32.8708 52.2984 33.1597C52.1147 33.4486 51.8447 33.8764 51.6984 34.1103C51.5521 34.3442 51.2784 34.7775 51.0903 35.0734C50.9022 35.3692 50.5944 35.8532 50.4063 36.1491C50.2181 36.4449 49.9446 36.8783 49.7985 37.1122C49.6523 37.3461 49.4107 37.7257 49.2615 37.9557C49.1122 38.1858 48.8587 38.5942 48.6981 38.8633C48.5375 39.1323 48.2841 39.5407 48.1351 39.7708C47.986 40.0009 47.6992 40.448 47.4979 40.7645C47.2965 41.0809 46.9364 41.6438 46.6976 42.0152C46.4589 42.3867 46.1512 42.8708 46.0139 43.0909C45.8766 43.3111 45.648 43.6769 45.506 43.9039C45.364 44.131 45.1317 44.5024 44.9898 44.7295C44.3403 45.7685 44.0229 46.2496 43.9334 46.3305C43.8507 46.4052 43.7324 46.418 43.1232 46.418C42.6131 46.418 42.3953 46.4002 42.3587 46.3555C42.3306 46.3211 42.294 46.0903 42.2774 45.8427C42.2609 45.595 42.2258 45.1785 42.1995 44.9171C42.1554 44.4779 42.1173 44.0675 41.9975 42.7407C41.9727 42.4655 41.9277 41.9702 41.8975 41.64C41.8674 41.3098 41.8226 40.8145 41.798 40.5393C41.7735 40.2641 41.7281 39.7913 41.6972 39.4887C41.6663 39.186 41.6212 38.6907 41.597 38.388C41.5466 37.7587 41.4649 36.8541 41.396 36.1616C41.3699 35.9002 41.3258 35.4161 41.298 35.0859C41.2297 34.2777 41.1582 33.5682 41.0964 33.0846C41.0682 32.8645 41.0232 32.3692 40.9964 31.9839C40.9695 31.5987 40.9259 31.0696 40.8996 30.8082C40.8553 30.3692 40.8177 29.964 40.6974 28.6318C40.5765 27.293 40.5396 26.8961 40.4974 26.4805C40.4551 26.0649 40.4182 25.6679 40.2974 24.3291C40.1765 22.9903 40.1396 22.5934 40.0974 22.1778C40.0722 21.9301 40.027 21.4573 39.997 21.1271C39.967 20.7969 39.922 20.3016 39.8969 20.0264C39.8718 19.7513 39.8276 19.2447 39.7987 18.9007C39.7698 18.5568 39.7249 18.0614 39.6988 17.8C39.6728 17.5386 39.6283 17.0658 39.5999 16.7494C39.5714 16.4329 39.5344 16.0665 39.5176 15.9352C39.4744 15.5978 39.5221 15.4658 39.7358 15.3305C39.9706 15.1819 40.2333 14.9166 40.3315 14.7286C40.3797 14.6366 40.4066 14.4497 40.4057 14.2136C40.4045 13.9111 40.3815 13.8043 40.2805 13.6326C39.9752 13.1133 39.6703 12.997 38.614 12.997C37.99 12.997 37.8403 12.983 37.7757 12.9184C37.7069 12.8496 37.6971 12.5948 37.6971 10.8789C37.6971 9.05263 37.6904 8.89954 37.5986 8.64838C37.4614 8.27269 37.2368 8.02789 36.8362 7.81756C36.6308 7.70964 36.5356 7.69368 36.0987 7.69368C35.3273 7.69368 35.397 7.94333 35.3967 5.1796C35.3965 2.57561 35.4241 2.77093 34.9984 2.35337C34.8532 2.21103 34.6998 2.11902 34.5205 2.06689C34.2107 1.97678 34.1478 1.97718 33.8413 2.07129ZM35.1184 10.1738C35.2363 10.2918 35.2363 12.8004 35.1184 12.9184C35.0019 13.0349 33.3918 13.0349 33.2753 12.9184C33.2079 12.851 33.1967 12.6554 33.1967 11.5461C33.1967 10.4368 33.2079 10.2412 33.2753 10.1738C33.3406 10.1085 33.4972 10.0952 34.1968 10.0952C34.8964 10.0952 35.0531 10.1085 35.1184 10.1738ZM36.8718 15.5304C37.0048 15.5815 37.0602 15.7857 37.1075 16.3991C37.1319 16.7156 37.1722 17.1997 37.1971 17.4748C37.2832 18.4286 37.3483 19.1283 37.3973 19.6262C37.483 20.4976 37.4837 20.4751 37.3712 20.4912C37.3156 20.4991 37.2256 20.4654 37.1711 20.4161C37.1166 20.3669 36.9483 20.2257 36.7971 20.1024C36.6458 19.979 36.4883 19.8436 36.447 19.8013C36.4058 19.759 36.2483 19.6238 36.097 19.5009C35.9457 19.3779 35.8107 19.2654 35.797 19.2509C35.7832 19.2364 35.6482 19.1239 35.4969 19.0008C35.3457 18.8777 35.2107 18.7651 35.1969 18.7506C35.1832 18.7361 35.0482 18.6235 34.8969 18.5005C34.7456 18.3774 34.6106 18.2648 34.5969 18.2503C34.5831 18.2358 34.4481 18.1232 34.2968 18.0002C34.1456 17.8771 34.0106 17.7638 33.9968 17.7483C33.9831 17.7329 33.7355 17.531 33.4468 17.2997C33.158 17.0684 32.9105 16.8665 32.8967 16.8511C32.883 16.8357 32.748 16.7224 32.5967 16.5993C32.4454 16.4762 32.3104 16.3636 32.2967 16.3491C32.2829 16.3346 32.1479 16.2221 31.9966 16.0992C31.572 15.754 31.4813 15.6306 31.58 15.532C31.6225 15.4893 36.7609 15.4879 36.8718 15.5304ZM31.5052 18.8874C31.5968 18.9627 31.6829 19.0361 31.6966 19.0507C31.7104 19.0653 31.8454 19.1779 31.9966 19.301C32.1479 19.424 32.2829 19.5374 32.2967 19.5528C32.3104 19.5682 32.5579 19.7701 32.8467 20.0014C33.1355 20.2327 33.383 20.4346 33.3968 20.45C33.4105 20.4655 33.5455 20.5787 33.6968 20.7017C33.8481 20.8246 34.0056 20.9604 34.0468 21.0035C34.0881 21.0465 34.3562 21.2706 34.6426 21.5013C34.929 21.7321 35.2441 21.994 35.3427 22.0834C35.4413 22.1728 35.5764 22.2889 35.6428 22.3416C35.7213 22.4038 35.7525 22.4664 35.7319 22.5202C35.7029 22.5957 35.4871 22.603 33.2858 22.6023C31.958 22.6018 30.8451 22.5847 30.8129 22.5642C30.7445 22.5207 30.7788 21.9522 30.9886 19.6512C31.0312 19.1841 31.0533 19.0476 31.1245 18.8132C31.1561 18.709 31.3293 18.7427 31.5052 18.8874ZM37.7903 25.1493C37.8818 25.2073 37.9455 25.5185 38.0015 26.1803C38.0272 26.483 38.0721 26.967 38.1014 27.256C38.1307 27.5449 38.1587 27.9502 38.1635 28.1565C38.1714 28.4971 38.1629 28.5331 38.0722 28.546C38.0125 28.5546 37.7302 28.3947 37.3721 28.1496C37.0421 27.9236 36.2883 27.4094 35.697 27.0069C35.1057 26.6044 34.4419 26.1497 34.2218 25.9966C34.0018 25.8435 33.7543 25.6831 33.6718 25.6402C33.4008 25.4993 33.1766 25.2792 33.2115 25.1883C33.2408 25.1118 33.435 25.1047 35.4829 25.1054C36.7145 25.1058 37.7528 25.1256 37.7903 25.1493ZM63.2994 25.5569C63.2994 25.7596 62.4425 27.0452 62.2862 27.077C61.951 27.1453 61.8419 27.1639 61.4992 27.2112C61.293 27.2397 60.9892 27.2823 60.8242 27.306C60.6592 27.3297 60.3529 27.3698 60.1437 27.3952C59.9345 27.4206 59.7424 27.4543 59.7169 27.4701C59.6915 27.4858 59.5026 27.5043 59.2973 27.511C58.9603 27.5222 58.9226 27.5139 58.9095 27.4256C58.89 27.2947 59.245 26.7035 59.3727 26.6542C59.4684 26.6173 59.9675 26.4619 61.4742 25.9996C61.8318 25.8899 62.3156 25.7363 62.5493 25.6583C62.9939 25.5098 63.2994 25.4685 63.2994 25.5569ZM30.8302 26.6431C30.9395 26.7188 31.2706 26.9495 31.566 27.1559C31.8613 27.3623 32.1897 27.5874 32.2957 27.6562C32.4017 27.725 32.9347 28.0871 33.4802 28.4608C34.0256 28.8345 34.7938 29.3598 35.1873 29.628C35.6929 29.9727 35.8981 30.1403 35.8867 30.1993C35.8719 30.276 35.6364 30.2839 33.0125 30.2958C30.4075 30.3075 30.1471 30.3014 30.0716 30.2258C30.0176 30.1718 30.0007 30.1062 30.0231 30.0378C30.042 29.9799 30.0786 29.6737 30.1044 29.3573C30.1302 29.0408 30.1714 28.5568 30.196 28.2816C30.2205 28.0064 30.2599 27.5449 30.2836 27.256C30.3471 26.48 30.4416 26.3741 30.8302 26.6431ZM60.5134 29.9887C60.503 30.091 60.2658 30.4999 59.7912 31.2335C59.6666 31.4261 59.445 31.7751 59.2987 32.009C59.1525 32.2429 58.9799 32.5187 58.9152 32.6218C58.8495 32.7266 58.7575 32.8095 58.7067 32.8095C58.5969 32.8095 58.5349 32.6936 58.3985 32.2341C58.3413 32.0415 58.1943 31.5734 58.0717 31.194C57.7931 30.3312 57.7912 30.2797 58.0364 30.2069C58.2483 30.144 58.6266 30.0806 59.249 30.0038C59.4828 29.9749 59.8091 29.9332 59.9741 29.911C60.4311 29.8498 60.5261 29.8635 60.5134 29.9887ZM21.8957 32.258C22.002 32.3251 22.0266 33.7625 21.9958 38.1021C21.9741 41.1551 21.9609 41.625 21.8957 41.6661C21.8493 41.6954 18.927 41.7138 14.2361 41.7143C7.40707 41.715 6.6437 41.7072 6.57294 41.6365C6.50269 41.5661 6.49439 41.0733 6.49439 36.9621C6.49439 32.8508 6.50269 32.358 6.57294 32.2877C6.6437 32.2169 7.40707 32.2092 14.2361 32.2098C18.9182 32.2103 21.8494 32.2287 21.8957 32.258ZM55.9147 32.5468C55.9524 32.6225 56.0124 32.797 56.048 32.9345C56.0837 33.0721 56.175 33.3873 56.251 33.635C56.5196 34.5111 56.5671 34.6866 56.5605 34.7807C56.5461 34.9876 56.5562 34.9858 54.7593 35.0902C54.2396 35.1204 54.0986 35.0874 54.0986 34.9353C54.0986 34.9005 54.271 34.605 54.4816 34.2785C54.8377 33.7267 55.0923 33.3235 55.4963 32.6719C55.6812 32.3735 55.8093 32.3353 55.9147 32.5468ZM38.4856 32.8513C38.5871 32.9157 38.6565 33.1979 38.703 33.735C38.7523 34.3051 38.8308 35.1655 38.8969 35.8614C39.0087 37.0376 39.0097 37.062 38.9468 37.1377C38.9128 37.1787 38.8684 37.2122 38.848 37.2122C38.7875 37.2122 37.587 36.4322 37.391 36.2655C37.2915 36.1808 37.1902 36.1113 37.166 36.111C37.1418 36.1108 36.8971 35.9517 36.622 35.7575C36.347 35.5633 35.9982 35.3236 35.847 35.225C35.6957 35.1264 35.4195 34.9421 35.2333 34.8156C35.0471 34.6891 34.7947 34.5283 34.6725 34.4584C34.5504 34.3885 34.399 34.284 34.3361 34.2264C34.2733 34.1687 33.9068 33.9175 33.5218 33.6682C32.6451 33.1004 32.5205 32.9998 32.5617 32.8924C32.5909 32.8165 32.8396 32.8095 35.5079 32.8102C37.1107 32.8107 38.4508 32.8291 38.4856 32.8513ZM9.26548 33.8744C8.9477 34.0598 8.71353 34.335 8.59307 34.6647C8.50361 34.9095 8.49456 35.0663 8.49456 36.366C8.49456 37.1534 8.51521 37.8629 8.54042 37.9427C8.56567 38.0225 8.59882 38.1456 8.61412 38.2164C8.64738 38.3699 8.9387 38.6817 9.15207 38.7921C9.4922 38.968 9.72842 39.0086 9.9985 38.9373C10.4221 38.8255 10.6893 38.6166 10.8747 38.252C10.994 38.0176 10.9948 38.0057 10.9948 36.4252C10.9948 34.9697 10.9864 34.8115 10.8968 34.566C10.7808 34.2487 10.6953 34.1436 10.3974 33.9526C10.1993 33.8256 10.1314 33.8103 9.77238 33.8118C9.55031 33.8128 9.32289 33.8409 9.26548 33.8744ZM13.6876 33.911C13.5873 33.9639 13.4248 34.1014 13.3265 34.2162C13.0236 34.5704 12.995 34.7605 12.995 36.4201C12.995 37.7557 13.0039 37.914 13.0935 38.1635C13.2136 38.4979 13.4807 38.7552 13.8732 38.9146C14.1322 39.0198 14.1718 39.0231 14.4359 38.9622C14.5923 38.9261 14.7764 38.8685 14.8451 38.8341C15.0604 38.7266 15.2932 38.4419 15.3962 38.1601C15.4868 37.912 15.4952 37.7594 15.4952 36.354C15.4952 34.9137 15.4888 34.8041 15.3918 34.5772C15.2747 34.3033 15.1557 34.1596 14.8751 33.9534C14.6975 33.8229 14.6439 33.8103 14.2751 33.8123C13.9748 33.8139 13.8228 33.8395 13.6876 33.911ZM18.088 33.9541C17.9632 34.0333 17.8121 34.1773 17.7524 34.274C17.5194 34.6513 17.4965 34.8422 17.4959 36.4124C17.4954 37.7577 17.5041 37.9131 17.5939 38.1587C17.7467 38.5772 18.0193 38.8126 18.4967 38.9387C18.702 38.9928 18.7889 38.9928 18.9942 38.9387C19.4717 38.8126 19.7442 38.5772 19.8971 38.1587C19.987 37.9124 19.9956 37.7567 19.9956 36.3617C19.9956 34.9667 19.987 34.811 19.8971 34.5647C19.7074 34.0453 19.3364 33.8101 18.7069 33.8101C18.361 33.8101 18.2883 33.827 18.088 33.9541ZM30.0933 34.3088C30.1993 34.3629 30.3165 34.4366 30.3538 34.4726C30.4221 34.5386 31.1671 35.0507 31.4644 35.236C31.5527 35.291 31.7705 35.4406 31.9483 35.5684C32.1262 35.6963 32.3757 35.8651 32.5028 35.9437C32.63 36.0222 32.9675 36.2465 33.2529 36.4419C33.5383 36.6374 33.8281 36.8143 33.8968 36.8351C33.9656 36.8559 34.1006 36.9453 34.1968 37.0338C34.4005 37.2211 34.8239 37.5167 35.8878 38.2142C36.4485 38.5817 36.6493 38.7394 36.6372 38.8023C36.6218 38.8825 36.3766 38.8891 32.9874 38.9011C29.6623 38.9128 29.3472 38.9069 29.2714 38.8311C29.2178 38.7775 29.2006 38.7113 29.2225 38.6432C29.2412 38.5853 29.2752 38.3129 29.2981 38.0377C29.3209 37.7626 29.3521 37.4811 29.3673 37.4124C29.3826 37.3436 29.4072 37.0284 29.4221 36.7119C29.437 36.3955 29.4703 35.9227 29.4961 35.6613C29.5219 35.3998 29.5574 34.9946 29.575 34.7607C29.5926 34.5268 29.6298 34.3073 29.6578 34.2729C29.7303 34.1838 29.8711 34.1954 30.0933 34.3088ZM55.6479 37.5865C55.7214 37.6751 55.6518 37.8072 55.0009 38.8132C54.7605 39.1847 54.4686 39.6394 54.3521 39.8237C53.9858 40.4032 53.9263 40.3937 53.725 39.723C53.6533 39.4841 53.5272 39.0634 53.4449 38.7882C53.3626 38.513 53.2735 38.2188 53.2469 38.1343C53.1128 37.7083 53.2627 37.6143 54.0845 37.609C54.381 37.607 54.6686 37.5861 54.7236 37.5625C54.9019 37.4858 55.579 37.5034 55.6479 37.5865ZM51.2143 39.9515C51.2519 40.0271 51.3119 40.2016 51.3476 40.3392C51.3833 40.4768 51.4746 40.792 51.5505 41.0396C51.9409 42.3134 51.945 42.3443 51.7304 42.3882C51.4256 42.4505 51.2194 42.4759 50.6483 42.5213C49.1548 42.64 49.1783 42.6564 49.6964 41.8568C50.6699 40.3549 50.8191 40.1278 50.9321 39.9765C51.0801 39.7781 51.126 39.7741 51.2143 39.9515ZM39.2857 41.4567C39.4244 41.5448 39.4703 41.8374 39.5973 43.4411C39.6698 44.3568 39.7387 45.035 39.7729 45.1703C39.7956 45.2599 39.7796 45.3198 39.7198 45.3694C39.6443 45.4322 39.5929 45.418 39.2783 45.2478C38.9229 45.0555 37.9785 44.551 36.5845 43.8088C36.1789 43.5928 35.5094 43.236 35.0969 43.0159C34.6844 42.7957 34.0149 42.4408 33.6093 42.2272C32.844 41.8242 32.4467 41.5799 32.4467 41.5124C32.4467 41.4909 32.4748 41.4619 32.5092 41.448C32.6149 41.4053 39.2181 41.4138 39.2857 41.4567ZM29.7839 42.9662C30.1484 43.1586 30.7446 43.4767 31.1091 43.673C31.4735 43.8694 32.1035 44.2071 32.5092 44.4235C32.9148 44.6399 33.5899 45.0001 34.0093 45.2239C34.4288 45.4477 35.0217 45.7621 35.3269 45.9227C35.8784 46.2127 36.0428 46.3338 35.957 46.3868C35.864 46.4443 28.7022 46.4361 28.6114 46.3784C28.5513 46.3401 28.5616 46.1277 28.698 44.5919C28.7224 44.3167 28.7609 43.8101 28.7836 43.4662C28.826 42.8216 28.8871 42.6154 29.0356 42.616C29.0828 42.6162 29.4195 42.7738 29.7839 42.9662ZM21.9172 44.2952C21.9832 44.3613 21.9958 44.5284 21.9958 45.3398C21.9958 46.084 21.9805 46.3184 21.9291 46.3611C21.8246 46.4478 6.59159 46.4438 6.53659 46.357C6.51419 46.3218 6.49559 45.8612 6.49514 45.3334C6.49449 44.5271 6.50694 44.3613 6.57294 44.2952C6.6437 44.2245 7.40852 44.2166 14.2451 44.2166C21.0816 44.2166 21.8464 44.2245 21.9172 44.2952ZM50.9801 45.0416C51.0115 45.1236 50.5123 45.9944 50.2931 46.2401L50.1566 46.393L48.8424 46.418C47.4293 46.4449 46.9413 46.4248 46.9128 46.3383C46.8918 46.2742 47.4385 45.4272 47.5719 45.3173C47.6267 45.2722 47.8345 45.2274 48.0931 45.2049C48.879 45.1365 49.7672 45.0627 50.2733 45.0237C50.5483 45.0025 50.8134 44.9811 50.8624 44.9762C50.9114 44.9712 50.9643 45.0007 50.9801 45.0416ZM53.52 48.9982C53.5878 49.066 53.5985 49.2748 53.5985 50.5206C53.5985 51.7664 53.5878 51.9752 53.52 52.043C53.4487 52.1142 51.1115 52.1216 28.5463 52.1216C5.98114 52.1216 3.64393 52.1142 3.57268 52.043C3.50487 51.9752 3.49412 51.7664 3.49412 50.5206C3.49412 49.2748 3.50487 49.066 3.57268 48.9982C3.64393 48.9269 5.98114 48.9196 28.5463 48.9196C51.1115 48.9196 53.4487 48.9269 53.52 48.9982ZM67.4212 53.0007C67.4899 53.0694 67.4998 53.3183 67.4998 54.9734C67.4998 56.6285 67.4899 56.8773 67.4212 56.9461C67.3537 57.0136 67.1538 57.0247 65.9996 57.0247C64.8454 57.0247 64.6456 57.0136 64.5781 56.9461C64.5094 56.8773 64.4995 56.6285 64.4995 54.9734C64.4995 53.3183 64.5094 53.0694 64.5781 53.0007C64.6456 52.9332 64.8454 52.9221 65.9996 52.9221C67.1538 52.9221 67.3537 52.9332 67.4212 53.0007ZM17.9168 54.7018C17.9869 54.7719 17.9954 55.2035 17.9954 58.7002C17.9954 60.8561 17.9818 62.6556 17.965 62.6991C17.9241 62.806 17.7699 62.7988 17.3893 62.6722C16.2601 62.2967 14.5147 62.2519 13.2944 62.5669C12.6256 62.7396 12.1863 62.9579 10.5749 63.9186C10.3513 64.0518 10.2606 64.0821 10.1999 64.0437C10.1274 63.998 10.1185 63.5496 10.107 59.3871C10.0955 55.249 10.1022 54.7729 10.173 54.7021C10.2434 54.6316 10.6581 54.6232 14.0451 54.6232C17.4268 54.6232 17.8468 54.6317 17.9168 54.7018ZM36.6185 54.7018C36.6888 54.7722 36.6971 55.2831 36.6971 59.5763C36.6971 63.8695 36.6888 64.3804 36.6185 64.4508C36.4948 64.5745 35.5082 64.5595 35.0085 64.4264C34.3633 64.2545 34.1982 64.1859 33.7258 63.8938C32.5299 63.1542 32.3171 63.0288 32.2575 63.0287C32.2222 63.0286 32.0786 62.9703 31.9383 62.8992C31.2253 62.5377 30.3057 62.364 29.0964 62.3624C28.2138 62.3613 27.6224 62.4516 26.7712 62.7176C26.5307 62.7928 25.5582 63.2943 25.096 63.5815C24.0531 64.2296 24.0993 64.208 23.2843 64.426C22.9807 64.5072 22.7472 64.5294 22.1974 64.5294C21.8123 64.5294 21.3899 64.5049 21.2589 64.475C20.7176 64.3513 20.4944 64.2703 20.4461 64.1801C20.4132 64.1185 20.3956 62.4681 20.3956 59.433C20.3956 55.2701 20.4039 54.7721 20.4742 54.7018C20.545 54.631 21.3461 54.6232 28.5463 54.6232C35.7465 54.6232 36.5477 54.631 36.6185 54.7018ZM46.9194 54.7018C46.9896 54.772 46.998 55.2306 46.998 58.9984C46.998 62.769 46.9897 63.2232 46.9195 63.2815C46.8532 63.3365 46.7582 63.3073 46.307 63.0929C45.5231 62.7206 45.4102 62.6753 44.9978 62.5684C44.3981 62.413 43.9259 62.3612 43.0976 62.3601C42.1808 62.3588 41.519 62.457 40.8724 62.6905C40.2116 62.929 39.9937 63.0213 39.6691 63.1998C39.3062 63.3994 39.1985 63.4201 39.1946 63.2911C39.1932 63.2429 39.1837 61.4137 39.1736 59.2261C39.1634 57.0384 39.148 55.1396 39.1392 55.0065C39.1265 54.8133 39.1427 54.7502 39.2198 54.6938C39.301 54.6345 39.9172 54.6232 43.0786 54.6232C46.4321 54.6232 46.8493 54.6317 46.9194 54.7018Z" fill="white"/>
</g>
<defs>
<clipPath id="clip0">
<rect width="70" height="70" fill="white"/>
</clipPath>
</defs>
</svg>
