<svg width="77" height="77" viewBox="0 0 77 77" fill="none" xmlns="http://www.w3.org/2000/svg">
<path d="M69.383 54.3275L49.8127 35.5719C49.6464 35.4123 49.4172 35.3386 49.1893 35.3724L44.2069 36.1087C44.2076 36.0753 44.2095 36.0424 44.2095 36.0089C44.2095 33.7292 42.7961 31.7775 40.8073 30.9956V0.754572C40.8073 0.372402 40.524 0.0504056 40.1476 0.00549655C39.7704 -0.0404775 39.4211 0.206433 39.3325 0.578131L33.0168 27.0541C32.963 27.2793 33.0149 27.5168 33.1572 27.6984L36.0819 31.4299C34.5608 32.3785 33.5445 34.076 33.5445 36.0089C33.5445 36.404 33.5882 36.789 33.6687 37.16L7.75681 52.2525C7.42866 52.4436 7.29405 52.8521 7.44361 53.2034C7.56414 53.4865 7.83845 53.6603 8.13071 53.6603C8.20091 53.6603 8.27235 53.6502 8.3429 53.6292L34.2288 45.9089C34.4489 45.8433 34.627 45.6792 34.7118 45.4639L36.5329 40.8392C36.5771 40.8612 36.6221 40.8818 36.6671 40.9026L28.7314 76.1174C28.6939 76.3367 28.7542 76.5614 28.8964 76.7316C29.0384 76.9018 29.2478 77 29.4684 77H47.8725C48.0931 77 48.3023 76.9018 48.4445 76.7316C48.5867 76.5616 48.6468 76.3367 48.6095 76.1174L40.7042 41.0628C41.25 40.8614 41.7534 40.5715 42.1994 40.2121L68.4942 55.5275C68.6116 55.5958 68.7402 55.6286 68.8676 55.6286C69.0967 55.6286 69.3214 55.5225 69.4671 55.3256C69.6937 55.0198 69.6576 54.5908 69.383 54.3275ZM34.5561 27.0503L39.3117 7.11391V30.6487C39.1683 30.637 39.0235 30.6294 38.8771 30.6294C38.4024 30.6294 37.9423 30.6931 37.5038 30.8112L34.5561 27.0503ZM38.8771 32.1382C40.9926 32.1382 42.7139 33.8746 42.7139 36.0091C42.7139 38.1432 40.9927 39.8798 38.8771 39.8798C36.7615 39.8798 35.0403 38.1434 35.0403 36.0091C35.0403 33.8746 36.7615 32.1382 38.8771 32.1382ZM33.456 44.5661L13.9639 50.3794L34.2013 38.5921C34.4816 39.1065 34.843 39.5697 35.268 39.9644L33.456 44.5661ZM46.1582 70.66H39.7261C39.3129 70.66 38.9783 70.9978 38.9783 71.4144C38.9783 71.831 39.3129 72.1688 39.7261 72.1688H46.4159L46.9843 75.4916H30.3561L33.6578 62.5059H35.3273C35.7402 62.5059 36.0751 62.1681 36.0751 61.7515C36.0751 61.3349 35.7402 60.9971 35.3273 60.9971H33.916L38.1112 41.3323C38.3614 41.3689 38.617 41.3886 38.8771 41.3886C38.999 41.3886 39.1196 41.3829 39.2396 41.3747L46.1582 70.66ZM43.2499 39.0821C43.5469 38.6532 43.7835 38.1791 43.9473 37.6719L49.0464 36.9184L63.7828 51.0414L43.2499 39.0821Z" fill="white"/>
</svg>
