<svg width="303" height="346" viewBox="0 0 303 346" fill="none" xmlns="http://www.w3.org/2000/svg">
<path fill-rule="evenodd" clip-rule="evenodd" d="M151.407 0.477997C151.112 0.740817 150.454 1.23303 149.946 1.57177C149.438 1.9105 148.842 2.33828 148.621 2.52237C148.4 2.70646 148.026 2.9874 147.791 3.14658C147.555 3.30583 147.196 3.56795 146.993 3.72924C146.643 4.0069 146.394 4.19395 145.143 5.11582C144.852 5.3306 144.438 5.64692 144.224 5.81875C143.779 6.17491 143.014 6.74999 142.3 7.26368C142.031 7.45699 141.605 7.79307 141.352 8.01059C141.099 8.22811 140.77 8.49038 140.62 8.59332C140.47 8.69634 140.14 8.9519 139.887 9.16122C139.634 9.37054 139.292 9.62672 139.128 9.73052C138.964 9.83432 138.593 10.1341 138.304 10.3968C138.015 10.6595 137.592 10.9938 137.364 11.1397C137.137 11.2856 136.732 11.6076 136.466 11.8552C136.2 12.1028 135.842 12.3904 135.67 12.4943C135.499 12.5983 135.134 12.8872 134.86 13.1364C134.586 13.3856 134.17 13.7174 133.934 13.8739C133.699 14.0304 133.274 14.3759 132.99 14.6417C132.707 14.9076 132.299 15.2441 132.085 15.3897C131.87 15.5353 131.359 15.9599 130.948 16.3334C130.538 16.7068 130.092 17.0795 129.957 17.1617C129.822 17.2438 129.299 17.6922 128.794 18.1581C128.289 18.624 127.724 19.1018 127.539 19.22C127.354 19.3382 126.814 19.7981 126.338 20.2419C125.863 20.6859 125.33 21.1535 125.155 21.2812C124.979 21.409 124.257 22.0546 123.549 22.7158C122.842 23.3771 122.105 24.0263 121.913 24.1584C121.72 24.2907 120.633 25.2928 119.499 26.3855C118.364 27.4782 117.189 28.5659 116.888 28.8027C116.073 29.4423 107.559 37.9693 107.005 38.7006C106.744 39.0442 105.728 40.1543 104.746 41.1675C103.765 42.1807 102.885 43.1371 102.791 43.2929C102.697 43.4487 102.215 44.0081 101.719 44.536C101.224 45.0638 100.594 45.7768 100.319 46.1205C100.045 46.4641 99.5083 47.0792 99.1274 47.4873C98.7465 47.8954 98.3171 48.412 98.1733 48.6355C98.0295 48.8589 97.6707 49.2982 97.376 49.6118C97.0812 49.9253 96.6931 50.3835 96.5135 50.6299C96.3339 50.8762 95.9906 51.298 95.7507 51.5671C95.5108 51.8362 95.2075 52.2145 95.0769 52.4078C94.9461 52.6011 94.6073 53.0405 94.3238 53.3841C93.7963 54.0237 93.1787 54.8247 92.4878 55.7654C92.2734 56.0572 91.9578 56.475 91.7863 56.6938C91.6148 56.9126 91.2573 57.382 90.9919 57.7372C90.7265 58.0922 90.3327 58.6112 90.1169 58.8905C89.901 59.1697 89.4191 59.8551 89.046 60.4135C88.6729 60.9719 88.2407 61.587 88.0855 61.7803C87.6153 62.3663 86.4764 64.0463 84.8853 66.5011C84.4336 67.1979 83.9395 67.9419 83.7872 68.1543C83.6349 68.3667 83.3605 68.8208 83.1776 69.1633C82.9946 69.5057 82.733 69.9441 82.5963 70.1375C82.4596 70.3308 82.2462 70.6822 82.1221 70.9185C81.9979 71.1548 81.7852 71.5062 81.6493 71.6995C81.5136 71.8928 81.2691 72.297 81.1061 72.5977C80.9431 72.8984 80.7004 73.3026 80.5668 73.4959C80.4332 73.6892 80.1178 74.2506 79.8659 74.7433C79.614 75.2361 79.2325 75.939 79.0183 76.3054C78.51 77.1744 77.183 79.6776 76.5741 80.9158C76.3101 81.4528 75.521 83.054 74.8205 84.474C74.12 85.894 73.4429 87.335 73.316 87.6763C73.1891 88.0175 72.8821 88.7062 72.634 89.2069C72.3858 89.7075 72.1828 90.1394 72.1828 90.1666C72.1828 90.2348 71.3795 92.2805 71.0155 93.1391C70.8517 93.5257 70.6941 93.9299 70.6654 94.0373C70.6367 94.1447 70.4944 94.5137 70.3492 94.8574C70.0143 95.6496 69.763 96.3301 69.5121 97.124C69.4032 97.4686 69.1527 98.1715 68.9554 98.6861C68.7581 99.2007 68.5311 99.7975 68.4509 100.012C68.2174 100.638 67.5028 102.893 67.5044 102.999C67.5053 103.052 67.421 103.351 67.3172 103.663C67.0332 104.516 66.8232 105.283 66.7698 105.663C66.7435 105.851 66.6706 106.103 66.6077 106.225C66.5448 106.347 66.4584 106.686 66.4155 106.978C66.3727 107.271 66.2864 107.651 66.2237 107.823C66.161 107.994 66.1083 108.283 66.1064 108.465C66.1045 108.646 66.0153 109.063 65.9081 109.392C65.7771 109.794 65.7121 110.173 65.7098 110.547C65.7079 110.854 65.6524 111.243 65.5856 111.415C65.5082 111.615 65.4417 112.177 65.4007 112.978C65.352 113.928 65.2978 114.334 65.1742 114.674C65.0183 115.103 65.0117 115.268 65.0117 118.706C65.0117 122.139 65.0187 122.312 65.1756 122.789C65.2893 123.135 65.3589 123.622 65.4026 124.381C65.4402 125.031 65.5145 125.601 65.5861 125.787C65.6523 125.958 65.7079 126.349 65.7098 126.655C65.7121 127.029 65.7771 127.408 65.9081 127.81C66.0153 128.139 66.103 128.473 66.103 128.552C66.103 128.631 66.1731 128.915 66.2589 129.184C66.3446 129.453 66.4163 129.783 66.4182 129.917C66.42 130.051 66.4762 130.301 66.5428 130.473C66.6095 130.645 66.7133 131.004 66.7735 131.272C67.0219 132.377 68.0133 135.137 68.5903 136.331C68.7565 136.674 68.9751 137.182 69.0761 137.458C69.3182 138.121 70.4231 140.382 70.6574 140.694C70.7587 140.828 71.0078 141.255 71.2109 141.642C71.5314 142.252 72.2282 143.406 72.6487 144.024C72.7219 144.131 73.087 144.673 73.4603 145.228C73.8335 145.783 74.2715 146.398 74.4335 146.595C74.5956 146.792 74.8396 147.118 74.9759 147.319C75.1121 147.52 75.503 147.987 75.8444 148.357C76.1858 148.726 76.587 149.211 76.7359 149.435C77.0712 149.94 81.5309 154.393 81.9813 154.674C82.1618 154.786 82.6017 155.154 82.959 155.491C83.3163 155.829 83.8098 156.234 84.0557 156.391C84.3016 156.549 84.6508 156.814 84.8318 156.981C85.0128 157.148 85.5066 157.515 85.9292 157.796C86.3517 158.077 86.9305 158.487 87.2153 158.706C87.783 159.143 88.4257 159.567 89.3449 160.111C90.0721 160.541 91.0052 161.115 91.81 161.628C92.5102 162.074 100.015 165.857 100.36 165.937C100.489 165.967 101.015 166.186 101.53 166.423C102.044 166.661 102.658 166.917 102.894 166.993C103.553 167.206 104.932 167.728 105.195 167.865C105.325 167.933 105.623 168.041 105.858 168.105C106.092 168.17 106.848 168.417 107.536 168.655C108.225 168.893 109.014 169.138 109.29 169.199C109.566 169.259 110.09 169.404 110.454 169.52C111.106 169.727 111.872 169.93 112.871 170.158C113.149 170.221 113.563 170.342 113.79 170.426C114.016 170.51 114.301 170.579 114.422 170.579C114.544 170.579 114.863 170.65 115.131 170.736C115.4 170.821 115.756 170.892 115.922 170.892C116.089 170.892 116.476 170.98 116.783 171.087C117.11 171.201 117.521 171.284 117.775 171.286C118.015 171.288 118.35 171.342 118.522 171.406C118.693 171.471 119.167 171.556 119.574 171.595C119.981 171.634 120.515 171.738 120.761 171.826C121.066 171.935 121.401 171.985 121.822 171.985C122.205 171.985 122.611 172.04 122.896 172.13C123.176 172.219 123.718 172.293 124.29 172.321C124.907 172.352 125.394 172.422 125.723 172.528C126.158 172.668 126.42 172.688 127.836 172.688C129.238 172.688 129.518 172.709 129.941 172.844C130.412 172.995 130.644 173.001 136.488 173.001C142.333 173.001 142.565 172.995 143.036 172.844C143.45 172.712 143.739 172.688 144.946 172.688C146.141 172.688 146.443 172.664 146.844 172.536C147.106 172.452 147.681 172.359 148.121 172.329C148.561 172.3 149.127 172.21 149.379 172.13C149.665 172.04 150.07 171.985 150.453 171.985C150.873 171.985 151.21 171.935 151.515 171.826C151.76 171.739 152.276 171.635 152.662 171.595C153.048 171.555 153.504 171.47 153.676 171.406C153.847 171.342 154.118 171.288 154.277 171.286C154.436 171.284 154.752 171.213 154.978 171.129C155.368 170.985 155.992 170.826 156.871 170.649C157.086 170.605 157.489 170.5 157.768 170.414C158.046 170.328 158.485 170.212 158.742 170.156C158.999 170.099 159.508 169.959 159.872 169.843C160.237 169.727 160.74 169.581 160.991 169.517C161.604 169.361 162.451 169.076 163.068 168.817C163.347 168.7 164.048 168.437 164.627 168.231C166.282 167.644 167.126 167.314 167.589 167.073C167.825 166.95 168.247 166.774 168.528 166.682C169.64 166.319 173.435 164.255 173.552 163.951C173.635 163.735 173.461 163.673 173.041 163.77C172.823 163.821 172.427 163.864 172.162 163.866C171.898 163.868 171.541 163.922 171.369 163.986C171.198 164.051 170.722 164.135 170.312 164.174C169.902 164.212 169.411 164.301 169.221 164.37C169.026 164.441 168.433 164.526 167.862 164.564C167.305 164.601 166.708 164.682 166.537 164.744C166.365 164.806 165.776 164.88 165.228 164.908C164.619 164.939 164.104 165.007 163.903 165.084C163.66 165.177 163.13 165.224 161.86 165.267C160.461 165.315 160.081 165.352 159.794 165.471C159.462 165.608 159.102 165.616 153.052 165.616L146.66 165.617L146.163 165.443C145.73 165.291 145.507 165.268 144.448 165.268C143.472 165.268 143.124 165.238 142.696 165.115C142.401 165.031 141.805 164.938 141.371 164.909C140.936 164.879 140.374 164.79 140.122 164.71C139.851 164.625 139.433 164.565 139.1 164.565C138.76 164.565 138.351 164.506 138.073 164.417C137.818 164.336 137.331 164.243 136.991 164.212C136.65 164.18 136.165 164.089 135.913 164.008C135.661 163.928 135.36 163.862 135.245 163.862C135.129 163.862 134.784 163.774 134.477 163.667C134.17 163.56 133.783 163.472 133.616 163.472C133.449 163.472 133.093 163.402 132.825 163.316C132.557 163.23 132.258 163.159 132.161 163.159C132.063 163.159 131.744 163.085 131.45 162.993C131.156 162.901 130.722 162.782 130.487 162.729C129.593 162.525 126.154 161.366 125.264 160.969C124.9 160.807 124.426 160.618 124.212 160.55C123.998 160.481 122.787 159.906 121.523 159.271C119.624 158.318 118.932 157.922 117.548 156.997C116.626 156.382 115.724 155.741 115.543 155.575C115.362 155.408 115.011 155.143 114.763 154.987C114.289 154.686 110.801 151.277 110.408 150.73C110.283 150.557 109.987 150.163 109.749 149.855C109.325 149.307 108.673 148.364 108.058 147.41C107.525 146.583 106.108 143.637 105.771 142.657C105.301 141.292 105.07 140.536 104.946 139.962C104.885 139.683 104.767 139.269 104.683 139.042C104.599 138.815 104.53 138.459 104.53 138.251C104.53 138.044 104.465 137.667 104.386 137.415C104.306 137.162 104.217 136.599 104.188 136.164C104.159 135.728 104.066 135.131 103.982 134.836C103.84 134.338 103.829 134.043 103.829 130.668C103.829 127.272 103.839 127 103.985 126.49C104.08 126.157 104.16 125.566 104.191 124.968C104.222 124.366 104.297 123.814 104.386 123.531C104.465 123.278 104.53 122.889 104.53 122.666C104.53 122.434 104.614 122.02 104.725 121.701C104.833 121.394 104.92 121.006 104.92 120.839C104.92 120.672 104.99 120.315 105.076 120.046C105.162 119.777 105.232 119.455 105.232 119.331C105.232 119.207 105.32 118.854 105.427 118.547C105.534 118.239 105.621 117.933 105.62 117.865C105.618 117.729 106.28 115.64 106.674 114.535C106.813 114.146 106.986 113.625 107.058 113.378C107.129 113.131 107.289 112.741 107.413 112.512C107.537 112.282 107.678 111.942 107.727 111.755C107.776 111.568 108.001 111.011 108.228 110.517C108.454 110.023 108.684 109.478 108.738 109.307C108.856 108.932 109.717 107.145 111.408 103.761C112.965 100.644 113.362 99.89 113.728 99.3484C113.888 99.1121 114.133 98.6904 114.272 98.4111C114.412 98.1319 114.637 97.7453 114.773 97.552C114.91 97.3587 115.157 96.9545 115.323 96.6538C115.488 96.3531 115.754 95.9137 115.912 95.6775C116.071 95.4412 116.279 95.0898 116.375 94.8964C116.471 94.7031 116.818 94.1475 117.146 93.6616C117.474 93.1758 117.857 92.5959 117.996 92.3729C118.136 92.15 118.442 91.7039 118.676 91.3818C119.088 90.8157 119.612 90.0635 120.389 88.9215C120.594 88.6208 120.85 88.28 120.958 88.1642C121.066 88.0484 121.316 87.7264 121.514 87.4487C122.272 86.3843 122.673 85.8668 123.241 85.2186C123.565 84.8495 123.915 84.4071 124.019 84.2352C124.123 84.0634 124.462 83.6502 124.773 83.3168C125.083 82.9835 125.477 82.5052 125.647 82.2538C125.817 82.0024 126.548 81.1856 127.271 80.4386C127.993 79.6915 128.738 78.8695 128.925 78.6117C129.366 78.0038 133.191 74.1708 133.799 73.727C134.057 73.5394 134.881 72.791 135.631 72.064C136.381 71.337 137.206 70.5997 137.463 70.4256C137.72 70.2516 138.264 69.7883 138.671 69.396C139.078 69.0039 139.587 68.564 139.801 68.4185C140.016 68.2731 140.514 67.8887 140.91 67.5642C141.803 66.8308 143.267 65.7134 144.394 64.9045C144.664 64.7112 145.005 64.4466 145.151 64.3164C145.298 64.1863 145.663 63.9149 145.962 63.7134C146.26 63.5118 146.803 63.135 147.167 62.8762C148.592 61.8638 153.086 58.9362 153.663 58.6444C153.841 58.5542 154.145 58.3676 154.338 58.2299C154.531 58.0922 154.97 57.8278 155.313 57.6424C155.655 57.4569 156.131 57.1731 156.369 57.0118C156.931 56.6313 163.365 53.4089 163.926 53.2275C164.161 53.1511 164.705 52.9199 165.134 52.7135C165.562 52.5072 166.422 52.1659 167.044 51.9553C167.666 51.7446 168.296 51.5093 168.445 51.4323C168.817 51.2396 169.924 50.8656 170.629 50.6947C170.95 50.6167 171.512 50.4587 171.876 50.3435C172.672 50.0919 173.566 49.8478 174.098 49.737C174.312 49.6922 174.761 49.572 175.096 49.4697C175.431 49.3674 175.786 49.2837 175.885 49.2837C175.984 49.2837 176.285 49.2134 176.553 49.1275C176.829 49.0391 177.255 48.9713 177.535 48.9713C177.851 48.9713 178.244 48.9008 178.626 48.776C179.088 48.6249 179.386 48.5807 179.943 48.5807C180.429 48.5807 180.813 48.5335 181.122 48.4355C181.503 48.315 181.959 48.2811 183.811 48.2361C185.344 48.1987 186.172 48.1468 186.461 48.0698C186.992 47.9283 187.317 47.9285 187.851 48.0709C188.146 48.1495 188.956 48.2004 190.501 48.2374C192.349 48.2816 192.804 48.3153 193.185 48.4357C193.781 48.6242 194.988 48.6379 195.243 48.4591C195.338 48.3923 195.416 48.2629 195.416 48.1717C195.416 47.9789 194.945 47.2204 194.328 46.4178C194.09 46.1088 193.738 45.6225 193.545 45.337C193.352 45.0516 193.046 44.6191 192.864 44.3758C192.682 44.1325 192.342 43.6517 192.108 43.3072C191.875 42.9627 191.591 42.5937 191.476 42.4871C191.362 42.3805 191.117 42.0649 190.93 41.7857C190.607 41.3012 190.46 41.1025 189.428 39.755C189.181 39.4328 188.918 39.0719 188.843 38.9528C188.768 38.8339 188.494 38.5008 188.233 38.2127C187.972 37.9244 187.64 37.5021 187.494 37.2739C187.349 37.0459 187.023 36.6363 186.77 36.3638C186.517 36.0915 186.221 35.7278 186.113 35.5559C186.005 35.3839 185.7 35.0018 185.437 34.7069C185.174 34.4119 184.849 34.0124 184.716 33.8191C184.583 33.6258 184.2 33.1724 183.865 32.8117C183.53 32.4509 183.126 31.9589 182.966 31.7182C182.807 31.4776 182.409 30.9995 182.083 30.6558C181.756 30.3122 181.336 29.8201 181.149 29.5624C180.962 29.3046 180.445 28.6933 180 28.204C179.555 27.7146 179.106 27.1796 179.002 27.015C178.899 26.8505 178.283 26.1614 177.634 25.4836C176.986 24.8059 176.355 24.0963 176.233 23.9067C176.111 23.7172 175.222 22.743 174.258 21.7418C173.294 20.7406 172.41 19.771 172.295 19.5871C171.927 19.0028 157.094 4.13428 156.245 3.4993C155.947 3.27584 154.996 2.39709 154.132 1.54654C152.625 0.0620927 152.55 0 152.253 0C151.986 0 151.873 0.0640453 151.407 0.477997ZM178.252 63.9672C177.948 64.0676 177.445 64.1309 176.654 64.1685C175.88 64.2054 175.35 64.2712 175.042 64.3687C174.741 64.4642 174.351 64.514 173.902 64.514C173.387 64.514 173.076 64.5614 172.624 64.7092C172.296 64.8166 171.963 64.9045 171.884 64.9045C171.805 64.9045 171.521 64.9748 171.253 65.0607C170.984 65.1466 170.593 65.2169 170.382 65.2169C170.172 65.2169 169.87 65.2735 169.711 65.3427C169.417 65.4704 168.772 65.662 167.784 65.9155C166.372 66.2776 164.726 66.8815 162.423 67.8827C161.832 68.1394 161.217 68.3961 161.056 68.4531C160.564 68.6269 157.99 69.9169 157.534 70.2181C157.298 70.3737 156.825 70.6518 156.482 70.8363C156.139 71.0206 155.578 71.3559 155.235 71.5812C154.892 71.8066 154.348 72.1601 154.026 72.3668C153.309 72.8281 153.192 72.9061 152.506 73.379C152.206 73.5861 151.544 74.0361 151.035 74.3788C150.525 74.7215 149.929 75.1474 149.709 75.3252C149.49 75.503 149.188 75.7327 149.038 75.8359C148.888 75.9389 148.484 76.2578 148.141 76.5443C147.798 76.831 147.413 77.1321 147.284 77.2138C147.156 77.2953 146.683 77.6916 146.232 78.0943C145.782 78.4971 145.274 78.9153 145.104 79.0239C144.934 79.1324 144.459 79.5424 144.05 79.9351C143.64 80.3278 143.043 80.8458 142.722 81.0863C142.011 81.62 137.002 86.6591 136.642 87.2032C136.5 87.418 135.939 88.0506 135.395 88.6091C134.852 89.1675 134.314 89.7724 134.202 89.9531C134.089 90.1339 133.777 90.5345 133.508 90.8434C133.24 91.1522 132.862 91.6259 132.669 91.8959C132.06 92.7486 131.547 93.4282 131.294 93.718C131.003 94.0523 130.528 94.7373 129.42 96.4195C128.968 97.1068 128.33 98.0657 128.003 98.5502C127.675 99.0349 127.214 99.7729 126.977 100.19C126.741 100.608 126.437 101.11 126.301 101.307C126.166 101.503 125.937 101.907 125.793 102.205C125.333 103.153 124.385 104.917 124.084 105.387C123.924 105.637 123.733 106.023 123.661 106.246C123.589 106.469 123.258 107.213 122.925 107.901C122.212 109.373 121.868 110.155 121.79 110.478C121.759 110.607 121.621 110.941 121.483 111.22C121.346 111.499 121.17 111.921 121.092 112.157C121.015 112.394 120.835 112.832 120.692 113.132C120.549 113.431 120.432 113.721 120.432 113.776C120.432 113.917 120.146 114.736 119.825 115.516C119.47 116.38 119.201 117.159 119.058 117.742C118.936 118.236 118.418 119.944 118.17 120.671C118.032 121.073 117.883 121.67 117.691 122.584C117.646 122.799 117.525 123.239 117.423 123.562C117.32 123.885 117.236 124.223 117.236 124.313C117.236 124.404 117.166 124.698 117.08 124.967C116.994 125.235 116.924 125.592 116.924 125.759C116.924 125.926 116.836 126.314 116.729 126.622C116.615 126.949 116.533 127.361 116.531 127.616C116.529 127.856 116.475 128.192 116.411 128.364C116.348 128.536 116.264 128.963 116.226 129.314C116.187 129.665 116.095 130.069 116.021 130.212C115.931 130.386 115.868 130.76 115.833 131.334C115.803 131.807 115.732 132.282 115.675 132.388C115.614 132.501 115.55 132.987 115.52 133.558C115.482 134.304 115.435 134.599 115.32 134.808C115.178 135.067 115.169 135.313 115.148 139.758C115.129 143.929 115.14 144.455 115.251 144.625C115.33 144.746 115.434 144.806 115.539 144.79C115.708 144.765 115.683 144.833 116.582 141.954C116.689 141.61 116.842 141.083 116.922 140.783C117.189 139.778 117.312 139.385 117.748 138.127C117.987 137.44 118.247 136.667 118.325 136.409C118.403 136.151 118.561 135.694 118.676 135.393C118.792 135.093 118.949 134.636 119.026 134.378C119.103 134.12 119.262 133.699 119.378 133.441C119.495 133.183 119.671 132.744 119.769 132.465C119.868 132.185 120.105 131.623 120.296 131.215C120.488 130.807 120.688 130.332 120.743 130.16C120.859 129.792 121.552 128.338 122.923 125.591C124.219 122.993 124.665 122.152 124.984 121.703C125.128 121.501 125.36 121.106 125.499 120.827C125.638 120.548 125.881 120.126 126.039 119.89C126.197 119.653 126.473 119.232 126.651 118.952C127.052 118.324 128.074 116.795 128.479 116.219C128.644 115.983 128.98 115.503 129.224 115.154C130.222 113.725 130.683 113.112 131.067 112.704C131.29 112.468 131.605 112.064 131.769 111.806C131.932 111.548 132.424 110.968 132.862 110.517C133.301 110.066 133.776 109.521 133.92 109.307C134.268 108.785 138.643 104.368 139.19 103.985C139.428 103.819 140.013 103.33 140.491 102.899C140.969 102.467 141.5 102.029 141.672 101.926C141.843 101.822 142.177 101.556 142.412 101.333C143.307 100.491 145.363 99.2115 147.753 98.0101C148.995 97.3853 150.24 96.8008 150.519 96.711C150.797 96.6212 151.639 96.3347 152.39 96.0745C153.14 95.8142 153.845 95.6008 153.958 95.6003C154.07 95.5998 154.382 95.5291 154.65 95.4432C154.918 95.3573 155.282 95.287 155.459 95.287C155.636 95.287 156.084 95.1975 156.455 95.088L157.13 94.8891L160.703 94.9164C163.887 94.9407 164.314 94.9586 164.622 95.0808C164.812 95.1562 165.303 95.2495 165.713 95.2881C166.123 95.3267 166.599 95.411 166.771 95.4754C166.942 95.5398 167.188 95.5941 167.317 95.5959C167.446 95.5978 167.955 95.7393 168.447 95.9104C168.94 96.0814 169.538 96.2576 169.778 96.3018C170.017 96.3461 170.525 96.522 170.908 96.6926C171.29 96.8633 171.649 97.0034 171.705 97.0041C171.761 97.0047 172.164 97.1597 172.601 97.3484C173.038 97.5372 173.484 97.7168 173.591 97.7475C173.957 97.8524 176.513 99.1345 176.955 99.4349C177.197 99.5998 177.811 99.9513 178.319 100.216C178.827 100.481 179.365 100.791 179.515 100.906C179.665 101.021 180.103 101.319 180.489 101.569C181.241 102.055 181.525 102.255 182.156 102.746C183.378 103.695 183.733 103.96 184.044 104.156C184.232 104.275 184.72 104.694 185.127 105.087C185.534 105.48 186.131 105.997 186.452 106.235C187.168 106.767 190.92 110.485 191.285 111.025C191.431 111.24 191.938 111.839 192.413 112.356C192.887 112.874 193.415 113.495 193.586 113.737C193.756 113.979 194.177 114.493 194.52 114.88C195.122 115.559 195.473 116.011 196.177 117.013C196.36 117.273 196.653 117.649 196.828 117.848C197.003 118.048 197.237 118.369 197.348 118.562C197.458 118.755 197.648 119.042 197.77 119.2C198.116 119.648 198.524 120.229 199.82 122.116C200.258 122.753 200.313 122.836 200.887 123.717C201.125 124.082 201.407 124.539 201.513 124.732C201.619 124.926 201.902 125.4 202.141 125.787C203.085 127.314 203.267 127.614 203.747 128.442C204.59 129.898 205.051 130.77 206.369 133.402C208.28 137.218 209.185 139.087 209.395 139.65C209.611 140.229 209.973 141.116 210.592 142.579C211.056 143.676 211.818 145.75 211.906 146.156C211.936 146.293 212.075 146.636 212.215 146.916C212.356 147.197 212.512 147.583 212.562 147.775C212.612 147.967 212.788 148.511 212.952 148.984C213.116 149.456 213.307 150.018 213.376 150.233C213.825 151.627 213.958 152.074 214.028 152.42C214.072 152.635 214.234 153.173 214.388 153.617C214.542 154.06 214.67 154.535 214.672 154.671C214.674 154.808 214.73 155.06 214.796 155.232C214.863 155.404 214.981 155.808 215.059 156.13C215.244 156.894 215.485 157.73 215.634 158.122C215.7 158.294 215.755 158.579 215.756 158.756C215.758 158.933 215.83 159.298 215.916 159.567C216.002 159.836 216.072 160.134 216.072 160.231C216.072 160.327 216.159 160.675 216.267 161.004C216.374 161.333 216.461 161.755 216.461 161.941C216.461 162.127 216.532 162.5 216.617 162.769C216.703 163.038 216.773 163.335 216.773 163.429C216.773 163.523 216.861 163.894 216.968 164.253C217.077 164.617 217.163 165.102 217.163 165.35C217.163 165.594 217.233 166.015 217.319 166.284C217.405 166.552 217.475 166.938 217.475 167.139C217.475 167.341 217.562 167.799 217.67 168.158C217.809 168.623 217.864 168.994 217.864 169.45C217.864 169.875 217.917 170.255 218.02 170.579C218.132 170.93 218.176 171.283 218.176 171.831C218.176 172.391 218.228 172.792 218.371 173.344C218.546 174.021 218.566 174.248 218.566 175.608C218.566 176.905 218.588 177.189 218.722 177.609C218.87 178.074 218.878 178.313 218.878 182.568C218.878 186.824 218.87 187.062 218.722 187.528C218.59 187.941 218.566 188.232 218.566 189.399C218.566 190.647 218.547 190.844 218.371 191.433C218.232 191.898 218.176 192.269 218.176 192.725C218.176 193.15 218.124 193.53 218.02 193.854C217.927 194.146 217.864 194.558 217.864 194.877C217.864 195.236 217.8 195.609 217.67 196.01C217.562 196.339 217.475 196.757 217.475 196.939C217.475 197.121 217.405 197.491 217.319 197.76C217.233 198.028 217.163 198.349 217.163 198.472C217.163 198.595 217.08 198.951 216.978 199.262C216.876 199.574 216.756 200.005 216.711 200.22C216.54 201.039 216.134 202.432 215.721 203.617C215.609 203.939 215.445 204.432 215.356 204.711C215.268 204.99 215.099 205.412 214.981 205.648C214.863 205.884 214.709 206.28 214.638 206.527C214.567 206.774 214.419 207.143 214.309 207.347C214.2 207.551 213.97 208.069 213.798 208.499C213.493 209.263 212.695 210.862 212.418 211.264C212.342 211.376 212.094 211.818 211.868 212.248C211.493 212.961 210.285 214.898 209.633 215.83C209.243 216.388 209.296 216.818 209.754 216.816C209.863 216.815 210.175 216.745 210.447 216.66C210.719 216.574 211.126 216.504 211.353 216.504C211.579 216.504 211.971 216.439 212.223 216.358C212.475 216.277 212.944 216.185 213.266 216.153C213.587 216.121 214.056 216.029 214.309 215.948C214.561 215.867 214.964 215.8 215.205 215.798C215.446 215.796 215.783 215.743 215.955 215.68C216.126 215.617 216.529 215.53 216.851 215.487C217.172 215.445 217.637 215.34 217.884 215.254C218.131 215.169 218.517 215.097 218.742 215.095C218.967 215.093 219.291 215.04 219.462 214.977C219.634 214.914 220.037 214.827 220.358 214.785C220.679 214.742 221.144 214.637 221.391 214.551C221.638 214.466 221.946 214.396 222.076 214.396C222.205 214.396 222.501 214.329 222.733 214.247C222.965 214.166 223.306 214.075 223.491 214.046C223.676 214.018 224.029 213.926 224.276 213.843C224.523 213.761 224.908 213.691 225.133 213.689C225.358 213.687 225.682 213.631 225.854 213.565C226.175 213.44 227.114 213.196 227.803 213.058C228.017 213.015 228.42 212.91 228.699 212.824C229.173 212.679 229.675 212.554 230.609 212.35C230.823 212.303 231.272 212.181 231.607 212.08C231.941 211.979 232.277 211.896 232.353 211.896C232.49 211.896 233.23 211.688 233.921 211.455C234.114 211.39 234.544 211.27 234.876 211.187C235.208 211.105 235.752 210.969 236.084 210.886C236.417 210.803 236.987 210.641 237.351 210.525C237.715 210.409 238.277 210.251 238.598 210.174C239.301 210.004 240.157 209.739 241.209 209.365C241.638 209.213 242.076 209.088 242.184 209.088C242.373 209.088 243.994 208.584 245.73 207.986C247.028 207.539 247.319 207.446 247.913 207.289C249.102 206.973 250.97 206.378 251.693 206.084C251.843 206.024 252.317 205.861 252.745 205.724C253.174 205.587 253.805 205.36 254.148 205.221C254.73 204.985 255.257 204.8 257.656 203.994C258.17 203.821 258.837 203.579 259.137 203.456C259.961 203.119 261.985 202.397 262.294 202.329C262.444 202.297 262.774 202.166 263.027 202.038C263.451 201.825 263.865 201.668 265.022 201.281C265.258 201.203 265.737 201.011 266.087 200.855C266.437 200.699 266.765 200.571 266.816 200.571C266.868 200.571 267.265 200.417 267.7 200.229C268.135 200.04 268.736 199.809 269.036 199.714C270.006 199.408 270.202 199.326 270.645 199.049C271.122 198.75 271.401 198.386 271.613 197.788C271.744 197.42 271.744 197.369 271.621 196.879C271.55 196.594 271.491 196.219 271.491 196.045C271.491 195.871 271.422 195.527 271.337 195.28C271.252 195.033 271.147 194.585 271.104 194.284C271.06 193.983 270.973 193.597 270.911 193.425C270.848 193.253 270.795 192.91 270.793 192.664C270.792 192.417 270.722 192.013 270.639 191.765C270.556 191.518 270.45 191.057 270.403 190.741C270.356 190.424 270.28 190.095 270.234 190.008C270.188 189.922 270.123 189.527 270.089 189.131C270.054 188.727 269.97 188.3 269.896 188.158C269.825 188.019 269.735 187.611 269.698 187.252C269.662 186.894 269.591 186.524 269.541 186.432C269.492 186.339 269.422 185.955 269.387 185.577C269.352 185.2 269.266 184.78 269.195 184.644C269.125 184.508 269.036 184.118 268.997 183.777C268.958 183.436 268.889 183.087 268.843 183.001C268.798 182.916 268.727 182.581 268.686 182.258C268.645 181.934 268.556 181.563 268.489 181.432C268.421 181.301 268.333 180.924 268.294 180.593C268.254 180.262 268.169 179.85 268.106 179.678C268.043 179.507 267.99 179.278 267.989 179.171C267.987 179.063 267.901 178.694 267.796 178.351C267.691 178.007 267.567 177.541 267.522 177.316C267.319 176.319 267.258 176.058 267.122 175.617C267.042 175.359 266.925 174.92 266.862 174.641C266.719 174.015 266.489 173.061 266.306 172.337C266.176 171.823 266.095 171.509 265.769 170.267C265.695 169.988 265.599 169.583 265.554 169.369C265.509 169.154 265.421 168.82 265.358 168.627C265.295 168.433 265.179 168.012 265.1 167.689C265.022 167.367 264.881 166.84 264.788 166.518C264.694 166.196 264.568 165.739 264.507 165.503C264.446 165.266 264.327 164.836 264.242 164.546C264.156 164.256 264.017 163.781 263.932 163.491C263.846 163.201 263.728 162.771 263.669 162.535C263.61 162.298 263.467 161.806 263.352 161.441C263.237 161.076 263.077 160.531 262.997 160.23C262.745 159.284 262.543 158.616 262.258 157.784C262.106 157.341 261.982 156.921 261.982 156.85C261.982 156.78 261.877 156.405 261.748 156.016C261.619 155.628 261.198 154.343 260.812 153.162C260.427 151.981 260.018 150.751 259.906 150.428C259.793 150.106 259.62 149.579 259.521 149.257C259.422 148.935 259.177 148.249 258.976 147.734C258.312 146.03 258.223 145.786 258.083 145.274C258.006 144.994 257.778 144.344 257.575 143.829C257.373 143.313 257.053 142.47 256.864 141.954C256.676 141.439 256.42 140.771 256.295 140.47C256.171 140.169 256.027 139.783 255.975 139.611C255.923 139.439 255.775 139.088 255.647 138.83C255.518 138.572 255.332 138.133 255.235 137.854C254.988 137.148 254.575 136.138 253.987 134.804C253.711 134.179 253.486 133.613 253.486 133.546C253.486 133.479 253.277 133.005 253.022 132.491C252.767 131.977 252.465 131.296 252.351 130.976C252.236 130.656 251.906 129.903 251.616 129.301C251.326 128.7 251.046 128.067 250.994 127.895C250.848 127.414 245.825 117.355 245.378 116.648C245.161 116.305 244.734 115.532 244.429 114.93C244.125 114.329 243.743 113.64 243.581 113.401C243.419 113.161 243.102 112.616 242.877 112.19C242.652 111.764 242.338 111.222 242.18 110.986C242.022 110.75 241.778 110.328 241.638 110.049C241.497 109.769 241.291 109.421 241.179 109.274C241.068 109.128 240.819 108.732 240.625 108.395C239.957 107.23 237.317 103.177 235.827 101.028C235.38 100.383 234.923 99.719 234.81 99.5514C234.698 99.3838 234.408 98.9894 234.166 98.6748C233 97.1579 232.217 96.0853 231.896 95.5627C231.791 95.3921 231.498 95.0238 231.245 94.7443C230.992 94.4648 230.67 94.0548 230.528 93.8332C230.387 93.6116 230.058 93.1947 229.798 92.9068C229.537 92.6189 229.216 92.2227 229.084 92.0264C228.952 91.8302 228.562 91.362 228.218 90.986C227.874 90.6101 227.472 90.1233 227.325 89.9043C227.178 89.6853 226.728 89.1574 226.326 88.7313C225.924 88.3052 225.394 87.6816 225.148 87.3456C224.535 86.5097 214.512 76.4759 213.772 75.9581C213.472 75.748 212.999 75.3601 212.72 75.0962C212.441 74.8322 211.933 74.4109 211.59 74.1599C211.247 73.9089 210.839 73.5902 210.683 73.4518C210.244 73.0619 205.857 70.1721 205.261 69.8803C204.969 69.7373 203.924 69.2144 202.938 68.7185C201.952 68.2224 200.934 67.7261 200.677 67.6154C198.653 66.7447 196.446 65.9712 194.948 65.6076C194.627 65.5295 194.223 65.4112 194.052 65.3447C193.88 65.2782 193.617 65.2206 193.467 65.2169C193.317 65.2132 193.054 65.1587 192.883 65.0959C192.711 65.0331 192.325 64.9461 192.025 64.9025C191.725 64.8588 191.278 64.7536 191.031 64.6685C190.733 64.5657 190.377 64.514 189.969 64.514C189.588 64.514 189.183 64.4591 188.898 64.3689C188.571 64.2654 188.065 64.2083 187.133 64.1699C186.17 64.1302 185.701 64.076 185.349 63.9636C184.909 63.8224 184.641 63.8114 181.785 63.8159C178.983 63.8204 178.655 63.8345 178.252 63.9672ZM163.302 103.882C163.302 104.123 163.598 104.659 163.935 105.028C164.101 105.21 164.366 105.561 164.524 105.809C164.682 106.057 164.994 106.454 165.217 106.69C165.439 106.926 165.768 107.331 165.947 107.588C166.126 107.846 166.496 108.321 166.769 108.643C167.042 108.965 167.382 109.393 167.525 109.593C167.929 110.162 168.53 110.961 168.914 111.443C169.107 111.685 169.688 112.515 170.204 113.289C170.721 114.063 171.252 114.854 171.384 115.047C171.516 115.241 171.803 115.68 172.021 116.024C172.239 116.367 172.521 116.792 172.646 116.967C172.772 117.143 173.121 117.688 173.421 118.178C173.722 118.668 174.142 119.351 174.356 119.694C174.569 120.038 174.954 120.724 175.21 121.218C175.786 122.327 175.981 122.678 176.183 122.964C176.366 123.222 178.657 127.772 178.657 127.877C178.657 127.915 178.881 128.462 179.155 129.093C179.428 129.723 179.696 130.379 179.75 130.551C179.804 130.723 179.963 131.093 180.103 131.374C180.243 131.654 180.399 132.04 180.451 132.231C180.502 132.423 180.629 132.747 180.732 132.952C180.996 133.472 182.526 138.124 182.583 138.577C182.609 138.782 182.68 139.047 182.742 139.167C182.803 139.286 182.895 139.609 182.945 139.886C182.995 140.162 183.067 140.448 183.106 140.52C183.145 140.593 183.213 140.904 183.256 141.211C183.299 141.517 183.385 141.864 183.445 141.982C183.506 142.099 183.596 142.421 183.646 142.697C183.696 142.974 183.773 143.267 183.817 143.348C183.86 143.43 183.924 143.821 183.958 144.217C183.993 144.635 184.076 145.047 184.155 145.2C184.238 145.361 184.315 145.766 184.354 146.247C184.388 146.678 184.47 147.172 184.534 147.343C184.61 147.544 184.654 147.938 184.656 148.446C184.659 149.054 184.699 149.352 184.832 149.735C185 150.218 185.005 150.333 185.008 153.435C185.01 156.549 185.005 156.653 184.835 157.173C184.707 157.564 184.659 157.894 184.659 158.393C184.659 158.863 184.61 159.231 184.503 159.567C184.418 159.836 184.346 160.218 184.344 160.416C184.342 160.615 184.287 160.918 184.222 161.09C184.156 161.261 184.038 161.631 183.959 161.91C183.88 162.189 183.722 162.681 183.608 163.003C183.494 163.325 183.336 163.8 183.257 164.058C182.898 165.23 182.722 165.647 181.84 167.416C181.455 168.189 180.87 169.22 180.541 169.705C180.213 170.191 179.843 170.754 179.72 170.955C179.598 171.157 179.377 171.455 179.229 171.619C179.082 171.782 178.837 172.116 178.686 172.361C178.326 172.94 174.683 176.564 173.704 177.317C172.328 178.375 170.429 179.658 169.678 180.038C169.408 180.174 169.078 180.369 168.945 180.471C168.684 180.67 166.133 181.986 165.368 182.316C165.11 182.427 164.497 182.676 164.004 182.869C163.511 183.062 162.616 183.414 162.016 183.65C160.784 184.135 159.066 184.716 158.863 184.716C158.789 184.716 158.293 184.857 157.761 185.029C157.229 185.201 156.579 185.377 156.316 185.419C156.053 185.462 155.72 185.547 155.575 185.608C155.43 185.668 155.048 185.756 154.727 185.802C154.406 185.848 154.003 185.938 153.832 186.001C153.66 186.064 153.335 186.117 153.109 186.119C152.882 186.12 152.497 186.194 152.251 186.281C152.006 186.369 151.472 186.473 151.064 186.512C150.657 186.552 150.184 186.637 150.012 186.701C149.81 186.777 149.41 186.819 148.873 186.822C148.26 186.824 147.916 186.866 147.547 186.985C147.149 187.113 146.756 187.154 145.569 187.191C144.444 187.227 143.978 187.273 143.63 187.383C143.199 187.519 142.79 187.528 136.8 187.528C130.81 187.528 130.402 187.519 129.971 187.383C129.612 187.269 129.156 187.228 127.875 187.192C126.527 187.153 126.151 187.117 125.741 186.985C125.351 186.86 125.031 186.824 124.26 186.822C123.576 186.819 123.182 186.782 122.965 186.699C122.793 186.634 122.25 186.55 121.757 186.513C121.203 186.471 120.69 186.383 120.414 186.283C120.104 186.171 119.771 186.121 119.323 186.119C118.95 186.117 118.546 186.066 118.366 185.999C118.194 185.934 117.738 185.849 117.353 185.809C116.967 185.769 116.45 185.665 116.205 185.578C115.959 185.49 115.565 185.419 115.328 185.419C115.092 185.419 114.696 185.349 114.449 185.264C114.203 185.179 113.755 185.074 113.455 185.031C113.155 184.987 112.769 184.9 112.598 184.837C112.426 184.774 112.155 184.721 111.994 184.72C111.834 184.718 111.5 184.647 111.254 184.563C110.766 184.397 110.018 184.202 109.402 184.081C109.188 184.038 108.784 183.934 108.506 183.848C108.227 183.762 107.789 183.646 107.531 183.59C107.274 183.533 106.766 183.392 106.401 183.276C106.037 183.16 105.476 183.001 105.154 182.923C104.491 182.761 103.854 182.563 102.894 182.22C102.529 182.09 102.038 181.948 101.802 181.904C101.567 181.86 101.198 181.757 100.984 181.674C100.77 181.59 100.296 181.431 99.9317 181.319C99.5673 181.208 98.9359 180.98 98.5286 180.814C98.1214 180.648 97.2445 180.331 96.58 180.11C95.9155 179.889 95.0912 179.589 94.7482 179.443C94.4053 179.297 93.8791 179.084 93.579 178.97C93.2789 178.856 92.7353 178.613 92.3709 178.43C92.0065 178.247 91.5009 178.038 91.2474 177.964C90.9939 177.891 90.2749 177.575 89.6495 177.262C89.0242 176.949 88.3722 176.649 88.2007 176.595C87.7249 176.445 85.2166 175.204 84.7321 174.878C84.4963 174.72 83.7071 174.282 82.9783 173.905C82.2495 173.528 81.548 173.141 81.4194 173.043C81.2908 172.946 80.9746 172.759 80.7166 172.629C80.1261 172.33 78.2914 171.217 77.8086 170.865C77.6082 170.718 77.2544 170.503 77.0225 170.386C76.7907 170.269 76.2366 169.922 75.7912 169.615C75.3458 169.308 74.781 168.932 74.5361 168.78C74.2913 168.627 73.8927 168.346 73.6504 168.155C73.4082 167.963 72.9586 167.631 72.6515 167.416C72.3443 167.201 71.8413 166.832 71.5338 166.596C71.2262 166.359 70.8343 166.073 70.6628 165.96C70.4913 165.848 70.0083 165.452 69.5894 165.082C69.1705 164.712 68.68 164.315 68.4993 164.201C68.3186 164.087 67.802 163.637 67.3512 163.202C66.0737 161.968 65.7099 161.639 65.2029 161.258C64.6318 160.83 63.544 159.708 63.255 159.249C63.1393 159.066 62.5794 158.435 62.0108 157.848C61.4422 157.261 60.89 156.643 60.7838 156.475C60.6775 156.307 60.3547 155.891 60.0663 155.551C59.7779 155.212 59.456 154.797 59.351 154.631C59.246 154.464 59.0428 154.197 58.8995 154.038C58.7561 153.878 58.3715 153.344 58.0448 152.85C57.7181 152.356 57.345 151.793 57.2156 151.6C57.0863 151.407 56.8281 151.02 56.6418 150.741C56.4556 150.461 56.1353 149.916 55.9301 149.53C55.725 149.143 55.3938 148.564 55.1942 148.242C54.7562 147.534 53.9275 145.867 53.7194 145.274C53.6365 145.037 53.3774 144.44 53.1435 143.946C52.9098 143.452 52.6735 142.907 52.6186 142.735C52.4044 142.065 52.0276 141.805 51.7436 142.13C51.4869 142.424 50.6842 144.116 50.4742 144.805C50.4414 144.912 50.1428 145.563 49.8105 146.25C49.4783 146.937 49.1627 147.64 49.1095 147.812C49.0562 147.984 48.8374 148.492 48.6233 148.941C48.4091 149.39 48.1717 149.935 48.0957 150.151C48.0197 150.368 47.7842 150.932 47.5723 151.405C47.3605 151.877 47.124 152.457 47.0468 152.693C46.9696 152.93 46.7925 153.352 46.6533 153.631C46.514 153.91 46.3474 154.314 46.2829 154.529C46.2185 154.744 46.0418 155.201 45.8904 155.544C45.7389 155.888 45.5891 156.275 45.5574 156.403C45.5257 156.532 45.397 156.866 45.2714 157.145C45.1459 157.425 44.8904 158.075 44.7037 158.59C44.517 159.106 44.2021 159.949 44.0039 160.465C43.8056 160.98 43.577 161.613 43.4959 161.871C43.3026 162.485 42.9649 163.419 42.6207 164.292C42.4683 164.679 42.2678 165.241 42.1752 165.542C42.0826 165.842 41.9567 166.211 41.8953 166.362C41.7586 166.697 41.1998 168.338 41.0047 168.978C40.9261 169.236 40.7691 169.71 40.6558 170.033C40.5425 170.355 40.3847 170.829 40.305 171.087C40.2254 171.345 40.0683 171.819 39.9558 172.141C39.8433 172.464 39.6856 172.956 39.6053 173.235C39.5249 173.514 39.3653 174.006 39.2505 174.328C39.1356 174.65 39.0051 175.09 38.9603 175.305C38.9156 175.519 38.7472 176.099 38.5861 176.593C38.425 177.087 38.1829 177.878 38.0481 178.351C37.5976 179.93 37.5114 180.219 37.1518 181.358C36.955 181.981 36.7943 182.565 36.7946 182.657C36.7949 182.748 36.7075 183.057 36.6003 183.342C36.4931 183.627 36.4054 183.924 36.4054 184.002C36.4054 184.154 36.191 184.925 35.929 185.714C35.7721 186.187 35.7278 186.359 35.4128 187.724C35.3333 188.068 35.2431 188.391 35.2123 188.441C35.1595 188.526 34.9693 189.21 34.7274 190.183C34.6686 190.42 34.5508 190.841 34.4654 191.121C34.3801 191.4 34.2752 191.804 34.2324 192.019C34.0948 192.709 33.8511 193.65 33.7269 193.971C33.6605 194.143 33.6046 194.414 33.6028 194.574C33.6009 194.734 33.5485 195.015 33.4865 195.199C33.4244 195.383 33.3226 195.762 33.2604 196.041C33.1981 196.32 33.0926 196.689 33.0259 196.861C32.9593 197.033 32.9031 197.287 32.9013 197.425C32.8994 197.563 32.847 197.827 32.785 198.011C32.7229 198.195 32.6211 198.574 32.5588 198.853C32.4966 199.132 32.3911 199.501 32.3244 199.673C32.2577 199.845 32.2016 200.129 32.1997 200.304C32.1979 200.479 32.11 200.911 32.0043 201.265C31.7657 202.063 31.6768 202.95 31.7983 203.319C31.8474 203.468 32.0008 203.699 32.1393 203.834C32.385 204.072 33.5601 204.664 34.1839 204.865C34.3554 204.92 34.8816 205.148 35.3531 205.372C35.8247 205.596 36.3509 205.825 36.5223 205.881C36.6938 205.936 37.2639 206.186 37.7892 206.434C38.3145 206.683 38.9458 206.945 39.1922 207.016C39.4386 207.086 39.798 207.233 39.9909 207.341C40.1839 207.448 40.6925 207.676 41.1212 207.846C41.5499 208.016 42.1812 208.274 42.5242 208.419C42.8672 208.565 43.6564 208.881 44.278 209.121C44.8996 209.362 45.6888 209.678 46.0318 209.824C47.0025 210.237 48.8065 210.937 49.4365 211.146C49.7503 211.249 50.2378 211.439 50.5198 211.567C50.8018 211.695 51.4332 211.931 51.9228 212.092C52.4125 212.253 53.1113 212.517 53.4757 212.68C53.8401 212.842 54.2434 212.998 54.372 213.026C54.5007 213.054 54.9917 213.213 55.4633 213.379C55.9349 213.545 56.5136 213.739 56.7494 213.81C56.9852 213.882 57.599 214.108 58.1135 214.314C58.6279 214.52 59.3996 214.803 59.8283 214.944C60.257 215.085 60.9936 215.332 61.4652 215.492C62.6512 215.897 63.2883 216.093 63.6087 216.152C63.7587 216.18 64.3199 216.356 64.8558 216.544C65.3917 216.732 66.0932 216.961 66.4147 217.053C66.7363 217.145 67.4027 217.356 67.8957 217.521C68.3887 217.687 69.0026 217.875 69.2598 217.94C69.517 218.004 70.0256 218.152 70.39 218.267C70.7544 218.382 71.3156 218.54 71.6371 218.618C71.9587 218.695 72.5199 218.854 72.8843 218.969C73.2487 219.085 73.8103 219.238 74.1324 219.31C74.4544 219.382 74.7653 219.47 74.8232 219.505C74.9379 219.576 75.705 219.795 76.6257 220.019C76.9472 220.097 77.3506 220.215 77.5221 220.282C77.6936 220.348 77.9467 220.404 78.0845 220.406C78.2223 220.408 78.4854 220.461 78.6691 220.523C78.8528 220.585 79.2311 220.687 79.5097 220.749C79.7884 220.812 80.1567 220.917 80.3282 220.984C80.4996 221.051 80.7538 221.107 80.893 221.109C81.0321 221.111 81.3478 221.179 81.5945 221.26C82.1069 221.429 82.8769 221.632 83.446 221.748C83.6604 221.791 84.1532 221.912 84.5412 222.016C84.9293 222.121 85.3544 222.206 85.486 222.206C85.6174 222.206 85.9447 222.276 86.2131 222.362C86.4815 222.448 86.8016 222.518 86.9244 222.518C87.0473 222.518 87.35 222.589 87.5969 222.674C87.8439 222.76 88.3088 222.865 88.63 222.907C88.9512 222.95 89.3543 223.037 89.5258 223.1C89.6973 223.163 89.9805 223.216 90.1552 223.218C90.3298 223.22 90.7656 223.309 91.1237 223.417C91.4818 223.524 91.9219 223.612 92.1016 223.612C92.2814 223.612 92.6481 223.682 92.9165 223.768C93.1849 223.854 93.5691 223.924 93.7703 223.924C93.9715 223.924 94.4291 224.012 94.7872 224.12C95.1582 224.231 95.6419 224.316 95.9117 224.318C96.1721 224.32 96.5254 224.375 96.6969 224.44C96.8684 224.505 97.3608 224.587 97.7911 224.621C98.2819 224.661 98.674 224.736 98.8434 224.824C99.0277 224.92 99.3855 224.981 99.9722 225.018C100.445 225.047 100.917 225.117 101.022 225.173C101.127 225.23 101.617 225.303 102.111 225.337C102.687 225.376 103.171 225.456 103.457 225.559C103.795 225.682 104.097 225.722 104.704 225.724C105.233 225.726 105.611 225.769 105.817 225.848C106.006 225.922 106.571 225.994 107.259 226.033C108.088 226.079 108.508 226.14 108.835 226.26C109.211 226.398 109.458 226.424 110.403 226.424C111.279 226.424 111.626 226.455 111.984 226.569C112.327 226.677 112.804 226.726 113.888 226.762C115.025 226.8 115.44 226.845 115.828 226.969C116.27 227.11 116.528 227.127 118.327 227.127C120.173 227.127 120.373 227.14 120.831 227.294L121.328 227.462L131.071 227.463L140.814 227.464L141.312 227.295C141.768 227.14 141.968 227.127 143.737 227.127C145.47 227.127 145.716 227.11 146.163 226.966C146.546 226.843 146.984 226.792 148.063 226.746C149.02 226.706 149.529 226.653 149.661 226.578C149.793 226.505 150.259 226.455 151.103 226.423C152.11 226.386 152.403 226.349 152.623 226.231C152.82 226.126 153.156 226.069 153.832 226.026C154.346 225.994 154.907 225.913 155.079 225.848C155.262 225.777 155.65 225.726 156.02 225.724C156.484 225.722 156.796 225.669 157.207 225.526C157.577 225.396 157.932 225.33 158.263 225.33C158.546 225.33 158.971 225.263 159.249 225.174C159.517 225.088 159.919 225.018 160.142 225.018C160.373 225.018 160.786 224.934 161.104 224.823C161.411 224.715 161.816 224.627 162.004 224.627C162.192 224.627 162.566 224.557 162.834 224.471C163.103 224.385 163.467 224.314 163.643 224.314C163.82 224.313 164.238 224.225 164.572 224.119C164.906 224.012 165.313 223.924 165.477 223.924C165.642 223.924 165.996 223.854 166.264 223.768C166.532 223.682 166.826 223.613 166.917 223.613C167.008 223.614 167.363 223.529 167.706 223.423C168.049 223.318 168.505 223.197 168.719 223.154C169.647 222.968 170.555 222.698 173.396 221.765C174.639 221.357 175.849 220.924 176.085 220.805C176.321 220.685 176.707 220.526 176.943 220.45C177.453 220.287 181.297 218.408 181.719 218.116C181.881 218.004 182.302 217.747 182.655 217.546C183.506 217.061 184.492 216.411 185.183 215.882C185.946 215.297 186.969 214.526 187.348 214.251C187.52 214.126 187.958 213.752 188.323 213.418C188.687 213.085 189.126 212.726 189.297 212.62C189.674 212.388 191.644 210.387 192.085 209.788C192.26 209.551 192.66 209.085 192.975 208.752C193.29 208.419 193.675 207.947 193.831 207.703C193.987 207.459 194.311 207.046 194.552 206.786C194.792 206.525 195.194 205.996 195.445 205.609C195.696 205.222 196.086 204.625 196.312 204.281C196.539 203.938 196.822 203.481 196.942 203.266C197.062 203.051 197.294 202.675 197.457 202.43C197.621 202.186 198.277 200.938 198.915 199.658C200.125 197.229 200.51 196.396 200.605 196.002C200.635 195.873 200.777 195.534 200.919 195.249C201.061 194.964 201.219 194.563 201.271 194.359C201.322 194.155 201.467 193.72 201.592 193.394C201.717 193.067 201.886 192.571 201.966 192.292C202.046 192.013 202.204 191.468 202.316 191.082C202.428 190.695 202.556 190.203 202.601 189.988C202.646 189.773 202.767 189.323 202.869 188.987C202.971 188.652 203.055 188.296 203.055 188.197C203.055 188.098 203.125 187.797 203.211 187.528C203.296 187.259 203.366 186.824 203.366 186.561C203.366 186.298 203.438 185.837 203.525 185.536C203.613 185.235 203.716 184.568 203.754 184.052C203.793 183.537 203.881 182.96 203.95 182.77C204.062 182.464 204.076 181.769 204.076 176.571C204.075 170.984 204.068 170.693 203.922 170.199C203.828 169.879 203.752 169.323 203.725 168.744C203.697 168.164 203.62 167.598 203.523 167.26C203.423 166.912 203.365 166.472 203.363 166.049C203.361 165.667 203.311 165.253 203.245 165.073C203.182 164.901 203.094 164.479 203.049 164.136C203.005 163.792 202.9 163.287 202.817 163.015C202.733 162.741 202.663 162.285 202.661 161.999C202.66 161.714 202.603 161.34 202.537 161.168C202.47 160.996 202.38 160.68 202.336 160.465C202.292 160.25 202.19 159.849 202.11 159.573C202.029 159.297 201.963 158.972 201.963 158.851C201.963 158.729 201.896 158.428 201.813 158.181C201.731 157.933 201.64 157.608 201.613 157.458C201.585 157.307 201.495 156.982 201.412 156.735C201.329 156.488 201.26 156.172 201.258 156.032C201.257 155.893 201.201 155.638 201.134 155.466C201.068 155.294 200.95 154.89 200.872 154.568C200.656 153.673 200.51 153.185 200.241 152.459C200.106 152.094 199.931 151.567 199.852 151.288C199.773 151.008 199.551 150.323 199.358 149.765C198.282 146.648 198.151 146.299 197.35 144.414C197.176 144.006 196.949 143.462 196.844 143.204C196.167 141.533 192.784 134.724 192.342 134.144C192.242 134.012 191.959 133.536 191.713 133.087C191.216 132.178 191.227 132.195 189.608 129.731C188.282 127.713 188.314 127.761 187.815 127.036C187.608 126.736 187.306 126.291 187.143 126.048C186.98 125.806 186.705 125.442 186.531 125.241C186.357 125.039 186.147 124.741 186.064 124.579C185.981 124.417 185.743 124.095 185.535 123.864C185.327 123.633 185.071 123.303 184.968 123.131C184.864 122.959 184.555 122.574 184.281 122.275C184.007 121.976 183.697 121.595 183.592 121.428C183.487 121.261 183.054 120.755 182.63 120.305C182.206 119.855 181.728 119.287 181.567 119.044C180.992 118.173 173.229 110.359 172.204 109.619C171.966 109.447 171.487 109.057 171.14 108.752C170.792 108.448 170.351 108.099 170.159 107.978C169.968 107.857 169.635 107.608 169.421 107.426C169.206 107.243 168.643 106.833 168.168 106.514C167.693 106.195 167.202 105.865 167.077 105.779C166.951 105.694 166.585 105.455 166.264 105.248C165.942 105.042 165.451 104.722 165.173 104.537C164.549 104.125 163.713 103.722 163.477 103.722C163.353 103.722 163.302 103.768 163.302 103.882Z" fill="#2E56F6"/>
<path d="M0 338.092H1.45048C10.8359 338.092 14.7607 333.841 15.102 322.956L16.1259 286.987H24.3168V338.007H33.8729V278.484H7.3377L5.8019 323.466C5.63126 328.994 4.2661 329.589 0 329.589V338.092Z" fill="#0A143D"/>
<path d="M58.5476 310.712L62.3871 296.086V338.007H70.834V278.484H60.51L52.831 303.059L49.4181 316.154V278.484H41.0566V338.007H50.698L58.5476 310.712Z" fill="#0A143D"/>
<path d="M86.8539 312.497H97.5191V338.007H107.075V278.484H97.5191V303.994H86.8539V278.484H77.4684V338.007H86.8539V312.497Z" fill="#0A143D"/>
<path d="M123.266 286.987H139.477V278.484H113.88V338.007H139.477V329.504H123.266V312.072H136.149V303.569H123.266V286.987Z" fill="#0A143D"/>
<path d="M154.934 338.007H145.293V278.484H153.654V316.154L157.067 303.059L164.746 278.484H175.07V338.007H166.623V296.086L162.784 310.712L154.934 338.007ZM164.576 265.219C164.32 268.365 162.869 269.13 160.309 269.13C157.835 269.13 156.555 268.365 156.299 265.219H150.497C150.668 271.001 153.74 274.657 160.309 274.657C166.965 274.657 170.292 271.001 170.292 265.219H164.576Z" fill="#0A143D"/>
<path d="M226.239 278.484H216.853V329.504H208.748V278.484H199.362V329.504H191.257V278.484H181.871V338.007H221.29V346H230.42V329.674H226.239V278.484Z" fill="#0A143D"/>
<path d="M253.022 310.712L256.861 296.086V338.007H265.308V278.484H254.984L247.305 303.059L243.892 316.154V278.484H235.531V338.007H245.172L253.022 310.712Z" fill="#0A143D"/>
<path d="M293.359 338.007H303L289.946 305.014L303 278.484H293.615L281.328 304.419V278.484H271.943V338.007H281.328V319.725L284.229 314.283L293.359 338.007Z" fill="#0A143D"/>
</svg>
